<svg width="40" height="41" viewBox="0 0 40 41" fill="none" xmlns="http://www.w3.org/2000/svg">
    <path fill-rule="evenodd" clip-rule="evenodd"
        d="M14.3892 9.44115C10.9659 9.44115 8.07422 12.0961 8.07422 15.2378V18.1178C9.18422 16.3228 11.1176 14.5128 14.3892 14.5128H24.9159C25.3042 14.5128 25.6176 14.8378 25.6176 15.2378V17.2228L31.5926 11.6145L25.6176 6.00781V8.71615C25.6176 9.11615 25.3042 9.44115 24.9159 9.44115H14.3892ZM7.3713 22.4852C7.3513 22.4852 7.32964 22.4835 7.30964 22.4818C6.94797 22.4502 6.66797 22.1368 6.66797 21.7602V15.2385C6.66797 11.3118 10.2046 7.99182 14.388 7.99182H24.213V4.37015C24.213 4.08182 24.3763 3.82349 24.6313 3.70682C24.8846 3.59015 25.1813 3.64015 25.3863 3.83349L33.1063 11.0802C33.2513 11.2168 33.3346 11.4118 33.3346 11.6152C33.3346 11.8202 33.2513 12.0135 33.1063 12.1518L25.3863 19.3985C25.1813 19.5918 24.8846 19.6402 24.6313 19.5252C24.3763 19.4085 24.213 19.1485 24.213 18.8618V15.9635H14.388C9.11964 15.9635 8.10297 21.6418 8.0613 21.8835C8.00297 22.2335 7.70797 22.4852 7.3713 22.4852Z"
        fill="#FFCB05" />
    <path fill-rule="evenodd" clip-rule="evenodd"
        d="M25.6148 31.1786C29.0382 31.1786 31.9298 28.5236 31.9298 25.382V22.502C30.8198 24.297 28.8865 26.107 25.6148 26.107H15.7898C15.4032 26.107 15.0882 25.782 15.0882 25.382V23.3053L8.46484 29.0053L15.0882 34.7036V31.9036C15.0882 31.5036 15.4032 31.1786 15.7898 31.1786H25.6148ZM31.9413 18.7382C32.003 18.3665 32.3313 18.1049 32.693 18.1399C33.0546 18.1715 33.3346 18.4849 33.3346 18.8615V25.3832C33.3346 29.3099 29.7996 32.6282 25.6146 32.6282H16.4913V36.2515C16.4913 36.5332 16.3346 36.7899 16.088 36.9082C15.993 36.9549 15.8913 36.9765 15.7896 36.9765C15.6296 36.9765 15.4696 36.9199 15.3413 36.8082L6.91964 29.5632C6.75964 29.4249 6.66797 29.2215 6.66797 29.0065C6.66797 28.7899 6.75964 28.5865 6.91964 28.4499L15.3413 21.2032C15.5496 21.0232 15.8413 20.9849 16.088 21.1032C16.3346 21.2232 16.4913 21.4782 16.4913 21.7599V24.6582H25.6146C30.883 24.6582 31.8996 18.9799 31.9413 18.7382Z"
        fill="#FFCB05" />
</svg>
    