<svg width="40" height="41" viewBox="0 0 40 41" fill="none" xmlns="http://www.w3.org/2000/svg">
    <path
        d="M3.33398 34.7814C3.57122 34.2702 3.92097 33.9058 4.56747 33.8977C4.56747 33.6286 4.56176 33.3832 4.56828 33.1379C4.58785 32.4693 5.0501 31.9949 5.71861 31.9737C6.17107 31.959 6.62517 31.9712 7.12166 31.9712C7.12166 31.659 7.12084 31.3802 7.12166 31.1022C7.12492 30.4231 7.33444 30.1434 8.01926 29.9388C8.01926 29.7032 8.01926 29.457 8.01926 29.2116C8.01926 28.5488 8.1448 28.3132 8.49944 28.3075C8.86631 28.3018 8.99675 28.5439 8.99675 29.2287C8.99675 29.4562 8.99675 29.6836 8.99675 29.9363H10.5384V20.0359H8.99675C8.99675 20.1525 8.99675 20.2674 8.99675 20.3824C8.99675 22.3349 8.99675 24.2874 8.99675 26.24C8.99675 26.3484 9.0049 26.4601 8.98207 26.5636C8.92745 26.8147 8.76766 26.9696 8.50433 26.9672C8.24182 26.9647 8.08285 26.809 8.03311 26.5563C8.01029 26.4405 8.02007 26.3182 8.02007 26.1992C8.02007 24.1497 8.02007 22.1001 8.02007 20.0563C7.25618 19.7538 7.12248 19.5573 7.12248 18.7453C7.12248 18.5097 7.12248 18.2749 7.12248 18.0043C6.68387 18.0043 6.28521 18.0083 5.88655 18.0035C5.20336 17.9953 4.84547 17.6366 4.83813 16.9567C4.83487 16.677 4.83813 16.3982 4.83813 16.1047C4.54953 16.0868 4.29109 16.0892 4.03755 16.0517C3.64052 15.9922 3.42529 15.7591 3.38942 15.358C3.36823 15.1207 3.38779 14.881 3.3723 14.643C3.34295 14.1856 3.55003 13.8986 3.95358 13.6891C6.06917 12.5918 8.1766 11.4798 10.2873 10.3727C13.3665 8.75684 16.4498 7.14915 19.5225 5.52109C20.0231 5.25532 20.4633 5.23004 20.9565 5.52353C21.5892 5.90018 22.2479 6.23199 22.8968 6.58092C23.1096 6.69506 23.2751 6.83691 23.2588 7.10676C23.2368 7.48504 22.8675 7.66521 22.4843 7.46466C21.8215 7.11899 21.1628 6.76517 20.5122 6.39667C20.3076 6.28091 20.156 6.28987 19.9505 6.3983C14.8601 9.07723 9.76716 11.7513 4.66856 14.4131C4.36202 14.5729 4.29517 14.7612 4.39219 15.08H35.6075C35.7004 14.7587 35.6295 14.5663 35.3148 14.3976C31.81 12.5192 28.315 10.6238 24.8184 8.73238C24.714 8.67613 24.6064 8.61987 24.5143 8.5465C24.3081 8.38426 24.2542 8.16985 24.3765 7.93914C24.5005 7.70597 24.7149 7.64401 24.9611 7.71494C25.0638 7.74429 25.1584 7.80299 25.2537 7.85435C28.8368 9.79221 32.4174 11.735 36.0061 13.6622C36.4415 13.8962 36.6673 14.197 36.6257 14.6927C36.6119 14.8541 36.6266 15.018 36.6225 15.181C36.607 15.7868 36.3265 16.0664 35.7175 16.0819C35.5455 16.086 35.3743 16.0819 35.1599 16.0819C35.1599 16.3958 35.1632 16.6852 35.1599 16.9738C35.1501 17.6325 34.789 17.9929 34.1254 18.0018C33.7259 18.0075 33.3264 18.0026 32.8756 18.0026C32.8756 18.2839 32.8756 18.5391 32.8756 18.7943C32.8748 19.5541 32.7044 19.7946 31.9869 20.0383V29.9209C32.728 30.2029 32.8748 30.4149 32.8756 31.1975C32.8756 31.4356 32.8756 31.6728 32.8756 31.9655C33.2596 31.9655 33.6223 31.9655 33.9859 31.9655C35.0181 31.9655 35.4306 32.3748 35.4314 33.3963C35.4314 33.5479 35.4314 33.6987 35.4314 33.8618C35.5162 33.8838 35.5871 33.9075 35.6597 33.9205C36.2426 34.0232 36.6323 34.4472 36.6584 35.0309C36.673 35.3668 36.6722 35.7035 36.66 36.0393C36.6429 36.5236 36.3649 36.7878 35.8749 36.8073C35.7991 36.8106 35.7233 36.8081 35.6474 36.8081C25.2122 36.8081 14.7769 36.8065 4.34245 36.8138C3.88836 36.8138 3.5378 36.707 3.33643 36.2758V34.779L3.33398 34.7814ZM11.5558 20.0261V29.9437C12.2235 30.1434 12.4339 30.4239 12.4363 31.1022C12.4371 31.3802 12.4363 31.6582 12.4363 31.9427H13.9421C13.9421 31.681 13.9421 31.4429 13.9421 31.2049C13.9421 30.4019 14.0766 30.2054 14.8258 29.9241V20.0481C14.0766 19.7636 13.9421 19.5679 13.9421 18.769C13.9421 18.5236 13.9421 18.2782 13.9421 18.0312H12.4363C12.4363 18.3279 12.4371 18.5978 12.4363 18.8676C12.4339 19.5492 12.2219 19.8329 11.5558 20.0261V20.0261ZM28.4398 29.9437V20.0261C27.7737 19.8321 27.5626 19.55 27.5593 18.8684C27.5585 18.5904 27.5593 18.3124 27.5593 18.0035H26.0535C26.0535 18.2904 26.0535 18.5285 26.0535 18.7665C26.0535 19.5679 25.9174 19.766 25.1698 20.0465V29.9225C25.9206 30.2095 26.0535 30.4035 26.0535 31.2033C26.0535 31.4486 26.0535 31.694 26.0535 31.9402H27.5593C27.5593 31.6435 27.5585 31.3736 27.5593 31.103C27.5617 30.4239 27.7721 30.1426 28.4398 29.9437ZM18.3779 20.0269V29.9437C19.0423 30.1532 19.2339 30.4116 19.238 31.0834C19.2396 31.3712 19.238 31.6598 19.238 31.9484H20.756C20.756 31.6737 20.756 31.4168 20.756 31.16C20.7576 30.4092 20.9158 30.1826 21.6234 29.9339V20.0343C20.9313 19.8052 20.7584 19.5639 20.756 18.8407C20.756 18.5733 20.756 18.3067 20.756 18.0304H19.238C19.238 18.3353 19.2396 18.6149 19.238 18.8945C19.2331 19.5622 19.0374 19.8223 18.3779 20.0269ZM35.6841 35.8209C35.6841 35.7198 35.6841 35.6562 35.6841 35.5926C35.6896 35.1176 35.4578 34.8801 34.9887 34.8801C24.9692 34.8801 14.9497 34.8801 4.93025 34.8801C4.80063 34.8801 4.6604 34.8564 4.54301 34.8955C4.4517 34.9265 4.3343 35.0317 4.3237 35.1165C4.29354 35.3464 4.31311 35.5828 4.31311 35.8209H35.6841V35.8209ZM34.4515 33.8863C34.4515 33.7632 34.4515 33.6776 34.4515 33.5928C34.4547 33.1623 34.246 32.9471 33.8253 32.9471C24.6717 32.9471 15.5172 32.9455 6.36347 32.9495C5.48218 32.9495 5.52539 32.7669 5.55392 33.8219C5.55392 33.8398 5.57594 33.8577 5.5955 33.8863H34.4515V33.8863ZM5.82785 16.9958H34.158V16.1064H5.82785V16.9958ZM17.3515 29.951V20.0318H15.8441V29.951H17.3515ZM24.1548 29.951V20.0302H22.6425V29.951H24.1548ZM29.4613 20.018V29.9429H30.9736V20.018H29.4613V20.018ZM11.4425 18.0328H8.11709V19.0111H11.4417V18.0328H11.4425ZM31.8793 18.0263H28.5596V19.0062H31.8793V18.0263ZM11.4417 30.9587H8.12361V31.9378H11.4417V30.9587ZM28.5547 31.9435H31.8736V30.9644H28.5547V31.9435ZM14.931 19.0062H18.2303V18.0263H14.931V19.0062ZM25.0491 19.0168V18.0287H21.7588V19.0168H25.0491ZM14.9294 31.9468H18.2409V30.9619H14.9294V31.9468ZM21.753 31.9435H25.0556V30.966H21.753V31.9435Z"
        fill="currentColor" />
</svg>
    