<svg width="40" height="41" viewBox="0 0 40 41" fill="none" xmlns="http://www.w3.org/2000/svg">
    <path fill-rule="evenodd" clip-rule="evenodd"
        d="M30.2096 34.449C30.2096 35.2836 29.5551 35.9635 28.7518 35.9635H11.2513C10.4462 35.9635 9.79173 35.2836 9.79173 34.449V7.17731C9.79173 6.34279 10.4462 5.66282 11.2513 5.66282H23.3424L30.2096 12.7935V34.449ZM24.1597 4.37011C24.0232 4.22648 23.8377 4.14648 23.6435 4.14648H11.2513C9.64303 4.14648 8.33398 5.50643 8.33398 7.17728V34.449C8.33398 36.1199 9.64303 37.4798 11.2513 37.4798H28.7519C30.3602 37.4798 31.6675 36.1199 31.6675 34.449V12.4807C31.6675 12.2789 31.5905 12.0862 31.454 11.9444L24.1597 4.37011Z"
        fill="currentColor" />
    <path fill-rule="evenodd" clip-rule="evenodd"
        d="M17.086 21.5098H14.1687V19.3223C14.1687 18.9198 14.4959 18.5925 14.8985 18.5925H17.086V21.5098ZM18.5437 21.5098H21.461V18.5925H18.5437V21.5098ZM22.9187 18.5925H25.1062C25.5088 18.5925 25.836 18.9198 25.836 19.3223V21.5098H22.9187V18.5925ZM25.8363 30.9898C25.8363 31.3923 25.509 31.7178 25.1065 31.7178H22.919V28.0724C22.919 27.6699 22.5934 27.3426 22.1909 27.3426H14.1687V22.9675H25.8363V30.9898ZM18.5437 31.7176H21.461V28.8002H18.5437V31.7176ZM17.086 31.7176H14.8985C14.4959 31.7176 14.1687 31.3921 14.1687 30.9896V28.802H17.086V31.7176ZM12.7109 19.3223V30.9899C12.7109 32.1957 13.6927 33.1775 14.8985 33.1775H25.1066C26.3141 33.1775 27.2941 32.1957 27.2941 30.9899V19.3223C27.2941 18.1165 26.3141 17.1348 25.1066 17.1348H14.8985C13.6927 17.1348 12.7109 18.1165 12.7109 19.3223Z"
        fill="currentColor" />
</svg>
    