<svg width="40" height="41" viewBox="0 0 40 41" fill="none" xmlns="http://www.w3.org/2000/svg">
    <ellipse cx="19.9219" cy="34.8667" rx="2.57812" ry="2.61283" fill="currentColor" />
    <path
        d="M39.5805 12.8056C34.4454 7.22178 27.4917 4.14656 19.9997 4.14648C12.5083 4.14656 5.55466 7.22178 0.419429 12.8056C-0.168851 13.4453 -0.134086 14.4474 0.497163 15.0436C1.12849 15.6398 2.11716 15.6047 2.70552 14.9649C7.24301 10.0309 13.3849 7.31363 20.0003 7.31355C26.6151 7.31363 32.757 10.0309 37.2945 14.9649C37.6022 15.2995 38.0194 15.4687 38.4378 15.4687C38.8193 15.4687 39.2017 15.328 39.5028 15.0436C40.1341 14.4473 40.1689 13.4453 39.5805 12.8056Z"
        fill="currentColor" />
    <path
        d="M33.8434 19.3463C30.0475 15.4703 25.1312 13.3358 20 13.3359C14.8676 13.336 9.95117 15.4706 6.15649 19.3465C5.54867 19.9673 5.5525 20.9699 6.16508 21.5859C6.77766 22.2019 7.76695 22.198 8.37476 21.5772C11.5783 18.3051 15.7069 16.5031 20 16.503C24.292 16.5028 28.4206 18.305 31.6253 21.5773C31.9307 21.8892 32.3325 22.0454 32.7343 22.0454C33.1321 22.0454 33.5303 21.8922 33.8351 21.5857C34.4475 20.9697 34.4513 19.9671 33.8434 19.3463Z"
        fill="currentColor" />
    <path
        d="M27.5898 25.9027C25.557 23.8616 22.6432 22.5938 19.9852 22.5938C19.9849 22.5938 19.9844 22.5938 19.9841 22.5938H19.8715C19.871 22.5938 19.8708 22.5938 19.8703 22.5938C17.2123 22.5938 14.2982 23.8617 12.2655 25.9027C11.6525 26.5182 11.6479 27.5208 12.2553 28.1421C12.5608 28.4546 12.963 28.6112 13.3652 28.6112C13.7627 28.6112 14.1602 28.4584 14.4649 28.1526C15.912 26.6995 18.0336 25.7608 19.8705 25.7608C19.8707 25.7608 19.871 25.7608 19.8713 25.7608H19.9843C19.9846 25.7608 19.9847 25.7608 19.985 25.7608C21.8216 25.7608 23.9434 26.6996 25.3904 28.1526C26.0034 28.768 26.9928 28.7636 27.6001 28.1421C28.2075 27.5209 28.2029 26.5182 27.5898 25.9027Z"
        fill="currentColor" />
</svg>
    