<svg width="40" height="41" viewBox="0 0 40 41" fill="none" xmlns="http://www.w3.org/2000/svg">
    <path fill-rule="evenodd" clip-rule="evenodd"
        d="M35.3631 15.9954C35.3631 17.0721 34.4864 17.9488 33.4097 17.9488H31.5381C31.3664 17.9488 31.2014 18.0171 31.0797 18.1388L29.6331 19.5788V18.6004C29.6331 18.2404 29.3431 17.9488 28.9831 17.9488H22.6031C21.5264 17.9488 20.6497 17.0721 20.6497 15.9954V10.0054C20.6497 8.92875 21.5264 8.05208 22.6031 8.05208H33.4097C34.4864 8.05208 35.3631 8.92875 35.3631 10.0054V15.9954ZM33.411 6.75H22.6043C20.8093 6.75 19.3477 8.21 19.3477 10.005V15.995C19.3477 17.79 20.8093 19.25 22.6043 19.25H28.3327V21.1467C28.3327 21.4083 28.491 21.6467 28.7343 21.7467C28.8143 21.78 28.8993 21.7967 28.9843 21.7967C29.1527 21.7967 29.3193 21.7317 29.4443 21.6067L31.8093 19.25H33.411C35.206 19.25 36.666 17.79 36.666 15.995V10.005C36.666 8.21 35.206 6.75 33.411 6.75Z"
        fill="currentColor" />
    <path fill-rule="evenodd" clip-rule="evenodd"
        d="M34.3553 33.1674C34.3187 33.2041 34.282 33.2391 34.2453 33.2758C34.232 33.2608 34.2203 33.2458 34.2053 33.2325L26.8053 25.8324L26.912 25.7241C27.562 25.0758 28.4237 24.7174 29.342 24.7174C30.2603 24.7174 31.1237 25.0758 31.772 25.7241L34.3553 28.3074C35.0053 28.9558 35.362 29.8191 35.362 30.7374C35.362 31.6558 35.0053 32.5191 34.3553 33.1674ZM21.1448 34.2833C15.4682 30.2599 10.5498 25.3416 6.52484 19.6649C3.61818 15.5633 4.08818 10.0083 7.64318 6.45328C8.29151 5.80495 9.15484 5.44661 10.0732 5.44661C10.9898 5.44661 11.8532 5.80495 12.5032 6.45328L15.0848 9.03661C15.7348 9.68661 16.0915 10.5499 16.0915 11.4666C16.0915 12.3849 15.7348 13.2483 15.0848 13.8966L14.9782 14.0049L10.7348 9.76161C10.4815 9.50661 10.0682 9.50661 9.81484 9.76161C9.55984 10.0149 9.55984 10.4283 9.81484 10.6816L14.0565 14.9249L13.3465 15.6349C12.1932 16.7899 12.1115 18.6033 13.1565 19.8566C15.5098 22.6766 18.1332 25.2999 20.9532 27.6516C22.2048 28.6966 24.0198 28.6166 25.1732 27.4616L25.8832 26.7516L33.2548 34.1233C29.7248 36.7799 24.8432 36.9049 21.1448 34.2833ZM32.6947 24.8029C30.8464 22.9545 27.8397 22.9545 25.993 24.8029L24.253 26.5412C23.5797 27.2145 22.5197 27.2629 21.788 26.6529C19.028 24.3495 16.4614 21.7812 14.158 19.0212C13.548 18.2895 13.5947 17.2295 14.2697 16.5562L16.008 14.8179C17.8547 12.9695 17.8547 9.96286 16.008 8.1162L13.4247 5.53286C12.5297 4.63786 11.3397 4.14453 10.0747 4.14453C8.80802 4.14453 7.61802 4.63786 6.72302 5.53286C4.79302 7.46286 3.60302 10.0245 3.37302 12.7445C3.14302 15.4645 3.88636 18.1895 5.46469 20.4162C9.57302 26.2145 14.5964 31.2362 20.393 35.3462C22.3547 36.7362 24.703 37.4779 27.093 37.4779C27.4164 37.4779 27.7414 37.4645 28.0647 37.4379C30.7864 37.2079 33.3464 36.0179 35.2764 34.0879C36.1714 33.1929 36.6647 32.0012 36.6647 30.7362C36.6647 29.4712 36.1714 28.2812 35.2764 27.3845L32.6947 24.8029Z"
        fill="currentColor" />
    <path fill-rule="evenodd" clip-rule="evenodd"
        d="M31.1654 12.3485C30.9937 12.3485 30.8254 12.4185 30.7054 12.5385C30.5837 12.6602 30.5137 12.8285 30.5137 13.0002C30.5137 13.1702 30.5837 13.3385 30.7054 13.4602C30.8254 13.5802 30.9937 13.6502 31.1654 13.6502C31.337 13.6502 31.5054 13.5802 31.6254 13.4602C31.747 13.3385 31.817 13.1702 31.817 13.0002C31.817 12.8285 31.747 12.6602 31.6254 12.5385C31.5054 12.4185 31.337 12.3485 31.1654 12.3485Z"
        fill="currentColor" />
    <path fill-rule="evenodd" clip-rule="evenodd"
        d="M28.0111 12.3485C27.8394 12.3485 27.6711 12.4185 27.5511 12.5385C27.4294 12.6602 27.3594 12.8285 27.3594 13.0002C27.3594 13.1702 27.4294 13.3385 27.5511 13.4602C27.6727 13.5802 27.8394 13.6502 28.0111 13.6502C28.1827 13.6502 28.3511 13.5802 28.4711 13.4602C28.5927 13.3385 28.6627 13.1702 28.6627 13.0002C28.6627 12.8285 28.5927 12.6602 28.4711 12.5385C28.3511 12.4185 28.1827 12.3485 28.0111 12.3485Z"
        fill="currentColor" />
    <path fill-rule="evenodd" clip-rule="evenodd"
        d="M24.8568 12.3485C24.6851 12.3485 24.5184 12.4185 24.3968 12.5385C24.2751 12.6602 24.2051 12.8285 24.2051 13.0002C24.2051 13.1702 24.2751 13.3385 24.3968 13.4602C24.5184 13.5802 24.6851 13.6502 24.8568 13.6502C25.0284 13.6502 25.1968 13.5802 25.3168 13.4602C25.4384 13.3385 25.5084 13.1702 25.5084 13.0002C25.5084 12.8285 25.4384 12.6602 25.3168 12.5385C25.1968 12.4185 25.0284 12.3485 24.8568 12.3485Z"
        fill="currentColor" />
</svg>
    