<svg width="40" height="41" viewBox="0 0 40 41" fill="none" xmlns="http://www.w3.org/2000/svg">
    <path fill-rule="evenodd" clip-rule="evenodd"
        d="M28.3126 16.3681C28.514 16.3681 28.6651 16.4737 28.7658 16.6847C28.8666 16.8958 28.8162 17.1069 28.7155 17.2653L12.5997 37.3208C12.499 37.4264 12.3479 37.4792 12.1968 37.4792C12.096 37.4792 11.9953 37.4792 11.945 37.4264C11.7435 37.2681 11.6428 37.0042 11.7435 36.7931L17.384 22.7014H12.1968C12.0457 22.7014 11.8443 22.5958 11.7435 22.4375C11.6428 22.2792 11.6428 22.0681 11.7435 21.9097L19.2978 6.07641C19.3986 5.91808 19.5496 5.8125 19.7511 5.8125H27.809C28.0104 5.8125 28.1615 5.91808 28.2622 6.07641C28.363 6.23474 28.363 6.44583 28.2622 6.60417L22.3699 16.3681H28.3126ZM18.5928 22.3311L13.9595 33.9422L27.2551 17.4227H21.4131C21.2116 17.4227 21.0606 17.3171 20.9598 17.1588C20.8591 17.0005 20.8591 16.7894 20.9598 16.631L26.9025 6.86719H20.0533L13.0026 21.645H18.1395C18.2906 21.645 18.4417 21.7505 18.5424 21.8561C18.6431 22.0144 18.6431 22.1728 18.5928 22.3311Z"
        fill="#FFCB05" />
</svg>
    