<svg width="40" height="41" viewBox="0 0 40 41" fill="none" xmlns="http://www.w3.org/2000/svg">
    <path fill-rule="evenodd" clip-rule="evenodd"
        d="M40 20.8125C40 31.8583 31.0458 40.8125 20 40.8125C8.95417 40.8125 0 31.8583 0 20.8125C0 9.76667 8.95417 0.8125 20 0.8125C31.0458 0.8125 40 9.76667 40 20.8125Z"
        fill="#FFCB05" />
    <path fill-rule="evenodd" clip-rule="evenodd"
        d="M14.3744 18.7286C12.4186 18.7286 10.8327 17.1427 10.8327 15.1869C10.8327 13.2311 12.4186 11.6452 14.3744 11.6452C16.3302 11.6452 17.9161 13.2311 17.9161 15.1869C17.9161 17.1427 16.3302 18.7286 14.3744 18.7286ZM14.375 10.1875C11.6137 10.1875 9.375 12.4262 9.375 15.1875C9.375 17.9487 11.6137 20.1875 14.375 20.1875C17.1362 20.1875 19.375 17.9487 19.375 15.1875C19.375 12.4262 17.1362 10.1875 14.375 10.1875Z"
        fill="#004F72" />
    <path fill-rule="evenodd" clip-rule="evenodd"
        d="M16.6654 15.1862C16.6654 16.452 15.6395 17.4779 14.3737 17.4779C13.1079 17.4779 12.082 16.452 12.082 15.1862C12.082 13.9204 13.1079 12.8945 14.3737 12.8945C15.6395 12.8945 16.6654 13.9204 16.6654 15.1862Z"
        fill="#004F72" />
    <path fill-rule="evenodd" clip-rule="evenodd"
        d="M25.2084 18.7286C23.2526 18.7286 21.6667 17.1427 21.6667 15.1869C21.6667 13.2311 23.2526 11.6452 25.2084 11.6452C27.1642 11.6452 28.7501 13.2311 28.7501 15.1869C28.7501 17.1427 27.1642 18.7286 25.2084 18.7286ZM25.209 10.1875C22.4477 10.1875 20.209 12.4262 20.209 15.1875C20.209 17.9487 22.4477 20.1875 25.209 20.1875C27.9702 20.1875 30.209 17.9487 30.209 15.1875C30.209 12.4262 27.9702 10.1875 25.209 10.1875Z"
        fill="#004F72" />
    <path fill-rule="evenodd" clip-rule="evenodd"
        d="M27.5013 15.1862C27.5013 16.452 26.4755 17.4779 25.2096 17.4779C23.9438 17.4779 22.918 16.452 22.918 15.1862C22.918 13.9204 23.9438 12.8945 25.2096 12.8945C26.4755 12.8945 27.5013 13.9204 27.5013 15.1862Z"
        fill="#004F72" />
    <path fill-rule="evenodd" clip-rule="evenodd"
        d="M25 23.9375C25 24.9729 24.1604 25.8125 23.125 25.8125C22.0896 25.8125 21.25 24.9729 21.25 23.9375C21.25 22.9021 22.0896 22.0625 23.125 22.0625C24.1604 22.0625 25 22.9021 25 23.9375Z"
        fill="#004F72" />
    <path fill-rule="evenodd" clip-rule="evenodd"
        d="M25 28.5195C25 29.5549 24.1604 30.3945 23.125 30.3945C22.0896 30.3945 21.25 29.5549 21.25 28.5195C21.25 27.4841 22.0896 26.6445 23.125 26.6445C24.1604 26.6445 25 27.4841 25 28.5195Z"
        fill="#004F72" />
    <path fill-rule="evenodd" clip-rule="evenodd"
        d="M29.582 23.9375C29.582 24.9729 28.7424 25.8125 27.707 25.8125C26.6716 25.8125 25.832 24.9729 25.832 23.9375C25.832 22.9021 26.6716 22.0625 27.707 22.0625C28.7424 22.0625 29.582 22.9021 29.582 23.9375Z"
        fill="#004F72" />
    <path fill-rule="evenodd" clip-rule="evenodd"
        d="M29.582 28.5195C29.582 29.5549 28.7424 30.3945 27.707 30.3945C26.6716 30.3945 25.832 29.5549 25.832 28.5195C25.832 27.4841 26.6716 26.6445 27.707 26.6445C28.7424 26.6445 29.582 27.4841 29.582 28.5195Z"
        fill="#004F72" />
    <path fill-rule="evenodd" clip-rule="evenodd"
        d="M14.3744 29.9786C12.4186 29.9786 10.8327 28.3927 10.8327 26.4369C10.8327 24.4811 12.4186 22.8952 14.3744 22.8952C16.3302 22.8952 17.9161 24.4811 17.9161 26.4369C17.9161 28.3927 16.3302 29.9786 14.3744 29.9786ZM14.375 21.4375C11.6137 21.4375 9.375 23.6762 9.375 26.4375C9.375 29.1987 11.6137 31.4375 14.375 31.4375C17.1362 31.4375 19.375 29.1987 19.375 26.4375C19.375 23.6762 17.1362 21.4375 14.375 21.4375Z"
        fill="#004F72" />
    <path fill-rule="evenodd" clip-rule="evenodd"
        d="M16.6654 26.4362C16.6654 27.702 15.6395 28.7279 14.3737 28.7279C13.1079 28.7279 12.082 27.702 12.082 26.4362C12.082 25.1704 13.1079 24.1445 14.3737 24.1445C15.6395 24.1445 16.6654 25.1704 16.6654 26.4362Z"
        fill="#004F72" />
</svg>
    