<svg width="40" height="41" viewBox="0 0 40 41" fill="none" xmlns="http://www.w3.org/2000/svg">
    <g clip-path="url(#clip0_0_28586)">
        <path fill-rule="evenodd" clip-rule="evenodd"
            d="M14.2722 17.7014V17.7156C14.2224 17.6801 14.1016 17.6445 14.1016 17.6445V21.4333C14.9404 21.1419 15.4308 20.4097 15.5517 19.7273C15.6228 19.3719 15.7081 18.1919 14.2722 17.6943V17.7014Z"
            fill="currentColor" />
        <path fill-rule="evenodd" clip-rule="evenodd"
            d="M11.421 13.572C11.3002 14.1193 11.5063 14.6951 11.9186 15.0079H11.9328C12.1034 15.1429 12.3451 15.278 12.5797 15.4202V12.4844C12.5797 12.4844 12.5299 12.4986 12.4944 12.4986C11.7409 12.719 11.485 13.1952 11.421 13.572Z"
            fill="currentColor" />
        <path fill-rule="evenodd" clip-rule="evenodd"
            d="M13.3475 6.61914C7.55413 6.61914 2.85547 11.3178 2.85547 17.1112C2.85547 22.9045 7.55413 27.6032 13.3475 27.6032C19.1409 27.6032 23.8395 22.9045 23.8395 17.1112C23.8395 11.3178 19.1409 6.61914 13.3475 6.61914ZM17.0652 19.983C16.8235 21.2625 15.8212 22.6415 14.0939 22.9685V23.8357C14.0939 24.248 13.7527 24.5679 13.3262 24.5679C12.8997 24.5679 12.5585 24.2409 12.5585 23.8357V23.0183C11.6912 22.9685 11.023 22.7979 10.035 22.1653C9.67955 21.9449 9.57293 21.4828 9.81461 21.1416C10.0563 20.8004 10.5112 20.7009 10.8738 20.9213H10.9093C11.5775 21.3478 12.004 21.5042 12.6011 21.5326V17.0472C11.9045 16.7415 11.4069 16.4643 10.9946 16.1586C10.1558 15.526 9.72931 14.3673 9.93546 13.2939C10.1416 12.2206 10.9235 11.4173 12.068 11.0761C12.2386 11.0264 12.4092 10.9908 12.5798 10.9553V10.2871C12.5798 9.8748 12.921 9.55492 13.3475 9.55492C13.774 9.55492 14.1152 9.88191 14.1152 10.2871V10.9695C15.2952 11.1899 16.0416 11.8225 16.0913 11.858C16.397 12.1282 16.4326 12.5902 16.1624 12.8959C15.8923 13.2015 15.4089 13.2229 15.0891 12.967C15.0535 12.9527 14.6981 12.6613 14.1152 12.4907V16.0733C14.3356 16.1586 14.5773 16.2297 14.7976 16.315C16.4539 16.8979 17.3566 18.3267 17.0652 19.983Z"
            fill="currentColor" />
        <path fill-rule="evenodd" clip-rule="evenodd"
            d="M22.6455 25.4566C22.3114 25.4566 22.0058 25.5774 21.7641 25.8049L20.6054 26.928C20.378 27.1413 20.25 27.4398 20.25 27.7668C20.25 28.0725 20.378 28.3781 20.6054 28.6056L26.8466 34.6406C27.6356 35.4012 28.972 35.4012 29.7682 34.6406L36.0094 28.5985C36.2439 28.3781 36.3648 28.0938 36.3648 27.7597C36.3648 27.5251 36.3008 27.3048 36.1658 27.1128H36.1586L34.8152 25.812C34.346 25.3642 33.5356 25.3642 33.0523 25.812L30.3226 28.4563V15.057C30.3226 14.403 29.7682 13.877 29.0929 13.877H27.4579C26.7755 13.877 26.2282 14.403 26.2282 15.057L26.2637 28.4492L23.527 25.8049C23.2924 25.5845 22.9867 25.4637 22.6455 25.4637V25.4566Z"
            fill="currentColor" />
    </g>
    <defs>
        <clipPath id="clip0_0_28586">
            <rect width="33.5091" height="28.5972" fill="white"
                transform="translate(2.85547 6.61914)" />
        </clipPath>
    </defs>
</svg>
    