<svg width="40" height="41" viewBox="0 0 40 41" fill="none" xmlns="http://www.w3.org/2000/svg">
    <path
        d="M7.30229 4.92188C7.74221 6.33363 8.19723 7.74107 8.61235 9.1604C8.7288 9.55742 8.90347 9.67751 9.31644 9.67642C18.7047 9.66344 28.094 9.66669 37.4822 9.66669H38.182C37.7345 11.1358 37.3032 12.5497 36.873 13.9647C36.0104 16.8012 35.1575 19.641 34.2842 22.4753C33.2566 25.8094 30.1761 28.0834 26.7149 28.0834C22.0386 28.0834 17.3623 28.0758 12.6859 28.0942C12.2298 28.0964 12.0455 27.9557 11.915 27.5209C9.92888 20.9402 7.92012 14.3661 5.934 7.78542C5.82402 7.42085 5.67846 7.30943 5.3097 7.31484C4.14628 7.32998 2.98178 7.3051 1.81836 7.29644V4.92188C3.64705 4.92188 5.47467 4.92188 7.30229 4.92188ZM27.3198 18.8621C27.3166 16.1294 25.104 13.9063 22.3858 13.903C19.6524 13.8998 17.4065 16.1489 17.4097 18.8869C17.4119 21.5828 19.6546 23.8773 22.361 23.8535C25.3186 23.8276 27.3586 21.4324 27.3209 18.8631L27.3198 18.8621Z"
        fill="currentColor" />
    <path
        d="M17.3303 33.8824C17.3206 35.5938 15.9588 36.9352 14.2466 36.9223C12.5807 36.9093 11.235 35.53 11.2501 33.8499C11.2663 32.1417 12.6497 30.7722 14.3328 30.7992C15.9998 30.8263 17.34 32.2045 17.3303 33.8824Z"
        fill="currentColor" />
    <path
        d="M29.2373 33.8917C29.2362 35.5858 27.9067 36.9175 26.2128 36.9219C24.5275 36.9262 23.1873 35.5902 23.1797 33.8982C23.1722 32.1814 24.5254 30.7956 26.2042 30.7988C27.9013 30.8021 29.2373 32.1641 29.2362 33.8917H29.2373Z"
        fill="currentColor" />
</svg>
    