<svg width="40" height="41" viewBox="0 0 40 41" fill="none" xmlns="http://www.w3.org/2000/svg">
    <path fill-rule="evenodd" clip-rule="evenodd"
        d="M29.1637 34.7021C29.1637 35.4671 28.5404 36.0905 27.7754 36.0905H11.1088C10.3421 36.0905 9.71875 35.4671 9.71875 34.7021V9.70214C9.71875 8.93714 10.3421 8.3138 11.1088 8.3138H22.6237L29.1637 14.8505V34.7021ZM23.4037 7.12883C23.2737 6.99716 23.097 6.92383 22.912 6.92383H11.1104C9.5787 6.92383 8.33203 8.17049 8.33203 9.70216V34.7022C8.33203 36.2338 9.5787 37.4805 11.1104 37.4805H27.777C29.3087 37.4805 30.5537 36.2338 30.5537 34.7022V14.5638C30.5537 14.3788 30.4804 14.2022 30.3504 14.0722L23.4037 7.12883Z"
        fill="#FFCB05" />
    <path fill-rule="evenodd" clip-rule="evenodd"
        d="M16.6651 22.2022H13.8867V20.1188C13.8867 19.7355 14.1984 19.4238 14.5817 19.4238H16.6651V22.2022ZM18.0534 22.2022H20.8317V19.4238H18.0534V22.2022ZM22.2201 19.4238H24.3034C24.6867 19.4238 24.9984 19.7355 24.9984 20.1188V22.2022H22.2201V19.4238ZM24.9984 31.2305C24.9984 31.6138 24.6867 31.9238 24.3034 31.9238H22.2201V28.4522C22.2201 28.0688 21.9101 27.7572 21.5267 27.7572H13.8867V23.5905H24.9984V31.2305ZM18.0534 31.9255H20.8317V29.1471H18.0534V31.9255ZM16.6651 31.9271H14.5817C14.1984 31.9271 13.8867 31.6171 13.8867 31.2337V29.1504H16.6651V31.9271ZM12.5 20.1204V31.2321C12.5 32.3804 13.435 33.3154 14.5833 33.3154H24.305C25.455 33.3154 26.3883 32.3804 26.3883 31.2321V20.1204C26.3883 18.9721 25.455 18.0371 24.305 18.0371H14.5833C13.435 18.0371 12.5 18.9721 12.5 20.1204Z"
        fill="#FFCB05" />
    <path fill-rule="evenodd" clip-rule="evenodd"
        d="M33.13 11.2948L26.1833 4.34982C26.0533 4.21982 25.8767 4.14648 25.6917 4.14648H13.195C12.81 4.14648 12.5 4.45815 12.5 4.84148C12.5 5.22482 12.81 5.53648 13.195 5.53648H25.405L31.945 12.0732V32.5982C31.945 32.9815 32.255 33.2915 32.6383 33.2915C33.0233 33.2915 33.3333 32.9815 33.3333 32.5982V11.7865C33.3333 11.6015 33.26 11.4248 33.13 11.2948Z"
        fill="#FFCB05" />
</svg>
    