<svg width="40" height="41" viewBox="0 0 40 41" fill="none" xmlns="http://www.w3.org/2000/svg">
    <path fill-rule="evenodd" clip-rule="evenodd"
        d="M23.4051 5.8125C23.5868 5.8125 23.7602 5.8845 23.8878 6.01377L30.7084 12.8306C30.836 12.9582 30.908 13.1317 30.908 13.3133V33.0848C30.908 34.5885 29.6856 35.8125 28.1818 35.8125H11.8177C10.3139 35.8125 9.08984 34.5885 9.08984 33.0848V8.54022C9.08984 7.03646 10.3139 5.8125 11.8177 5.8125H23.4051Z"
        fill="#FFCB05" />
    <path fill-rule="evenodd" clip-rule="evenodd"
        d="M17.6153 21.3828H15.2283V19.593C15.2283 19.2637 15.4961 18.9959 15.8254 18.9959H17.6153V21.3828ZM18.8079 21.3828H21.1948V18.9959H18.8079V21.3828ZM22.3874 18.9959H24.1773C24.5066 18.9959 24.7743 19.2637 24.7743 19.593V21.3828H22.3874V18.9959ZM24.7746 29.1391C24.7746 29.4684 24.5068 29.7348 24.1775 29.7348H22.3877V26.7522C22.3877 26.4229 22.1213 26.1551 21.792 26.1551H15.2283V22.5755H24.7746V29.1391ZM18.8079 29.7351H21.1948V27.3482H18.8079V29.7351ZM17.6153 29.7337H15.8254C15.4961 29.7337 15.2283 29.4673 15.2283 29.138V27.3482H17.6153V29.7337ZM14.0352 19.5926V29.1388C14.0352 30.1253 14.8384 30.9286 15.825 30.9286H24.177C25.165 30.9286 25.9669 30.1253 25.9669 29.1388V19.5926C25.9669 18.606 25.165 17.8027 24.177 17.8027H15.825C14.8384 17.8027 14.0352 18.606 14.0352 19.5926Z"
        fill="#004F72" />
</svg>
    