<svg width="40" height="41" viewBox="0 0 40 41" fill="none" xmlns="http://www.w3.org/2000/svg">
    <path fill-rule="evenodd" clip-rule="evenodd"
        d="M8.85142 14.068V33.3013C8.85142 34.438 9.26308 35.5063 9.97975 36.2713C10.6931 37.0396 11.6864 37.4746 12.7264 37.478H27.2747C28.3148 37.4746 29.3081 37.0396 30.0231 36.2713C30.7397 35.5063 31.1497 34.438 31.1497 33.3013V14.068C32.5747 13.683 33.4998 12.2846 33.3098 10.7996C33.1181 9.31463 31.8714 8.20297 30.3964 8.20297H26.4597V7.22797C26.4647 6.40797 26.1447 5.61963 25.5714 5.03963C24.9997 4.4613 24.2231 4.13797 23.4147 4.14463H16.5864C15.7781 4.13797 15.0014 4.4613 14.4281 5.03963C13.8564 5.61963 13.5364 6.40797 13.5414 7.22797V8.20297H9.60475C8.12975 8.20297 6.88308 9.31463 6.69308 10.7996C6.50142 12.2846 7.42475 13.683 8.85142 14.068ZM27.2737 35.9148H12.7253C11.412 35.9148 10.3887 34.7681 10.3887 33.2998V14.1348H29.612V33.2998C29.612 34.7681 28.5887 35.9148 27.2737 35.9148ZM15.0795 7.22901C15.0745 6.82234 15.2312 6.43234 15.5162 6.14401C15.7995 5.85734 16.1862 5.69901 16.5862 5.70734H23.4145C23.8145 5.69901 24.2012 5.85734 24.4862 6.14401C24.7695 6.43068 24.9279 6.82234 24.9212 7.22901V8.20401H15.0795V7.22901ZM9.60404 9.76302H30.3957C31.1607 9.76302 31.779 10.393 31.779 11.168C31.779 11.9447 31.1607 12.573 30.3957 12.573H9.60404C8.83904 12.573 8.2207 11.9447 8.2207 11.168C8.2207 10.393 8.83904 9.76302 9.60404 9.76302Z"
        fill="#FFCB05" />
    <path fill-rule="evenodd" clip-rule="evenodd"
        d="M24.5345 16.2227C24.1095 16.2227 23.7645 16.571 23.7645 17.0027V31.7577C23.7645 32.1877 24.1095 32.5377 24.5345 32.5377C24.9595 32.5377 25.3045 32.1877 25.3045 31.7577V17.0027C25.3045 16.571 24.9595 16.2227 24.5345 16.2227Z"
        fill="#FFCB05" />
    <path fill-rule="evenodd" clip-rule="evenodd"
        d="M15.4622 16.2227C15.0372 16.2227 14.6922 16.571 14.6922 17.0027V31.7577C14.6922 32.1877 15.0372 32.5377 15.4622 32.5377C15.8872 32.5377 16.2322 32.1877 16.2322 31.7577V17.0027C16.2322 16.571 15.8872 16.2227 15.4622 16.2227Z"
        fill="#FFCB05" />
    <path fill-rule="evenodd" clip-rule="evenodd"
        d="M19.9993 16.2227C19.5743 16.2227 19.2293 16.571 19.2293 17.0027V31.7577C19.2293 32.1877 19.5743 32.5377 19.9993 32.5377C20.4243 32.5377 20.7693 32.1877 20.7693 31.7577V17.0027C20.7693 16.571 20.4243 16.2227 19.9993 16.2227Z"
        fill="#FFCB05" />
</svg>
    