<svg width="40" height="41" viewBox="0 0 40 41" fill="none" xmlns="http://www.w3.org/2000/svg">
    <path fill-rule="evenodd" clip-rule="evenodd"
        d="M11.0468 11.4453C12.7768 11.4453 14.1835 12.8353 14.1835 14.5403C14.1835 16.2453 12.7768 17.6353 11.0468 17.6353C9.31682 17.6353 7.91016 16.2453 7.91016 14.5403C7.91016 12.8353 9.31682 11.4453 11.0468 11.4453M11.0477 19.0629C13.5627 19.0629 15.611 17.0362 15.611 14.5412C15.611 12.0462 13.5627 10.0195 11.0477 10.0195C8.53271 10.0195 6.48438 12.0479 6.48438 14.5412C6.48438 17.0345 8.53271 19.0629 11.0477 19.0629"
        fill="currentColor" />
    <path fill-rule="evenodd" clip-rule="evenodd"
        d="M22.4784 7.23828C24.9117 7.23828 26.8884 9.19328 26.8884 11.5949C26.8884 13.9966 24.9117 15.9516 22.4784 15.9516C20.045 15.9516 18.0684 13.9966 18.0684 11.5949C18.0684 9.19328 20.045 7.23828 22.4784 7.23828M22.4792 17.3792C25.6976 17.3792 28.3176 14.7858 28.3176 11.5958C28.3176 8.40583 25.6976 5.8125 22.4792 5.8125C19.2609 5.8125 16.6426 8.40583 16.6426 11.5958C16.6426 14.7858 19.2609 17.3792 22.4792 17.3792"
        fill="currentColor" />
    <path fill-rule="evenodd" clip-rule="evenodd"
        d="M12.1328 28.3807V29.9007H5.04781C4.88615 29.9007 4.75781 29.7724 4.75781 29.6207V27.5874C4.75781 24.1624 7.57781 21.3724 11.0478 21.3724C12.1645 21.3724 13.2311 21.6724 14.1811 22.2174C12.8995 23.9474 12.1328 26.0741 12.1328 28.3807M22.6954 17.9219C19.7204 17.9219 17.0337 19.1519 15.112 21.1185C13.8904 20.3635 12.5054 19.9452 11.0487 19.9452C6.7937 19.9452 3.33203 23.3735 3.33203 27.5869V29.6202C3.33203 30.5619 4.10203 31.3269 5.0487 31.3269H12.152C12.2004 32.4485 13.1187 33.3502 14.2587 33.3502H24.967C24.8004 32.8885 24.6604 32.4169 24.5737 31.9235H14.2587C13.872 31.9235 13.5604 31.6152 13.5604 31.2402V30.6152C13.5604 30.6135 13.5604 30.6135 13.5604 30.6135C13.5604 30.6135 13.5604 30.6135 13.5604 30.6119V28.3802C13.5604 23.4019 17.657 19.3502 22.6954 19.3502C25.4337 19.3502 27.8637 20.5702 29.5404 22.4619C30.0087 22.2469 30.5004 22.0819 31.0087 21.9519C29.0737 19.5035 26.072 17.9219 22.6954 17.9219"
        fill="currentColor" />
    <path fill-rule="evenodd" clip-rule="evenodd"
        d="M34.6662 31.794C34.5962 32.2123 34.3245 32.654 33.8645 32.8706V30.474C34.7595 30.7973 34.7045 31.5656 34.6662 31.794V31.794ZM32.623 28.6383C32.5364 28.5833 32.463 28.5266 32.408 28.4666C32.1814 28.2183 32.0947 27.885 32.168 27.5533C32.2297 27.2833 32.3897 27.0516 32.623 26.89V28.6383ZM34.2684 29.2987C34.135 29.252 34 29.2053 33.865 29.157V26.7553C34.0717 26.842 34.215 26.9637 34.28 27.0253C34.3934 27.1737 34.5717 27.2687 34.7734 27.2687C35.1184 27.2687 35.3967 26.9887 35.3967 26.6437C35.3967 26.482 35.335 26.3353 35.235 26.2253V26.2237C35.2034 26.1887 34.69 25.632 33.865 25.4587V25.1353C33.865 24.792 33.5867 24.5137 33.2434 24.5137C32.9 24.5137 32.6234 24.792 32.6234 25.1353V25.5253C32.5484 25.5503 32.4717 25.5753 32.395 25.607C31.6517 25.9103 31.1267 26.5203 30.9567 27.2803C30.7934 28.0037 30.995 28.7603 31.4917 29.3053C31.7767 29.6153 32.165 29.832 32.6234 30.022V32.9887C32.2684 32.9503 32.0184 32.8453 31.615 32.5803C31.3284 32.392 30.9434 32.4737 30.755 32.7603C30.5684 33.0487 30.6484 33.4337 30.935 33.622C31.595 34.0537 32.0534 34.1953 32.6234 34.237V34.7203C32.6234 35.0637 32.9 35.342 33.2434 35.342C33.5867 35.342 33.865 35.0637 33.865 34.7203V34.1803C35.0017 33.9137 35.7317 32.9503 35.8917 32.002C36.0967 30.782 35.46 29.7203 34.2684 29.2987V29.2987Z"
        fill="currentColor" />
</svg>
    