<svg width="40" height="41" viewBox="0 0 40 41" fill="none" xmlns="http://www.w3.org/2000/svg">
    <path fill-rule="evenodd" clip-rule="evenodd"
        d="M35.7004 13.8159L21.217 7.72422C20.4437 7.39922 19.5554 7.39922 18.7804 7.72422L4.2987 13.8159C3.71203 14.0492 3.33203 14.5826 3.33203 15.1709C3.33203 15.7592 3.71203 16.2926 4.2987 16.5259L8.8887 18.4559V25.4242C8.8887 26.6026 9.71703 27.6692 11.1104 28.5259V30.1109C10.027 30.3692 9.32036 31.3309 9.46203 32.3542C9.60203 33.3792 10.547 34.1476 11.6654 34.1476C12.7854 34.1476 13.7287 33.3792 13.8704 32.3542C14.012 31.3309 13.3054 30.3692 12.222 30.1109V29.1142C14.6687 30.1142 17.3237 30.6059 19.9987 30.5509C26.2304 30.5509 31.1104 28.2976 31.1104 25.4242V18.4559L35.7004 16.5259C36.287 16.2926 36.6654 15.7592 36.6654 15.1709C36.6654 14.5826 36.287 14.0492 35.7004 13.8159ZM12.777 32.0862C12.777 32.6529 12.2803 33.1129 11.6653 33.1129C11.052 33.1129 10.5553 32.6529 10.5553 32.0862C10.5553 31.5229 11.052 31.0612 11.6653 31.0612C12.2803 31.0612 12.777 31.5229 12.777 32.0862ZM9.99951 25.4258V18.9258L11.1112 19.3924V27.2641C10.4662 26.8324 10.0595 26.1591 9.99951 25.4258ZM29.9987 25.4258C29.9987 27.6491 25.4203 29.5274 19.9987 29.5274C16.8953 29.5274 14.072 28.9108 12.222 27.9658V19.8608L18.7803 22.6191C19.5553 22.9458 20.4437 22.9458 21.217 22.6191L29.9987 18.9258V25.4258ZM35.242 15.5941L20.7586 21.6858C20.277 21.8858 19.7253 21.8858 19.2436 21.6858L12.9503 19.0391L17.8503 16.7491C18.512 17.0724 19.252 17.2341 20.0003 17.2224C21.8703 17.2224 23.3336 16.3224 23.3336 15.1724C23.3336 14.0224 21.8703 13.1224 20.0003 13.1224C18.132 13.1224 16.667 14.0224 16.667 15.1724C16.6703 15.4741 16.7703 15.7691 16.957 16.0174L11.6553 18.4941L4.76031 15.5941C4.57031 15.5274 4.44531 15.3591 4.44531 15.1724C4.44531 14.9858 4.57031 14.8174 4.76031 14.7508L19.2436 8.65911C19.7253 8.45911 20.277 8.45911 20.7586 8.65911L35.242 14.7508C35.4303 14.8174 35.557 14.9858 35.557 15.1724C35.557 15.3591 35.4303 15.5274 35.242 15.5941ZM17.7786 15.1721C17.7786 14.6888 18.7286 14.1471 20.0003 14.1471C21.2736 14.1471 22.2236 14.6888 22.2236 15.1721C22.2236 15.6555 21.2736 16.1971 20.0003 16.1971C18.7286 16.1971 17.7786 15.6555 17.7786 15.1721Z"
        fill="currentColor" />
</svg>
    