<svg width="40" height="41" viewBox="0 0 40 41" fill="none" xmlns="http://www.w3.org/2000/svg">
    <path fill-rule="evenodd" clip-rule="evenodd" d="M34.332 19.2908L33.4687 16.0158C33.7054 15.9692 33.882 15.7692 33.882 15.5325V15.0042C33.882 13.8575 32.8987 12.9242 31.6904 12.9242H27.7587V11.8358C27.7587 11.2708 27.2737 10.8125 26.6804 10.8125H6.6387C6.04203 10.8125 5.5587 11.2708 5.5587 11.8358V20.8125C5.5587 21.0858 5.79203 21.3075 6.08036 21.3075C6.3687 21.3075 6.60203 21.0858 6.60203 20.8125V11.8358C6.60203 11.8175 6.6187 11.8025 6.6387 11.8025H26.6804C26.6987 11.8025 26.7137 11.8175 26.7137 11.8358V20.8125C26.7137 21.0858 26.9487 21.3075 27.2354 21.3075C27.5237 21.3075 27.7587 21.0858 27.7587 20.8125V20.2508H33.9154H33.917V20.2508C34.6754 20.2525 35.3187 20.7225 35.5404 21.3725H33.917C33.6287 21.3725 33.3954 21.5942 33.3954 21.8692V22.9242C33.3954 23.7792 34.1287 24.4758 35.0304 24.4758H35.622V26.6542H34.257C33.8087 25.4258 32.5787 24.5408 31.1337 24.5408C29.6887 24.5408 28.457 25.4258 28.0087 26.6542H27.7587V22.9242C27.7587 22.6508 27.5237 22.4292 27.2354 22.4292C26.9487 22.4292 26.7137 22.6508 26.7137 22.9242V26.6542H15.8854C15.437 25.4258 14.207 24.5408 12.762 24.5408C11.317 24.5408 10.0854 25.4258 9.6387 26.6542H6.6387C6.6187 26.6542 6.60203 26.6392 6.60203 26.6208V25.5308H8.86536C9.15203 25.5308 9.38703 25.3108 9.38703 25.0375C9.38703 24.7625 9.15203 24.5408 8.86536 24.5408H3.8537C3.56536 24.5408 3.33203 24.7625 3.33203 25.0375C3.33203 25.3108 3.56536 25.5308 3.8537 25.5308H5.5587V26.6208C5.5587 27.1842 6.0437 27.6442 6.6387 27.6442H9.45703C9.45703 27.6542 9.45703 27.6658 9.45703 27.6775C9.45703 29.4058 10.9387 30.8125 12.762 30.8125C14.5837 30.8125 16.067 29.4058 16.067 27.6775C16.067 27.6658 16.067 27.6542 16.067 27.6442H27.8287C27.8287 27.6542 27.827 27.6658 27.827 27.6775C27.827 29.4058 29.3104 30.8125 31.1337 30.8125C32.9554 30.8125 34.4387 29.4058 34.4387 27.6775C34.4387 27.6658 34.4387 27.6542 34.4387 27.6442H36.1437C36.432 27.6442 36.6654 27.4225 36.6654 27.1492V21.8692C36.6654 20.5642 35.652 19.4808 34.332 19.2908V19.2908ZM27.7591 13.9129H31.6908C32.3241 13.9129 32.8391 14.4013 32.8391 15.0029V15.0363H27.7591V13.9129ZM27.7591 19.2607V16.0273H32.3958L33.2491 19.2607H27.7591ZM12.7617 29.8226C11.515 29.8226 10.5 28.8592 10.5 27.6776C10.5 26.4942 11.515 25.5326 12.7617 25.5326C14.0083 25.5326 15.0233 26.4942 15.0233 27.6776C15.0233 28.8592 14.0083 29.8226 12.7617 29.8226V29.8226ZM31.1341 29.8226C29.8874 29.8226 28.8724 28.8592 28.8724 27.6776C28.8724 26.4942 29.8874 25.5326 31.1341 25.5326C32.3807 25.5326 33.3957 26.4942 33.3957 27.6776C33.3957 28.8592 32.3807 29.8226 31.1341 29.8226V29.8226ZM35.6229 23.4868H35.0313C34.7046 23.4868 34.4396 23.2351 34.4396 22.9251V22.3635H35.6229V23.4868Z" fill="currentColor"/>
    <path fill-rule="evenodd" clip-rule="evenodd" d="M25.01 24.5434H17.2167C16.9284 24.5434 16.6934 24.7651 16.6934 25.0384C16.6934 25.3117 16.9284 25.5334 17.2167 25.5334H25.01C25.2984 25.5334 25.5317 25.3117 25.5317 25.0384C25.5317 24.7651 25.2984 24.5434 25.01 24.5434" fill="currentColor"/>
    <path fill-rule="evenodd" clip-rule="evenodd" d="M11.6489 22.4301H4.96893C4.6806 22.4301 4.44727 22.6518 4.44727 22.9251C4.44727 23.1985 4.6806 23.4201 4.96893 23.4201H11.6489C11.9373 23.4201 12.1706 23.1985 12.1706 22.9251C12.1706 22.6518 11.9373 22.4301 11.6489 22.4301" fill="currentColor"/>
    <path fill-rule="evenodd" clip-rule="evenodd" d="M21.483 15.7095C21.2797 15.5161 20.948 15.5161 20.7447 15.7095L16.103 20.1111L13.6897 17.8211C13.4847 17.6278 13.1547 17.6278 12.9513 17.8211C12.748 18.0161 12.748 18.3278 12.9513 18.5211L15.7347 21.1611C15.8363 21.2595 15.9697 21.3078 16.103 21.3078C16.2363 21.3078 16.3697 21.2595 16.473 21.1611L21.483 16.4095C21.6863 16.2161 21.6863 15.9028 21.483 15.7095" fill="currentColor"/>
    </svg>
    