<svg width="40" height="41" viewBox="0 0 40 41" fill="none" xmlns="http://www.w3.org/2000/svg">
    <path
        d="M36.668 24.6068C36.6315 25.1636 36.6045 25.7212 36.5575 26.2772C36.4262 27.8471 36.2949 29.4169 36.1479 30.9851C35.9966 32.6032 34.6615 33.8356 32.9621 33.9461C32.4533 33.9794 31.9454 34.0251 31.4366 34.0434C31.2296 34.0508 31.16 34.1273 31.1235 34.3101C31.053 34.6658 30.9591 35.0174 30.8686 35.3689C30.7851 35.6955 30.552 35.8584 30.2668 35.7985C29.9841 35.7395 29.8397 35.4894 29.9137 35.1644C29.9893 34.8312 30.0754 34.5013 30.1633 34.1448C29.8997 34.1448 29.6562 34.1381 29.4144 34.1464C28.9596 34.1622 28.5047 34.1896 28.049 34.2071C27.688 34.2204 27.4628 34.0633 27.4358 33.7899C27.408 33.5123 27.6271 33.3029 27.9994 33.2796C28.5621 33.2447 29.1266 33.2281 29.6893 33.1974C30.7938 33.1367 31.8993 33.0827 33.0021 33.0054C34.1023 32.9289 35.0364 32.0621 35.1651 31.0042C35.6652 26.908 35.8357 22.8001 35.5721 18.6823C35.473 17.1315 35.3182 15.5833 35.1668 14.0367C35.0573 12.9223 34.0849 12.0555 32.9177 11.9799C27.8715 11.6516 22.8193 11.4987 17.7618 11.5718C15.4413 11.6059 13.1209 11.7048 10.8013 11.7779C10.5369 11.7862 10.2977 11.7655 10.1655 11.5078C9.99855 11.1821 10.2316 10.8663 10.6691 10.8505C12.4468 10.7857 14.2246 10.7258 16.0032 10.671C16.4554 10.6568 16.9086 10.6685 17.4434 10.6685C17.326 10.523 17.2739 10.4507 17.2138 10.3843C16.1676 9.22079 15.1195 8.05815 14.0732 6.89552C13.981 6.7933 13.8854 6.69357 13.801 6.58637C13.6192 6.3545 13.6453 6.0894 13.8584 5.92153C14.0593 5.7628 14.3333 5.7736 14.5298 5.97887C14.8656 6.33123 15.1856 6.69773 15.5109 7.05923C16.5154 8.17533 17.5226 9.28893 18.521 10.41C18.6602 10.5663 18.8028 10.6319 19.0185 10.6278C19.7239 10.6153 20.4292 10.6145 21.1337 10.6278C21.352 10.6319 21.4912 10.5596 21.6295 10.405C22.8984 8.98643 24.1743 7.57448 25.4476 6.16004C25.4972 6.10519 25.5433 6.04702 25.5963 5.99549C25.8103 5.7844 26.0842 5.75781 26.2921 5.92402C26.4991 6.0894 26.5269 6.36364 26.3399 6.59052C26.1382 6.83485 25.9207 7.06588 25.7085 7.3019C24.7675 8.34736 23.8264 9.39198 22.8854 10.4366C22.8436 10.4831 22.8045 10.5314 22.7227 10.6286C22.881 10.6402 22.9906 10.651 23.1002 10.6552C26.3843 10.7857 29.6675 10.9095 32.9516 11.0483C34.598 11.1181 35.9948 12.368 36.1383 13.9386C36.3236 15.9614 36.4593 17.9883 36.6176 20.0128C36.6271 20.1349 36.6515 20.2563 36.668 20.3776V24.6076V24.6068Z"
        fill="currentColor" stroke="currentColor" stroke-width="0.166667" />
    <path
        d="M20.0071 32.0835C16.176 32.0919 12.3491 31.968 8.52754 31.7079C7.42907 31.6331 6.59499 30.8494 6.45497 29.8081C6.02445 26.6136 5.84268 23.4066 6.01662 20.1904C6.10881 18.4951 6.29146 16.8022 6.47236 15.1127C6.57934 14.1213 7.48647 13.3542 8.51188 13.2861C13.2554 12.9703 18.005 12.834 22.7581 12.9354C25.6743 12.9977 28.5888 13.1573 31.5032 13.2919C32.5287 13.3393 33.3914 14.1146 33.528 15.0978C33.9176 17.8967 34.1324 20.7107 34.0159 23.5329C33.9298 25.6122 33.7219 27.6873 33.5393 29.7616C33.4419 30.8727 32.5913 31.6315 31.4206 31.7112C27.6208 31.9697 23.8157 32.0919 20.0063 32.0844L20.0071 32.0835ZM19.9845 31.1503C23.7835 31.1586 27.5773 31.0381 31.3658 30.7771C32.0503 30.7298 32.4982 30.3292 32.5669 29.681C32.7139 28.2898 32.8722 26.8986 32.9653 25.5033C33.1949 22.0794 33.0322 18.6663 32.5643 15.2656C32.4826 14.6689 32.012 14.2509 31.3789 14.2177C29.3968 14.1138 27.4155 13.9883 25.4316 13.9251C19.8323 13.7481 14.2373 13.8379 8.64756 14.2135C7.97787 14.2584 7.50647 14.6615 7.43168 15.2989C7.30817 16.3485 7.18467 17.3998 7.0977 18.4527C6.78808 22.1966 6.91158 25.9296 7.42385 29.6527C7.51865 30.3417 7.93525 30.7289 8.6667 30.7788C12.4344 31.0364 16.2064 31.1569 19.9836 31.1486L19.9845 31.1503Z"
        fill="currentColor" stroke="currentColor" stroke-width="0.166667" />
    <path
        d="M9.83626 34.1293C9.92236 34.4833 10.0024 34.8049 10.0789 35.1265C10.1615 35.4764 10.0328 35.7315 9.7432 35.7972C9.4501 35.8637 9.21701 35.6941 9.12916 35.3467C9.04045 34.9944 8.94565 34.6428 8.87433 34.288C8.83867 34.1126 8.75866 34.057 8.57428 34.0453C7.89328 34.0013 7.20445 33.9863 6.53563 33.87C5.10753 33.6231 4.02036 32.4389 3.85598 31.0569C3.49157 28.0044 3.30892 24.9445 3.33675 21.873C3.36111 19.207 3.53592 16.5501 3.86207 13.9032C4.05341 12.345 5.41715 11.1317 7.05399 11.0452C7.54104 11.0195 8.02808 10.9862 8.51513 10.9571C8.87868 10.9355 9.1022 11.0843 9.1309 11.3644C9.16048 11.6511 8.97783 11.848 8.61863 11.8796C8.12202 11.9228 7.62366 11.9502 7.1253 11.9777C5.91812 12.0442 4.96663 12.9143 4.8266 14.057C4.35173 17.9363 4.18561 21.8273 4.39174 25.7265C4.4848 27.495 4.66483 29.2601 4.844 31.0228C4.95097 32.0782 5.91551 32.9342 7.02007 33.0073C12.629 33.3813 18.244 33.5193 23.8659 33.3979C24.5165 33.3838 25.167 33.3713 25.8184 33.3597C26.242 33.3522 26.4568 33.4993 26.4664 33.8018C26.4768 34.1043 26.2681 34.288 25.8532 34.2905C22.7944 34.3113 19.7355 34.3561 16.6767 34.332C14.5406 34.3146 12.4054 34.2007 10.2703 34.1301C10.1415 34.1259 10.0119 34.1301 9.83626 34.1301V34.1293Z"
        fill="currentColor" stroke="currentColor" stroke-width="0.166667" />
</svg>
    