<svg width="40" height="41" viewBox="0 0 40 41" fill="none" xmlns="http://www.w3.org/2000/svg">
    <path fill-rule="evenodd" clip-rule="evenodd"
        d="M9.6856 16.73C8.86227 11.65 12.5206 6.62663 17.7289 5.5283C22.1089 4.60663 27.2956 7.11996 29.1073 11.81C30.6023 15.68 29.5206 19.9983 26.3256 22.7633V22.765C25.0906 23.8316 24.1539 25.03 23.7873 26.58C23.6856 27.0133 23.6373 27.4666 23.6056 27.9216C23.5839 28.2566 23.5073 28.5316 23.3123 28.7183C23.1156 28.905 22.8323 28.97 22.4806 28.97C21.5356 28.9733 20.5906 28.9716 19.6456 28.9716C18.7139 28.9716 17.7789 28.975 16.8473 28.97C16.5073 28.9683 16.2289 28.9016 16.0339 28.7166C15.8373 28.5316 15.7589 28.2616 15.7473 27.9333C15.6739 25.9666 14.8573 24.335 13.3273 23.0483C11.3239 21.3616 10.0989 19.2733 9.6856 16.73ZM23.3553 31.9659C23.3386 32.2126 23.2186 32.4109 23.0303 32.5426C22.8453 32.6726 22.6036 32.7342 22.342 32.7359H22.3403C20.932 32.7392 19.522 32.7376 18.1136 32.7376C17.7136 32.7376 17.302 32.7459 16.8936 32.7309C16.4253 32.7142 16.0103 32.4109 15.9853 31.9326C15.957 31.3876 15.9786 30.8326 15.9786 30.3076V30.1426H16.142H23.2003H23.3636V30.3076C23.3636 30.8376 23.392 31.4076 23.3553 31.9659ZM21.9768 34.1162C21.9768 34.3495 22.0018 34.6262 21.9718 34.8778V34.8795C21.9152 35.3245 21.5285 35.6245 21.0668 35.6295C20.1368 35.6395 19.2052 35.6412 18.2735 35.6278C18.0185 35.6262 17.7968 35.5378 17.6335 35.3795C17.4702 35.2228 17.3768 35.0045 17.3585 34.7578V34.7562C17.3452 34.5512 17.3568 34.3362 17.3568 34.1162V33.9512H17.5218H21.8135H21.9768V34.1162ZM14.1036 26.1447C14.3969 27.183 14.5869 28.2563 14.7086 29.323C14.8052 30.1513 14.7269 31.0197 14.7302 31.8263C14.7336 32.4913 14.9702 33.0613 15.5152 33.4063C15.7602 33.5613 15.9302 33.738 16.0252 33.953C16.1202 34.1663 16.1319 34.398 16.0969 34.6463C16.0919 34.6813 16.0969 34.7163 16.1019 34.788V34.7897C16.1836 35.953 17.0752 36.7897 18.2952 36.8147C18.6919 36.8247 19.0886 36.818 19.4902 36.8163V36.8113H19.6536C20.1769 36.8113 20.6819 36.8297 21.1919 36.808C22.2186 36.7597 23.0502 36.028 23.2002 35.058C23.2236 34.913 23.2302 34.763 23.2352 34.6047C23.2386 34.448 23.2402 34.2813 23.2552 34.1163V34.1147C23.2602 34.0547 23.2736 33.978 23.2969 33.9047C23.3186 33.843 23.3619 33.7413 23.4569 33.688C23.9352 33.4213 24.2402 33.0863 24.4186 32.698C24.5986 32.3097 24.6569 31.8547 24.6169 31.3447C24.5119 29.9697 24.7202 28.6163 24.9069 27.2913C25.1119 25.8247 25.9519 24.7163 27.0419 23.7447C28.7719 22.2013 29.9402 20.483 30.5386 18.6063C31.1369 16.7313 31.1702 14.6863 30.6152 12.4797C29.4752 7.94299 25.1736 4.50299 20.3586 4.17132C18.2569 4.02632 16.2886 4.52299 14.4352 5.48299C10.1852 7.68466 7.77857 12.228 8.44357 16.8097C8.85691 19.6497 10.2036 22.008 12.4586 23.888C13.1852 24.4947 13.8419 25.2197 14.1036 26.1447Z"
        fill="currentColor" />
    <path fill-rule="evenodd" clip-rule="evenodd"
        d="M19.5184 7.02539H19.4534C15.3434 7.16206 12.1318 10.2537 11.9834 14.2187C11.9734 14.4921 12.0384 14.7121 12.1701 14.8521C12.2701 14.9621 12.4101 15.0204 12.5834 15.0271C13.1201 15.0421 13.2218 14.4904 13.2334 14.2504C13.2334 14.2254 13.2334 14.2071 13.2334 14.1854C13.3334 11.4154 15.4251 8.97706 18.2084 8.37872C18.5701 8.30206 18.9451 8.27039 19.3084 8.24039L19.6118 8.21539C19.8718 8.19039 20.0851 8.08372 20.1968 7.92206C20.2851 7.79539 20.3068 7.63872 20.2601 7.47206C20.2101 7.27706 20.0768 7.02539 19.5184 7.02539Z"
        fill="currentColor" />
</svg>
    