<svg width="40" height="41" viewBox="0 0 40 41" fill="none" xmlns="http://www.w3.org/2000/svg">
    <path fill-rule="evenodd" clip-rule="evenodd"
        d="M35.1506 28.8347C35.1456 28.8964 35.1206 28.9464 35.0823 28.9864C35.0439 29.0247 34.9939 29.0497 34.9423 29.0547H26.6506C25.5973 29.0547 24.6023 28.6397 23.8556 27.8847C23.1073 27.1314 22.6973 26.1264 22.6973 25.0597C22.6973 23.9947 23.1073 22.9897 23.8556 22.2364C24.6023 21.4814 25.5973 21.0664 26.6506 21.0664L35.1506 21.1264V28.8347ZM33.6369 34.1519C33.6369 34.6302 33.4519 35.0785 33.1169 35.4169C32.7853 35.7535 32.3403 35.9419 31.8636 35.9435H6.29026C5.81193 35.9419 5.36859 35.7535 5.03693 35.4169C4.70026 35.0785 4.51693 34.6302 4.51693 34.1519V15.9602C4.51859 15.4835 4.70359 15.0369 5.04026 14.7002C5.37026 14.3619 5.81359 14.1752 6.29026 14.1719H31.8636C32.3386 14.1752 32.7819 14.3619 33.1136 14.7002C33.4486 15.0369 33.6336 15.4835 33.6369 15.9602V19.8635H26.6519C25.3019 19.8635 23.9786 20.4185 23.0203 21.3835C22.0503 22.3669 21.5153 23.6702 21.5153 25.0569C21.5153 26.4235 22.0636 27.7619 23.0203 28.7285C23.9919 29.7102 25.2819 30.2519 26.6519 30.2519H33.6369V34.1519ZM17.5569 12.6716L17.5102 12.9732H12.7135L13.3535 11.2682L13.5069 11.3166L17.5569 12.6716ZM9.43432 12.7492L11.4643 7.61919C11.511 7.49419 11.5793 7.38586 11.666 7.29586C11.7543 7.20419 11.8593 7.13252 11.981 7.08086C12.2193 6.98919 12.4777 6.98586 12.7127 7.07752L26.021 12.6825L25.961 12.9742L22.176 12.9675L13.206 9.95252C13.0593 9.89752 12.901 9.90586 12.7627 9.97086C12.6243 10.0359 12.5143 10.1542 12.4593 10.2959L11.4327 12.9742H9.34766L9.43432 12.7492ZM36.3337 28.825V21.2917C36.3321 20.9233 36.1904 20.575 35.9354 20.3083C35.6804 20.0467 35.3421 19.895 34.9771 19.88L34.8187 19.8733V15.9617C34.8187 15.5683 34.7437 15.1833 34.5954 14.8167C34.4421 14.45 34.2254 14.125 33.9537 13.8483C33.6737 13.5683 33.3521 13.35 32.9937 13.2C32.6337 13.05 32.2537 12.9733 31.8621 12.9733L29.7687 12.9617L13.1754 5.97833C12.6554 5.75667 12.0387 5.75833 11.5237 5.97667C11.2571 6.09 11.0221 6.25 10.8271 6.455C10.6287 6.66 10.4737 6.90167 10.3687 7.17333L8.06873 12.9733H6.28873C5.89706 12.9733 5.51706 13.05 5.15706 13.2C4.79539 13.3517 4.47373 13.57 4.19706 13.8483C3.92206 14.1283 3.70539 14.4533 3.55539 14.8167C3.40873 15.1817 3.33039 15.5767 3.33206 15.9617V34.1533C3.33039 34.545 3.40539 34.93 3.55539 35.3C3.70706 35.665 3.92206 35.9917 4.19706 36.27C4.47539 36.5483 4.79706 36.7667 5.15706 36.9183C5.51539 37.065 5.89039 37.1417 6.27539 37.1417H31.8621C32.2587 37.1417 32.6354 37.065 32.9937 36.9183C33.3554 36.765 33.6787 36.5467 33.9537 36.27C34.2271 35.9917 34.4421 35.665 34.5954 35.2983C34.7437 34.9333 34.8187 34.5483 34.8187 34.1533V30.24L34.9787 30.2367C35.3421 30.2233 35.6804 30.0717 35.9354 29.8083C36.1904 29.5417 36.3321 29.1933 36.3337 28.825V28.825Z"
        fill="currentColor" />
    <path fill-rule="evenodd" clip-rule="evenodd"
        d="M25.9457 24.3429C26.0807 24.2045 26.2624 24.1045 26.4574 24.0662C26.654 24.0279 26.854 24.0462 27.0357 24.1245C27.219 24.2012 27.3724 24.3279 27.484 24.4929C27.594 24.6612 27.6507 24.8562 27.6507 25.0562C27.6507 25.3212 27.5457 25.5812 27.359 25.7679C27.1707 25.9595 26.919 26.0629 26.6524 26.0629C26.454 26.0629 26.2607 26.0045 26.0974 25.8962C25.9324 25.7845 25.8057 25.6279 25.729 25.4429C25.6524 25.2562 25.634 25.0545 25.6724 24.8595C25.7107 24.6579 25.8057 24.4812 25.9457 24.3429M24.7752 24.2686C24.6218 24.6486 24.5818 25.0586 24.6602 25.457C24.7368 25.8553 24.9302 26.2186 25.2168 26.5086C25.5002 26.7953 25.8602 26.9903 26.2568 27.072C26.6552 27.1486 27.0585 27.107 27.4285 26.9536C27.7985 26.7986 28.1152 26.5353 28.3385 26.1986C28.5635 25.8586 28.6835 25.4653 28.6835 25.057C28.6835 24.5086 28.4718 23.992 28.0868 23.6036C27.7035 23.2153 27.1935 23.002 26.6518 23.002C26.2618 23.002 25.8852 23.1153 25.5585 23.327L25.5235 23.3503C25.1902 23.572 24.9318 23.8903 24.7752 24.2686"
        fill="currentColor" />
    <path fill-rule="evenodd" clip-rule="evenodd"
        d="M11.8667 17.7962C11.7667 17.6979 11.6384 17.6429 11.5017 17.6429H8.47174C8.33508 17.6429 8.20341 17.6979 8.11008 17.7962C8.01174 17.8945 7.95508 18.0295 7.95508 18.1662C7.95508 18.3029 8.01174 18.4379 8.10674 18.5345C8.20341 18.6329 8.33674 18.6879 8.47174 18.6879H11.5017C11.6384 18.6879 11.7667 18.6329 11.8667 18.5345C11.9634 18.4379 12.0184 18.3029 12.0184 18.1662C12.0184 18.0295 11.9634 17.8945 11.8667 17.7962"
        fill="currentColor" />
    <path fill-rule="evenodd" clip-rule="evenodd"
        d="M14.8951 20.8598C14.7967 20.7598 14.6684 20.7065 14.5317 20.7065H8.47174C8.33674 20.7065 8.20341 20.7615 8.10674 20.8598C8.00841 20.9615 7.95508 21.0932 7.95508 21.2315C7.95508 21.3682 8.01008 21.5032 8.10674 21.5998C8.20341 21.6982 8.33674 21.7532 8.47174 21.7532H14.5317C14.6684 21.7532 14.7967 21.6982 14.8967 21.5998C14.9934 21.5015 15.0484 21.3665 15.0484 21.2315C15.0484 21.0932 14.9934 20.9615 14.8951 20.8598"
        fill="currentColor" />
</svg>
    