<svg width="40" height="41" viewBox="0 0 40 41" fill="none" xmlns="http://www.w3.org/2000/svg">
    <path
        d="M19.1661 37.4798C18.5652 37.3748 17.9527 37.3166 17.366 37.1569C12.7808 35.9086 9.82466 32.8843 8.67942 28.0805C7.84085 24.5605 8.55808 21.2828 10.5153 18.2776C13.4623 13.7541 16.3678 9.20204 19.2974 4.66645C19.4254 4.46766 19.6232 4.31836 19.7886 4.14648C19.9132 4.14648 20.0371 4.14648 20.1617 4.14648C20.3255 4.33485 20.5149 4.50499 20.6496 4.71419C22.2469 7.18207 23.836 9.65603 25.4275 12.1283C25.484 12.2159 25.5439 12.3001 25.622 12.4147C26.0874 11.6942 26.5387 10.9954 26.99 10.2967C27.0772 10.1621 27.1603 10.0241 27.2501 9.89214C27.5684 9.426 28.0496 9.43468 28.3679 9.92426C28.992 10.8826 29.6079 11.847 30.2262 12.8097C30.9434 13.9243 31.6607 15.0397 32.3779 16.1543C33.8631 18.4633 33.5979 21.4963 31.7222 23.4633C31.5252 23.6699 31.467 23.8626 31.487 24.143C31.8211 28.8331 30.1564 32.571 26.5262 35.3236C24.884 36.5692 23.0132 37.242 20.9878 37.4251C20.918 37.4312 20.8507 37.4607 20.7826 37.479H19.1653L19.1661 37.4798ZM19.9623 5.97895C19.8775 6.10308 19.8102 6.1951 19.7479 6.29232C17.0152 10.5354 14.2992 14.7906 11.5442 19.018C9.9111 21.5232 9.29277 24.2402 9.76898 27.2298C10.8535 34.0388 18.0001 38.1057 24.0338 35.281C27.8393 33.4989 29.9038 30.3418 30.2869 25.9954C30.3268 25.5406 30.2919 25.0796 30.2919 24.5875C30.1547 24.6465 30.0691 24.6821 29.9852 24.7194C27.6872 25.735 25.0976 25.0718 23.5177 23.0649C21.9602 21.0866 21.8447 18.2784 23.2326 16.1326C23.7146 15.3869 24.1859 14.6343 24.6795 13.8982C24.8258 13.6803 24.8358 13.531 24.687 13.3027C23.3174 11.1968 21.961 9.08138 20.6005 6.96853C20.3936 6.64648 20.185 6.32617 19.9623 5.98069V5.97895ZM27.8094 11.3913C27.7595 11.4512 27.7371 11.4737 27.7197 11.4998C26.5378 13.3331 25.3477 15.1621 24.1784 17.0041C23.6249 17.8765 23.4279 18.8583 23.5376 19.893C23.7338 21.755 25.0261 23.2941 26.7398 23.7446C28.4818 24.2029 30.2836 23.5015 31.3116 21.9651C32.338 20.4312 32.3472 18.4321 31.3357 16.8635C30.8196 16.0632 30.3052 15.2628 29.7899 14.4625C29.1367 13.4486 28.4826 12.4338 27.8094 11.3904V11.3913Z"
        fill="currentColor" />
    <path
        d="M10.001 25.2006C10.0304 23.0443 10.6529 21.2072 11.9386 19.5642C12.2711 19.1383 12.7193 19.0297 13.0985 19.2772C13.4848 19.5283 13.5121 19.9229 13.1745 20.3691C10.149 24.3588 11.4326 29.6981 16.0073 32.0789C16.5619 32.3677 17.1763 32.5637 17.7695 32.7881C18.319 32.996 18.5086 33.5167 18.1507 33.8976C17.9084 34.1561 17.5991 34.2002 17.2554 34.0898C13.4929 32.8746 11.1335 30.5131 10.2251 26.9705C10.1592 26.7138 10.1136 26.4507 10.0831 26.1886C10.0395 25.8114 10.0193 25.4324 10 25.1996L10.001 25.2006Z"
        fill="currentColor" />
    <path
        d="M19.1545 34.1452C18.6757 34.1429 18.3263 33.7776 18.3341 33.2878C18.3408 32.8295 18.7091 32.4697 19.1623 32.4787C19.6166 32.4876 19.9916 32.8541 20.0005 33.2957C20.0094 33.7529 19.6177 34.1474 19.1556 34.1452H19.1545Z"
        fill="currentColor" />
    <path
        d="M25 19.3362C25.0742 18.8657 25.1319 18.3863 25.2274 17.9284C25.3081 17.539 25.5409 17.3911 25.7541 17.5292C25.9667 17.6673 26.0719 18.029 25.9765 18.4104C25.6974 19.5251 25.964 20.6834 26.4749 21.2572C26.693 21.5022 26.7218 21.9121 26.5779 22.2204C26.4356 22.526 26.2017 22.5634 25.9809 22.3157C25.404 21.6697 25.03 20.4909 25 19.3353V19.3362Z"
        fill="currentColor" />
    <path
        d="M28.3325 21.6589C28.3236 22.116 27.919 22.4964 27.4597 22.4786C27.016 22.4608 26.6562 22.0737 26.6662 21.6244C26.6763 21.1662 27.0406 20.8103 27.4943 20.8125C27.9693 20.8147 28.3415 21.1895 28.3325 21.6589Z"
        fill="currentColor" />
</svg>
    