<svg width="24" height="24" viewBox="0 0 24 24" fill="none" xmlns="http://www.w3.org/2000/svg">
    <path
        d="M3.80042 5.82136C7.31554 4.9566 10.2287 3.19539 11.4208 2.40261C11.7738 2.16783 12.2351 2.1561 12.5939 2.38197C13.9843 3.25725 17.5212 5.37208 20.0094 5.88603C20.5502 5.99775 21.002 6.45173 20.9816 7.00364C20.5843 17.7773 13.8315 21.2351 12.305 21.8808C12.1057 21.9651 11.8942 21.9651 11.6949 21.8808C10.16 21.2315 3.34142 17.7393 3.01227 6.82581C2.9979 6.34935 3.33754 5.93524 3.80042 5.82136Z"
        stroke="currentColor" />
    <path
        d="M10.2364 15.2364L7.65663 12.6567C7.28636 12.2864 7.26443 11.6932 7.60634 11.2966L7.68197 11.2089C8.07954 10.7477 8.79347 10.7459 9.1934 11.205L10.8432 13.0989C10.9249 13.1928 11.0716 13.19 11.1497 13.0931L14.8403 8.51319C15.18 8.09169 15.7974 8.02607 16.218 8.36676C16.6463 8.71359 16.7038 9.34551 16.3451 9.76393L11.7027 15.1801C11.3236 15.6224 10.6482 15.6483 10.2364 15.2364Z"
        stroke="currentColor" />
    <path d="M4.99994 9V7.72076C4.99994 7.29033 5.27537 6.90819 5.68371 6.77208L7.99994 6"
        stroke="currentColor" stroke-linecap="round" />
    <circle cx="9.18056" cy="5.58687" r="0.413046" fill="currentColor" />
    <circle cx="12.2079" cy="19.6364" r="0.413046" fill="currentColor" />
    <path
        d="M13.121 18.958C13.121 18.958 14.3323 18.1395 14.983 17.476C15.608 16.8388 16.3803 15.6672 16.3803 15.6672"
        stroke="currentColor" stroke-linecap="round" />
</svg>
    