<svg width="24" height="24" viewBox="0 0 24 24" fill="none" xmlns="http://www.w3.org/2000/svg">
    <path
        d="M3.32619 6.53121L11.2949 3.34374C11.7717 3.15301 12.3036 3.15301 12.7804 3.34374L20.7491 6.53121C21.5084 6.83494 22.0063 7.57035 22.0063 8.38816V15.7667C22.0063 16.5242 21.5783 17.2168 20.9007 17.5555L12.9321 21.5399C12.369 21.8214 11.7063 21.8214 11.1432 21.5399L3.17454 17.5555C2.49697 17.2168 2.06897 16.5242 2.06897 15.7667V8.38816C2.06897 7.57035 2.56687 6.83494 3.32619 6.53121Z"
        stroke="currentColor" stroke-linejoin="round" />
    <path d="M12.0773 12.0184L12.0773 21.9871" stroke="currentColor" />
    <path
        d="M2.32629 7.56897L11.2552 11.6382C11.785 11.8797 12.3936 11.8783 12.9222 11.6345L21.7376 7.56897"
        stroke="currentColor" stroke-linejoin="round" />
    <ellipse cx="12.0773" cy="7.56891" rx="1.42071" ry="1.13483" fill="currentColor" />
    <ellipse cx="15.2401" cy="16.5734" rx="1.20879" ry="1.4263"
        transform="rotate(12.5357 15.2401 16.5734)" fill="currentColor" />
    <ellipse cx="1.20879" cy="1.4263" rx="1.20879" ry="1.4263"
        transform="matrix(-0.994378 0.105889 0.105889 0.994378 10.4988 15.8859)" fill="currentColor" />
    <ellipse cx="1.20879" cy="1.4263" rx="1.20879" ry="1.4263"
        transform="matrix(-0.977002 0.213229 0.213229 0.977002 7.90698 13.3578)" fill="currentColor" />
    <ellipse cx="1.20879" cy="1.4263" rx="1.20879" ry="1.4263"
        transform="matrix(-0.982128 0.188214 0.188214 0.982128 5.53137 10.5281)" fill="currentColor" />
    <ellipse cx="18.2307" cy="12.4479" rx="1.20879" ry="1.4263"
        transform="rotate(21.6615 18.2307 12.4479)" fill="currentColor" />
</svg>
    