<svg width="24" height="24" viewBox="0 0 24 24" fill="none" xmlns="http://www.w3.org/2000/svg">
    <path
        d="M13.6414 17H10.3586C9.60825 17 9 16.6795 9 15.9292C9 15.5073 8.90678 14.7989 8.65314 14.4618C8.01468 13.6134 7 12.6449 7 11C7 8 9 6 12 6C15 6 17 8 17 11C17 12.6449 15.9853 13.6134 15.3469 14.4618C15.0932 14.7989 15 15.5073 15 15.9292C15 16.6795 14.3917 17 13.6414 17Z"
        stroke="currentColor" stroke-linecap="round" stroke-linejoin="round" />
    <rect x="10" y="17" width="4" height="2" rx="1" stroke="currentColor" />
    <circle cx="12" cy="20" r="1" stroke="currentColor" />
    <path d="M4 11H5" stroke="currentColor" stroke-width="0.8" stroke-linecap="round"
        stroke-linejoin="round" />
    <path d="M5 7L5.86603 7.5" stroke="currentColor" stroke-width="0.8" stroke-linecap="round"
        stroke-linejoin="round" />
    <path d="M8 4L8.5 4.86603" stroke="currentColor" stroke-width="0.8" stroke-linecap="round"
        stroke-linejoin="round" />
    <path d="M5 15L5.86603 14.5" stroke="currentColor" stroke-width="0.8" stroke-linecap="round"
        stroke-linejoin="round" />
    <path d="M20 11H19" stroke="currentColor" stroke-width="0.8" stroke-linecap="round"
        stroke-linejoin="round" />
    <path d="M19 7L18.134 7.5" stroke="currentColor" stroke-width="0.8" stroke-linecap="round"
        stroke-linejoin="round" />
    <path d="M16 4L15.5 4.86603" stroke="currentColor" stroke-width="0.8" stroke-linecap="round"
        stroke-linejoin="round" />
    <path d="M12 3L12 4" stroke="currentColor" stroke-width="0.8" stroke-linecap="round"
        stroke-linejoin="round" />
    <path d="M19 15L18.134 14.5" stroke="currentColor" stroke-width="0.8" stroke-linecap="round"
        stroke-linejoin="round" />
</svg>
    