<svg width="23" height="22" viewBox="0 0 23 22" fill="none" xmlns="http://www.w3.org/2000/svg">
<g id="close-circle-f">
<path id="Vector" d="M12.7306 11.1385L15.2695 8.60714C15.4379 8.43919 15.5325 8.21139 15.5325 7.97386C15.5325 7.73634 15.4379 7.50854 15.2695 7.34058C15.1011 7.17262 14.8727 7.07827 14.6345 7.07827C14.3964 7.07827 14.168 7.17262 13.9996 7.34058L11.4617 9.87281L8.92372 7.34058C8.75532 7.17262 8.52693 7.07827 8.28878 7.07827C8.05063 7.07827 7.82224 7.17262 7.65384 7.34058C7.48545 7.50854 7.39084 7.73634 7.39084 7.97386C7.39084 8.21139 7.48545 8.43919 7.65384 8.60714L10.1927 11.1385L7.65384 13.6698C7.48545 13.8378 7.39084 14.0656 7.39084 14.3031C7.39084 14.5406 7.48545 14.7684 7.65384 14.9364C7.82224 15.1043 8.05063 15.1987 8.28878 15.1987C8.52693 15.1987 8.75532 15.1043 8.92372 14.9364L11.4617 12.4042L13.9996 14.9364C14.168 15.1043 14.3964 15.1987 14.6345 15.1987C14.8727 15.1987 15.1011 15.1043 15.2695 14.9364C15.4379 14.7684 15.5325 14.5406 15.5325 14.3031C15.5325 14.0656 15.4379 13.8378 15.2695 13.6698L12.7306 11.1385ZM11.4617 20.0895C6.50513 20.0895 2.4873 16.0821 2.4873 11.1385C2.4873 6.19485 6.50513 2.1875 11.4617 2.1875C16.4182 2.1875 20.436 6.19485 20.436 11.1385C20.436 16.0821 16.4182 20.0895 11.4617 20.0895Z" fill="white" fill-opacity="0.6"/>
</g>
</svg>
