<svg width="24" height="24" viewBox="0 0 24 24" fill="none" xmlns="http://www.w3.org/2000/svg">
<g id="icons/outlined/dropdown close">
<path id="shape:icon" d="M16.649 20.3547C16.4363 20.5553 16.1475 20.668 15.8464 20.668C15.5454 20.668 15.2566 20.5553 15.0438 20.3547L7.33271 13.0996C7.11969 12.8992 7 12.6274 7 12.3439C7 12.0604 7.11969 11.7885 7.33271 11.5882L15.0438 4.33306C15.328 4.05193 15.7518 3.93806 16.1508 4.03564C16.5497 4.13322 16.8611 4.4269 16.964 4.80272C17.067 5.17854 16.9453 5.57736 16.6462 5.84444L9.73765 12.3439L16.6462 18.8433C16.8596 19.0433 16.9798 19.315 16.9803 19.5985C16.9809 19.882 16.8617 20.154 16.649 20.3547Z" fill="white"/>
</g>
</svg>
