<svg width="24" height="24" viewBox="0 0 24 24" fill="none" xmlns="http://www.w3.org/2000/svg">
    <path
        d="M14.5 19H4C3.44772 19 3 18.5523 3 18V5C3 4.44772 3.44772 4 4 4H19C19.5523 4 20 4.44772 20 5V13.5"
        stroke="currentColor" stroke-linecap="round" />
    <circle cx="18" cy="17" r="4" stroke="currentColor" />
    <path d="M17.7433 15.5892V17.3892C17.7433 17.4997 17.8328 17.5892 17.9433 17.5892H19.7433"
        stroke="currentColor" stroke-linecap="round" />
    <path d="M3 8H20" stroke="currentColor" stroke-linecap="round" />
    <path d="M10 10H11" stroke="currentColor" stroke-linecap="round" />
    <path d="M10 13H11" stroke="currentColor" stroke-linecap="round" />
    <path d="M7 3V5M10 3V5M13 3V5M16 3V5" stroke="currentColor" stroke-linecap="round" />
    <path d="M10 16H11" stroke="currentColor" stroke-linecap="round" />
    <path d="M7 13H8" stroke="currentColor" stroke-linecap="round" />
    <path d="M7 16H8" stroke="currentColor" stroke-linecap="round" />
    <path d="M13 10H14" stroke="currentColor" stroke-linecap="round" />
    <path d="M13 13H14" stroke="currentColor" stroke-linecap="round" />
    <path d="M16 10H17" stroke="currentColor" stroke-linecap="round" />
</svg>
    