<svg width="68" height="68" viewBox="0 0 68 68" fill="none" xmlns="http://www.w3.org/2000/svg">
<path d="M62.2888 24.6598C62.2066 20.6893 59.0488 17.2189 55.1018 16.7598C54.0776 16.6398 53.0009 16.6426 51.961 16.6454C51.5317 16.6454 51.0883 16.6468 50.6491 16.6398C49.18 16.6143 48.1501 15.8827 47.6684 14.5211C47.5735 14.2527 47.4828 13.9843 47.3921 13.7145C47.293 13.4193 47.191 13.1142 47.0847 12.8204C46.11 10.1099 43.9609 8.54489 41.1856 8.52652C35.965 8.4898 31.2502 8.49121 26.7706 8.53076C24.4685 8.55054 22.7203 9.52938 21.5727 11.4405C21.1718 12.1086 20.8941 12.86 20.6009 13.6552C20.5031 13.9193 20.4054 14.1849 20.3034 14.4448C19.7126 15.9547 18.7393 16.6299 17.147 16.6369C16.7815 16.6384 16.416 16.6341 16.0504 16.6299C15.3223 16.6214 14.57 16.6129 13.8418 16.6525C10.4956 16.8333 8.03899 18.4209 6.54012 21.3744C6.25678 21.9337 6.08678 22.5665 5.90827 23.2374C5.83177 23.5213 5.75385 23.8151 5.66602 24.1047V51.9008C5.71135 52.0787 5.75243 52.2595 5.79494 52.4389C5.89552 52.8697 5.99044 53.2751 6.12503 53.6621C7.33206 57.1114 10.4814 59.3431 14.1478 59.3473C23.882 59.3572 33.7805 59.3558 43.3517 59.353C46.8538 59.353 50.3559 59.353 53.858 59.3516C53.9756 59.3516 54.0931 59.3473 54.2107 59.3431H54.232C56.3556 59.2668 58.3617 58.3798 59.8804 56.8458C61.4005 55.3119 62.2633 53.3019 62.3114 51.1861C62.3355 50.1338 61.715 49.3964 60.7686 49.3512C59.8237 49.3018 59.1409 49.9826 59.0644 51.0335C58.8391 54.1169 56.7027 56.1099 53.6242 56.1099C38.9174 56.1142 26.075 56.1128 14.366 56.1043C13.7596 56.1043 13.2142 56.0365 12.7424 55.9051C10.351 55.2342 8.92301 53.292 8.92018 50.71C8.91593 46.1591 8.91735 41.6081 8.91735 37.0571V31.7052C8.91735 31.0428 8.91735 30.3803 8.91735 29.7165C8.91593 28.2418 8.9131 26.7164 8.9216 25.2163C8.94001 22.1046 11.1317 19.9096 14.2512 19.8786C14.706 19.8743 15.165 19.8772 15.6098 19.8786C16.1836 19.8814 16.7772 19.8842 17.3566 19.8729C19.7863 19.8235 21.6025 18.791 22.7557 16.8036C23.1155 16.185 23.3663 15.4943 23.6312 14.7626C23.7431 14.4547 23.8579 14.1369 23.9826 13.8247C24.5351 12.4362 25.5183 11.7597 26.9888 11.7583C31.773 11.7526 36.5317 11.7526 41.1317 11.7583C42.4535 11.7597 43.516 12.5055 43.9736 13.7527C44.0969 14.0903 44.2116 14.4321 44.3207 14.7626C44.4043 15.0154 44.4879 15.2668 44.5772 15.5169C45.5504 18.2754 47.7874 19.863 50.7157 19.8743C51.0572 19.8743 51.3986 19.8743 51.7386 19.8729C52.3704 19.8701 53.0235 19.8673 53.6695 19.8828C54.1399 19.8941 54.691 19.9266 55.2208 20.0721C57.625 20.7345 59.0629 22.6724 59.0658 25.2544C59.0686 27.4989 59.0686 29.7433 59.0686 31.9877C59.0686 34.5174 59.0686 37.0486 59.0729 39.5783C59.0729 40.0882 59.2514 40.5431 59.5715 40.858C59.8705 41.1533 60.2643 41.3114 60.7106 41.3016C61.6427 41.2917 62.3029 40.584 62.3157 39.5812C62.3256 38.8071 62.3228 38.019 62.3214 37.2562C62.3214 36.9624 62.3199 36.6686 62.3199 36.3763C62.3199 35.187 62.3242 33.9977 62.3284 32.8084C62.3383 30.136 62.3497 27.3732 62.293 24.6598H62.2888Z" fill="#004F71"/>
<path d="M34.231 23.4061C34.1502 23.4047 34.0709 23.4033 33.9902 23.4033C30.5192 23.4033 27.2325 24.7522 24.7108 27.2184C22.1281 29.7439 20.6689 33.124 20.6037 36.7385C20.4706 44.0946 26.4703 50.1881 33.9788 50.3237C34.0582 50.3237 34.1389 50.3251 34.2182 50.3251C41.4902 50.3251 47.4715 44.3927 47.6061 36.9899C47.6698 33.4418 46.3112 30.0716 43.781 27.4995C41.2479 24.9246 37.8563 23.4711 34.231 23.4061ZM34.1077 47.0849H34.1035C28.4636 47.0849 23.8664 42.5099 23.8522 36.884C23.8452 34.1593 24.9176 31.5886 26.8684 29.6436C28.8107 27.7085 31.3778 26.6435 34.0964 26.6435C34.1077 26.6435 34.1191 26.6435 34.1318 26.6435C39.7788 26.6619 44.3661 31.2524 44.3576 36.8755C44.3491 42.5014 39.7519 47.082 34.1092 47.0849H34.1077Z" fill="#004F71"/>
</svg>
