<svg width="24" height="25" viewBox="0 0 24 25" fill="none" xmlns="http://www.w3.org/2000/svg">
    <circle cx="12" cy="12.5" r="11.5" stroke="currentColor" />
    <path
        d="M10.3685 8.65037C10.4706 8.55409 10.6092 8.5 10.7537 8.5C10.8982 8.5 11.0368 8.55409 11.139 8.65037L14.8403 12.1328C14.9425 12.229 15 12.3595 15 12.4956C15 12.6316 14.9425 12.7621 14.8403 12.8583L11.139 16.3408C11.0025 16.4757 10.7991 16.5304 10.6076 16.4835C10.4161 16.4367 10.2667 16.2957 10.2173 16.1153C10.1679 15.9349 10.2263 15.7435 10.3698 15.6153L13.6859 12.4956L10.3698 9.37583C10.2674 9.27983 10.2097 9.14943 10.2094 9.01336C10.2092 8.87729 10.2664 8.7467 10.3685 8.65037Z"
        fill="currentColor" />
</svg>
    