<svg width="30" height="38" viewBox="0 0 30 38" fill="none" xmlns="http://www.w3.org/2000/svg">
    <path fill-rule="evenodd" clip-rule="evenodd"
        d="M21.3846 0.890171L29.4851 8.52967C29.6368 8.67267 29.7223 8.867 29.7223 9.0705V11.6665H28.1026V9.83317H23.2415C21.4546 9.83317 20.0001 8.46367 20.0001 6.77884V2.1955H3.79705C2.90261 2.1955 2.17539 2.87934 2.17539 3.72267V34.2788C2.17539 35.1203 2.90261 35.806 3.79705 35.806H26.4809C27.3754 35.806 28.1026 35.1203 28.1026 34.2788V26.3332H29.7223V34.2788C29.7223 35.9637 28.2679 37.3332 26.4809 37.3332H3.79705C2.01011 37.3332 0.555664 35.9637 0.555664 34.2788V3.72267C0.555664 2.03784 2.01011 0.666504 3.79705 0.666504H20.8109C21.0268 0.666504 21.2309 0.747171 21.3846 0.890171ZM26.9573 8.30601L21.6218 3.27534V6.77884C21.6218 7.62034 22.3471 8.30601 23.2415 8.30601H26.9573Z"
        fill="currentColor" />
</svg>
    