<svg width="24" height="24" viewBox="0 0 24 24" fill="none" xmlns="http://www.w3.org/2000/svg">
    <path fill-rule="evenodd" clip-rule="evenodd"
        d="M20.854 11.4662V16.4512C20.854 17.8062 19.7 18.9052 18.286 18.9052H5.714C4.296 18.9052 3.146 17.8022 3.146 16.4512V11.3852C3.146 11.0812 2.891 10.8372 2.573 10.8372C2.255 10.8372 2 11.0812 2 11.3852V16.4512C2 18.4102 3.668 20.0002 5.714 20.0002H18.286C20.336 20.0002 22 18.4062 22 16.4512V11.4662C22 11.1622 21.745 10.9182 21.427 10.9182C21.109 10.9182 20.854 11.1662 20.854 11.4662Z"
        fill="currentColor" />
    <path fill-rule="evenodd" clip-rule="evenodd"
        d="M12.4131 15.67L16.0551 12.631C16.2801 12.443 16.2801 12.142 16.0551 11.955C15.8301 11.767 15.4691 11.767 15.2441 11.955L12.5791 14.179V4.478C12.5791 4.213 12.3241 4 12.0061 4C11.6871 4 11.4331 4.213 11.4331 4.478V14.179L8.76711 11.955C8.54211 11.767 8.18111 11.767 7.95611 11.955C7.84611 12.047 7.78711 12.171 7.78711 12.291C7.78711 12.412 7.84211 12.536 7.95611 12.628L11.5981 15.666C11.8271 15.858 12.1921 15.858 12.4131 15.67Z"
        fill="currentColor" />
</svg>
    