<svg width="14" height="15" viewBox="0 0 14 15" fill="none" xmlns="http://www.w3.org/2000/svg">
    <circle cx="7" cy="7.5" r="7" fill="#0FAF4B" />
    <path fill-rule="evenodd" clip-rule="evenodd"
        d="M7.00041 11.5001C6.94838 11.5001 6.9001 11.4794 6.86348 11.4425L3.45878 7.98786C3.40135 7.93024 3.3847 7.84402 3.41591 7.76692C3.44547 7.69272 3.51581 7.64464 3.59489 7.64464H5.4425V4.04573C5.4425 3.74437 5.68266 3.49939 5.97817 3.49939H8.02182C8.31692 3.49939 8.5575 3.74437 8.5575 4.04573V7.64464H10.4059C10.4838 7.64464 10.5554 7.69396 10.5857 7.76775C10.6165 7.84402 10.5999 7.93024 10.5425 7.98786L7.13735 11.4425C7.10114 11.4794 7.05202 11.5001 7.00041 11.5001Z"
        fill="white" />
</svg>
    