<svg width="24" height="25" viewBox="0 0 24 25" fill="none" xmlns="http://www.w3.org/2000/svg">
	<g id="Outline">
		<g id="Group 19994">
			<path id="Vector 150" d="M4.5 11H5.7C5.86569 11 6 11.1343 6 11.3V17.7C6 17.8657 5.86569 18 5.7 18H4.5C3.67157 18 3 17.3284 3 16.5V12.5C3 11.6716 3.67157 11 4.5 11Z" stroke="#FFCB05" />
			<path id="Vector 151" d="M19.5 11H18.3C18.1343 11 18 11.1343 18 11.3V17.7C18 17.8657 18.1343 18 18.3 18H19.5C20.3284 18 21 17.3284 21 16.5V12.5C21 11.6716 20.3284 11 19.5 11Z" stroke="#FFCB05" />
			<path id="Vector 149" d="M5.03987 11C5.03987 11 4.00001 2 12.0001 2C20.0002 2 18.9603 11 18.9603 11" stroke="#FFCB05" />
			<path id="Vector 152" d="M19 18C19 18 19 19.5 15 21" stroke="#FFCB05" />
			<circle id="Ellipse 52" cx="13" cy="20.5" r="2" stroke="#FFCB05" />
		</g>
	</g>
</svg>
