<svg width="30" height="30" viewBox="0 0 30 30" fill="none" xmlns="http://www.w3.org/2000/svg">
    <circle cx="15" cy="15" r="15" fill="#FFCB05" />
    <path
        d="M14.5345 20.1997C13.6032 20.1997 12.8493 20.9758 12.8493 21.907C12.8493 22.8161 13.581 23.6144 14.5345 23.6144C15.4879 23.6144 16.2417 22.8161 16.2417 21.907C16.2417 20.9758 15.4657 20.1997 14.5345 20.1997Z"
        fill="currentColor" />
    <path
        d="M14.8226 7.27295C11.8292 7.27295 10.4545 9.04687 10.4545 10.2442C10.4545 11.1089 11.1862 11.5081 11.7849 11.5081C12.9823 11.5081 12.4945 9.80069 14.7561 9.80069C15.8647 9.80069 16.7517 10.2885 16.7517 11.3085C16.7517 12.5058 15.51 13.1932 14.7783 13.814C14.1352 14.3683 13.2927 15.2774 13.2927 17.1843C13.2927 18.3373 13.6032 18.6699 14.5122 18.6699C15.5986 18.6699 15.8204 18.1821 15.8204 17.7607C15.8204 16.6078 15.8426 15.9426 17.0621 14.9891C17.6608 14.5235 19.5454 13.0157 19.5454 10.9315C19.5454 8.84723 17.6608 7.27295 14.8226 7.27295Z"
        fill="currentColor" />
</svg>
    