<svg width="25" height="24" viewBox="0 0 25 24" fill="none" xmlns="http://www.w3.org/2000/svg">
    <path fill-rule="evenodd" clip-rule="evenodd" d="M21.8331 12.001H15.1671V11.666C15.1671 11.476 15.3091 11.334 15.4991 11.334H21.4981C21.6881 11.334 21.8331 11.476 21.8331 11.666V12.001ZM21.4981 10.667H15.4991C14.9511 10.667 14.5001 11.118 14.5001 11.666V12.333C14.5001 12.517 14.6491 12.665 14.8331 12.667L21.8331 12.668V20.998C21.8331 21.188 21.6881 21.333 21.4981 21.333H15.4991C15.3091 21.333 15.1671 21.188 15.1671 20.998V20.666H20.8311C21.2761 20.666 21.2761 19.999 20.8311 19.999H15.1671V13.666C15.1771 13.212 14.4901 13.212 14.5001 13.666V20.998C14.5001 21.546 14.9511 22 15.4991 22H21.4981C22.0461 22 22.5001 21.546 22.5001 20.998V11.666C22.5001 11.118 22.0461 10.667 21.4981 10.667Z" fill="currentColor"/>
    <path fill-rule="evenodd" clip-rule="evenodd" d="M14.8324 4.00294H18.8324C19.3924 4.00294 19.8324 4.44194 19.8324 5.00194V9.00194C19.8224 9.45694 20.5094 9.45694 20.4994 9.00194V5.00194C20.4994 4.08394 19.7504 3.33594 18.8324 3.33594H14.8164C14.3554 3.35694 14.3874 4.02394 14.8324 4.00294Z" fill="currentColor"/>
    <path fill-rule="evenodd" clip-rule="evenodd" d="M12.831 19.9992H6.16502C5.60502 19.9992 5.16602 19.5602 5.16602 19.0002V15.0002C5.16902 14.8112 5.01502 14.6592 4.82602 14.6622C4.64302 14.6662 4.49802 14.8172 4.50002 15.0002V19.0002C4.50002 19.9182 5.24802 20.6662 6.16502 20.6662H12.831C13.285 20.6762 13.285 19.9892 12.831 19.9992Z" fill="currentColor"/>
    <path fill-rule="evenodd" clip-rule="evenodd" d="M12.5 12.6678H3.16701V12.0008H9.50101C9.93501 11.9908 9.93501 11.3438 9.50101 11.3348H3.83301V10.6678H11.833V11.3348H10.831C10.397 11.3448 10.397 11.9918 10.831 12.0008H12.5V12.6678ZM4.50001 10.0008H5.16701V5.33384H4.50001V10.0008ZM5.83101 10.0008H6.833V5.33384H5.83101V10.0008ZM7.50001 10.0008H8.16701V5.33384H7.50001V10.0008ZM8.833 10.0008H9.833V5.33384H8.833V10.0008ZM10.499 10.0008H11.166V5.33384H10.499V10.0008ZM3.16701 4.66984V4.56084L7.83201 2.69384L12.5 4.56084V4.66984H3.16701ZM13.167 12.9998V11.6668C13.166 11.4828 13.016 11.3338 12.832 11.3348H12.5V10.3328C12.499 10.1488 12.349 9.99984 12.165 10.0008H11.833V5.33384H12.832C13.016 5.33384 13.166 5.18584 13.167 5.00184V4.33484C13.167 4.19884 13.084 4.07584 12.958 4.02484L7.958 2.02484C7.866 1.98784 7.78 1.99584 7.709 2.02484L2.709 4.02484C2.583 4.07584 2.50001 4.19884 2.50001 4.33484V5.00184C2.50101 5.18484 2.649 5.33284 2.832 5.33384H3.833V10.0008H3.49901C3.31601 10.0018 3.16701 10.1498 3.16701 10.3328V11.3348H2.832C2.649 11.3348 2.50101 11.4838 2.50001 11.6668V12.9998C2.49901 13.1838 2.648 13.3338 2.832 13.3348H12.832C13.017 13.3348 13.167 13.1848 13.167 12.9998Z" fill="currentColor"/>
    <path fill-rule="evenodd" clip-rule="evenodd" d="M18.1026 15.6727C18.0006 15.5607 17.9606 15.4107 17.9946 15.2607C18.0216 15.1387 18.0946 15.0337 18.1996 14.9617V15.7497H18.1986C18.1596 15.7257 18.1276 15.6997 18.1026 15.6727ZM18.7596 16.5807C19.1636 16.7257 19.1386 17.0727 19.1216 17.1767C19.0896 17.3647 18.9666 17.5637 18.7596 17.6627V16.5807ZM17.7446 17.5307C17.6146 17.4457 17.4416 17.4827 17.3566 17.6117C17.2716 17.7417 17.3076 17.9157 17.4376 18.0007C17.7346 18.1957 17.9426 18.2597 18.1986 18.2787V18.4967C18.1986 18.6517 18.3246 18.7777 18.4796 18.7777C18.6336 18.7777 18.7596 18.6517 18.7596 18.4967V18.2527C19.2726 18.1327 19.6016 17.6977 19.6736 17.2697C19.7666 16.7187 19.4796 16.2397 18.9416 16.0497C18.8806 16.0277 18.8206 16.0067 18.7596 15.9857V14.9007C18.8526 14.9407 18.9176 14.9947 18.9466 15.0227C18.9986 15.0897 19.0786 15.1327 19.1696 15.1327C19.3246 15.1327 19.4506 15.0067 19.4506 14.8507C19.4506 14.7777 19.4226 14.7117 19.3776 14.6617V14.6607C19.3636 14.6447 19.1316 14.3937 18.7596 14.3147V14.1697C18.7596 14.0147 18.6336 13.8887 18.4796 13.8887C18.3246 13.8887 18.1986 14.0147 18.1986 14.1697V14.3457C18.1656 14.3567 18.1306 14.3687 18.0966 14.3827C17.7606 14.5197 17.5246 14.7947 17.4476 15.1377C17.3736 15.4637 17.4646 15.8057 17.6896 16.0517C17.8166 16.1917 17.9926 16.2897 18.1986 16.3757V17.7147C18.0396 17.6977 17.9266 17.6497 17.7446 17.5307Z" fill="currentColor"/>
    </svg>
    