<?xml version="1.0" encoding="utf-8"?>
<!-- Generator: Adobe Illustrator 27.4.0, SVG Export Plug-In . SVG Version: 6.00 Build 0)  -->
<svg version="1.1" id="Layer_1" xmlns="http://www.w3.org/2000/svg" xmlns:xlink="http://www.w3.org/1999/xlink" x="0px" y="0px"
	 viewBox="0 0 24 24" style="enable-background:new 0 0 24 24;" xml:space="preserve">
<style type="text/css">
	.st0{clip-path:url(#SVGID_00000053524646186860914640000002596301449914733215_);}
	.st1{clip-path:url(#SVGID_00000015343676056875899230000002116843160099204263_);}
	.st2{fill:#004F71;}
</style>
<g>
	<defs>
		<rect id="SVGID_1_" width="24" height="24"/>
	</defs>
	<clipPath id="SVGID_00000031904291120716448790000001196712616871072132_">
		<use xlink:href="#SVGID_1_"  style="overflow:visible;"/>
	</clipPath>
	<g style="clip-path:url(#SVGID_00000031904291120716448790000001196712616871072132_);">
		<g>
			<defs>
				<rect id="SVGID_00000106140443923525674160000009642956604974349988_" x="5" y="5" width="14" height="14"/>
			</defs>
			<clipPath id="SVGID_00000073723119286969036990000006912317832867989649_">
				<use xlink:href="#SVGID_00000106140443923525674160000009642956604974349988_"  style="overflow:visible;"/>
			</clipPath>
			<g style="clip-path:url(#SVGID_00000073723119286969036990000006912317832867989649_);">
				<path class="st2" d="M6.4,16.3c0-0.7,0-1.5,0-2.2c0-0.1,0-0.2-0.1-0.2C5.5,13.6,5,12.8,5,12c0-0.8,0.5-1.6,1.3-1.8
					c0.1,0,0.1-0.1,0.1-0.2c0-1.4,0-2.9,0-4.3c0-0.3,0.1-0.5,0.4-0.6c0.3-0.1,0.6,0.1,0.7,0.4c0,0.1,0,0.2,0,0.3c0,1.4,0,2.8,0,4.2
					c0,0.1,0,0.2,0.2,0.3c0.8,0.3,1.3,1,1.3,1.8c0,0.8-0.5,1.6-1.3,1.8c-0.1,0-0.2,0.1-0.2,0.2c0,1.4,0,2.8,0,4.3c0,0.1,0,0.2,0,0.3
					C7.4,18.9,7.1,19,6.9,19c-0.3,0-0.4-0.3-0.4-0.5c0-0.5,0-1,0-1.6C6.4,16.7,6.4,16.5,6.4,16.3L6.4,16.3z M6.1,12
					c0,0.5,0.4,0.9,0.9,0.9c0.5,0,0.9-0.4,0.9-0.9c0-0.5-0.4-0.9-0.9-0.9C6.5,11.1,6.1,11.5,6.1,12L6.1,12z"/>
				<path class="st2" d="M16.5,18c0.1-0.4,0-0.5-0.4-0.7c-0.8-0.4-1.2-1.2-1-2.1c0.1-0.8,0.8-1.4,1.6-1.5c1-0.1,1.9,0.5,2.2,1.4
					c0.3,1-0.3,2-1.2,2.3c-0.1,0-0.2,0.1-0.2,0.2c0,0.3,0,0.5,0,0.8c0,0.3-0.2,0.5-0.5,0.5c-0.3,0-0.5-0.2-0.5-0.5
					C16.5,18.3,16.5,18.2,16.5,18L16.5,18z M17,16.5c0.5,0,0.9-0.4,0.9-0.9c0-0.5-0.4-0.9-0.9-0.9c-0.5,0-0.9,0.4-0.9,0.9
					C16.1,16.1,16.5,16.5,17,16.5z"/>
				<path class="st2" d="M12.5,6.5c0.4,0.1,0.8,0.4,1.1,0.8c0.5,0.7,0.5,1.6,0,2.2c-0.5,0.7-1.3,1-2.1,0.8c-0.8-0.2-1.4-0.9-1.4-1.7
					c-0.1-0.9,0.4-1.7,1.3-2.1c0.1,0,0.1-0.1,0.1-0.2c0-0.3,0-0.5,0-0.8C11.5,5.2,11.7,5,12,5c0.3,0,0.5,0.2,0.5,0.6
					C12.5,5.9,12.5,6.2,12.5,6.5C12.5,6.5,12.5,6.5,12.5,6.5L12.5,6.5z M12,7.5c-0.5,0-0.9,0.4-0.9,0.9c0,0.5,0.4,0.9,0.9,0.9
					c0.5,0,0.9-0.4,0.9-0.9C12.9,7.9,12.5,7.5,12,7.5L12,7.5z"/>
				<path class="st2" d="M17.6,8.8c0,1.1,0,2.1,0,3.2c0,0.4-0.4,0.7-0.7,0.5c-0.2-0.1-0.3-0.2-0.3-0.4c0-0.1,0-0.1,0-0.2
					c0-2.1,0-4.2,0-6.3c0-0.1,0-0.2,0.1-0.4C16.7,5.1,16.9,5,17.1,5c0.2,0.1,0.4,0.3,0.4,0.5c0,0.1,0,0.1,0,0.2
					C17.6,6.7,17.6,7.8,17.6,8.8L17.6,8.8z"/>
				<path class="st2" d="M12.5,15.2c0,1.1,0,2.1,0,3.2c0,0.4-0.4,0.7-0.7,0.5c-0.2-0.1-0.3-0.3-0.3-0.5c0-0.5,0-1,0-1.4
					c0-1.6,0-3.2,0-4.8c0,0,0-0.1,0-0.1c0-0.4,0.2-0.6,0.5-0.6c0.3,0,0.5,0.2,0.5,0.6c0,0.4,0,0.8,0,1.2
					C12.5,14,12.5,14.6,12.5,15.2L12.5,15.2z"/>
			</g>
		</g>
		<g>
			<path class="st2" d="M12,24C5.4,24,0,18.6,0,12C0,5.4,5.4,0,12,0c6.6,0,12,5.4,12,12C24,18.6,18.6,24,12,24z M12,1
				C5.9,1,1,5.9,1,12s4.9,11,11,11s11-4.9,11-11S18.1,1,12,1z"/>
		</g>
	</g>
</g>
</svg>
