<svg width="34" height="34" viewBox="0 0 34 34" fill="none" xmlns="http://www.w3.org/2000/svg">
<g id="icons - airtime">
<path id="Union" fill-rule="evenodd" clip-rule="evenodd" d="M20.4062 1.81274C20.5879 1.81274 20.7613 1.88474 20.8889 2.01401L27.7095 8.83085C27.8371 8.95848 27.9091 9.13193 27.9091 9.31356V29.085C27.9091 30.5888 26.6867 31.8127 25.1829 31.8127H8.81883C7.31497 31.8127 6.09094 30.5888 6.09094 29.085V4.54046C6.09094 3.0367 7.31497 1.81274 8.81883 1.81274H20.4062Z" fill="#FFCB05"/>
<path id="shape:icon" fill-rule="evenodd" clip-rule="evenodd" d="M14.6139 17.3819H12.227V15.5921C12.227 15.2628 12.4948 14.995 12.8241 14.995H14.6139V17.3819ZM15.8067 17.3819H18.1936V14.995H15.8067V17.3819ZM19.3864 14.995H21.1762C21.5055 14.995 21.7733 15.2628 21.7733 15.5921V17.3819H19.3864V14.995ZM21.7733 25.1383C21.7733 25.4676 21.5055 25.7339 21.1762 25.7339H19.3863V22.7514C19.3863 22.422 19.12 22.1543 18.7907 22.1543H12.227V18.5746H21.7733V25.1383ZM15.8067 25.7339H18.1936V23.347H15.8067V25.7339ZM14.6139 25.734H12.8241C12.4948 25.734 12.227 25.4677 12.227 25.1383V23.3485H14.6139V25.734ZM11.0343 15.5921V25.1383C11.0343 26.1249 11.8376 26.9281 12.8241 26.9281H21.1762C22.1642 26.9281 22.966 26.1249 22.966 25.1383V15.5921C22.966 14.6055 22.1642 13.8022 21.1762 13.8022H12.8241C11.8376 13.8022 11.0343 14.6055 11.0343 15.5921Z" fill="#004F71"/>
</g>
</svg>
