<svg width="24" height="24" viewBox="0 0 24 24" fill="none" xmlns="http://www.w3.org/2000/svg">
<g clip-path="url(#clip0_841_9351)">
<g clip-path="url(#clip1_841_9351)">
<path d="M6.44181 16.2554C6.44181 15.5203 6.43911 14.7857 6.44451 14.0506C6.44541 13.9359 6.40896 13.8864 6.30141 13.8464C5.5103 13.5522 5.0009 12.8252 5 12.0019C4.9991 11.1764 5.50805 10.444 6.29556 10.1538C6.41076 10.1115 6.44496 10.0562 6.44451 9.93699C6.44046 8.4893 6.44181 7.04206 6.44226 5.59438C6.44226 5.29566 6.57186 5.10312 6.81801 5.02529C7.11051 4.93307 7.42686 5.11526 7.48671 5.41713C7.50426 5.5044 7.50606 5.59528 7.50606 5.6848C7.50741 7.0929 7.50831 8.501 7.50426 9.90955C7.50426 10.0432 7.53351 10.1124 7.67256 10.1637C8.43801 10.4449 8.93707 11.1777 8.93797 11.9956C8.93886 12.8126 8.43981 13.5486 7.67886 13.8329C7.54746 13.8819 7.50291 13.9413 7.50381 14.0821C7.50921 15.5014 7.50831 16.9208 7.50516 18.3406C7.50516 18.4508 7.49481 18.5678 7.45701 18.6694C7.37061 18.9007 7.12086 19.0334 6.88866 18.992C6.63171 18.9466 6.44676 18.741 6.44451 18.4769C6.43956 17.955 6.44226 17.4332 6.44226 16.9118C6.44226 16.6932 6.44226 16.4741 6.44226 16.2554L6.44181 16.2554ZM6.06965 12.0046C6.07145 12.4977 6.47601 12.9025 6.96831 12.9052C7.46691 12.9079 7.87461 12.4968 7.87191 11.9942C7.86921 11.498 7.46826 11.0954 6.97461 11.0936C6.47646 11.0914 6.06785 11.503 6.06965 12.005L6.06965 12.0046Z" fill="#004F71"/>
<path d="M16.5001 18.0242C16.5825 17.6621 16.4529 17.4745 16.0974 17.3062C15.3112 16.9337 14.9404 16.0668 15.1047 15.1824C15.2491 14.4041 15.9313 13.7639 16.7395 13.6479C17.7426 13.5034 18.6876 14.1225 18.9351 15.0861C19.1889 16.0731 18.6772 17.0714 17.7268 17.429C17.6044 17.4754 17.5509 17.5275 17.5576 17.6666C17.5707 17.9297 17.5644 18.1938 17.5603 18.4574C17.5554 18.7588 17.3367 18.9878 17.0505 18.9986C16.7652 19.0094 16.5271 18.7971 16.5024 18.4957C16.4898 18.3396 16.5001 18.1817 16.5001 18.0247L16.5001 18.0242ZM17.0379 16.4906C17.5428 16.487 17.9392 16.0826 17.9338 15.5765C17.9284 15.0834 17.5234 14.6871 17.0262 14.6889C16.5235 14.6907 16.1248 15.0991 16.132 15.6048C16.1388 16.1037 16.5379 16.4937 17.0379 16.4906Z" fill="#004F71"/>
<path d="M12.5494 6.51052C12.9774 6.64863 13.3387 6.89201 13.6065 7.2654C14.0794 7.92401 14.0911 8.83905 13.6335 9.50981C13.1587 10.2062 12.3123 10.522 11.491 10.3088C10.7125 10.1068 10.1234 9.41534 10.0451 8.61142C9.95649 7.69953 10.4641 6.88076 11.3249 6.5609C11.4302 6.52176 11.4743 6.47813 11.4698 6.36026C11.4595 6.09708 11.4644 5.83301 11.4671 5.56938C11.4703 5.24008 11.7007 4.9976 12.0045 4.99985C12.3087 5.0021 12.5328 5.24323 12.5355 5.57568C12.5382 5.87305 12.5373 6.17041 12.5382 6.46778C12.5382 6.47857 12.5436 6.48937 12.549 6.51052L12.5494 6.51052ZM12.0031 7.50743C11.5063 7.50653 11.1026 7.90242 11.0954 8.39728C11.0882 8.89349 11.5 9.30782 12 9.30872C12.5008 9.30917 12.9126 8.89708 12.9076 8.40043C12.9031 7.90647 12.4995 7.50788 12.0027 7.50743L12.0031 7.50743Z" fill="#004F71"/>
<path d="M17.5618 8.78262C17.5618 9.84881 17.564 10.9146 17.5604 11.9808C17.5591 12.3757 17.2028 12.6313 16.8478 12.4981C16.6674 12.4302 16.5509 12.3002 16.5149 12.1076C16.5028 12.0419 16.4978 11.974 16.4978 11.907C16.4969 9.81417 16.496 7.72137 16.5001 5.62902C16.5001 5.50935 16.5226 5.37934 16.5739 5.27317C16.6733 5.06578 16.9279 4.96231 17.1434 5.0136C17.3886 5.07163 17.5496 5.26642 17.5604 5.5179C17.5627 5.57413 17.5618 5.62992 17.5618 5.68615C17.5618 6.71861 17.5618 7.75061 17.5618 8.78307L17.5618 8.78262Z" fill="#004F71"/>
<path d="M12.5363 15.2493C12.5363 16.3096 12.5381 17.3704 12.5354 18.4308C12.534 18.8361 12.1764 19.0966 11.816 18.9634C11.601 18.8838 11.4692 18.6908 11.4683 18.4384C11.4656 17.9616 11.4674 17.4847 11.4674 17.0078C11.4674 15.4032 11.4674 13.7985 11.4674 12.1938C11.4674 12.1546 11.4674 12.115 11.4674 12.0759C11.4687 11.7142 11.6829 11.4681 11.9982 11.4659C12.3136 11.4636 12.5354 11.7111 12.5363 12.0683C12.5372 12.4835 12.5363 12.8987 12.5363 13.314C12.5363 13.9591 12.5363 14.6046 12.5363 15.2497L12.5363 15.2493Z" fill="#004F71"/>
</g>
<circle cx="12" cy="12" r="11.5" stroke="#004F71"/>
</g>
<defs>
<clipPath id="clip0_841_9351">
<rect width="24" height="24" fill="white"/>
</clipPath>
<clipPath id="clip1_841_9351">
<rect width="14" height="14" fill="white" transform="translate(5 19) rotate(-90)"/>
</clipPath>
</defs>
</svg>
