<svg width="24" height="24" viewBox="0 0 24 24" fill="none" xmlns="http://www.w3.org/2000/svg">
<g id="icons - more">
<path id="shape:icon" fill-rule="evenodd" clip-rule="evenodd" d="M13.9657 4.44793C13.9657 5.50705 13.0834 6.36863 12.0005 6.36863C10.9166 6.36863 10.0353 5.50705 10.0353 4.44793C10.0353 3.3888 10.9166 2.52722 12.0005 2.52722C13.0834 2.52722 13.9657 3.3888 13.9657 4.44793ZM9 4.44792C9 6.06247 10.3467 7.375 12.0005 7.375C13.6533 7.375 15 6.06247 15 4.44792C15 2.83337 13.6533 1.52084 12.0005 1.52084C10.3467 1.52084 9 2.83337 9 4.44792Z" fill="white"/>
<path id="shape:icon_2" fill-rule="evenodd" clip-rule="evenodd" d="M13.9657 11.7604C13.9657 12.8196 13.0834 13.6811 12.0005 13.6811C10.9166 13.6811 10.0353 12.8196 10.0353 11.7604C10.0353 10.7013 10.9166 9.83974 12.0005 9.83974C13.0834 9.83974 13.9657 10.7013 13.9657 11.7604ZM9 11.7604C9 13.375 10.3467 14.6875 12.0005 14.6875C13.6533 14.6875 15 13.375 15 11.7604C15 10.1459 13.6533 8.83334 12.0005 8.83334C10.3467 8.83334 9 10.1459 9 11.7604Z" fill="white"/>
<path id="shape:icon_3" fill-rule="evenodd" clip-rule="evenodd" d="M13.9657 19.0729C13.9657 20.1321 13.0834 20.9936 12.0005 20.9936C10.9166 20.9936 10.0353 20.1321 10.0353 19.0729C10.0353 18.0138 10.9166 17.1522 12.0005 17.1522C13.0834 17.1522 13.9657 18.0138 13.9657 19.0729ZM9 19.0729C9 20.6875 10.3467 22 12.0005 22C13.6533 22 15 20.6875 15 19.0729C15 17.4584 13.6533 16.1458 12.0005 16.1458C10.3467 16.1458 9 17.4584 9 19.0729Z" fill="white"/>
</g>
</svg>
