<?xml version="1.0" encoding="utf-8"?>
<!-- Generator: Adobe Illustrator 27.4.0, SVG Export Plug-In . SVG Version: 6.00 Build 0)  -->
<svg version="1.1" id="Layer_3" xmlns="http://www.w3.org/2000/svg" xmlns:xlink="http://www.w3.org/1999/xlink" x="0px" y="0px"
	 viewBox="0 0 34 34" style="enable-background:new 0 0 34 34;" xml:space="preserve">
<style type="text/css">
	.st0{fill-rule:evenodd;clip-rule:evenodd;fill:#FFCB05;}
	.st1{fill-rule:evenodd;clip-rule:evenodd;fill:#004F71;}
</style>
<g id="Layer_2">
	<g id="icons_-_airtime">
		<path id="Union" class="st0" d="M20.4,1.8c0.2,0,0.4,0.1,0.5,0.2l6.8,6.8c0.1,0.1,0.2,0.3,0.2,0.5v19.8c0,1.5-1.2,2.7-2.7,2.7H8.8
			c-1.5,0-2.7-1.2-2.7-2.7V4.5c0-1.5,1.2-2.7,2.7-2.7H20.4z"/>
		<path id="shape:icon" class="st1" d="M14.6,17.4h-2.4v-1.8c0-0.3,0.3-0.6,0.6-0.6h1.8V17.4z M15.8,17.4h2.4V15h-2.4V17.4z
			 M19.4,15h1.8c0.3,0,0.6,0.3,0.6,0.6v1.8h-2.4V15z M21.8,25.1c0,0.3-0.3,0.6-0.6,0.6h-1.8v-3c0-0.3-0.3-0.6-0.6-0.6h-6.6v-3.6h9.5
			V25.1z M15.8,25.7h2.4v-2.4h-2.4V25.7z M14.6,25.7h-1.8c-0.3,0-0.6-0.3-0.6-0.6v-1.8h2.4V25.7z M11,15.6v9.5c0,1,0.8,1.8,1.8,1.8
			h8.4c1,0,1.8-0.8,1.8-1.8v-9.5c0-1-0.8-1.8-1.8-1.8h-8.4C11.8,13.8,11,14.6,11,15.6z"/>
	</g>
</g>
</svg>
