<svg width="24" height="24" viewBox="0 0 24 24" fill="none" xmlns="http://www.w3.org/2000/svg">
<g id="icons - ID book">
<g id="Shape">
<path fill-rule="evenodd" clip-rule="evenodd" d="M19.6581 17.9287C19.847 17.9287 20 17.7812 20 17.5991V5.94398C20 5.10288 19.3427 4.4074 18.4973 4.30857V1.7692C18.5005 1.28172 18.0078 0.907875 17.5199 1.02002L12.7566 2.08011C12.5726 2.12107 12.4579 2.29803 12.5004 2.4754C12.5429 2.65276 12.7265 2.76337 12.9105 2.72237L17.674 1.66224C17.7559 1.64752 17.8097 1.69045 17.8134 1.7692V4.29604H6.11214C6.20593 4.23615 6.31157 4.19097 6.42646 4.16544L11.3578 3.06791C11.5418 3.02695 11.6565 2.84999 11.614 2.67262C11.5716 2.49526 11.3879 2.38456 11.2039 2.42565L6.27277 3.52309C5.53754 3.68635 5.01436 4.308 5.0005 5.0348L5.00036 5.04381C5.00018 5.05076 5 5.05783 5 5.06504V22.731C5 23.155 5.35795 23.5 5.79787 23.5H18.2903C19.233 23.5 20 22.7608 20 21.8521V19.1372C20 18.9552 19.847 18.8076 19.6581 18.8076C19.4692 18.8076 19.3161 18.9552 19.3161 19.1372V21.8521C19.3161 22.3973 18.8559 22.8408 18.2903 22.8408H5.79787C5.735 22.8408 5.68389 22.7915 5.68389 22.731V5.06504C5.68389 5.00448 5.735 4.95518 5.79787 4.95518H18.2903C18.8559 4.95518 19.3161 5.39871 19.3161 5.94394V17.5991C19.3161 17.7812 19.4692 17.9287 19.6581 17.9287ZM17.9663 18.8312C17.9663 18.6492 17.8132 18.5016 17.6244 18.5016H7.561C7.37211 18.5016 7.21905 18.6492 7.21905 18.8312C7.21905 19.0132 7.37211 19.1608 7.561 19.1608H17.6244C17.8132 19.1608 17.9663 19.0132 17.9663 18.8312ZM9.95461 20.1496C9.95461 19.9676 10.1077 19.82 10.2966 19.82H14.8888C15.0777 19.82 15.2308 19.9676 15.2308 20.1496C15.2308 20.3316 15.0777 20.4792 14.8888 20.4792H10.2966C10.1077 20.4792 9.95461 20.3316 9.95461 20.1496Z" fill="#004F71"/>
<path d="M18.4973 4.30857H18.3285V4.45874L18.4777 4.47618L18.4973 4.30857ZM18.4973 1.7692L18.3285 1.76808V1.7692H18.4973ZM17.5199 1.02002L17.5565 1.18475L17.5577 1.18449L17.5199 1.02002ZM12.7566 2.08011L12.72 1.91539L12.72 1.91539L12.7566 2.08011ZM12.5004 2.4754L12.6645 2.43608L12.5004 2.4754ZM12.9105 2.72237L12.8739 2.55765L12.8738 2.55766L12.9105 2.72237ZM17.674 1.66224L17.6441 1.49601L17.6373 1.49752L17.674 1.66224ZM17.8134 1.7692H17.9823L17.9819 1.76139L17.8134 1.7692ZM17.8134 4.29604V4.46479H17.9821V4.29604H17.8134ZM6.11214 4.29604L6.02131 4.15382L5.53441 4.46479H6.11214V4.29604ZM6.42646 4.16544L6.46307 4.33017L6.46312 4.33016L6.42646 4.16544ZM11.3578 3.06791L11.3945 3.23263L11.3945 3.23263L11.3578 3.06791ZM11.2039 2.42565L11.2406 2.59037L11.2407 2.59034L11.2039 2.42565ZM6.27277 3.52309L6.30935 3.68783L6.30943 3.68781L6.27277 3.52309ZM5.0005 5.0348L4.83178 5.03159L4.83177 5.03224L5.0005 5.0348ZM5.00036 5.04381L5.16907 5.04824L5.1691 5.04637L5.00036 5.04381ZM19.8313 17.5991C19.8313 17.6822 19.7596 17.76 19.6581 17.76V18.0975C19.9343 18.0975 20.1688 17.8802 20.1688 17.5991H19.8313ZM19.8313 5.94398V17.5991H20.1688V5.94398H19.8313ZM18.4777 4.47618C19.2442 4.56578 19.8313 5.1945 19.8313 5.94398H20.1688C20.1688 5.01125 19.4412 4.24902 18.5169 4.14096L18.4777 4.47618ZM18.3285 1.7692V4.30857H18.666V1.7692H18.3285ZM17.5577 1.18449C17.9478 1.09481 18.331 1.39793 18.3285 1.76808L18.666 1.77032C18.67 1.1655 18.0678 0.720936 17.4821 0.855561L17.5577 1.18449ZM12.7933 2.24483L17.5565 1.18474L17.4832 0.855303L12.72 1.91539L12.7933 2.24483ZM12.6645 2.43608C12.6452 2.35558 12.696 2.26649 12.7933 2.24483L12.72 1.91539C12.4493 1.97565 12.2706 2.24048 12.3363 2.51471L12.6645 2.43608ZM12.8738 2.55766C12.7747 2.57973 12.6844 2.51892 12.6645 2.43608L12.3363 2.51471C12.4014 2.7866 12.6783 2.94701 12.9472 2.88708L12.8738 2.55766ZM17.6373 1.49752L12.8739 2.55765L12.9472 2.88709L17.7106 1.82696L17.6373 1.49752ZM17.9819 1.76139C17.9784 1.68501 17.9485 1.60319 17.8764 1.54732C17.805 1.49194 17.7189 1.48271 17.6441 1.49615L17.7038 1.82833C17.711 1.82704 17.6927 1.83191 17.6696 1.81401C17.6459 1.79562 17.6447 1.77464 17.6448 1.77701L17.9819 1.76139ZM17.9821 4.29604V1.7692H17.6446V4.29604H17.9821ZM6.11214 4.46479H17.8134V4.12729H6.11214V4.46479ZM6.38985 4.00071C6.25507 4.03066 6.13116 4.08367 6.02131 4.15382L6.20297 4.43826C6.2807 4.38862 6.36806 4.35128 6.46307 4.33017L6.38985 4.00071ZM11.3212 2.90319L6.3898 4.00072L6.46312 4.33016L11.3945 3.23263L11.3212 2.90319ZM11.4499 2.71194C11.4692 2.79244 11.4185 2.88153 11.3212 2.90319L11.3945 3.23263C11.6652 3.17237 11.8439 2.90753 11.7782 2.63331L11.4499 2.71194ZM11.2407 2.59034C11.3396 2.56826 11.4301 2.62904 11.4499 2.71194L11.7782 2.63331C11.713 2.36148 11.4361 2.20087 11.1671 2.26096L11.2407 2.59034ZM6.30943 3.68781L11.2406 2.59037L11.1673 2.26093L6.23611 3.35837L6.30943 3.68781ZM5.16922 5.03802C5.18152 4.39305 5.64624 3.83507 6.30935 3.68783L6.23619 3.35835C5.42883 3.53763 4.8472 4.22294 4.83178 5.03159L5.16922 5.03802ZM5.1691 5.04637L5.16923 5.03737L4.83177 5.03224L4.83163 5.04125L5.1691 5.04637ZM5.16875 5.06504C5.16875 5.06037 5.16887 5.05543 5.16906 5.04824L4.83167 5.03938C4.8315 5.04608 4.83125 5.05529 4.83125 5.06504H5.16875ZM5.16875 22.731V5.06504H4.83125V22.731H5.16875ZM5.79787 23.3313C5.44524 23.3313 5.16875 23.056 5.16875 22.731H4.83125C4.83125 23.254 5.27066 23.6688 5.79787 23.6688V23.3313ZM18.2903 23.3313H5.79787V23.6688H18.2903V23.3313ZM19.8313 21.8521C19.8313 22.6618 19.1458 23.3313 18.2903 23.3313V23.6688C19.3203 23.6688 20.1688 22.8598 20.1688 21.8521H19.8313ZM19.8313 19.1372V21.8521H20.1688V19.1372H19.8313ZM19.6581 18.9763C19.7596 18.9763 19.8313 19.0541 19.8313 19.1372H20.1688C20.1688 18.8562 19.9343 18.6388 19.6581 18.6388V18.9763ZM19.4849 19.1372C19.4849 19.0541 19.5565 18.9763 19.6581 18.9763V18.6388C19.3819 18.6388 19.1474 18.8562 19.1474 19.1372H19.4849ZM19.4849 21.8521V19.1372H19.1474V21.8521H19.4849ZM18.2903 23.0096C18.9432 23.0096 19.4849 22.4963 19.4849 21.8521H19.1474C19.1474 22.2983 18.7686 22.6721 18.2903 22.6721V23.0096ZM5.79787 23.0096H18.2903V22.6721H5.79787V23.0096ZM5.51514 22.731C5.51514 22.8905 5.64766 23.0096 5.79787 23.0096V22.6721C5.82234 22.6721 5.85264 22.6926 5.85264 22.731H5.51514ZM5.51514 5.06504V22.731H5.85264V5.06504H5.51514ZM5.79787 4.78643C5.64767 4.78643 5.51514 4.90553 5.51514 5.06504H5.85264C5.85264 5.10344 5.82233 5.12393 5.79787 5.12393V4.78643ZM18.2903 4.78643H5.79787V5.12393H18.2903V4.78643ZM19.4849 5.94394C19.4849 5.29971 18.9432 4.78643 18.2903 4.78643V5.12393C18.7686 5.12393 19.1474 5.49772 19.1474 5.94394H19.4849ZM19.4849 17.5991V5.94394H19.1474V17.5991H19.4849ZM19.6581 17.76C19.5565 17.76 19.4849 17.6822 19.4849 17.5991H19.1474C19.1474 17.8801 19.3819 18.0975 19.6581 18.0975V17.76ZM17.6244 18.6704C17.7259 18.6704 17.7976 18.7482 17.7976 18.8312H18.1351C18.1351 18.5502 17.9006 18.3329 17.6244 18.3329V18.6704ZM7.561 18.6704H17.6244V18.3329H7.561V18.6704ZM7.3878 18.8312C7.3878 18.7482 7.45941 18.6704 7.561 18.6704V18.3329C7.2848 18.3329 7.0503 18.5502 7.0503 18.8312H7.3878ZM7.561 18.9921C7.45941 18.9921 7.3878 18.9143 7.3878 18.8312H7.0503C7.0503 19.1122 7.2848 19.3296 7.561 19.3296V18.9921ZM17.6244 18.9921H7.561V19.3296H17.6244V18.9921ZM17.7976 18.8312C17.7976 18.9143 17.7259 18.9921 17.6244 18.9921V19.3296C17.9006 19.3296 18.1351 19.1122 18.1351 18.8312H17.7976ZM10.2966 19.6512C10.0204 19.6512 9.78586 19.8686 9.78586 20.1496H10.1234C10.1234 20.0666 10.195 19.9888 10.2966 19.9888V19.6512ZM14.8888 19.6512H10.2966V19.9888H14.8888V19.6512ZM15.3995 20.1496C15.3995 19.8686 15.165 19.6512 14.8888 19.6512V19.9888C14.9904 19.9888 15.062 20.0666 15.062 20.1496H15.3995ZM14.8888 20.6479C15.165 20.6479 15.3995 20.4306 15.3995 20.1496H15.062C15.062 20.2326 14.9904 20.3104 14.8888 20.3104V20.6479ZM10.2966 20.6479H14.8888V20.3104H10.2966V20.6479ZM9.78586 20.1496C9.78586 20.4306 10.0204 20.6479 10.2966 20.6479V20.3104C10.195 20.3104 10.1234 20.2326 10.1234 20.1496H9.78586Z" fill="#004F71"/>
</g>
<g id="Shape_2">
<path fill-rule="evenodd" clip-rule="evenodd" d="M9.96507 14.5576C10.7761 15.2459 11.8095 15.625 12.875 15.625C13.9405 15.625 14.9739 15.2459 15.7849 14.5577C15.9754 14.3961 16.154 14.2171 16.3159 14.0254C16.9989 13.2158 17.375 12.1858 17.375 11.125C17.375 9.92299 16.9069 8.79295 16.057 7.94301C15.2071 7.09307 14.077 6.625 12.875 6.625C11.673 6.625 10.5429 7.09307 9.69301 7.94301C8.84307 8.79295 8.375 9.92299 8.375 11.125C8.375 12.1858 8.75112 13.2158 9.43419 14.0255C9.59601 14.2171 9.77464 14.3961 9.96507 14.5576ZM8.93752 11.125C8.93752 8.95386 10.7039 7.1875 12.875 7.1875C15.0462 7.1875 16.8125 8.95386 16.8125 11.125C16.8125 12.0532 16.4835 12.9544 15.8861 13.6625C15.7443 13.8304 15.5879 13.9872 15.421 14.1288C14.7115 14.7309 13.8073 15.0625 12.875 15.0625C11.9427 15.0625 11.0385 14.7309 10.329 14.1287C10.1622 13.9872 10.0057 13.8304 9.86404 13.6626C9.26656 12.9544 8.93752 12.0532 8.93752 11.125Z" fill="#004F71"/>
<path d="M9.96507 14.5576L10.0743 14.429L10.0742 14.4289L9.96507 14.5576ZM15.7849 14.5577L15.6757 14.429L15.6757 14.429L15.7849 14.5577ZM16.3159 14.0254L16.4448 14.1342L16.4449 14.1342L16.3159 14.0254ZM16.057 7.94301L16.1763 7.82368L16.057 7.94301ZM9.69301 7.94301L9.57368 7.82368L9.69301 7.94301ZM9.43419 14.0255L9.30521 14.1343L9.30527 14.1343L9.43419 14.0255ZM15.8861 13.6625L16.015 13.7714L16.0151 13.7713L15.8861 13.6625ZM15.421 14.1288L15.3118 14.0001L15.3118 14.0001L15.421 14.1288ZM10.329 14.1287L10.4382 14.0001L10.4382 14L10.329 14.1287ZM9.86404 13.6626L9.73506 13.7715L9.73512 13.7715L9.86404 13.6626ZM12.875 15.4563C11.8494 15.4563 10.8547 15.0914 10.0743 14.429L9.85587 14.6863C10.6974 15.4005 11.7696 15.7938 12.875 15.7938V15.4563ZM15.6757 14.429C14.8953 15.0914 13.9006 15.4563 12.875 15.4563V15.7938C13.9804 15.7938 15.0526 15.4005 15.8941 14.6864L15.6757 14.429ZM16.187 13.9165C16.0311 14.1011 15.859 14.2735 15.6757 14.429L15.894 14.6864C16.0917 14.5188 16.2769 14.3331 16.4448 14.1342L16.187 13.9165ZM17.2063 11.125C17.2063 12.146 16.8442 13.1375 16.1869 13.9165L16.4449 14.1342C17.1536 13.2942 17.5438 12.2256 17.5438 11.125H17.2063ZM15.9377 8.06233C16.756 8.88062 17.2063 9.96775 17.2063 11.125H17.5438C17.5438 9.87824 17.0579 8.70527 16.1763 7.82368L15.9377 8.06233ZM12.875 6.79375C14.0323 6.79375 15.1194 7.24404 15.9377 8.06233L16.1763 7.82368C15.2947 6.9421 14.1218 6.45625 12.875 6.45625V6.79375ZM9.81233 8.06233C10.6306 7.24404 11.7177 6.79375 12.875 6.79375V6.45625C11.6282 6.45625 10.4553 6.9421 9.57368 7.82368L9.81233 8.06233ZM8.54375 11.125C8.54375 9.96775 8.99404 8.88062 9.81233 8.06233L9.57368 7.82368C8.6921 8.70527 8.20625 9.87824 8.20625 11.125H8.54375ZM9.56317 13.9166C8.90582 13.1375 8.54375 12.146 8.54375 11.125H8.20625C8.20625 12.2256 8.59641 13.2941 9.30521 14.1343L9.56317 13.9166ZM10.0742 14.4289C9.89095 14.2735 9.71893 14.1011 9.56311 13.9166L9.30527 14.1343C9.47309 14.3331 9.65833 14.5188 9.85591 14.6863L10.0742 14.4289ZM12.875 7.01875C10.6107 7.01875 8.76877 8.86066 8.76877 11.125H9.10627C9.10627 9.04706 10.7971 7.35625 12.875 7.35625V7.01875ZM16.9813 11.125C16.9813 8.86066 15.1394 7.01875 12.875 7.01875V7.35625C14.953 7.35625 16.6438 9.04706 16.6438 11.125H16.9813ZM16.0151 13.7713C16.6382 13.0328 16.9813 12.093 16.9813 11.125H16.6438C16.6438 12.0135 16.3288 12.8761 15.7571 13.5537L16.0151 13.7713ZM15.5301 14.2575C15.7042 14.1099 15.8672 13.9464 16.015 13.7714L15.7572 13.5536C15.6214 13.7144 15.4715 13.8646 15.3118 14.0001L15.5301 14.2575ZM12.875 15.2313C13.8473 15.2313 14.7901 14.8855 15.5302 14.2574L15.3118 14.0001C14.6329 14.5763 13.7674 14.8938 12.875 14.8938V15.2313ZM10.2198 14.2574C10.9599 14.8855 11.9028 15.2313 12.875 15.2313V14.8938C11.9826 14.8938 11.1172 14.5763 10.4382 14.0001L10.2198 14.2574ZM9.73512 13.7715C9.88281 13.9464 10.0459 14.1099 10.2198 14.2574L10.4382 14C10.2785 13.8646 10.1286 13.7144 9.99296 13.5538L9.73512 13.7715ZM8.76877 11.125C8.76877 12.093 9.11185 13.0327 9.73506 13.7715L9.99302 13.5538C9.42128 12.8761 9.10627 12.0135 9.10627 11.125H8.76877Z" fill="#004F71"/>
</g>
<g id="Shape_3">
<path fill-rule="evenodd" clip-rule="evenodd" d="M11.1875 9.4375C11.1875 10.368 11.9445 11.125 12.875 11.125C13.8055 11.125 14.5625 10.368 14.5625 9.4375C14.5625 8.507 13.8055 7.75 12.875 7.75C11.9445 7.75 11.1875 8.507 11.1875 9.4375ZM11.75 9.4375C11.75 8.81717 12.2547 8.3125 12.875 8.3125C13.4954 8.3125 14 8.81717 14 9.4375C14 10.0578 13.4954 10.5625 12.875 10.5625C12.2547 10.5625 11.75 10.0578 11.75 9.4375Z" fill="#004F71"/>
<path d="M12.875 10.9563C12.0377 10.9563 11.3563 10.2748 11.3563 9.4375H11.0187C11.0187 10.4612 11.8513 11.2938 12.875 11.2938V10.9563ZM14.3938 9.4375C14.3938 10.2748 13.7123 10.9563 12.875 10.9563V11.2938C13.8987 11.2938 14.7313 10.4612 14.7313 9.4375H14.3938ZM12.875 7.91875C13.7123 7.91875 14.3938 8.6002 14.3938 9.4375H14.7313C14.7313 8.4138 13.8987 7.58125 12.875 7.58125V7.91875ZM11.3563 9.4375C11.3563 8.6002 12.0377 7.91875 12.875 7.91875V7.58125C11.8513 7.58125 11.0187 8.4138 11.0187 9.4375H11.3563ZM12.875 8.14375C12.1615 8.14375 11.5813 8.72397 11.5813 9.4375H11.9188C11.9188 8.91037 12.3479 8.48125 12.875 8.48125V8.14375ZM14.1688 9.4375C14.1688 8.72397 13.5886 8.14375 12.875 8.14375V8.48125C13.4022 8.48125 13.8313 8.91037 13.8313 9.4375H14.1688ZM12.875 10.7313C13.5886 10.7313 14.1688 10.151 14.1688 9.4375H13.8313C13.8313 9.96464 13.4022 10.3938 12.875 10.3938V10.7313ZM11.5813 9.4375C11.5813 10.151 12.1615 10.7313 12.875 10.7313V10.3938C12.3479 10.3938 11.9188 9.96464 11.9188 9.4375H11.5813Z" fill="#004F71"/>
</g>
<path id="Path" d="M15.6032 14.6245C15.5805 14.6245 15.5575 14.6218 15.5345 14.616C15.3838 14.5782 15.2923 14.4254 15.3302 14.2747C15.3806 14.0736 15.4063 13.8655 15.4063 13.6563C15.4063 12.2801 14.2875 11.1449 12.912 11.1252L12.875 11.125L12.838 11.1252C11.4625 11.1449 10.3438 12.2801 10.3438 13.6563C10.3438 13.8655 10.3694 14.0736 10.4198 14.2747C10.4577 14.4254 10.3662 14.5782 10.2155 14.616C10.0649 14.6538 9.91208 14.5624 9.87427 14.4117C9.81254 14.1658 9.78125 13.9116 9.78125 13.6563C9.78125 12.8375 10.098 12.0657 10.673 11.4831C11.2475 10.901 12.014 10.5741 12.8312 10.5627C12.8325 10.5627 12.8338 10.5627 12.8351 10.5627L12.875 10.5625L12.9149 10.5627C12.9162 10.5627 12.9175 10.5627 12.9188 10.5627C13.736 10.5741 14.5025 10.901 15.077 11.483C15.652 12.0657 15.9688 12.8375 15.9688 13.6563C15.9688 13.9116 15.9375 14.1658 15.8757 14.4117C15.8437 14.5393 15.7291 14.6245 15.6032 14.6245Z" fill="#004F71" stroke="#004F71" stroke-width="0.3375"/>
</g>
</svg>
