<svg width="24" height="24" viewBox="0 0 24 24" fill="none" xmlns="http://www.w3.org/2000/svg">
    <path fill-rule="evenodd" clip-rule="evenodd" d="M18.919 18.4419V20.5189C18.919 20.7629 18.706 20.9629 18.443 20.9629H5.662C5.399 20.9629 5.187 20.7629 5.187 20.5189V18.4419C5.187 14.8539 8.267 11.9349 12.053 11.9349C13.885 11.9349 15.609 12.6129 16.907 13.8439C18.205 15.0749 18.92 16.7079 18.919 18.4419ZM12.053 10.7939C7.612 10.7939 4 14.2249 4 18.4419V20.5189C4 21.3929 4.746 22.1039 5.662 22.1039H18.443C19.359 22.1039 20.106 21.3929 20.106 20.5189V18.4419C20.106 14.2249 16.493 10.7939 12.053 10.7939Z" fill="currentColor"/>
    <path fill-rule="evenodd" clip-rule="evenodd" d="M8.60106 6.252C8.60106 4.536 10.0761 3.14 11.8891 3.14C13.7031 3.14 15.1771 4.536 15.1771 6.252C15.1771 7.968 13.7031 9.364 11.8891 9.364C10.0761 9.364 8.60106 7.968 8.60106 6.252ZM11.8891 10.505C14.3561 10.505 16.3631 8.597 16.3631 6.252C16.3631 3.907 14.3561 2 11.8891 2C9.42206 2 7.41406 3.907 7.41406 6.252C7.41406 8.597 9.42206 10.505 11.8891 10.505Z" fill="currentColor"/>
    </svg>
    