<svg width="24" height="24" viewBox="0 0 24 24" fill="none" xmlns="http://www.w3.org/2000/svg">
<g id="Icons">
<path id="shape:icon" fill-rule="evenodd" clip-rule="evenodd" d="M17.5218 19.117C15.9568 20.335 13.9858 21.006 11.9728 21.006C11.1878 21.006 10.4068 20.903 9.6518 20.701C6.4088 19.828 3.8698 17.14 3.1828 13.854C2.4828 10.506 3.7758 6.986 6.4748 4.886C8.0338 3.672 10.0028 3.004 12.0218 3.004C13.4178 3.004 14.8008 3.327 16.0238 3.94C19.0498 5.455 21.0058 8.619 21.0058 12.001C21.0058 14.761 19.7038 17.422 17.5218 19.117ZM16.4658 3.041C15.1058 2.36 13.5678 2 12.0208 2C9.7848 2 7.5998 2.743 5.8658 4.091C2.8658 6.424 1.4308 10.337 2.2088 14.061C2.9718 17.714 5.7928 20.702 9.3948 21.671C12.3638 22.468 15.7108 21.794 18.1308 19.911C20.5538 18.026 21.9998 15.069 21.9998 12.001C21.9998 8.24 19.8278 4.723 16.4658 3.041Z" fill="black"/>
<path id="shape:icon_2" fill-rule="evenodd" clip-rule="evenodd" d="M11.2896 10.232L12.7246 9.928V17H11.2896V10.232ZM11.0586 7.913C11.0586 7.406 11.4646 7 11.9996 7C12.5216 7 12.9416 7.406 12.9416 7.913C12.9416 8.435 12.5216 8.811 11.9996 8.811C11.4646 8.811 11.0586 8.435 11.0586 7.913Z" fill="black"/>
</g>
</svg>
