<svg width="20" height="22" viewBox="0 0 20 22" fill="none" xmlns="http://www.w3.org/2000/svg">
	<path d="M1.80048 4.82136C5.3156 3.9566 8.22873 2.19539 9.42084 1.40261C9.77388 1.16783 10.2352 1.1561 10.594 1.38197C11.9843 2.25725 15.5213 4.37208 18.0094 4.88603C18.5503 4.99775 19.0021 5.45173 18.9817 6.00364C18.5843 16.7773 11.8316 20.2351 10.305 20.8808C10.1058 20.9651 9.89424 20.9651 9.69496 20.8808C8.16002 20.2315 1.34148 16.7393 1.01234 5.82581C0.997965 5.34935 1.3376 4.93524 1.80048 4.82136Z" stroke="#004f71" />
	<path d="M8.23641 14.2364L5.65669 11.6567C5.28642 11.2864 5.26449 10.6932 5.6064 10.2966L5.68203 10.2089C6.0796 9.74773 6.79353 9.74591 7.19346 10.205L8.84323 12.0989C8.92498 12.1928 9.07167 12.19 9.14976 12.0931L12.8404 7.51319C13.1801 7.09169 13.7974 7.02607 14.2181 7.36676C14.6464 7.71359 14.7038 8.34551 14.3452 8.76393L9.70277 14.1801C9.32368 14.6224 8.64831 14.6483 8.23641 14.2364Z" stroke="#004f71" />
	<path d="M3 8V6.72076C3 6.29033 3.27543 5.90819 3.68377 5.77208L6 5" stroke="#004f71" stroke-linecap="round" />
	<circle cx="7.18062" cy="4.58687" r="0.413046" fill="#004f71" />
	<circle cx="10.208" cy="18.6364" r="0.413046" fill="#004f71" />
	<path d="M11.1211 17.958C11.1211 17.958 12.3323 17.1395 12.9831 16.476C13.6081 15.8388 14.3804 14.6672 14.3804 14.6672" stroke="#004f71" stroke-linecap="round" />
</svg>
