<svg width="24" height="25" viewBox="0 0 24 25" fill="none" xmlns="http://www.w3.org/2000/svg">
	<g id="Outline">
		<path id="shape:icon" fill-rule="evenodd" clip-rule="evenodd" d="M18.666 20.525C18.666 20.924 18.323 21.25 17.9 21.25H5.9C5.478 21.25 5.134 20.924 5.134 20.525V11.775C5.134 11.376 5.478 11.05 5.9 11.05H17.9C18.323 11.05 18.666 11.376 18.666 11.775V20.525ZM7.801 7.4C7.801 5.277 9.64 3.55 11.9 3.55C14.161 3.55 16 5.277 16 7.4V10H7.801V7.4ZM17.091 6.774C16.762 4.367 14.56 2.5 11.9 2.5C9.015 2.5 6.666 4.698 6.666 7.4V10H5.9C4.853 10 4 10.796 4 11.775V20.525C4 21.504 4.853 22.3 5.9 22.3H17.9C18.948 22.3 19.801 21.504 19.801 20.525V11.775C19.801 10.796 18.948 10 17.9 10H17.134V7.4C17.134 7.188 17.119 6.979 17.091 6.774Z" fill="#004F71" />
		<path id="shape:icon_2" fill-rule="evenodd" clip-rule="evenodd" d="M11.9005 14.7623C12.2595 14.7623 12.5495 15.1373 12.5495 15.5993V17.2723C12.5495 17.7343 12.2595 18.1093 11.9005 18.1093C11.5415 18.1093 11.2515 17.7343 11.2515 17.2723V15.5993C11.2515 15.1373 11.5415 14.7623 11.9005 14.7623Z" fill="#004F71" />
	</g>
</svg>
