<svg width="24" height="25" viewBox="0 0 24 25" fill="none" xmlns="http://www.w3.org/2000/svg">
    <path d="M5 14.5L6 20.5H9L7 14.5" stroke="#004F71" stroke-linejoin="round" />
    <path
        d="M7 14.5L16.3143 18.2257C16.6427 18.3571 17 18.1152 17 17.7615V5.23852C17 4.88478 16.6427 4.64291 16.3143 4.77428L7 8.5M7 14.5V8.5M7 14.5H3C2.44772 14.5 2 14.0523 2 13.5V9.5C2 8.94772 2.44772 8.5 3 8.5H7"
        stroke="#004F71" stroke-linejoin="round" />
    <path d="M22 7.5L20.5 8.5L19 9.5M19 12H22M19 14.5L20.5 15.5L22 16.5" stroke="#004F71"
        stroke-linecap="round" stroke-linejoin="round" />
</svg>
    