<svg width="14" height="15" viewBox="0 0 14 15" fill="none" xmlns="http://www.w3.org/2000/svg">
    <circle cx="7" cy="7.5" r="7" fill="currentColor" />
    <path fill-rule="evenodd" clip-rule="evenodd"
        d="M10.7768 9.05243H3.71784L4.61776 8.00594C4.69895 7.91187 4.69895 7.75943 4.61776 7.66537C4.53657 7.5713 4.40458 7.5713 4.32338 7.66537L3.06189 9.1255C3.0407 9.14608 3.0247 9.17295 3.0159 9.20319C2.9947 9.2624 2.9947 9.32917 3.0159 9.38838C3.0247 9.41862 3.0407 9.44549 3.06189 9.46607L4.32338 10.9262C4.36138 10.9732 4.41458 11.0001 4.47057 11.0001C4.52617 11.0001 4.57936 10.9732 4.61776 10.9262C4.65816 10.8821 4.68135 10.8204 4.68135 10.7561C4.68135 10.6915 4.65816 10.6297 4.61776 10.5856L3.71784 9.53914H10.7768C10.8928 9.53914 10.9872 9.43037 10.9872 9.29599C10.9872 9.16161 10.8928 9.05243 10.7768 9.05243ZM10.9372 5.87125L9.67612 7.3318C9.63772 7.37883 9.58453 7.40529 9.52893 7.40529C9.47334 7.40529 9.41974 7.37883 9.38175 7.3318C9.34095 7.28729 9.31815 7.22598 9.31815 7.16131C9.31815 7.09664 9.34095 7.0349 9.38175 6.99081L10.2817 5.94432H3.22269C3.1063 5.94432 3.0123 5.83556 3.0123 5.70118C3.0123 5.5668 3.1063 5.45761 3.22269 5.45761H10.2817L9.38175 4.41112C9.30055 4.31705 9.30055 4.16462 9.38175 4.07055C9.46294 3.97648 9.59493 3.97648 9.67612 4.07055L10.9372 5.53068C10.9584 5.55126 10.9744 5.57813 10.9836 5.60879C11.0048 5.668 11.0048 5.73435 10.9836 5.79356C10.9744 5.8238 10.9584 5.85067 10.9372 5.87125Z"
        fill="white" />
    <path
        d="M3.71784 9.05243L3.60411 8.95463L3.39101 9.20243H3.71784V9.05243ZM4.61776 8.00594L4.50421 7.90793L4.50403 7.90814L4.61776 8.00594ZM4.32338 7.66537L4.43689 7.76343L4.43694 7.76338L4.32338 7.66537ZM3.06189 9.1255L3.16678 9.23354L3.1754 9.22356L3.06189 9.1255ZM3.0159 9.20319L3.15738 9.25384L3.15992 9.2451L3.0159 9.20319ZM3.0159 9.38838L3.16019 9.34639L3.15712 9.33782L3.0159 9.38838ZM3.06189 9.46607L3.17584 9.36763L3.16637 9.35844L3.06189 9.46607ZM4.32338 10.9262L4.44013 10.8319L4.43689 10.8281L4.32338 10.9262ZM4.61776 10.9262L4.50698 10.8247L4.50156 10.8313L4.61776 10.9262ZM4.61776 10.5856L4.50397 10.6835L4.50716 10.687L4.61776 10.5856ZM3.71784 9.53914V9.38914H3.39101L3.60411 9.63694L3.71784 9.53914ZM9.67612 7.3318L9.56254 7.23373L9.55992 7.23694L9.67612 7.3318ZM9.38175 7.3318L9.49865 7.23736L9.49233 7.23045L9.38175 7.3318ZM9.38175 6.99081L9.49192 7.09275L9.49548 7.08861L9.38175 6.99081ZM10.2817 5.94432L10.3954 6.04212L10.6085 5.79432H10.2817V5.94432ZM10.2817 5.45761V5.60761H10.6085L10.3954 5.35981L10.2817 5.45761ZM9.38175 4.41112L9.49548 4.31332L9.4953 4.31311L9.38175 4.41112ZM9.67612 4.07055L9.56257 4.16856L9.5626 4.1686L9.67612 4.07055ZM10.9372 5.53068L10.8232 5.62911L10.8327 5.63831L10.9372 5.53068ZM10.9836 5.60879L10.8397 5.65196L10.8424 5.65935L10.9836 5.60879ZM10.9836 5.79356L10.8422 5.74294L10.8401 5.7499L10.9836 5.79356ZM10.7768 8.90243H3.71784V9.20243H10.7768V8.90243ZM3.83157 9.15023L4.73149 8.10374L4.50403 7.90814L3.60411 8.95463L3.83157 9.15023ZM4.73131 8.10395C4.8611 7.95358 4.8611 7.71773 4.73131 7.56736L4.50421 7.76338C4.5368 7.80114 4.5368 7.87017 4.50421 7.90793L4.73131 8.10395ZM4.73131 7.56736C4.59028 7.40397 4.35086 7.40397 4.20983 7.56736L4.43694 7.76338C4.45039 7.74779 4.46292 7.74482 4.47057 7.74482C4.47822 7.74482 4.49075 7.74779 4.50421 7.76338L4.73131 7.56736ZM4.20988 7.5673L2.94839 9.02743L3.1754 9.22356L4.43689 7.76343L4.20988 7.5673ZM2.95742 9.01787C2.9166 9.05749 2.88755 9.10739 2.87187 9.16127L3.15992 9.2451C3.16184 9.23851 3.16479 9.23466 3.16637 9.23313L2.95742 9.01787ZM2.87468 9.15263C2.84177 9.24453 2.84177 9.34704 2.87468 9.43894L3.15712 9.33782C3.14763 9.3113 3.14763 9.28027 3.15712 9.25375L2.87468 9.15263ZM2.87187 9.43029C2.88755 9.48417 2.9166 9.53408 2.95742 9.5737L3.16637 9.35844C3.16479 9.3569 3.16184 9.35306 3.15992 9.34647L2.87187 9.43029ZM2.94839 9.56413L4.20988 11.0243L4.43689 10.8281L3.1754 9.36801L2.94839 9.56413ZM4.2067 11.0205C4.27028 11.0992 4.36484 11.1501 4.47057 11.1501V10.8501C4.46431 10.8501 4.45248 10.8473 4.44007 10.8319L4.2067 11.0205ZM4.47057 11.1501C4.57617 11.1501 4.67036 11.099 4.73396 11.0211L4.50156 10.8313C4.48836 10.8475 4.47616 10.8501 4.47057 10.8501V11.1501ZM4.72836 11.0275C4.79589 10.9538 4.83135 10.8551 4.83135 10.7561H4.53135C4.53135 10.7856 4.52042 10.8104 4.50716 10.8249L4.72836 11.0275ZM4.83135 10.7561C4.83135 10.6568 4.79597 10.5581 4.72836 10.4843L4.50716 10.687C4.52034 10.7013 4.53135 10.7261 4.53135 10.7561H4.83135ZM4.73149 10.4878L3.83157 9.44134L3.60411 9.63694L4.50403 10.6834L4.73149 10.4878ZM3.71784 9.68914H10.7768V9.38914H3.71784V9.68914ZM10.7768 9.68914C10.9952 9.68914 11.1372 9.49224 11.1372 9.29599H10.8372C10.8372 9.32832 10.8258 9.35394 10.8121 9.36976C10.7987 9.3853 10.7857 9.38914 10.7768 9.38914V9.68914ZM11.1372 9.29599C11.1372 9.1001 10.9955 8.90243 10.7768 8.90243V9.20243C10.7855 9.20243 10.7984 9.20619 10.812 9.22188C10.8258 9.23785 10.8372 9.26364 10.8372 9.29599H11.1372ZM10.8237 5.77322L9.56259 7.23377L9.78966 7.42983L11.0507 5.96928L10.8237 5.77322ZM9.55992 7.23694C9.54722 7.25251 9.53523 7.25529 9.52893 7.25529V7.55529C9.63382 7.55529 9.72823 7.50516 9.79232 7.42666L9.55992 7.23694ZM9.52893 7.25529C9.52219 7.25529 9.51025 7.25217 9.49843 7.23754L9.26507 7.42606C9.32924 7.5055 9.42448 7.55529 9.52893 7.55529V7.25529ZM9.49233 7.23045C9.4789 7.21581 9.46815 7.19155 9.46815 7.16131H9.16815C9.16815 7.2604 9.203 7.35877 9.27116 7.43315L9.49233 7.23045ZM9.46815 7.16131C9.46815 7.13064 9.47915 7.10641 9.49185 7.09268L9.27164 6.88894C9.20275 6.9634 9.16815 7.06263 9.16815 7.16131H9.46815ZM9.49548 7.08861L10.3954 6.04212L10.1679 5.84652L9.26802 6.89301L9.49548 7.08861ZM10.2817 5.79432H3.22269V6.09432H10.2817V5.79432ZM3.22269 5.79432C3.21348 5.79432 3.20061 5.79041 3.1873 5.77501C3.17369 5.75928 3.1623 5.73367 3.1623 5.70118H2.8623C2.8623 5.89723 3.00376 6.09432 3.22269 6.09432V5.79432ZM3.1623 5.70118C3.1623 5.66865 3.17371 5.64287 3.18742 5.62699C3.20083 5.61145 3.21369 5.60761 3.22269 5.60761V5.30761C3.00345 5.30761 2.8623 5.50548 2.8623 5.70118H3.1623ZM3.22269 5.60761H10.2817V5.30761H3.22269V5.60761ZM10.3954 5.35981L9.49548 4.31332L9.26802 4.50892L10.1679 5.55541L10.3954 5.35981ZM9.4953 4.31311C9.4627 4.27535 9.4627 4.20632 9.4953 4.16856L9.2682 3.97254C9.1384 4.12291 9.1384 4.35876 9.2682 4.50913L9.4953 4.31311ZM9.4953 4.16856C9.50876 4.15297 9.52128 4.15 9.52893 4.15C9.53659 4.15 9.54911 4.15297 9.56257 4.16856L9.78967 3.97254C9.64865 3.80915 9.40922 3.80915 9.2682 3.97254L9.4953 4.16856ZM9.5626 4.1686L10.8237 5.62873L11.0507 5.43263L9.78964 3.9725L9.5626 4.1686ZM10.8327 5.63831C10.8342 5.63971 10.8375 5.64379 10.8399 5.6519L11.1273 5.56568C11.1113 5.51247 11.0826 5.4628 11.0417 5.42305L10.8327 5.63831ZM10.8424 5.65935C10.8519 5.68587 10.8519 5.71648 10.8424 5.743L11.1248 5.84412C11.1577 5.75222 11.1577 5.65013 11.1248 5.55823L10.8424 5.65935ZM10.8401 5.7499C10.8377 5.75783 10.8343 5.76211 10.8327 5.76362L11.0417 5.97888C11.0825 5.93924 11.1111 5.88977 11.1271 5.83722L10.8401 5.7499Z"
        fill="white" />
</svg>
    