<svg width="24" height="24" viewBox="0 0 24 24" fill="none" xmlns="http://www.w3.org/2000/svg">
    <path
        d="M12 7C6.47667 7 2 9.24 2 12C2 14.76 6.47667 17 12 17C17.5233 17 22 14.76 22 12C22 9.24 17.5233 7 12 7ZM12 16.21C6.91333 16.21 2.79 14.3233 2.79 12C2.79 9.67667 6.91333 7.79 12 7.79C17.0867 7.79 21.21 9.67333 21.21 12C21.21 14.3267 17.0867 16.21 12 16.21ZM10.74 11.1233V10.3333H13.56V11.1233H12.5433V13.6667H11.7533V11.1233H10.74ZM16.9667 10.3333V13.6667H16.1767L14.7433 11.6833V13.6667H13.9533V10.3333H14.7433L16.1767 12.3167V10.3333H16.9667ZM7.01 13.6667V10.3333H7.8L8.67667 11.6833L9.55333 10.3333H10.3433V13.6667H9.55333V11.78L8.95333 12.7H8.4L7.8 11.78V13.6667H7.01Z"
        fill="currentColor" />
</svg>
    