<svg width="16" height="16" viewBox="0 0 16 16" fill="none" xmlns="http://www.w3.org/2000/svg">
    <rect x="0.5" y="4.25" width="15" height="3.75" rx="1" stroke="currentColor" />
    <path d="M2 8H14V14.5C14 15.0523 13.5523 15.5 13 15.5H3C2.44772 15.5 2 15.0523 2 14.5V8Z"
        stroke="currentColor" />
    <line x1="7.9184" y1="15.5" x2="7.9184" y2="4.25" stroke="currentColor" />
    <path d="M12.125 0.5C8.75 0.5 8 4.2499 8 4.2499L12.125 4.25C15.125 4.25 14.375 0.5 12.125 0.5Z"
        stroke="currentColor" />
    <path
        d="M3.97873 0.5C7.35373 0.5 8.10373 4.2499 8.10373 4.2499L3.97873 4.25C0.978729 4.25 1.72873 0.5 3.97873 0.5Z"
        stroke="currentColor" />
</svg>
    