<svg width="24" height="24" viewBox="0 0 24 24" fill="none" xmlns="http://www.w3.org/2000/svg">
	<path d="M19.1526 12.8378V8.16976C19.1526 6.8212 18.275 5.68253 17.0826 5.33671C17.1473 5.19038 17.1837 5.02784 17.1837 4.85651V3.21038C17.1837 2.57409 16.6858 2.0564 16.0738 2.0564H7.10513C6.49318 2.0564 5.99526 2.57409 5.99526 3.21038V4.85651C5.99526 5.02784 6.03162 5.19038 6.09634 5.33671C4.90399 5.68257 4.02637 6.82124 4.02637 8.16976V11.7209C4.02637 11.9369 4.19476 12.1119 4.40242 12.1119C4.61007 12.1119 4.77847 11.9368 4.77847 11.7209V8.16976C4.77847 6.97901 5.71017 6.01026 6.8554 6.01026H16.3235C17.4687 6.01026 18.4004 6.97901 18.4004 8.16976V12.5941C18.0769 12.5207 17.745 12.4836 17.4138 12.4836C16.6151 12.4837 15.8632 12.6959 15.2074 13.0689C15.1885 13.0324 15.1673 12.9974 15.144 12.9639C15.2512 12.8096 15.3145 12.6203 15.3145 12.4158V11.3369C15.3145 11.2833 15.31 11.2309 15.3016 11.1797H16.3696C16.8677 11.1797 17.2729 10.7583 17.2729 10.2405V9.16163C17.2729 8.64374 16.8677 8.22241 16.3696 8.22241H9.02649C8.52841 8.22241 8.12318 8.64378 8.12318 9.16163V10.2405C8.12318 10.2941 8.12776 10.3466 8.13607 10.3977H7.06809C6.57001 10.3977 6.16478 10.8191 6.16478 11.3369V12.4158C6.16478 12.6203 6.22818 12.8097 6.33536 12.9641C6.22822 13.1185 6.16482 13.3079 6.16482 13.5125V14.5911C6.16482 15.1091 6.5699 15.5304 7.06786 15.5304H7.78593C7.77762 15.5815 7.77307 15.6339 7.77307 15.6874V16.7664C7.77307 16.82 7.77766 16.8725 7.78601 16.9237H7.06798C6.57005 16.9237 6.16493 17.345 6.16493 17.8627V18.9417C6.16493 19.4597 6.57001 19.881 7.06798 19.881H7.97828C7.96997 19.9321 7.96542 19.9845 7.96542 20.038V21.117C7.96542 21.1707 7.97001 21.2232 7.97836 21.2744H6.8554C5.71017 21.2744 4.77847 20.3057 4.77847 19.1149V15.1601C4.77847 14.9441 4.61007 14.7691 4.40242 14.7691C4.19476 14.7691 4.02637 14.9442 4.02637 15.1601V19.115C4.02637 20.7369 5.29546 22.0564 6.8554 22.0564H17.4139C19.9572 22.0564 22.0264 19.9239 22.0264 17.2795C22.0264 15.2744 20.8366 13.553 19.1526 12.8378ZM16.4316 3.21038V4.85651C16.4316 5.06038 16.273 5.22624 16.0774 5.22831H15.105V2.83839H16.0738C16.2711 2.83839 16.4316 3.00522 16.4316 3.21038ZM12.2891 5.22831H10.9774V2.83839H12.2891V5.22831ZM13.0412 2.83839H14.3529V5.22831H13.0412V2.83839ZM10.2253 5.22831H8.91363V2.83839H10.2253V5.22831ZM6.74736 3.21038C6.74736 3.00526 6.90785 2.83839 7.10513 2.83839H8.16153V5.22831H7.10152C6.90594 5.22624 6.74739 5.06038 6.74739 4.85651V3.21038H6.74736ZM8.87531 10.2405V9.16163C8.87531 9.07491 8.94315 9.0044 9.02652 9.0044H16.3697C16.4531 9.0044 16.5209 9.07491 16.5209 9.16163V10.2405C16.5209 10.3272 16.453 10.3977 16.3697 10.3977H9.02652C8.94315 10.3977 8.87531 10.3272 8.87531 10.2405ZM6.91696 11.3369C6.91696 11.2502 6.98479 11.1797 7.06817 11.1797H14.4113C14.4947 11.1797 14.5626 11.2502 14.5626 11.3369V12.4158C14.5626 12.5025 14.4947 12.573 14.4113 12.573H7.06817C6.98479 12.573 6.91696 12.5025 6.91696 12.4158V11.3369ZM6.91703 14.591V13.5124C6.91703 13.4257 6.98476 13.3551 7.06798 13.3551H14.4113C14.4939 13.3551 14.5613 13.4242 14.5626 13.5098C14.1422 13.8542 13.7783 14.2767 13.4955 14.7484H7.06798C6.98476 14.7484 6.91703 14.6778 6.91703 14.591ZM8.52529 16.7664V15.6874C8.52529 15.6008 8.59301 15.5304 8.67623 15.5304H13.1184C12.9511 15.9756 12.8478 16.4471 12.814 16.9237H8.6762C8.59298 16.9237 8.52529 16.8531 8.52529 16.7664ZM6.91703 18.9417V17.8627C6.91703 17.7761 6.98476 17.7057 7.06798 17.7057H12.8197C12.8599 18.1835 12.9707 18.6551 13.1455 19.0991H7.06798C6.98476 19.0991 6.91703 19.0285 6.91703 18.9417ZM8.86847 21.2744C8.78525 21.2744 8.71752 21.2038 8.71752 21.117V20.038C8.71752 19.9514 8.78525 19.881 8.86847 19.881H13.5386C13.8821 20.4332 14.336 20.9105 14.8628 21.2744H8.86847ZM17.4139 21.2933C15.3144 21.2933 13.5536 19.4615 13.5536 17.2795C13.5536 15.0943 15.3184 13.2594 17.4234 13.2658C19.5201 13.2712 21.2743 15.0986 21.2743 17.2795C21.2743 19.4927 19.5425 21.2933 17.4139 21.2933Z" fill="#004f71" />
	<path d="M4.19404 13.7504C4.32772 13.8432 4.5071 13.8357 4.63398 13.7335C4.75815 13.6335 4.80839 13.4574 4.75936 13.3029C4.70915 13.1448 4.56321 13.0344 4.40275 13.0344C4.24529 13.0344 4.10228 13.1403 4.04896 13.2938C3.99142 13.4593 4.05178 13.6537 4.19404 13.7504Z" fill="#004f71" />
	<path d="M18.0437 16.8802C17.9623 16.8503 17.8808 16.821 17.7993 16.7914V15.2808C17.9242 15.3358 18.0108 15.4116 18.0504 15.4508C18.1195 15.5435 18.2274 15.6035 18.3489 15.6035C18.5575 15.6035 18.7266 15.4277 18.7266 15.2109C18.7266 15.1092 18.6891 15.0169 18.6282 14.9472L18.6285 14.9469C18.6093 14.9248 18.2986 14.5742 17.7993 14.4651V14.2624C17.7993 14.0465 17.6309 13.8715 17.4232 13.8715C17.2156 13.8715 17.0472 14.0465 17.0472 14.2624V14.5079C17.0018 14.5227 16.956 14.5391 16.9093 14.5589C16.4591 14.75 16.1417 15.1333 16.0385 15.6106C15.9402 16.0654 16.0615 16.5413 16.363 16.8838C16.5348 17.079 16.7706 17.2152 17.0472 17.3349V19.2002C16.8332 19.1757 16.6818 19.11 16.4374 18.9438C16.2636 18.8256 16.0306 18.8763 15.9169 19.0569C15.8032 19.2376 15.8519 19.48 16.0257 19.5982C16.4248 19.8696 16.703 19.9591 17.0472 19.9855V20.2894C17.0472 20.5053 17.2156 20.6804 17.4232 20.6804C17.6309 20.6804 17.7993 20.5053 17.7993 20.2894V19.9496C18.4877 19.7818 18.9296 19.1766 19.0261 18.5796C19.1502 17.8122 18.7646 17.1452 18.0437 16.8802ZM17.0472 16.4637C16.995 16.4292 16.951 16.3936 16.9178 16.3559C16.7804 16.1996 16.7273 15.9905 16.7723 15.7821C16.8092 15.6119 16.9066 15.4661 17.0472 15.3651V16.4637H17.0472ZM18.2844 18.45C18.242 18.7124 18.0775 18.9902 17.7993 19.127V17.6201C18.3409 17.823 18.3077 18.3062 18.2844 18.45Z" fill="#004f71" />
</svg>
