<svg width="30" height="30" viewBox="0 0 30 30" fill="none" xmlns="http://www.w3.org/2000/svg">
	<g id="Solids">
		<circle id="Oval" cx="15" cy="15" r="15" transform="matrix(-1 0 0 1 30 0)" fill="#FFCB05" />
		<g id="Layer 14">
			<path id="Vector" d="M15.0005 14.6318C17.0327 14.6318 18.6801 12.9843 18.6801 10.9521C18.6801 8.9199 17.0327 7.27246 15.0005 7.27246C12.9682 7.27246 11.3208 8.9199 11.3208 10.9521C11.3208 12.9843 12.9682 14.6318 15.0005 14.6318Z" fill="currentColor" />
			<path id="Vector_2" d="M15.7803 15.3677H14.2202C13.305 15.3706 12.3993 15.5537 11.5548 15.9066C10.7104 16.2595 9.94372 16.7753 9.29861 17.4245C8.65351 18.0737 8.14259 18.8436 7.79503 19.6903C7.44747 20.537 7.27008 21.4438 7.27298 22.359C7.27298 22.4566 7.31175 22.5502 7.38076 22.6192C7.44977 22.6882 7.54336 22.727 7.64095 22.727H22.3596C22.4617 22.7177 22.5565 22.67 22.6248 22.5935C22.6931 22.517 22.7298 22.4174 22.7275 22.3149C22.7236 20.4735 21.9905 18.7088 20.6885 17.4068C19.3864 16.1047 17.6217 15.3716 15.7803 15.3677Z" fill="currentColor" />
		</g>
	</g>
</svg>
