<svg width="24" height="25" viewBox="0 0 24 25" fill="none" xmlns="http://www.w3.org/2000/svg">
	<g id="Outline">
		<path id="Vector" d="M12.0106 2.71598C12.0688 2.64868 12.143 2.59427 12.2277 2.55686C12.3124 2.51944 12.4053 2.5 12.4995 2.5C12.5937 2.5 12.6866 2.51944 12.7713 2.55686C12.856 2.59427 12.9302 2.64868 12.9883 2.71598L14.862 4.87975C14.938 4.96776 15.0411 5.03325 15.1582 5.06793C15.2753 5.1026 15.4011 5.10488 15.5196 5.07449L18.4352 4.32375C18.5257 4.30032 18.6209 4.29587 18.7136 4.31075C18.8063 4.32563 18.8941 4.35944 18.9703 4.40964C19.0465 4.45983 19.1092 4.5251 19.1536 4.60051C19.1979 4.67592 19.2229 4.7595 19.2265 4.84494L19.3404 7.5967C19.3452 7.70848 19.3865 7.81645 19.4589 7.9069C19.5314 7.99735 19.6318 8.0662 19.7475 8.10472L22.5926 9.05489C22.6809 9.08433 22.7607 9.13159 22.826 9.19312C22.8913 9.25465 22.9404 9.32884 22.9695 9.4101C22.9986 9.49136 23.007 9.57756 22.9941 9.66221C22.9812 9.74686 22.9473 9.82775 22.895 9.89877L21.2068 12.1858C21.1382 12.2787 21.1016 12.3881 21.1016 12.5C21.1016 12.6119 21.1382 12.7213 21.2068 12.8142L22.895 15.1012C22.9473 15.1723 22.9812 15.2531 22.9941 15.3378C23.007 15.4224 22.9986 15.5086 22.9695 15.5899C22.9404 15.6712 22.8913 15.7453 22.826 15.8069C22.7607 15.8684 22.6809 15.9157 22.5926 15.9451L19.7475 16.8953C19.632 16.9339 19.5318 17.0029 19.4595 17.0933C19.3873 17.1837 19.3462 17.2916 19.3415 17.4033L19.2265 20.1551C19.2229 20.2405 19.1979 20.3241 19.1536 20.3995C19.1092 20.4749 19.0465 20.5402 18.9703 20.5904C18.8941 20.6406 18.8063 20.6744 18.7136 20.6892C18.6209 20.7041 18.5257 20.6997 18.4352 20.6762L15.5196 19.9255C15.4011 19.8948 15.2751 19.8968 15.1578 19.9314C15.0405 19.9659 14.9372 20.0313 14.8609 20.1193L12.9894 22.284C12.9312 22.3513 12.857 22.4057 12.7723 22.4431C12.6876 22.4806 12.5947 22.5 12.5005 22.5C12.4063 22.5 12.3134 22.4806 12.2287 22.4431C12.144 22.4057 12.0698 22.3513 12.0117 22.284L10.138 20.1202C10.062 20.0322 9.95888 19.9667 9.84178 19.9321C9.72469 19.8974 9.59889 19.8951 9.48035 19.9255L6.5648 20.6762C6.47427 20.6997 6.37906 20.7041 6.28636 20.6892C6.19366 20.6744 6.10589 20.6406 6.02968 20.5904C5.95347 20.5402 5.89081 20.4749 5.84643 20.3995C5.80206 20.3241 5.77712 20.2405 5.77351 20.1551L5.65958 17.4033C5.65479 17.2915 5.61354 17.1835 5.54107 17.0931C5.4686 17.0026 5.36817 16.9338 5.25254 16.8953L2.40741 15.9451C2.31909 15.9157 2.23927 15.8684 2.17398 15.8069C2.1087 15.7453 2.05964 15.6712 2.03052 15.5899C2.0014 15.5086 1.99297 15.4224 2.00587 15.3378C2.01877 15.2531 2.05266 15.1723 2.10498 15.1012L3.79321 12.8142C3.86178 12.7213 3.89839 12.6119 3.89839 12.5C3.89839 12.3881 3.86178 12.2787 3.79321 12.1858L2.10498 9.89877C2.05266 9.82775 2.01877 9.74686 2.00587 9.66221C1.99297 9.57756 2.0014 9.49136 2.03052 9.4101C2.05964 9.32884 2.1087 9.25465 2.17398 9.19312C2.23927 9.13159 2.31909 9.08433 2.40741 9.05489L5.25254 8.10472C5.36798 8.06606 5.46818 7.99714 5.54046 7.9067C5.61274 7.81626 5.65384 7.70837 5.65854 7.5967L5.77351 4.84494C5.77712 4.7595 5.80206 4.67592 5.84643 4.60051C5.89081 4.5251 5.95347 4.45983 6.02968 4.40964C6.10589 4.35944 6.19366 4.32563 6.28636 4.31075C6.37906 4.29587 6.47427 4.30032 6.5648 4.32375L9.48035 5.07449C9.59889 5.10488 9.72469 5.1026 9.84178 5.06793C9.95888 5.03325 10.062 4.96776 10.138 4.87975L12.0127 2.71598H12.0106Z" stroke="#FFCB05" />
		<path id="Vector_2" d="M9 12.5L11 14.5L15 10.5" stroke="#FFCB05" stroke-linecap="round" stroke-linejoin="round" />
	</g>
</svg>
