<svg width="14" height="15" viewBox="0 0 14 15" fill="none" xmlns="http://www.w3.org/2000/svg">
    <circle cx="7" cy="7.5" r="7" transform="rotate(180 7 7.5)" fill="#ED3434" />
    <path fill-rule="evenodd" clip-rule="evenodd"
        d="M6.99959 3.49987C7.05162 3.49987 7.0999 3.5206 7.13652 3.55749L10.5412 7.01214C10.5987 7.06976 10.6153 7.15598 10.5841 7.23308C10.5545 7.30728 10.4842 7.35536 10.4051 7.35536L8.5575 7.35536L8.5575 10.9543C8.5575 11.2556 8.31734 11.5006 8.02183 11.5006L5.97818 11.5006C5.68308 11.5006 5.4425 11.2556 5.4425 10.9543L5.4425 7.35536L3.59407 7.35536C3.51623 7.35536 3.44464 7.30604 3.41426 7.23225C3.38346 7.15598 3.40011 7.06976 3.45754 7.01214L6.86265 3.55749C6.89886 3.5206 6.94798 3.49987 6.99959 3.49987Z"
        fill="white" />
</svg>
    