<svg width="24" height="25" viewBox="0 0 24 25" fill="none" xmlns="http://www.w3.org/2000/svg">
	<g id="Outline">
		<g id="Group 19985">
			<path id="Vector" d="M9 20.5V18.1089C9 16.4245 9.68482 14.8092 10.9038 13.6182C12.1228 12.4272 13.7761 11.7581 15.5 11.7581M15.5 11.7581C17.2239 11.7581 18.8772 12.4272 20.0962 13.6182C21.3152 14.8092 22 16.4245 22 18.1089V20.5M15.5 11.7581C16.4851 11.7581 17.4298 11.3757 18.1264 10.6951C18.823 10.0146 19.2143 9.09151 19.2143 8.12903C19.2143 7.16655 18.823 6.24349 18.1264 5.56292C17.4298 4.88234 16.4851 4.5 15.5 4.5C14.5149 4.5 13.5702 4.88234 12.8736 5.56292C12.177 6.24349 11.7857 7.16655 11.7857 8.12903C11.7857 9.09151 12.177 10.0146 12.8736 10.6951C13.5702 11.3757 14.5149 11.7581 15.5 11.7581Z" stroke="#004F71" stroke-linecap="round" stroke-linejoin="round" />
			<path id="Line 74" d="M9.04241 20.5L21.964 20.5" stroke="#004F71" stroke-linecap="round" />
			<path id="Vector_2" d="M2 18.5V16.4758C2 15.3529 2.47411 14.276 3.31802 13.482C4.16193 12.688 5.30653 12.2419 6.5 12.2419M6.5 12.2419C7.69347 12.2419 8.83807 12.688 9.68198 13.482C9.90747 13.6942 10.1066 13.9265 10.2772 14.1745M6.5 12.2419C7.18199 12.2419 7.83604 11.987 8.31828 11.5333C8.80051 11.0796 9.07143 10.4642 9.07143 9.82258C9.07143 9.18093 8.80051 8.56556 8.31828 8.11184C7.83604 7.65812 7.18199 7.40323 6.5 7.40323C5.81801 7.40323 5.16396 7.65812 4.68173 8.11184C4.19949 8.56556 3.92857 9.18093 3.92857 9.82258C3.92857 10.4642 4.19949 11.0796 4.68173 11.5333C5.16396 11.987 5.81801 12.2419 6.5 12.2419Z" stroke="#004F71" stroke-linecap="round" stroke-linejoin="round" />
			<path id="Line 75" d="M2.03662 18.5646L8.98111 18.5645" stroke="#004F71" stroke-linecap="round" />
		</g>
	</g>
</svg>
