<svg width="22" height="16" viewBox="0 0 22 16" fill="none" xmlns="http://www.w3.org/2000/svg">
	<path d="M12.5556 15H2.44444C2.06135 15 1.69395 14.8217 1.42307 14.5043C1.15218 14.187 1 13.7565 1 13.3077V5.69231C1 5.24348 1.15218 4.81303 1.42307 4.49567C1.69395 4.1783 2.06135 4 2.44444 4H12.5556C12.9386 4 13.306 4.1783 13.5769 4.49567C13.8478 4.81303 14 5.24348 14 5.69231V13.3077C14 13.7565 13.8478 14.187 13.5769 14.5043C13.306 14.8217 12.9386 15 12.5556 15Z" stroke="#004f71" />
	<path d="M9.5 10C9.36739 10 9.24021 9.94732 9.14645 9.85355C9.05268 9.75979 9 9.63261 9 9.5C9 9.36739 9.05268 9.24021 9.14645 9.14645C9.24021 9.05268 9.36739 9 9.5 9C9.63261 9 9.75979 9.05268 9.85355 9.14645C9.94732 9.24021 10 9.36739 10 9.5C10 9.63261 9.94732 9.75979 9.85355 9.85355C9.75979 9.94732 9.63261 10 9.5 10Z" fill="#004f71" stroke="#004f71" stroke-width="0.96" stroke-linecap="round" stroke-linejoin="round" />
	<path d="M11 4.14693V2.85256C10.9999 2.56858 10.9529 2.28841 10.8626 2.0337C10.7722 1.77899 10.641 1.55654 10.4789 1.38354C10.3169 1.21055 10.1284 1.09162 9.92804 1.03595C9.72767 0.980284 9.52077 0.989364 9.32333 1.06249L1.99 3.78002C1.70604 3.88519 1.45503 4.1178 1.27599 4.44168C1.09696 4.76557 0.999935 5.16259 1 5.57101V6" stroke="#004f71" />
	<path d="M21 9.50001L16 9.50001M16 9.50001L18 12M16 9.50001L18 7" stroke="#004f71" stroke-linecap="round" stroke-linejoin="round" />
</svg>
