<svg width="31" height="30" viewBox="0 0 31 30" fill="none" xmlns="http://www.w3.org/2000/svg">
    <path
        d="M15.4998 29.2106C23.348 29.2106 29.7103 22.8483 29.7103 15.0001C29.7103 7.15182 23.348 0.789551 15.4998 0.789551C7.65152 0.789551 1.28925 7.15182 1.28925 15.0001C1.28925 22.8483 7.65152 29.2106 15.4998 29.2106Z"
        fill="#FFCB05" />
    <path fill-rule="evenodd" clip-rule="evenodd"
        d="M11.2652 13.3933C9.76228 13.3933 8.54379 12.1748 8.54379 10.6719C8.54379 9.16901 9.76228 7.95052 11.2652 7.95052C12.7681 7.95052 13.9866 9.16901 13.9866 10.6719C13.9871 12.1748 12.7686 13.3933 11.2656 13.3938H11.2652V13.3933ZM11.2652 6.8208C9.13824 6.8208 7.41406 8.54497 7.41406 10.6719C7.41406 12.7989 9.13824 14.523 11.2652 14.523C13.3922 14.523 15.1163 12.7989 15.1163 10.6719C15.1163 8.54497 13.3922 6.8208 11.2652 6.8208Z"
        fill="currentColor" />
    <path fill-rule="evenodd" clip-rule="evenodd"
        d="M11.2652 8.90918C12.2391 8.90918 13.0283 9.69841 13.0283 10.6722C13.0283 11.6456 12.2391 12.4353 11.2652 12.4353C10.2914 12.4353 9.5022 11.6456 9.5022 10.6722C9.5022 9.69841 10.2914 8.90918 11.2652 8.90918Z"
        fill="currentColor" />
    <path fill-rule="evenodd" clip-rule="evenodd"
        d="M19.8038 13.3933C18.3009 13.3933 17.0824 12.1748 17.0824 10.6719C17.0824 9.16901 18.3009 7.95052 19.8038 7.95052C21.3067 7.95052 22.5252 9.16901 22.5252 10.6719C22.5256 12.1748 21.3071 13.3933 19.8042 13.3938H19.8038V13.3933ZM19.8038 6.8208C17.6768 6.8208 15.9526 8.54497 15.9526 10.6719C15.9526 12.7989 17.6768 14.523 19.8038 14.523C21.9308 14.523 23.6549 12.7989 23.6549 10.6719C23.6549 8.54497 21.9308 6.8208 19.8038 6.8208Z"
        fill="currentColor" />
    <path fill-rule="evenodd" clip-rule="evenodd"
        d="M19.8038 8.90918C20.7776 8.90918 21.5669 9.69841 21.5669 10.6722C21.5669 11.6456 20.7776 12.4353 19.8038 12.4353C18.83 12.4353 18.0408 11.6456 18.0408 10.6722C18.0408 9.69841 18.83 8.90918 19.8038 8.90918Z"
        fill="currentColor" />
    <path fill-rule="evenodd" clip-rule="evenodd"
        d="M8.54379 19.2115C8.54424 17.7086 9.76273 16.4901 11.2656 16.4905C12.7686 16.491 13.9871 17.7094 13.9866 19.2124C13.9866 20.7153 12.7681 21.9333 11.2652 21.9333C9.76228 21.9338 8.54379 20.7153 8.54333 19.2124V19.2115H8.54379ZM15.1163 19.2115C15.1163 17.0845 13.3922 15.3604 11.2652 15.3604C9.13824 15.3604 7.41406 17.0845 7.41406 19.2115C7.41406 21.3384 9.13824 23.0626 11.2652 23.0626C13.3922 23.0626 15.1163 21.3384 15.1163 19.2115Z"
        fill="currentColor" />
    <path fill-rule="evenodd" clip-rule="evenodd"
        d="M9.6642 18.4751C10.0714 17.5909 11.1177 17.204 12.0018 17.6112C12.886 18.0184 13.2729 19.0647 12.8657 19.9489C12.4589 20.833 11.4122 21.2199 10.528 20.8127C9.64388 20.406 9.25701 19.3593 9.6642 18.4751Z"
        fill="currentColor" />
    <path fill-rule="evenodd" clip-rule="evenodd"
        d="M17.8938 15.9189C18.6919 15.9189 19.3384 16.5659 19.3384 17.3636C19.3384 18.1616 18.6919 18.8082 17.8938 18.8082C17.0958 18.8082 16.4492 18.1616 16.4492 17.3636C16.4492 16.5659 17.0958 15.9189 17.8938 15.9189Z"
        fill="currentColor" />
    <path fill-rule="evenodd" clip-rule="evenodd"
        d="M21.538 15.9189C22.3361 15.9189 22.9826 16.5659 22.9826 17.3636C22.9826 18.1616 22.3361 18.8082 21.538 18.8082C20.74 18.8082 20.0934 18.1616 20.0934 17.3636C20.0934 16.5659 20.74 15.9189 21.538 15.9189Z"
        fill="currentColor" />
    <path fill-rule="evenodd" clip-rule="evenodd"
        d="M17.8938 19.436C18.6919 19.436 19.3384 20.0831 19.3384 20.8807C19.3384 21.6787 18.6919 22.3253 17.8938 22.3253C17.0958 22.3253 16.4492 21.6787 16.4492 20.8807C16.4492 20.0831 17.0958 19.436 17.8938 19.436Z"
        fill="currentColor" />
    <path fill-rule="evenodd" clip-rule="evenodd"
        d="M21.538 19.436C22.3361 19.436 22.9826 20.0831 22.9826 20.8807C22.9826 21.6787 22.3361 22.3253 21.538 22.3253C20.74 22.3253 20.0934 21.6787 20.0934 20.8807C20.0934 20.0831 20.74 19.436 21.538 19.436Z"
        fill="currentColor" />
</svg>
    