<svg width="24" height="24" viewBox="0 0 24 24" fill="none" xmlns="http://www.w3.org/2000/svg">
    <path fill-rule="evenodd" clip-rule="evenodd"
        d="M18.112 20.828C16.83 20.828 15.787 19.777 15.787 18.484C15.787 17.192 16.83 16.141 18.112 16.141C19.394 16.141 20.437 17.192 20.437 18.484C20.437 19.777 19.394 20.828 18.112 20.828ZM6.487 14.93C5.205 14.93 4.162 13.878 4.162 12.586C4.162 11.293 5.205 10.242 6.487 10.242C7.769 10.242 8.812 11.293 8.812 12.586C8.812 13.878 7.769 14.93 6.487 14.93ZM18.112 3.172C19.394 3.172 20.437 4.223 20.437 5.515C20.437 6.808 19.394 7.859 18.112 7.859C16.83 7.859 15.787 6.808 15.787 5.515C15.787 4.223 16.83 3.172 18.112 3.172ZM18.112 14.969C16.964 14.969 15.943 15.531 15.307 16.397L9.833 13.577C9.925 13.263 9.975 12.93 9.975 12.586C9.975 12.12 9.884 11.675 9.72 11.267L15.457 7.792C16.097 8.55 17.05 9.031 18.112 9.031C20.035 9.031 21.599 7.454 21.599 5.515C21.599 3.577 20.035 2 18.112 2C16.189 2 14.625 3.577 14.625 5.515C14.625 5.964 14.708 6.392 14.861 6.787L9.109 10.27C8.469 9.535 7.531 9.07 6.487 9.07C4.564 9.07 3 10.647 3 12.586C3 14.524 4.564 16.101 6.487 16.101C7.655 16.101 8.69 15.52 9.323 14.63L14.781 17.442C14.679 17.771 14.625 18.122 14.625 18.484C14.625 20.423 16.189 22 18.112 22C20.035 22 21.599 20.423 21.599 18.484C21.599 16.546 20.035 14.969 18.112 14.969Z"
        fill="currentColor" />
</svg>
    