<svg width="20" height="20" viewBox="0 0 20 20" fill="none" xmlns="http://www.w3.org/2000/svg">
    <circle cx="10" cy="10" r="10" fill="#FFCB05" />
    <path
        d="M12.3438 15.3766C12.7789 15.3766 13.1962 15.2037 13.5038 14.8961C13.8115 14.5884 13.9844 14.1711 13.9844 13.736C13.9844 13.3008 13.8115 12.8835 13.5038 12.5759C13.1962 12.2682 12.7789 12.0953 12.3438 12.0953C11.9086 12.0953 11.4913 12.2682 11.1837 12.5759C10.876 12.8835 10.7031 13.3008 10.7031 13.736C10.7031 14.1711 10.876 14.5884 11.1837 14.8961C11.4913 15.2037 11.9086 15.3766 12.3438 15.3766ZM12.3438 7.72034C12.7789 7.72034 13.1962 7.54749 13.5038 7.23981C13.8115 6.93213 13.9844 6.51483 13.9844 6.07971C13.9844 5.64459 13.8115 5.22729 13.5038 4.91961C13.1962 4.61194 12.7789 4.43909 12.3438 4.43909C11.9086 4.43909 11.4913 4.61194 11.1837 4.91961C10.876 5.22729 10.7031 5.64459 10.7031 6.07971C10.7031 6.51483 10.876 6.93213 11.1837 7.23981C11.4913 7.54749 11.9086 7.72034 12.3438 7.72034ZM5.78125 11.5485C6.21637 11.5485 6.63367 11.3756 6.94135 11.0679C7.24902 10.7603 7.42188 10.343 7.42188 9.90784C7.42188 9.47272 7.24902 9.05542 6.94135 8.74774C6.63367 8.44006 6.21637 8.26721 5.78125 8.26721C5.34613 8.26721 4.92883 8.44006 4.62115 8.74774C4.31348 9.05542 4.14063 9.47272 4.14062 9.90784C4.14062 10.343 4.31348 10.7603 4.62115 11.0679C4.92883 11.3756 5.34613 11.5485 5.78125 11.5485V11.5485Z"
        stroke="currentColor" stroke-linecap="round" stroke-linejoin="round" />
    <path d="M10.9766 6.90002L7.14844 9.08752M7.14844 10.7281L10.9766 12.9157" stroke="currentColor" />
</svg>
    