<svg width="24" height="24" viewBox="0 0 24 24" fill="none" xmlns="http://www.w3.org/2000/svg">
    <path
        d="M17.9999 6C17.9999 6 17.9999 4.78105 17.9999 4C17.9999 2 18.9999 2 18.9999 2M17.9999 6V21C17.9999 21.5523 17.5522 22 16.9999 22H3.99994C3.44765 22 2.99994 21.5523 2.99994 21V3C2.99994 2.44772 3.44765 2 3.99994 2H18.9999M17.9999 6H20.9999V4C20.9999 2.89543 20.1045 2 18.9999 2V2"
        stroke="currentColor" />
    <path d="M5.99994 15H14.9999" stroke="currentColor" stroke-linecap="round" />
    <path d="M14.9999 17H5.99994" stroke="currentColor" stroke-linecap="round" />
    <path d="M5.99994 19H14.9999" stroke="currentColor" stroke-linecap="round" />
    <path
        d="M10.9999 7.10773C10.7715 6.85467 10.3695 6.67893 9.99994 6.66773M8.99994 9.50773C9.21491 9.82507 9.61429 10.0059 9.99994 10.0213M9.99994 6.66773C9.56036 6.65467 9.16677 6.8752 9.16677 7.4768C9.16677 8.58453 10.9999 8.03067 10.9999 9.1384C10.9999 9.7704 10.512 10.0416 9.99994 10.0211M9.99994 6.66773V6M9.99994 10.0213V10.8"
        stroke="currentColor" stroke-linecap="round" stroke-linejoin="round" />
</svg>
    