<svg width="24" height="24" viewBox="0 0 24 24" fill="none" xmlns="http://www.w3.org/2000/svg">
    <path d="M8 10H16M7 14H8M16 14H17" stroke="currentColor" stroke-linecap="round"
        stroke-linejoin="round" />
    <path
        d="M3 18V11.41C3.00021 11.1394 3.05532 10.8717 3.162 10.623L5.481 5.213C5.63504 4.85313 5.8913 4.54637 6.21802 4.33075C6.54473 4.11513 6.92755 4.00013 7.319 4H16.681C17.0723 4.00004 17.4551 4.1149 17.7818 4.33033C18.1085 4.54576 18.3648 4.85231 18.519 5.212L20.839 10.622C20.9456 10.8714 21.0004 11.1398 21 11.411V18M3 18V20.4C3 20.5591 3.06321 20.7117 3.17574 20.8243C3.28826 20.9368 3.44087 21 3.6 21H6.4C6.55913 21 6.71174 20.9368 6.82426 20.8243C6.93679 20.7117 7 20.5591 7 20.4V18M3 18H7M21 18V20.4C21 20.5591 20.9368 20.7117 20.8243 20.8243C20.7117 20.9368 20.5591 21 20.4 21H17.6C17.5212 21 17.4432 20.9845 17.3704 20.9543C17.2976 20.9242 17.2315 20.88 17.1757 20.8243C17.12 20.7685 17.0758 20.7024 17.0457 20.6296C17.0155 20.5568 17 20.4788 17 20.4V18M21 18H17M7 18H17"
        stroke="currentColor" />
</svg>
    