<svg width="254" height="255" viewBox="0 0 254 255" fill="none" xmlns="http://www.w3.org/2000/svg">
	<g filter="url(#filter0_d_8_10373)">
		<circle cx="127" cy="123.66" r="115" fill="white" />
	</g>
	<circle cx="127" cy="123.66" r="108" fill="#F2F2F2" />
	<mask id="mask0_8_10373" style="mask-type:luminance" maskUnits="userSpaceOnUse" x="16" y="0"
		width="207" height="229">
		<path d="M222.66 0.125977H16.6V228.415H222.66V0.125977Z" fill="white" />
	</mask>
	<g mask="url(#mask0_8_10373)">
		<path
			d="M118.346 108.391C127.141 86.977 110.137 85.001 105.085 92.9709C75.5597 139.51 80.4219 214.269 84.713 241.882C86.1702 251.264 78.518 256.058 79.6603 263.706C80.151 266.992 94.3789 276.945 96.7002 273.791C98.5894 271.222 97.8938 267.76 99.1313 265.023C99.373 269.86 100.215 271.361 102.456 272.81C104.792 274.31 105.949 273.3 104.404 270.585C102.866 267.87 103.635 265.133 103.459 259.351C103.276 253.284 98.875 251.337 97.3007 244.465C92.7313 224.515 95.6823 163.61 118.353 108.406L118.346 108.391Z"
			fill="#91693C" />
		<mask id="mask1_8_10373" style="mask-type:luminance" maskUnits="userSpaceOnUse" x="79"
			y="88" width="42" height="187">
			<path
				d="M118.346 108.391C127.141 86.977 110.137 85.001 105.085 92.9709C75.5597 139.51 80.4219 214.269 84.713 241.882C86.1702 251.264 78.518 256.058 79.6603 263.706C80.151 266.992 94.3789 276.945 96.7002 273.791C98.5894 271.222 97.8938 267.76 99.1313 265.023C99.373 269.86 100.215 271.361 102.456 272.81C104.792 274.31 105.949 273.3 104.404 270.585C102.866 267.87 103.635 265.133 103.459 259.351C103.276 253.284 98.875 251.337 97.3007 244.465C92.7313 224.515 95.6823 163.61 118.353 108.406L118.346 108.391Z"
				fill="white" />
		</mask>
		<g mask="url(#mask1_8_10373)">
			<path
				d="M118.675 90.5264C100.083 104.498 91.5006 171.579 90.3289 207.162C89.355 236.7 97.4026 263.501 93.6681 267.123C90.2484 270.439 79.0447 256.928 79.6598 264.445C80.5752 275.701 95.8869 282.404 96.6045 283.041C100.8 286.781 109.902 279.901 114.091 262.242C118.272 244.575 145.029 122.977 142.525 116.888C140.021 110.806 179.695 44.6903 118.682 90.5337L118.675 90.5264Z"
				fill="#5F3A1A" />
		</g>
		<path
			d="M149.247 88.1185C139.896 88.9675 130.626 90.8776 114.64 89.0187C98.6623 87.1598 109.017 155.522 84.222 220.672C60.3647 283.341 198.983 251.696 175.045 217.584C134.631 160.001 204.226 83.1126 149.247 88.1185Z"
			fill="#F7E500" />
		<mask id="mask2_8_10373" style="mask-type:luminance" maskUnits="userSpaceOnUse" x="81"
			y="87" width="97" height="170">
			<path
				d="M149.247 88.1185C139.896 88.9675 130.626 90.8776 114.64 89.0187C98.6623 87.1598 109.017 155.522 84.222 220.672C60.3647 283.341 198.983 251.696 175.045 217.584C134.631 160.001 204.226 83.1126 149.247 88.1185Z"
				fill="white" />
		</mask>
		<g mask="url(#mask2_8_10373)">
			<path
				d="M144.671 91.7851C194.07 92.839 191.558 221.185 170.249 200.275C148.94 179.366 142.833 225.956 147.022 264.942C148.838 281.826 60.3431 280.567 61.8223 258.129C71.8251 106.73 109.705 67.5168 128.81 75.5965C133.819 77.7115 140.731 91.6973 144.671 91.7778V91.7851Z"
				fill="#FFCB05" />
		</g>
		<path
			d="M145.373 132.615H132.251C130.823 132.615 130.428 134.057 130.714 135.118L132.273 141.171C132.427 142.027 133.254 142.73 134.111 142.73L147.805 145.906C148.661 145.906 149.247 145.203 149.093 144.347L147.321 134.379C147.124 133.186 146.23 132.615 145.373 132.615Z"
			fill="#B6DCB0" />
		<mask id="mask3_8_10373" style="mask-type:luminance" maskUnits="userSpaceOnUse" x="130"
			y="132" width="20" height="14">
			<path
				d="M145.373 132.615H132.251C130.823 132.615 130.428 134.057 130.714 135.118L132.273 141.171C132.427 142.027 133.254 142.73 134.111 142.73L147.805 145.906C148.661 145.906 149.247 145.203 149.093 144.347L147.321 134.379C147.124 133.186 146.23 132.615 145.373 132.615Z"
				fill="white" />
		</mask>
		<g mask="url(#mask3_8_10373)">
			<path
				d="M142.159 132.454C145.857 132.345 146.399 133.874 142.305 133.838C138.271 133.801 133.086 133.808 131.731 133.808C130.377 133.808 130.714 135.126 130.714 135.126L128.919 130.596C128.919 130.596 138.944 132.557 142.159 132.462V132.454Z"
				fill="white" />
		</g>
		<path
			d="M147.563 143.388C146.223 143.454 132.537 140.271 129.967 140.307C128.458 140.329 128.407 142.796 130.289 143.052C129.227 143.623 129.967 144.903 130.926 145.416C131.475 145.708 138.651 152.471 148.881 155.113C167.935 160.038 171.713 168.55 180.61 172.868C192.458 178.627 200.623 176.871 203.047 173.219C205.471 169.567 191.631 111.948 166.397 91.09C164.244 89.3115 157.375 105.983 160.085 118.491C163.951 136.348 178.34 152.295 176.517 151.805C159.938 147.34 157.471 134.613 153.319 134.796C151.422 134.877 147.556 135.719 147.556 135.719L148.039 138.456C148.039 138.456 140.248 137.856 138.461 137.534C135.949 137.08 135.136 138.909 137.267 139.81C139.347 140.688 147.563 143.381 147.563 143.381V143.388Z"
			fill="#91693C" />
		<mask id="mask4_8_10373" style="mask-type:luminance" maskUnits="userSpaceOnUse" x="128"
			y="90" width="76" height="87">
			<path
				d="M147.563 143.388C146.223 143.454 132.537 140.271 129.967 140.307C128.458 140.329 128.407 142.796 130.289 143.052C129.227 143.623 129.967 144.903 130.926 145.416C131.475 145.708 138.651 152.471 148.881 155.113C167.935 160.038 171.713 168.55 180.61 172.868C192.458 178.627 200.623 176.871 203.047 173.219C205.471 169.567 191.631 111.948 166.397 91.09C164.244 89.3115 157.375 105.983 160.085 118.491C163.951 136.348 178.34 152.295 176.517 151.805C159.938 147.34 157.471 134.613 153.319 134.796C151.422 134.877 147.556 135.719 147.556 135.719L148.039 138.456C148.039 138.456 140.248 137.856 138.461 137.534C135.949 137.08 135.136 138.909 137.267 139.81C139.347 140.688 147.563 143.381 147.563 143.381V143.388Z"
				fill="white" />
		</mask>
		<g mask="url(#mask4_8_10373)">
			<path
				d="M160.524 97.2961C179.27 114.978 184.367 147.809 185.612 153.29C186.234 156.027 184.498 154.33 175.763 151.49C165.818 148.255 155.274 132.915 154.351 135.104C153.509 137.116 155.552 139.341 153.575 140.402C151.598 141.464 155.274 144.354 153.011 146.052C150.748 147.75 155.34 148.95 153.436 151.351C151.276 154.073 161.139 150.956 168.916 157.235C181.504 167.401 194.919 176.644 201.846 173.211C207.609 170.357 194.56 138.47 201.919 148.153C209.278 157.835 220.965 196.514 220.965 196.514L104.52 151.958L107.435 120.672C107.435 120.672 150.77 88.0747 160.531 97.2887L160.524 97.2961Z"
				fill="#5F3A1A" />
		</g>
		<path
			d="M116.251 58.0977C118.65 57.6135 119.808 53.3315 118.838 48.5337C117.868 43.7358 115.138 40.2389 112.74 40.723C110.341 41.2072 109.183 45.4892 110.153 50.287C111.123 55.0849 113.853 58.5818 116.251 58.0977Z"
			fill="#5F3A1A" />
		<path
			d="M148.26 65.6798C148.26 65.6798 142.358 78.802 147.352 88.8211C149.263 92.6634 122.682 98.3206 126.416 91.4631C128.598 87.4526 128.899 80.6609 123.699 67.0777C124.183 61.4644 136.836 67.1362 148.252 65.6798H148.26Z"
			fill="#5F3A1A" />
		<mask id="mask5_8_10373" style="mask-type:luminance" maskUnits="userSpaceOnUse" x="123"
			y="64" width="26" height="31">
			<path
				d="M148.26 65.6798C148.26 65.6798 142.358 78.802 147.352 88.8211C149.263 92.6634 122.682 98.3206 126.416 91.4631C128.598 87.4526 128.899 80.6609 123.699 67.0777C124.183 61.4644 136.836 67.1362 148.252 65.6798H148.26Z"
				fill="white" />
		</mask>
		<g mask="url(#mask5_8_10373)">
			<path
				d="M140.974 66.3605C134.581 69.0171 134.354 91.8291 147.762 92.883C160.438 93.8783 162.298 99.5136 164.084 90.6727C176.518 29.131 140.974 66.3678 140.974 66.3678V66.3605Z"
				fill="#91693C" />
		</g>
		<path
			d="M149.651 17.941C138.301 3.62586 113.228 17.8239 114.458 43.5559C115.264 60.4179 124.227 75.4209 135.562 75.4209C146.898 75.4209 168.792 42.0922 149.651 17.941Z"
			fill="#91693C" />
		<mask id="mask6_8_10373" style="mask-type:luminance" maskUnits="userSpaceOnUse" x="114"
			y="12" width="44" height="64">
			<path
				d="M149.651 17.941C138.301 3.62586 113.228 17.8239 114.458 43.5559C115.264 60.4179 124.227 75.4209 135.562 75.4209C146.898 75.4209 168.792 42.0922 149.651 17.941Z"
				fill="white" />
		</mask>
		<g mask="url(#mask6_8_10373)">
			<path
				d="M136.844 75.5745C136.654 68.739 134.852 67.0704 136.683 66.2726C135.665 62.6133 136.954 62.3426 136.537 59.4225C136.119 56.5024 140.191 55.4778 139.912 54.5556C139.48 53.1139 135.812 54.197 135.445 51.7526C134.816 47.5591 136.991 49.8937 136.507 34.6491C136.068 20.7878 133.029 13.0887 133.029 13.0887C133.029 13.0887 136.471 -14.2608 118.779 5.85062C101.088 25.962 111.596 78.0189 136.851 75.5818L136.844 75.5745Z"
				fill="#5F3A1A" />
			<path
				d="M147.289 42.6903C151.086 41.9236 153.71 39.0506 153.148 36.2733C152.587 33.496 149.053 31.8661 145.256 32.6328C141.458 33.3995 138.835 36.2724 139.396 39.0497C139.957 41.827 143.491 43.457 147.289 42.6903Z"
				fill="#5F3A1A" />
		</g>
		<path
			d="M126.921 45.1513C127.576 45.1513 128.108 44.0897 128.108 42.7801C128.108 41.4705 127.576 40.4089 126.921 40.4089C126.266 40.4089 125.735 41.4705 125.735 42.7801C125.735 44.0897 126.266 45.1513 126.921 45.1513Z"
			fill="black" />
		<path
			d="M152.748 35.4031C150.866 31.5316 145.945 33.3173 142.972 34.781C141.859 35.3592 140.775 35.9886 139.706 36.6473C139.567 36.7204 139.465 36.5668 139.552 36.4204C141.141 32.0805 146.055 29.3067 150.588 31.0559C152.235 31.7877 153.465 33.5661 152.982 35.3738C152.96 35.4909 152.792 35.5056 152.748 35.4031Z"
			fill="black" />
		<path
			d="M145.711 45.1514C146.366 45.1514 146.897 44.0898 146.897 42.7802C146.897 41.4706 146.366 40.409 145.711 40.409C145.056 40.409 144.525 41.4706 144.525 42.7802C144.525 44.0898 145.056 45.1514 145.711 45.1514Z"
			fill="black" />
		<path
			d="M144.663 59.1224C145.104 59.1224 145.461 58.7653 145.461 58.3247C145.461 57.8841 145.104 57.527 144.663 57.527C144.223 57.527 143.865 57.8841 143.865 58.3247C143.865 58.7653 144.223 59.1224 144.663 59.1224Z"
			fill="#5F3A1A" />
		<path
			d="M105.165 37.5839C109.449 44.2804 115.754 47.4933 127.331 38.9891C142.452 27.8795 142.276 14.4061 148.142 16.3016C145.865 3.64779 127.045 0.647183 113.088 11.7787C103.796 19.1924 100.881 30.8948 105.165 37.5913V37.5839Z"
			fill="#3B2416" />
		<mask id="mask7_8_10373" style="mask-type:luminance" maskUnits="userSpaceOnUse" x="103"
			y="4" width="46" height="41">
			<path
				d="M105.165 37.5839C109.449 44.2804 115.754 47.4933 127.331 38.9891C142.452 27.8795 142.276 14.4061 148.142 16.3016C145.865 3.64779 127.045 0.647183 113.088 11.7787C103.796 19.1924 100.881 30.8948 105.165 37.5913V37.5839Z"
				fill="white" />
		</mask>
		<g mask="url(#mask7_8_10373)">
			<path
				d="M171.223 26.1231C141.793 -29.1174 102.397 13.5425 119.854 7.67298C134.492 2.75491 136.338 22.9175 136.579 35.9446C136.821 48.7008 200.653 81.3562 171.223 26.1231Z"
				fill="#5F3A1A" />
		</g>
		<path
			d="M143.91 61.0546L143.947 61.0399C141.354 59.9202 138.887 59.2981 138.074 59.825C137.261 60.352 136.426 60.7252 136.426 60.7252C136.426 60.7252 135.591 60.352 134.779 59.825C133.966 59.2981 131.857 60.169 128.906 61.0399C128.906 61.0399 128.928 61.0472 128.942 61.0546C128.898 61.0472 128.862 61.0399 128.862 61.0399C128.862 61.0399 131.308 67.6266 136.397 67.6266C141.486 67.6266 143.983 61.0399 143.983 61.0399C143.983 61.0399 143.954 61.0399 143.903 61.0546H143.91Z"
			fill="#BE1E2D" />
		<mask id="mask8_8_10373" style="mask-type:luminance" maskUnits="userSpaceOnUse" x="128"
			y="59" width="16" height="9">
			<path
				d="M143.91 61.0546L143.947 61.0399C141.354 59.9202 138.887 59.2981 138.074 59.825C137.261 60.352 136.426 60.7252 136.426 60.7252C136.426 60.7252 135.591 60.352 134.779 59.825C133.966 59.2981 131.857 60.169 128.906 61.0399C128.906 61.0399 128.928 61.0472 128.942 61.0546C128.898 61.0472 128.862 61.0399 128.862 61.0399C128.862 61.0399 131.308 67.6266 136.397 67.6266C141.486 67.6266 143.983 61.0399 143.983 61.0399C143.983 61.0399 143.954 61.0399 143.903 61.0546H143.91Z"
				fill="white" />
		</mask>
		<g mask="url(#mask8_8_10373)">
			<path
				d="M136.668 68.3072C135.98 67.1289 135.826 65.9579 136.881 64.787L136.456 62.8695C136.053 61.8669 136.068 61.0911 136.705 60.286L131.616 57.644L126.6 60.9154L129.587 68.8048L136.668 68.3072Z"
				fill="#ED1C24" />
		</g>
		<path
			d="M136.427 62.5988C134.486 62.7085 129.763 61.1497 129.587 61.6254C129.412 62.1011 132.846 65.1163 136.427 65.1163C140.007 65.1163 143.639 61.7352 143.42 61.3766C143.2 61.018 139.187 62.4451 136.427 62.5988Z"
			fill="black" />
		<mask id="mask9_8_10373" style="mask-type:luminance" maskUnits="userSpaceOnUse" x="129"
			y="61" width="15" height="5">
			<path
				d="M136.427 62.5988C134.486 62.7085 129.763 61.1497 129.587 61.6254C129.412 62.1011 132.846 65.1163 136.427 65.1163C140.007 65.1163 143.639 61.7352 143.42 61.3766C143.2 61.018 139.187 62.4451 136.427 62.5988Z"
				fill="white" />
		</mask>
		<g mask="url(#mask9_8_10373)">
			<path
				d="M136.492 61.6547C134.925 61.823 130.751 60.8204 130.802 61.5449C130.854 62.2695 132.933 63.6966 136.426 63.6966C139.919 63.6966 142.482 62.1158 142.394 61.3327C142.306 60.5496 138.037 61.823 136.492 61.6547Z"
				fill="white" />
		</g>
		<path
			d="M161.493 49.2181C161.888 45.1224 160.234 41.6118 157.799 41.377C155.363 41.1422 153.069 44.2721 152.673 48.3678C152.278 52.4634 153.932 55.974 156.367 56.2088C158.803 56.4436 161.097 53.3137 161.493 49.2181Z"
			fill="#91693C" />
		<path
			d="M192.071 218.133H74.4836C68.0616 218.133 62.7014 213.222 62.1522 206.826L56.4112 140.38C55.7888 133.157 61.4858 126.944 68.7426 126.944H197.98C205.252 126.944 210.956 133.172 210.312 140.41C208.342 162.556 206.372 184.709 204.402 206.855C203.831 213.237 198.486 218.133 192.071 218.133Z"
			fill="#003654" />
		<path
			d="M134.793 184.57C139.055 184.57 142.511 181.116 142.511 176.856C142.511 172.596 139.055 169.142 134.793 169.142C130.53 169.142 127.075 172.596 127.075 176.856C127.075 181.116 130.53 184.57 134.793 184.57Z"
			fill="#FFCB05" />
		<path d="M221.939 217.128H43.8464V228.415H221.939V217.128Z" fill="#FFCB05" />
		<path
			d="M114.414 41.3823C115.234 46.8859 116.054 52.4041 116.875 57.9149C113.645 59.1298 109.837 58.2296 107.487 55.712C105.144 53.1945 104.55 49.5425 105.971 46.4248C106.813 44.5732 108.263 43.1388 110.057 42.2752C110.54 42.041 111.046 41.858 111.573 41.7116C112.474 41.4628 113.426 41.353 114.414 41.3823Z"
			fill="#003654" />
		<path
			d="M154.512 55.7779C155.091 50.6769 155.662 45.6271 156.226 40.5846C158.942 40.1089 162.245 41.719 163.797 44.2512C165.474 46.981 165.328 50.3768 163.438 52.9456C161.447 55.6462 158.137 56.722 154.505 55.7779H154.512Z"
			fill="#003654" />
		<path d="M73.0704 77.4628H16.4076V114.751H73.0704V77.4628Z" fill="#0FAF4B" />
		<path d="M70.4557 95.4372V77.4628H84.5958L70.4557 95.4372Z" fill="#0FAF4B" />
		<path
			d="M61.4351 102.69C65.0709 102.69 68.0182 99.7442 68.0182 96.1105C68.0182 92.4768 65.0709 89.5311 61.4351 89.5311C57.7994 89.5311 54.8521 92.4768 54.8521 96.1105C54.8521 99.7442 57.7994 102.69 61.4351 102.69Z"
			fill="white" />
		<path
			d="M44.6214 102.69C48.2572 102.69 51.2045 99.7442 51.2045 96.1105C51.2045 92.4768 48.2572 89.5311 44.6214 89.5311C40.9857 89.5311 38.0384 92.4768 38.0384 96.1105C38.0384 99.7442 40.9857 102.69 44.6214 102.69Z"
			fill="white" />
		<path
			d="M28.4973 102.69C32.1331 102.69 35.0804 99.7442 35.0804 96.1105C35.0804 92.4768 32.1331 89.5311 28.4973 89.5311C24.8616 89.5311 21.9142 92.4768 21.9142 96.1105C21.9142 99.7442 24.8616 102.69 28.4973 102.69Z"
			fill="white" />
		<path
			d="M157.793 41.375C157.793 41.375 162.341 5.11884 133.211 5.11884C107.04 5.11884 113.059 42.4435 113.059 42.4435"
			stroke="#003654" stroke-width="4" stroke-miterlimit="10" />
		<path d="M156.168 53.4872C156.168 53.4872 150.917 69.4343 136.748 69.4343" stroke="#003654"
			stroke-width="3" stroke-miterlimit="10" />
		<path
			d="M136.763 71.4251C138.243 71.4251 139.443 70.5469 139.443 69.4637C139.443 68.3805 138.243 67.5023 136.763 67.5023C135.283 67.5023 134.083 68.3805 134.083 69.4637C134.083 70.5469 135.283 71.4251 136.763 71.4251Z"
			fill="#FFCB05" />
		<path
			d="M160.5 171.5C149 143.5 130 127 130 127C130 127 186 126 199.5 127C213 128 210 142.5 210 142.5L204.297 207.869C203.846 213.036 199.52 217 194.334 217H165.5C165.5 217 172 199.5 160.5 171.5Z"
			fill="#004F71" />
	</g>
	<defs>
		<filter id="filter0_d_8_10373" x="0" y="0.660156" width="254" height="254"
			filterUnits="userSpaceOnUse" color-interpolation-filters="sRGB">
			<feFlood flood-opacity="0" result="BackgroundImageFix" />
			<feColorMatrix in="SourceAlpha" type="matrix"
				values="0 0 0 0 0 0 0 0 0 0 0 0 0 0 0 0 0 0 127 0" result="hardAlpha" />
			<feOffset dy="4" />
			<feGaussianBlur stdDeviation="6" />
			<feComposite in2="hardAlpha" operator="out" />
			<feColorMatrix type="matrix" values="0 0 0 0 0 0 0 0 0 0 0 0 0 0 0 0 0 0 0.1 0" />
			<feBlend mode="normal" in2="BackgroundImageFix" result="effect1_dropShadow_8_10373" />
			<feBlend mode="normal" in="SourceGraphic" in2="effect1_dropShadow_8_10373"
				result="shape" />
		</filter>
	</defs>
</svg>
	