<svg width="170" height="206" viewBox="10 0 170 206" fill="none" xmlns="http://www.w3.org/2000/svg">
    <path d="M162.034 192.636H82.2837C80.3173 192.631 78.4331 191.847 77.0426 190.456C75.6522 189.066 74.8685 187.182 74.8628 185.215V7.42098C74.8685 5.45457 75.6522 3.57033 77.0426 2.17986C78.4331 0.789394 80.3173 0.00571042 82.2837 0H162.034C164.001 0.00571042 165.885 0.789394 167.275 2.17986C168.666 3.57033 169.449 5.45457 169.455 7.42098V185.215C169.449 187.181 168.665 189.065 167.274 190.456C165.884 191.846 164 192.63 162.034 192.636Z" fill="#073241"/>
    <path d="M158.444 186.362H86.0899C84.4709 186.358 82.9197 185.712 81.7749 184.567C80.6302 183.423 79.9849 181.871 79.98 180.252V11.15C79.9849 9.53103 80.6302 7.97978 81.7749 6.83501C82.9197 5.69023 84.4709 5.04493 86.0899 5.04004H158.444C160.063 5.04493 161.614 5.69023 162.759 6.83501C163.904 7.97978 164.549 9.53103 164.554 11.15V180.252C164.549 181.871 163.904 183.423 162.759 184.567C161.614 185.712 160.063 186.358 158.444 186.362Z" fill="white"/>
    <path d="M136.881 12.5785H106.4C105.995 12.5745 105.608 12.412 105.322 12.1258C105.036 11.8396 104.873 11.4526 104.869 11.048V4.02895C104.869 3.62158 105.03 3.23066 105.316 2.94116C105.603 2.65167 105.992 2.48698 106.4 2.48291H136.881C137.289 2.48698 137.678 2.65167 137.964 2.94116C138.251 3.23066 138.412 3.62158 138.412 4.02895V11.0449C138.409 11.4501 138.246 11.8379 137.96 12.1247C137.674 12.4115 137.286 12.5745 136.881 12.5785Z" fill="#073241"/>
    <path d="M133.996 65.3667H115.647C111.967 65.3667 108.984 68.35 108.984 72.0301V102.524C108.984 106.204 111.967 109.188 115.647 109.188H133.996C137.676 109.188 140.659 106.204 140.659 102.524V72.0301C140.659 68.35 137.676 65.3667 133.996 65.3667Z" fill="#056A88"/>
    <path d="M130.289 70.481H116.885C114.197 70.481 112.018 72.66 112.018 75.3479V97.988C112.018 100.676 114.197 102.855 116.885 102.855H130.289C132.977 102.855 135.156 100.676 135.156 97.988V75.3479C135.156 72.66 132.977 70.481 130.289 70.481Z" fill="white"/>
    <path d="M111.448 98.5999C114.313 98.5999 116.636 97.0522 116.636 95.143C116.636 93.2338 114.313 91.686 111.448 91.686C108.582 91.686 106.259 93.2338 106.259 95.143C106.259 97.0522 108.582 98.5999 111.448 98.5999Z" fill="#053241"/>
    <path d="M138.376 98.5999C141.242 98.5999 143.565 97.0522 143.565 95.143C143.565 93.2338 141.242 91.686 138.376 91.686C135.511 91.686 133.188 93.2338 133.188 95.143C133.188 97.0522 135.511 98.5999 138.376 98.5999Z" fill="#053241"/>
    <path d="M142.072 93.5537H107.098C105.048 93.5537 103.387 95.215 103.387 97.2642V123.677C103.387 125.726 105.048 127.387 107.098 127.387H142.072C144.121 127.387 145.782 125.726 145.782 123.677V97.2642C145.782 95.215 144.121 93.5537 142.072 93.5537Z" fill="#FAEE43"/>
    <path d="M127.388 107.731C127.389 106.959 127.183 106.2 126.792 105.534C126.401 104.868 125.838 104.319 125.163 103.943C124.488 103.567 123.725 103.379 122.953 103.398C122.181 103.417 121.428 103.642 120.772 104.05C120.116 104.458 119.581 105.035 119.223 105.719C118.865 106.403 118.697 107.171 118.735 107.943C118.774 108.714 119.018 109.461 119.443 110.106C119.868 110.752 120.458 111.271 121.151 111.612C121.092 111.813 121.06 112.021 121.058 112.23V116.275C121.058 116.872 121.296 117.446 121.719 117.868C122.141 118.291 122.715 118.529 123.312 118.529C123.91 118.529 124.484 118.291 124.906 117.868C125.329 117.446 125.567 116.872 125.567 116.275V112.246C125.567 111.946 125.507 111.649 125.39 111.374C126.002 110.983 126.505 110.444 126.854 109.808C127.204 109.171 127.387 108.457 127.388 107.731Z" fill="white"/>
    <path d="M143.999 127.387H141.918C141.716 127.386 141.523 127.306 141.381 127.164C141.238 127.021 141.158 126.828 141.157 126.627V94.3144C141.158 94.1129 141.238 93.9199 141.381 93.7774C141.523 93.6349 141.716 93.5545 141.918 93.5537H144.014C144.216 93.5545 144.409 93.6349 144.551 93.7774C144.694 93.9199 144.774 94.1129 144.775 94.3144V126.627C144.775 126.728 144.755 126.828 144.716 126.921C144.676 127.015 144.619 127.099 144.547 127.17C144.474 127.241 144.389 127.296 144.295 127.334C144.201 127.371 144.1 127.389 143.999 127.387Z" fill="#FFC415"/>
    <path d="M20.2618 143.234L1.18684 124.159C0.426651 123.394 0 122.359 0 121.28C0 120.202 0.426651 119.167 1.18684 118.402L12.7264 106.862C13.4916 106.102 14.5265 105.675 15.6051 105.675C16.6838 105.675 17.7186 106.102 18.4838 106.862L37.5618 125.934C38.322 126.699 38.7487 127.734 38.7487 128.813C38.7487 129.891 38.322 130.926 37.5618 131.691L26.0223 143.231C25.2573 143.993 24.222 144.42 23.1427 144.421C22.0633 144.422 21.0275 143.995 20.2618 143.234Z" fill="#053241"/>
    <path d="M114.675 101.445C115.686 100.808 113.213 101.058 109.768 97.5828C108.983 96.7913 113.822 100.455 115.21 99.6483C116.469 98.9155 113.766 99.5587 109.666 96.2192C109.159 95.808 112.851 98.0899 113.577 97.1747C114.054 96.5748 111.722 96.8655 109.298 94.3918C105.77 90.7524 105.164 88.9745 102.894 88.554C99.0386 87.8366 90.5262 89.4445 83.4608 90.9813C81.7354 91.3554 78.2538 78.9222 71.2967 70.3509C67.9789 66.2601 64.6951 64.7852 64.1602 69.9799C63.5418 76.1207 76.4449 96.0925 79.6916 98.2013C83.2011 100.48 98.6459 91.9676 101.689 93.2137C103.306 93.8754 103.51 98.4703 104.106 98.4115C104.703 98.3528 104.886 95.8203 105.09 95.9904C106.153 96.884 106.828 97.8889 107.755 98.9341C110.977 102.552 113.012 102.87 113.537 102.645C114.465 102.255 111.682 101.646 110.85 99.8617C110.739 99.5958 113.757 102.023 114.675 101.445Z" fill="#91693C"/>
    <path d="M102.761 91.7606C101.163 88.4644 83.9957 97.1563 80.9099 94.3641C78.4857 92.1718 67.5212 76.3868 64.3426 68.8452C64.2586 69.2152 64.1977 69.5901 64.1602 69.9676C63.5418 76.1085 76.4449 96.0802 79.6916 98.189C81.5468 99.3856 86.6673 97.6077 91.5682 95.8267C96.0022 94.2188 100.226 92.6109 101.689 93.2015C103.25 93.8416 103.494 98.1643 104.048 98.39C103.739 97.2676 103.689 93.6808 102.761 91.7606Z" fill="#5F3A1A"/>
    <path d="M83.1383 191.656C81.7438 191.474 81.045 191.375 80.5812 191.863C79.6535 192.862 82.1859 196.3 82.8847 194.897C83.5835 193.493 83.1383 191.656 83.1383 191.656Z" fill="#DD6326"/>
    <path d="M45.8359 108.838C38.5541 121.42 43.6715 128.584 46.377 147.489C47.5396 155.603 45.6535 158.704 45.1402 165.507C44.6269 172.309 46.946 181.103 46.1853 190.243C45.7493 195.481 49.936 195.735 49.9947 190.37C50.0968 180.784 55.0379 171.771 54.4226 162.507C53.6588 151.039 59.4874 146.568 62.6289 126.967C66.194 134.422 77.6563 145.43 76.2494 152.288C73.5129 165.621 80.6494 177.371 81.4688 193.533C81.642 196.962 90.2719 198.047 86.5831 191.888C82.8943 185.729 92.795 148.998 76.2123 110.189C72.8079 102.209 50.9007 100.091 45.8359 108.838Z" fill="#07404F"/>
    <path d="M66.2468 115.783C71.9578 133.571 79.892 138.293 81.2433 150.902C82.5945 163.512 81.4597 190.085 86.0267 193.165C86.3946 193.412 87.0347 194.256 87.2635 195.435C87.684 194.736 87.6067 193.579 86.5894 191.891C82.8913 185.732 92.7952 148.998 76.2125 110.189C73.8934 104.763 63.0403 102.051 54.7227 103.612C59.7256 118.429 61.5963 101.306 66.2468 115.783Z" fill="#056A88"/>
    <path d="M57.8578 145.51C51.0955 143.908 48.5816 162.625 48.2167 189.343C48.1978 190.999 48.0708 192.652 47.8364 194.291C48.8537 194.399 49.9607 193.128 50.0009 190.385C50.1029 180.8 55.044 171.786 54.4287 162.523C53.9803 155.933 55.7119 151.657 57.8578 145.51Z" fill="#056A88"/>
    <path d="M100.024 200.512C100.228 199.745 100.314 197.466 99.1921 196.959C96.8112 195.886 89.1336 192.828 86.8238 190.599C86.8238 190.599 83.2772 192.219 85.2129 193.932C85.2129 193.932 79.6471 193.647 80.5964 191.863C79.8883 192.358 79.3596 197.407 79.508 197.958C79.6843 198.61 84.1306 198.867 88.342 199.946C93.9232 201.375 99.9094 200.954 100.024 200.512Z" fill="#DD6326"/>
    <path d="M100.695 198.446C100.021 199.658 93.1318 199.807 88.1227 198.394C83.4321 197.07 79.8298 197.018 78.9857 196.133L77.6963 200.094C77.6963 200.094 98.2987 201.532 99.9839 201.523C99.9869 201.523 102.884 198.023 100.695 198.446Z" fill="white"/>
    <path d="M90.4843 192.976C90.1482 193.081 89.8263 193.226 89.5257 193.409L88.796 193.901C88.5301 194.08 88.2549 194.275 87.8839 194.495C87.795 194.087 87.8496 193.661 88.0385 193.289C88.22 192.911 88.5012 192.591 88.8517 192.361C89.2042 192.129 89.1145 192.203 89.4979 192.414C89.8813 192.624 90.2555 192.865 90.4843 192.976Z" fill="white"/>
    <path d="M92.9282 193.366C92.5768 193.463 92.2352 193.592 91.9078 193.752C91.6264 193.889 91.3698 194.034 91.107 194.185C90.8441 194.337 90.5875 194.495 90.3123 194.674C90.0371 194.853 89.7495 195.048 89.3847 195.308C89.2827 194.876 89.3525 194.421 89.5795 194.04C89.7915 193.654 90.1047 193.333 90.4855 193.112C90.872 192.89 91.314 192.783 91.7594 192.803C91.9833 192.807 92.2038 192.859 92.4057 192.956C92.6075 193.053 92.7858 193.193 92.9282 193.366Z" fill="white"/>
    <path d="M94.6565 194.17C94.2824 194.257 93.9186 194.383 93.5712 194.547C93.262 194.686 92.9714 194.832 92.6869 194.983C92.4024 195.135 92.1179 195.292 91.8273 195.475C91.4961 195.676 91.1799 195.902 90.8811 196.149C90.826 195.923 90.8181 195.688 90.858 195.458C90.898 195.229 90.9848 195.01 91.113 194.816C91.357 194.424 91.7002 194.103 92.108 193.886C92.5157 193.669 92.9735 193.563 93.4352 193.579C93.6696 193.582 93.9006 193.636 94.1117 193.738C94.3228 193.84 94.5088 193.988 94.6565 194.17Z" fill="white"/>
    <path d="M96.3813 194.962C95.9855 195.039 95.5996 195.16 95.231 195.323C94.894 195.463 94.5755 195.608 94.2632 195.762C93.9509 195.917 93.6448 196.072 93.3356 196.257C92.9873 196.46 92.6627 196.7 92.3678 196.975C92.3084 196.737 92.3014 196.489 92.3473 196.248C92.3932 196.007 92.4909 195.779 92.6337 195.58C92.9047 195.181 93.2772 194.86 93.7128 194.652C94.142 194.442 94.6174 194.343 95.095 194.365C95.3399 194.364 95.582 194.418 95.8042 194.521C96.0264 194.624 96.2234 194.774 96.3813 194.962Z" fill="white"/>
    <path d="M88.1167 198.394C83.4261 197.07 80.4175 197.231 79.5734 196.347C79.5734 196.347 79.3415 197.893 79.5919 198.091C80.3526 198.709 82.2078 198.493 86.4656 199.559C92.0096 200.948 95.683 201.059 97.4486 200.901C97.7021 200.543 97.6032 200.645 97.7083 200.23C97.7853 199.938 97.7969 199.631 97.7423 199.334C94.5041 199.544 91.2531 199.227 88.1167 198.394Z" fill="#B5DBAF"/>
    <path d="M87.8846 194.495C88.1938 194.315 88.4257 194.155 88.6483 194.003C88.3979 193.889 88.1505 193.774 87.9062 193.657C87.8277 193.93 87.8203 194.218 87.8846 194.495Z" fill="#B5DBAF"/>
    <path d="M89.3817 195.32C89.7404 195.066 90.0218 194.875 90.3094 194.702L89.456 194.349C89.33 194.657 89.3041 194.997 89.3817 195.32Z" fill="#B5DBAF"/>
    <path d="M90.8809 196.149C91.1797 195.902 91.4959 195.677 91.8271 195.475C91.8827 195.438 91.9415 195.407 91.9971 195.373L91.02 194.986C90.8301 195.343 90.7804 195.758 90.8809 196.149Z" fill="#B5DBAF"/>
    <path d="M92.3713 196.974C92.6662 196.7 92.9908 196.459 93.3391 196.257C93.4535 196.189 93.5679 196.127 93.6854 196.062C93.3391 195.914 92.9804 195.753 92.6125 195.62C92.4782 195.816 92.3872 196.038 92.3456 196.271C92.304 196.505 92.3128 196.745 92.3713 196.974Z" fill="#B5DBAF"/>
    <path opacity="0.15" d="M99.1922 196.959C96.8113 195.886 89.1338 192.828 86.824 190.599C86.1629 190.908 85.5652 191.338 85.0615 191.866L85.1203 191.916C89.0441 195.342 98.7191 196.3 97.7019 200.23C97.6392 200.468 97.551 200.698 97.439 200.917C98.9696 200.864 99.9652 200.691 100.012 200.512C100.228 199.745 100.315 197.466 99.1922 196.959Z" fill="white"/>
    <path d="M50.8571 190.624C50.5478 187.915 45.4861 188.849 45.3625 190.435C45.2388 192.021 44.8801 195.886 43.3897 198.74C42.3013 200.827 42.6909 202.84 42.6507 203.437C42.5889 204.328 52.6752 204.077 52.6535 202.955C52.6319 201.832 52.7556 199.748 51.9393 198.626C49.7965 195.707 51.1755 193.329 50.8571 190.624Z" fill="#DD6326"/>
    <path d="M45.9624 192.355C46.2284 192.073 46.5597 191.861 46.9271 191.737C47.2626 191.614 47.6153 191.545 47.9722 191.533C48.3325 191.518 48.6928 191.562 49.039 191.662C49.4259 191.761 49.7728 191.977 50.0315 192.281C49.6971 192.425 49.3518 192.543 48.9988 192.633C48.6773 192.71 48.349 192.756 48.0186 192.769C47.6844 192.781 47.3498 192.76 47.0199 192.704C46.6535 192.635 46.2979 192.518 45.9624 192.355Z" fill="white"/>
    <path d="M45.9624 193.747C46.2347 193.462 46.5737 193.249 46.9488 193.128C47.2908 193.007 47.6496 192.939 48.0124 192.927C48.378 192.914 48.7433 192.958 49.0947 193.06C49.4874 193.157 49.8406 193.373 50.1058 193.679C49.7656 193.822 49.4152 193.94 49.0576 194.031C48.7299 194.109 48.3953 194.153 48.0588 194.164C47.7192 194.175 47.3793 194.152 47.0446 194.093C46.6704 194.025 46.3067 193.908 45.9624 193.747Z" fill="white"/>
    <path d="M45.9624 195.138C46.242 194.853 46.587 194.64 46.9673 194.519C47.3153 194.401 47.679 194.334 48.0464 194.321C48.4173 194.307 48.788 194.353 49.1441 194.457C49.5406 194.556 49.8984 194.771 50.1707 195.076C49.8244 195.219 49.4678 195.336 49.1039 195.425C48.7699 195.502 48.4292 195.545 48.0866 195.555C47.7408 195.566 47.3947 195.541 47.0539 195.481C46.6762 195.416 46.309 195.301 45.9624 195.138Z" fill="white"/>
    <path d="M45.9624 196.529C46.2479 196.243 46.5993 196.03 46.9859 195.911C47.3403 195.793 47.7101 195.727 48.0836 195.716C48.4596 195.704 48.8351 195.751 49.1967 195.855C49.5982 195.952 49.9613 196.168 50.2387 196.474C49.8866 196.617 49.5237 196.733 49.1534 196.82C48.813 196.896 48.4661 196.938 48.1176 196.947C47.7665 196.956 47.4153 196.93 47.0694 196.869C46.6872 196.805 46.3151 196.69 45.9624 196.529Z" fill="white"/>
    <path d="M53.3029 203.666C50.7581 207.163 41.417 205.029 41.417 205.029L41.7942 201.677C44.5431 200.75 53.408 201.557 53.408 201.557L53.3029 203.666Z" fill="white"/>
    <path d="M46.4821 203.981C46.3924 203.14 46.2842 202.284 46.0801 201.242C44.9164 201.23 43.7543 201.334 42.6108 201.551L42.6294 203.536C42.6294 203.536 43.1458 203.891 45.0659 203.947C45.5367 203.99 46.0098 204.002 46.4821 203.981Z" fill="#B5DBAF"/>
    <path opacity="0.15" d="M51.9397 198.623C49.7969 195.701 51.1759 193.323 50.8575 190.617C50.7059 189.331 49.4877 188.867 48.2354 188.904C48.3838 192.881 48.6404 197.738 46.9769 198.44C44.8589 199.331 46.1266 202.089 46.4853 203.969C49.3114 203.969 52.6694 203.598 52.6539 202.949C52.6323 201.832 52.756 199.748 51.9397 198.623Z" fill="white"/>
    <path d="M46.9271 191.727C46.5597 191.851 46.2284 192.064 45.9624 192.346C46.2984 192.505 46.6539 192.62 47.0199 192.686C47.3498 192.741 47.6844 192.763 48.0186 192.751C48.1268 192.751 48.2351 192.751 48.3433 192.723C48.3433 192.327 48.3433 191.925 48.3247 191.523C48.2073 191.517 48.0897 191.517 47.9722 191.523C47.6153 191.536 47.2626 191.605 46.9271 191.727Z" fill="#B5DBAF"/>
    <path d="M46.9488 193.122C46.5737 193.243 46.2347 193.455 45.9624 193.74C46.3068 193.901 46.6706 194.016 47.0446 194.084C47.3793 194.142 47.7192 194.166 48.0588 194.155C48.1485 194.155 48.2351 194.155 48.3247 194.133C48.3402 193.74 48.3433 193.335 48.3433 192.921C48.232 192.921 48.1207 192.921 48.0124 192.921C47.6496 192.933 47.2908 193 46.9488 193.122Z" fill="#B5DBAF"/>
    <path d="M46.9673 194.513C46.587 194.634 46.242 194.847 45.9624 195.132C46.3092 195.294 46.6764 195.408 47.0539 195.472C47.3947 195.531 47.7408 195.556 48.0866 195.546H48.2289C48.2691 195.159 48.3 194.748 48.3186 194.309C48.2258 194.309 48.1361 194.309 48.0464 194.309C47.6786 194.324 47.315 194.392 46.9673 194.513Z" fill="#B5DBAF"/>
    <path d="M46.9912 195.908C46.6046 196.027 46.2532 196.239 45.9678 196.526C46.3203 196.688 46.6924 196.803 47.0747 196.869C47.3749 196.922 47.6791 196.946 47.9838 196.943C48.0901 196.537 48.1676 196.124 48.2157 195.707H48.0889C47.7152 195.72 47.3454 195.787 46.9912 195.908Z" fill="#B5DBAF"/>
    <path d="M54.3206 66.189C57.4528 66.4642 60.5604 67.0796 65.9158 66.4797C71.2713 65.8798 67.7989 87.9974 76.1196 109.076C84.0971 129.36 37.6575 119.113 45.6783 108.077C59.2184 89.4476 35.9012 64.5688 54.3206 66.189Z" fill="#E6E7E8"/>
    <path d="M76.1077 109.076C67.7993 87.9975 71.2686 65.8799 65.9039 66.4797C60.5391 67.0796 57.4409 66.4643 54.3086 66.1891C48.5945 65.6882 46.8877 67.7351 46.8691 71.3559C48.6749 71.0467 50.4312 70.954 52.036 70.8303C64.228 69.9026 57.9851 92.5119 67.6323 120.613C74.3359 120.084 79.1503 116.769 76.1077 109.076Z" fill="#F1F2F2"/>
    <path d="M68.2007 56.6962C68.9861 56.9343 70.2074 57.3703 70.2105 57.259L70.3744 56.1489L68.2007 56.6962Z" fill="white"/>
    <path d="M69.7307 50.2958C70.0399 48.6631 69.573 46.5853 69.573 46.5853C68.4042 41.4988 59.8639 38.8149 55.736 43.351C55.3802 43.7419 55.0691 44.1712 54.8084 44.6311C52.4151 48.7961 54.5765 53.0106 55.8102 55.6018C59.2331 62.7908 56.8275 65.4438 55.3031 66.2169C53.6303 67.0641 64.2021 68.9595 63.3425 66.7673C62.6097 64.912 62.2232 62.3425 63.6177 61.05C64.2917 60.4316 67.6003 61.7797 68.2867 61.2757C69.103 60.6759 68.5371 59.1917 69.7832 58.7773C69.7832 58.7773 67.9033 57.0149 67.962 56.9035C68.0208 56.7922 70.8067 56.2604 70.782 56.2047C70.278 54.9679 71.7653 55.4781 71.6663 54.4732C71.453 52.4324 69.2236 52.9859 69.7307 50.2958Z" fill="#91693C"/>
    <path d="M56.5011 65.2398C57.2857 65.5531 58.1334 65.676 58.9747 65.5985C60.8547 65.3882 61.0649 64.5936 62.5399 63.3413C62.5893 63.3011 62.6419 63.2578 62.6975 63.2207C62.7151 62.4009 63.0472 61.6193 63.6252 61.0377C63.9715 60.7285 65.0197 60.9202 66.0493 61.1243C66.4173 61.1985 66.7822 61.2696 67.113 61.3191C63.0068 59.7328 57.4596 54.5907 58.9592 49.9186C59.4447 48.4127 63.3067 51.9717 69.6701 51.041C69.6689 50.7907 69.6938 50.541 69.7444 50.2958C69.8863 49.3327 69.8801 48.3536 69.7258 47.3924C68.4364 46.0164 67.0233 44.4611 66.7729 43.249C66.7343 43.0769 66.7417 42.8977 66.7945 42.7295C63.619 40.5249 58.6191 40.1847 55.7497 43.3479C55.3939 43.7388 55.0827 44.1682 54.8221 44.628C52.4288 48.7931 54.5902 53.0076 55.8239 55.5987C58.3841 60.9913 57.6637 63.8329 56.5011 65.2398Z" fill="#5F3A1A"/>
    <path d="M68.2068 51.7119C68.4254 51.7119 68.6026 51.3686 68.6026 50.9451C68.6026 50.5215 68.4254 50.1782 68.2068 50.1782C67.9882 50.1782 67.811 50.5215 67.811 50.9451C67.811 51.3686 67.9882 51.7119 68.2068 51.7119Z" fill="black"/>
    <path d="M67.8081 56.591C68.2101 56.8012 70.6497 55.9323 70.6837 55.9725C70.9682 56.2818 70.8259 56.8167 70.6837 56.8538C70.0653 57.0208 69.1903 56.8352 68.1359 56.8229C68.5997 57.2527 69.5984 57.6268 69.9694 58.0195C70.4518 58.5297 69.62 58.8667 69.62 58.8667C68.7549 58.3589 68.1092 57.5479 67.8081 56.591Z" fill="#EC008C"/>
    <path d="M74.5121 45.6917C74.5801 48.7157 71.754 51.443 65.6317 49.2847C61.1575 47.7077 57.212 43.0727 54.1323 45.9793C54.5621 40.0208 61.6275 37.6894 67.3818 39.2756C71.9519 40.5403 74.4533 43.2675 74.5121 45.6917Z" fill="#3C2415"/>
    <path d="M70.8999 49.9152C61.5743 49.0432 68.1171 40.7935 62.6534 38.8394C58.3245 39.1888 54.4409 41.6068 54.1255 45.979C57.2175 43.0724 61.1506 47.7074 65.6249 49.2844C67.8419 50.0667 69.626 50.212 70.9989 49.9213L70.8999 49.9152Z" fill="black"/>
    <path d="M59.2987 55.5269C60.0059 55.1286 60.0677 53.8976 59.4368 52.7774C58.8058 51.6571 57.7211 51.0719 57.0139 51.4702C56.3067 51.8685 56.2449 53.0995 56.8758 54.2197C57.5067 55.34 58.5915 55.9252 59.2987 55.5269Z" fill="#91693C"/>
    <path d="M111.632 34.9343L32.3545 115.838C30.6043 117.61 27.9204 118.538 26.3837 117.898C24.8469 117.258 25.017 115.26 26.7609 113.479L106.051 32.5782C107.798 30.7972 110.485 29.8695 112.021 30.5189C113.558 31.1682 113.376 33.1533 111.632 34.9343Z" fill="#053241"/>
    <path d="M103.524 62.1725L97.7729 67.7691C97.5978 67.9414 97.3893 68.076 97.1601 68.1646C96.931 68.2531 96.6861 68.2937 96.4406 68.2838C96.1952 68.274 95.9544 68.2139 95.733 68.1073C95.5117 68.0007 95.3146 67.8498 95.1539 67.664L88.5988 60.243C88.2648 59.8571 88.0894 59.3591 88.1078 58.8491C88.1261 58.3392 88.3369 57.855 88.6977 57.4942L94.4489 51.8975C94.624 51.7252 94.8326 51.5906 95.0617 51.5021C95.2909 51.4135 95.5357 51.3729 95.7812 51.3828C96.0267 51.3926 96.2675 51.4527 96.4888 51.5593C96.7101 51.666 96.9072 51.8168 97.0679 52.0026L103.623 59.4236C103.957 59.8095 104.132 60.3075 104.114 60.8175C104.096 61.3275 103.885 61.8116 103.524 62.1725Z" fill="#056A88"/>
    <path d="M122.079 51.6223L117.515 56.078C117.34 56.2503 117.131 56.3849 116.902 56.4734C116.673 56.562 116.428 56.6026 116.183 56.5927C115.937 56.5829 115.696 56.5228 115.475 56.4162C115.254 56.3095 115.057 56.1587 114.896 55.9729L104.606 44.3219C104.272 43.936 104.096 43.438 104.115 42.928C104.133 42.4181 104.344 41.934 104.705 41.5731L109.268 37.1329C109.443 36.9605 109.652 36.8259 109.881 36.7374C110.11 36.6489 110.355 36.6083 110.601 36.6181C110.846 36.628 111.087 36.6881 111.308 36.7947C111.53 36.9013 111.727 37.0522 111.887 37.238L122.178 48.8889C122.507 49.2739 122.68 49.7686 122.662 50.2749C122.643 50.7813 122.435 51.2622 122.079 51.6223Z" fill="#056A88"/>
    <path d="M40.0747 101.531L38.6709 100.025C37.1867 98.4298 37.295 97.193 38.909 97.2765C40.5231 97.3599 43.0617 98.7328 44.5459 100.328L45.9497 101.834C47.4338 103.43 47.3256 104.667 45.7116 104.583C44.0975 104.5 41.5589 103.117 40.0747 101.531Z" fill="#13AF4B"/>
    <path d="M34.2373 107.261L32.8335 105.755C31.3493 104.16 31.4576 102.923 33.0716 103.006C34.6857 103.09 37.2243 104.463 38.7084 106.058L40.1122 107.564C41.5964 109.16 41.4882 110.397 39.8742 110.313C38.2601 110.23 35.7246 108.857 34.2373 107.261Z" fill="#13AF4B"/>
    <path d="M29.1939 113.559L27.7901 112.044C26.3059 110.449 26.4141 109.212 28.0282 109.295C29.6422 109.379 32.1808 110.752 33.665 112.347L35.0688 113.853C36.553 115.449 36.4448 116.686 34.8307 116.602C33.2166 116.519 30.6781 115.155 29.1939 113.559Z" fill="#13AF4B"/>
    <path d="M14.2002 111.507L5.81971 119.888C4.66531 121.042 4.66532 122.914 5.81971 124.068L20.6546 138.903C21.8089 140.058 23.6806 140.058 24.835 138.903L33.2155 130.523C34.3699 129.368 34.3699 127.497 33.2155 126.342L18.3807 111.507C17.2263 110.353 15.3546 110.353 14.2002 111.507Z" fill="#F2F2F2"/>
    <path d="M111.109 34.95L58.8533 87.206C58.804 87.2558 58.7764 87.323 58.7764 87.3931C58.7764 87.4632 58.804 87.5304 58.8533 87.5802L59.2305 87.9574C59.2803 88.0067 59.3475 88.0343 59.4176 88.0343C59.4877 88.0343 59.5549 88.0067 59.6047 87.9574L111.86 35.7014C111.91 35.6516 111.937 35.5843 111.937 35.5143C111.937 35.4442 111.91 35.377 111.86 35.3272L111.483 34.95C111.433 34.9007 111.366 34.873 111.296 34.873C111.226 34.873 111.159 34.9007 111.109 34.95Z" fill="#13AF4B"/>
    <path d="M55.6493 86.8965C56.1534 86.9212 61.314 85.7215 62.2818 85.7369C62.8508 85.7369 62.8693 86.6645 62.1612 86.7728C62.5601 86.9892 62.2818 87.4716 61.92 87.6633C61.7129 87.7746 59.0073 90.3225 55.1515 91.3212C47.9687 93.1765 46.5463 96.3891 43.1914 98.0187C38.7265 100.183 35.6468 99.5276 34.7346 98.1516C33.8225 96.7756 39.0264 75.0445 48.5376 67.1814C49.3508 66.5104 51.9389 72.7966 50.9154 77.5151C49.4559 84.2496 44.0325 90.2637 44.7313 90.0782C50.9803 88.393 51.911 83.5848 53.4756 83.6621C54.2034 83.7354 54.9262 83.8521 55.6401 84.0115L55.4576 85.0443C55.4576 85.0443 58.392 84.8186 59.0692 84.6949C60.0153 84.5217 60.3215 85.2144 59.5175 85.5545C58.7136 85.8946 55.6493 86.8965 55.6493 86.8965Z" fill="#91693C"/>
    <path d="M55.65 84.0055C55.65 84.0055 57.4774 84.2127 56.4415 84.964C56.4415 84.964 57.4835 84.7507 57.6783 85.4464C57.8731 86.1421 56.7909 86.5132 56.7909 86.5132C56.7909 86.5132 57.4093 86.0772 57.9597 86.4853C58.5101 86.8935 57.7711 87.6789 57.7711 87.6789C57.7711 87.6789 57.7 87.9046 57.8113 88.0128C57.8601 88.0525 57.9216 88.0733 57.9845 88.0716C58.2596 88.0716 60.7828 87.886 61.9083 86.7729C62.0635 86.6269 62.2101 86.472 62.3474 86.3091C62.6009 85.9628 62.6813 85.6659 62.8947 85.6474C62.957 85.6457 63.0185 85.663 63.0709 85.6969C63.3399 85.8576 63.1235 86.7327 62.2484 87.5707C61.3734 88.4086 58.674 89.9144 58.1051 90.1896C57.0772 90.657 56.0182 91.0527 54.9357 91.3739C53.6556 91.748 51.2252 92.4623 50.5542 92.9972C49.8833 93.5322 48.3558 94.1753 45.6997 96.346C43.0436 98.5166 37.8861 100.502 35.2733 98.7021C35.2733 98.7021 34.6177 98.5444 34.6208 97.2612C34.6208 97.2612 34.2189 99.6143 37.7376 97.9971C41.2564 96.38 41.4017 96.8685 45.9718 93.3961C50.5419 89.9237 53.4206 89.899 53.4206 89.899C53.4206 89.899 53.0372 89.3919 53.7298 88.5632C53.7298 88.5632 54.0699 88.3931 53.5875 87.9015C53.1052 87.4099 53.3371 87.212 53.5628 86.3926C53.5628 86.3926 53.8102 86.2071 53.3742 85.7742C52.9382 85.3413 53.1794 85.3382 53.1299 84.559C53.1253 84.2633 53.0964 83.9686 53.0433 83.6777C53.9218 83.6883 54.7962 83.7983 55.65 84.0055Z" fill="#5F3A1A"/>
    </svg>
    