<svg width="210" height="171" viewBox="0 0 210 171" fill="none" xmlns="http://www.w3.org/2000/svg">
	<g id="Illustration">
		<path id="Vector" d="M37.573 152.515C37.573 152.515 23.4195 153.477 11.7769 153.835C5.68102 154.026 2.77821 152.348 1.54648 150.209C0.51873 148.427 0.840393 146.431 0.965919 145.652C2.44871 136.562 69.6922 95.8744 72.9402 93.7907L72.7048 97.3298C69.143 99.6997 6.86568 137.595 3.6569 145.851C3.10772 147.266 3.25678 148.085 3.49999 148.594C5.11615 152.046 7 151 15.5 151.5C26 150.209 27.8682 151.609 37.0787 148.594C37.2435 149.899 37.4082 151.203 37.573 152.515Z" fill="#FFCB05" />
		<path id="Vector_2" d="M163.42 152.515C163.42 152.515 186.408 158.718 198.059 159.076C204.16 159.267 207.065 157.589 208.297 155.45C209.326 153.668 209.004 151.672 208.878 150.893C207.395 141.802 150.905 103.031 147.654 100.947L147.89 104.486C151.454 106.856 202.974 142.836 206.185 151.091C206.735 152.507 206.586 153.326 206.342 153.835C204.725 157.287 194.707 155.641 186.455 154.217C180.904 153.263 173.132 151.608 163.914 148.594C163.749 149.898 163.584 151.203 163.42 152.515Z" fill="#FFCB05" />
		<g id="Group">
			<path id="Vector_3" d="M144.441 0.76001H73.3206C69.8247 0.76001 66.9906 3.61023 66.9906 7.12616V158.732C66.9906 162.248 69.8247 165.099 73.3206 165.099H144.441C147.937 165.099 150.771 162.248 150.771 158.732V7.12616C150.771 3.61023 147.937 0.76001 144.441 0.76001Z" fill="#004F71" />
			<path id="Vector_4" d="M144.102 3.59033H74.6607C72.4099 3.59033 70.5852 5.42541 70.5852 7.68908V156.758C70.5852 159.022 72.4099 160.857 74.6607 160.857H144.102C146.353 160.857 148.177 159.022 148.177 156.758V7.68908C148.177 5.42541 146.353 3.59033 144.102 3.59033Z" fill="white" />
			<path id="Vector_5" d="M115.345 14.9193H98.4516C98.1164 14.9193 97.8446 15.1926 97.8446 15.5298V17.266C97.8446 17.6031 98.1164 17.8764 98.4516 17.8764H115.345C115.68 17.8764 115.952 17.6031 115.952 17.266V15.5298C115.952 15.1926 115.68 14.9193 115.345 14.9193Z" fill="#004F71" />
		</g>
		<path id="Vector_6" d="M74.5346 169.578L69.7891 170.529C64.4681 171.592 59.2889 168.111 58.2326 162.76L51.7292 129.851C50.6728 124.499 54.1335 119.291 59.4545 118.228L64.2 117.277C64.4365 117.206 69.3634 115.335 71.3263 118.847C73.77 120.995 74.1247 123.897 74.1326 124.388C76.8443 135.575 79.5482 146.761 82.2599 157.948C83.3163 163.299 79.8556 168.508 74.5346 169.57V169.578Z" fill="#004F71" />
		<path id="Vector_7" d="M37.0589 135.321L51.6897 129.542L59.7146 165.915L41.2447 164.94C41.2447 164.94 38.2807 158.193 37.2086 148.077C36.7987 144.248 36.6647 139.935 37.0589 135.321Z" fill="#003654" />
		<path id="Vector_8" d="M81.3061 139.824C84.207 151.462 82.8196 163.243 80.9198 165.257C78.9254 167.366 73.0605 152.089 70.9479 144.763C67.771 133.743 65.3904 117.919 68.3307 116.952C71.0267 116.064 78.2948 127.726 81.314 139.824H81.3061Z" fill="#003654" />
		<path id="Vector_9" d="M90.6638 124.483L73.338 128.689C71.9583 129.024 71.1094 130.419 71.4419 131.804C71.7744 133.19 73.1624 134.041 74.5421 133.706L91.8679 129.5C93.2476 129.166 94.0965 127.771 93.764 126.386C93.4315 125 92.0435 124.149 90.6638 124.483Z" fill="#004F71" />
		<path id="Vector_10" d="M95.8618 146.136L78.5359 150.342C77.1562 150.677 76.3073 152.071 76.6398 153.457C76.9723 154.842 78.3603 155.694 79.74 155.359L97.0659 151.153C98.4455 150.818 99.2944 149.423 98.9619 148.038C98.6294 146.653 97.2414 145.801 95.8618 146.136Z" fill="#004F71" />
		<path id="Vector_11" d="M127.193 169.451L131.938 170.402C137.259 171.465 142.439 167.984 143.495 162.633L149.998 129.724C151.055 124.373 147.594 119.164 142.273 118.102L137.528 117.15C137.307 117.15 132.679 115.509 130.543 119.037C128.099 121.186 127.611 123.762 127.595 124.262C124.883 135.448 122.179 146.634 119.468 157.821C118.411 163.172 121.872 168.381 127.193 169.443V169.451Z" fill="#004F71" />
		<path id="Vector_12" d="M121.052 139.777C118.466 151.494 118.474 164.345 120.958 164.956C123.764 165.646 128.659 151.962 130.772 144.637C133.949 133.617 136.629 118.022 133.696 117.055C131 116.167 124.142 125.792 121.052 139.785V139.777Z" fill="#003654" />
		<path id="Vector_13" d="M130.468 129.709C130.842 127.632 130.443 125.821 129.578 125.664C128.712 125.506 127.708 127.062 127.334 129.139C126.96 131.215 127.359 133.027 128.224 133.184C129.09 133.342 130.094 131.786 130.468 129.709Z" fill="#004F71" />
		<path id="Vector_14" d="M125.285 148.264C125.659 146.187 125.26 144.376 124.395 144.219C123.53 144.061 122.525 145.617 122.151 147.694C121.777 149.77 122.176 151.582 123.041 151.739C123.907 151.897 124.911 150.341 125.285 148.264Z" fill="#004F71" />
		<path id="Vector_15" d="M164.503 135.503L149.991 129.724L141.847 166.097L160.317 165.122C160.317 165.122 163.281 158.376 164.353 148.26C164.763 144.43 164.897 140.118 164.503 135.503Z" fill="#003654" />
		<g id="Group_2">
			<path id="Vector_16" d="M106.768 102.872C100.738 102.872 94.7151 102.872 88.6846 102.872C88.4244 102.872 88.1407 102.872 87.8963 102.785C87.0528 102.515 86.6981 101.596 87.108 100.763C87.8884 99.1696 88.6846 97.5761 89.4729 95.9905C94.786 85.3036 100.107 74.6088 105.42 63.922C105.799 63.1609 106.374 62.8755 107.147 63.0419C107.651 63.1529 107.943 63.478 108.163 63.9299C109.89 67.4182 111.632 70.9065 113.366 74.3948C117.694 83.0997 122.022 91.8046 126.349 100.509C126.539 100.89 126.688 101.271 126.618 101.715C126.523 102.277 126.05 102.769 125.482 102.848C125.27 102.88 125.057 102.88 124.836 102.88C118.805 102.88 112.783 102.88 106.752 102.88L106.768 102.872ZM105.381 83.6229C105.381 85.1768 105.381 86.7307 105.381 88.2846C105.381 88.451 105.381 88.6175 105.404 88.7761C105.475 89.4024 105.98 89.9256 106.579 90.0049C107.265 90.0921 107.903 89.7274 108.108 89.0853C108.187 88.8395 108.203 88.562 108.203 88.2925C108.203 85.1689 108.203 82.0532 108.203 78.9296C108.203 78.7393 108.203 78.549 108.171 78.3588C108.085 77.78 107.62 77.3123 107.044 77.2251C106.098 77.0744 105.389 77.7087 105.389 78.7314C105.381 80.3645 105.389 81.9898 105.389 83.6229H105.381ZM105.397 95.0154C105.397 95.3087 105.373 95.6021 105.397 95.8954C105.467 96.6248 106.059 97.148 106.784 97.148C107.509 97.148 108.116 96.6327 108.171 95.9033C108.211 95.3246 108.211 94.73 108.171 94.1512C108.116 93.4139 107.517 92.9065 106.792 92.8986C106.059 92.8986 105.475 93.406 105.404 94.1433C105.373 94.4366 105.404 94.73 105.404 95.0233L105.397 95.0154Z" fill="#ED3434" />
			<path id="Vector_17" d="M105.381 83.6229C105.381 81.9898 105.373 80.3645 105.381 78.7314C105.381 77.7087 106.098 77.0824 107.036 77.2251C107.612 77.3123 108.077 77.78 108.163 78.3588C108.187 78.549 108.195 78.7393 108.195 78.9296C108.195 82.0532 108.195 85.1689 108.195 88.2925C108.195 88.5541 108.179 88.8316 108.1 89.0853C107.895 89.7274 107.257 90.0921 106.571 90.0049C105.972 89.9256 105.475 89.4103 105.397 88.7761C105.381 88.6096 105.373 88.4431 105.373 88.2846C105.373 86.7307 105.373 85.1768 105.373 83.6229H105.381Z" fill="white" />
			<path id="Vector_18" d="M105.404 95.0154C105.404 94.722 105.381 94.4287 105.404 94.1354C105.475 93.406 106.067 92.8907 106.792 92.8907C107.517 92.8907 108.116 93.406 108.171 94.1433C108.211 94.722 108.211 95.3166 108.171 95.8954C108.116 96.6248 107.509 97.1401 106.784 97.1401C106.059 97.1401 105.475 96.6168 105.397 95.8875C105.365 95.5941 105.397 95.3008 105.397 95.0074L105.404 95.0154Z" fill="white" />
		</g>
	</g>
</svg>
