<svg width="254" height="254" viewBox="0 0 254 254" fill="none" xmlns="http://www.w3.org/2000/svg">
	<g filter="url(#filter0_d_109_29011)">
	<circle cx="127" cy="123" r="115" fill="white"/>
	<circle cx="127" cy="123" r="114.75" stroke="#E8E8E8" stroke-width="0.5"/>
	</g>
	<circle cx="127" cy="123" r="108" fill="#F2F2F2"/>
	<path d="M174.034 212.636H94.2839C92.3175 212.631 90.4333 211.847 89.0428 210.456C87.6523 209.066 86.8687 207.182 86.8629 205.215V27.421C86.8687 25.4546 87.6523 23.5703 89.0428 22.1799C90.4333 20.7894 92.3175 20.0057 94.2839 20H174.034C176.001 20.0057 177.885 20.7894 179.275 22.1799C180.666 23.5703 181.45 25.4546 181.455 27.421V205.215C181.449 207.181 180.665 209.065 179.275 210.456C177.884 211.846 176 212.63 174.034 212.636Z" fill="#073241"/>
	<path d="M170.444 206.362H98.0897C96.4708 206.358 94.9196 205.712 93.7748 204.567C92.63 203.423 91.9847 201.871 91.9798 200.252V31.15C91.9847 29.531 92.63 27.9798 93.7748 26.835C94.9196 25.6902 96.4708 25.0449 98.0897 25.04H170.444C172.063 25.0449 173.614 25.6902 174.759 26.835C175.904 27.9798 176.549 29.531 176.554 31.15V200.252C176.549 201.871 175.904 203.423 174.759 204.567C173.614 205.712 172.063 206.358 170.444 206.362Z" fill="white"/>
	<path d="M148.881 32.5785H118.4C117.995 32.5745 117.608 32.412 117.322 32.1258C117.036 31.8396 116.873 31.4526 116.869 31.048V24.0289C116.869 23.6216 117.03 23.2307 117.317 22.9412C117.603 22.6517 117.993 22.487 118.4 22.4829H148.881C149.289 22.487 149.678 22.6517 149.965 22.9412C150.251 23.2307 150.412 23.6216 150.412 24.0289V31.0449C150.409 31.4501 150.247 31.8379 149.96 32.1247C149.674 32.4115 149.287 32.5745 148.881 32.5785V32.5785Z" fill="#073241"/>
	<path d="M145.996 85.3665H127.647C123.967 85.3665 120.984 88.3498 120.984 92.0299V122.524C120.984 126.204 123.967 129.187 127.647 129.187H145.996C149.676 129.187 152.659 126.204 152.659 122.524V92.0299C152.659 88.3498 149.676 85.3665 145.996 85.3665Z" fill="#056A88"/>
	<path d="M142.289 90.4807H128.885C126.197 90.4807 124.018 92.6597 124.018 95.3476V117.988C124.018 120.676 126.197 122.855 128.885 122.855H142.289C144.977 122.855 147.156 120.676 147.156 117.988V95.3476C147.156 92.6597 144.977 90.4807 142.289 90.4807Z" fill="white"/>
	<path d="M123.448 118.6C126.313 118.6 128.636 117.052 128.636 115.143C128.636 113.234 126.313 111.686 123.448 111.686C120.582 111.686 118.259 113.234 118.259 115.143C118.259 117.052 120.582 118.6 123.448 118.6Z" fill="#053241"/>
	<path d="M150.377 118.6C153.242 118.6 155.565 117.052 155.565 115.143C155.565 113.234 153.242 111.686 150.377 111.686C147.511 111.686 145.188 113.234 145.188 115.143C145.188 117.052 147.511 118.6 150.377 118.6Z" fill="#053241"/>
	<path d="M154.072 113.554H119.098C117.049 113.554 115.387 115.215 115.387 117.264V143.677C115.387 145.726 117.049 147.387 119.098 147.387H154.072C156.121 147.387 157.783 145.726 157.783 143.677V117.264C157.783 115.215 156.121 113.554 154.072 113.554Z" fill="#FAEE43"/>
	<path d="M139.388 127.731C139.389 126.958 139.183 126.2 138.792 125.534C138.401 124.868 137.839 124.318 137.164 123.943C136.489 123.567 135.725 123.379 134.953 123.398C134.181 123.417 133.428 123.642 132.772 124.05C132.116 124.458 131.581 125.034 131.223 125.719C130.865 126.403 130.697 127.171 130.735 127.942C130.774 128.714 131.019 129.461 131.443 130.106C131.868 130.751 132.458 131.271 133.151 131.611C133.092 131.812 133.06 132.02 133.058 132.23V136.274C133.058 136.872 133.296 137.445 133.719 137.868C134.141 138.291 134.715 138.528 135.312 138.528C135.91 138.528 136.484 138.291 136.906 137.868C137.329 137.445 137.567 136.872 137.567 136.274V132.245C137.567 131.946 137.507 131.649 137.39 131.373C138.002 130.982 138.505 130.444 138.855 129.807C139.204 129.171 139.387 128.457 139.388 127.731V127.731Z" fill="white"/>
	<path d="M155.999 147.387H153.918C153.716 147.387 153.523 147.306 153.381 147.164C153.238 147.021 153.158 146.828 153.157 146.627V114.314C153.158 114.113 153.238 113.92 153.381 113.778C153.523 113.635 153.716 113.555 153.918 113.554H156.014C156.216 113.555 156.409 113.635 156.551 113.778C156.694 113.92 156.774 114.113 156.775 114.314V146.627C156.775 146.728 156.755 146.828 156.716 146.921C156.676 147.015 156.619 147.099 156.547 147.17C156.475 147.241 156.389 147.297 156.295 147.334C156.201 147.371 156.1 147.389 155.999 147.387V147.387Z" fill="#FFC415"/>
	<path d="M32.2618 163.234L13.1868 144.159C12.4267 143.394 12 142.359 12 141.28C12 140.202 12.4267 139.167 13.1868 138.402L24.7264 126.862C25.4916 126.102 26.5265 125.675 27.6051 125.675C28.6838 125.675 29.7186 126.102 30.4838 126.862L49.5618 145.934C50.322 146.699 50.7487 147.734 50.7487 148.813C50.7487 149.891 50.322 150.926 49.5618 151.691L38.0223 163.231C37.2573 163.993 36.222 164.42 35.1427 164.421C34.0633 164.422 33.0275 163.995 32.2618 163.234V163.234Z" fill="#053241"/>
	<path d="M126.675 121.445C127.686 120.808 125.212 121.058 121.768 117.583C120.982 116.791 125.822 120.455 127.21 119.648C128.468 118.916 125.766 119.559 121.666 116.219C121.159 115.808 124.851 118.09 125.577 117.175C126.053 116.575 123.722 116.865 121.298 114.392C117.77 110.752 117.164 108.974 114.894 108.554C111.038 107.837 102.526 109.444 95.4606 110.981C93.7352 111.355 90.2536 98.9222 83.2964 90.3509C79.9786 86.2601 76.6949 84.7852 76.1599 89.9799C75.5415 96.1207 88.4447 116.092 91.6914 118.201C95.2009 120.48 110.646 111.968 113.688 113.214C115.305 113.875 115.51 118.47 116.106 118.412C116.703 118.353 116.885 115.82 117.09 115.99C118.153 116.884 118.827 117.889 119.755 118.934C122.977 122.552 125.011 122.87 125.537 122.645C126.465 122.255 123.682 121.646 122.85 119.862C122.739 119.596 125.757 122.023 126.675 121.445Z" fill="#91693C"/>
	<path d="M114.761 111.76C113.163 108.464 95.9955 117.156 92.9096 114.364C90.4855 112.172 79.521 96.3867 76.3424 88.8451C76.2584 89.2151 76.1975 89.59 76.1599 89.9675C75.5415 96.1084 88.4447 116.08 91.6914 118.189C93.5466 119.386 98.6671 117.608 103.568 115.827C108.002 114.219 112.226 112.611 113.688 113.201C115.25 113.841 115.494 118.164 116.048 118.39C115.738 117.267 115.689 113.681 114.761 111.76Z" fill="#5F3A1A"/>
	<path d="M95.1383 211.656C93.7438 211.474 93.045 211.375 92.5812 211.863C91.6536 212.862 94.186 216.301 94.8848 214.897C95.5836 213.493 95.1383 211.656 95.1383 211.656Z" fill="#DD6326"/>
	<path d="M57.8357 128.838C50.5539 141.42 55.6713 148.584 58.3768 167.489C59.5395 175.603 57.6533 178.704 57.14 185.507C56.6267 192.309 58.9458 201.103 58.1851 210.243C57.7491 215.481 61.9358 215.735 61.9945 210.37C62.0966 200.784 67.0377 191.771 66.4224 182.507C65.6586 171.039 71.4872 166.568 74.6287 146.967C78.1939 154.422 89.6561 165.43 88.2492 172.288C85.5128 185.621 92.6492 197.371 93.4686 213.533C93.6418 216.962 102.272 218.047 98.5829 211.888C94.8941 205.729 104.795 168.998 88.2121 130.189C84.8078 122.209 62.9005 120.091 57.8357 128.838Z" fill="#07404F"/>
	<path d="M78.247 135.783C83.958 153.572 91.8922 158.293 93.2435 170.903C94.5947 183.512 93.4599 210.085 98.0269 213.165C98.3948 213.412 99.0349 214.257 99.2637 215.435C99.6842 214.736 99.6069 213.579 98.5896 211.891C94.8915 205.732 104.795 168.998 88.2127 130.189C85.8936 124.763 75.0405 122.051 66.7229 123.612C71.7258 138.43 73.5965 121.306 78.247 135.783Z" fill="#056A88"/>
	<path d="M69.8577 165.51C63.0953 163.908 60.5815 182.625 60.2166 209.343C60.1977 210.999 60.0706 212.652 59.8363 214.291C60.8536 214.399 61.9605 213.128 62.0007 210.385C62.1028 200.8 67.0439 191.786 66.4285 182.523C65.9802 175.933 67.7118 171.657 69.8577 165.51Z" fill="#056A88"/>
	<path d="M112.024 220.512C112.228 219.745 112.314 217.466 111.192 216.959C108.811 215.886 101.133 212.828 98.8236 210.599C98.8236 210.599 95.277 212.219 97.2127 213.932C97.2127 213.932 91.6469 213.647 92.5962 211.863C91.8881 212.358 91.3594 217.407 91.5078 217.958C91.6841 218.61 96.1304 218.867 100.342 219.946C105.923 221.375 111.909 220.954 112.024 220.512Z" fill="#DD6326"/>
	<path d="M112.695 218.446C112.021 219.658 105.132 219.807 100.123 218.394C95.4321 217.07 91.8298 217.018 90.9857 216.133L89.6963 220.094C89.6963 220.094 110.299 221.532 111.984 221.523C111.987 221.523 114.884 218.023 112.695 218.446Z" fill="white"/>
	<path d="M102.484 212.976C102.148 213.081 101.826 213.226 101.526 213.409L100.796 213.901C100.53 214.08 100.255 214.275 99.8838 214.495C99.795 214.087 99.8496 213.661 100.038 213.289C100.22 212.911 100.501 212.591 100.852 212.361C101.204 212.129 101.114 212.203 101.498 212.414C101.881 212.624 102.255 212.865 102.484 212.976Z" fill="white"/>
	<path d="M104.928 213.366C104.577 213.463 104.235 213.592 103.908 213.752C103.626 213.889 103.37 214.034 103.107 214.185C102.844 214.337 102.587 214.495 102.312 214.674C102.037 214.853 101.749 215.048 101.385 215.308C101.283 214.876 101.352 214.421 101.579 214.04C101.791 213.654 102.105 213.333 102.485 213.112C102.872 212.89 103.314 212.783 103.759 212.803C103.983 212.807 104.204 212.859 104.406 212.956C104.607 213.053 104.786 213.193 104.928 213.366Z" fill="white"/>
	<path d="M106.657 214.17C106.283 214.257 105.919 214.383 105.571 214.547C105.262 214.686 104.971 214.832 104.687 214.983C104.403 215.135 104.118 215.292 103.827 215.475C103.496 215.676 103.18 215.902 102.881 216.149C102.826 215.923 102.818 215.688 102.858 215.458C102.898 215.229 102.985 215.01 103.113 214.816C103.357 214.424 103.7 214.103 104.108 213.886C104.516 213.669 104.974 213.563 105.435 213.579C105.67 213.582 105.901 213.636 106.112 213.738C106.323 213.84 106.509 213.988 106.657 214.17Z" fill="white"/>
	<path d="M108.381 214.962C107.986 215.039 107.6 215.16 107.231 215.323C106.894 215.463 106.576 215.608 106.263 215.762C105.951 215.917 105.645 216.072 105.336 216.257C104.987 216.46 104.663 216.7 104.368 216.975C104.308 216.737 104.301 216.489 104.347 216.248C104.393 216.007 104.491 215.779 104.634 215.58C104.905 215.181 105.277 214.86 105.713 214.652C106.142 214.442 106.617 214.343 107.095 214.365C107.34 214.364 107.582 214.418 107.804 214.521C108.026 214.624 108.223 214.774 108.381 214.962V214.962Z" fill="white"/>
	<path d="M100.117 218.394C95.4262 217.07 92.4177 217.231 91.5735 216.347C91.5735 216.347 91.3416 217.893 91.5921 218.091C92.3527 218.709 94.208 218.493 98.4657 219.559C104.01 220.948 107.683 221.059 109.449 220.901C109.702 220.543 109.603 220.645 109.708 220.23C109.785 219.938 109.797 219.632 109.742 219.334C106.504 219.544 103.253 219.227 100.117 218.394V218.394Z" fill="#B5DBAF"/>
	<path d="M99.8844 214.495C100.194 214.315 100.426 214.155 100.648 214.003C100.398 213.889 100.15 213.774 99.9061 213.657C99.8276 213.93 99.8201 214.218 99.8844 214.495V214.495Z" fill="#B5DBAF"/>
	<path d="M101.382 215.32C101.74 215.067 102.022 214.875 102.309 214.702L101.456 214.349C101.33 214.657 101.304 214.997 101.382 215.32V215.32Z" fill="#B5DBAF"/>
	<path d="M102.881 216.149C103.18 215.902 103.496 215.677 103.827 215.475C103.883 215.438 103.941 215.407 103.997 215.373L103.02 214.986C102.83 215.343 102.78 215.758 102.881 216.149V216.149Z" fill="#B5DBAF"/>
	<path d="M104.371 216.974C104.666 216.7 104.991 216.459 105.339 216.257C105.453 216.189 105.568 216.127 105.685 216.062C105.339 215.914 104.98 215.753 104.612 215.62C104.478 215.816 104.387 216.038 104.346 216.271C104.304 216.505 104.313 216.745 104.371 216.974V216.974Z" fill="#B5DBAF"/>
	<path opacity="0.15" d="M111.192 216.959C108.811 215.886 101.134 212.828 98.8238 210.599C98.1627 210.908 97.565 211.338 97.0613 211.866L97.1201 211.916C101.044 215.342 110.719 216.3 109.702 220.23C109.639 220.468 109.551 220.698 109.439 220.917C110.969 220.864 111.965 220.691 112.011 220.512C112.228 219.745 112.314 217.466 111.192 216.959Z" fill="white"/>
	<path d="M62.8572 210.623C62.548 207.915 57.4863 208.848 57.3626 210.435C57.239 212.021 56.8803 215.886 55.3899 218.74C54.3015 220.827 54.6911 222.84 54.6509 223.437C54.5891 224.327 64.6754 224.077 64.6537 222.954C64.6321 221.832 64.7558 219.748 63.9395 218.626C61.7967 215.707 63.1757 213.329 62.8572 210.623Z" fill="#DD6326"/>
	<path d="M57.9625 212.355C58.2285 212.073 58.5598 211.86 58.9272 211.737C59.2627 211.614 59.6154 211.545 59.9723 211.532C60.3326 211.518 60.6929 211.562 61.0391 211.662C61.426 211.761 61.7729 211.977 62.0316 212.281C61.6972 212.425 61.3519 212.543 60.9989 212.633C60.6774 212.71 60.3491 212.756 60.0187 212.769C59.6845 212.781 59.3499 212.759 59.02 212.704C58.6536 212.635 58.298 212.518 57.9625 212.355Z" fill="white"/>
	<path d="M57.9625 213.746C58.2348 213.461 58.5738 213.249 58.9489 213.128C59.2909 213.006 59.6497 212.939 60.0125 212.927C60.378 212.913 60.7434 212.958 61.0947 213.06C61.4875 213.157 61.8407 213.373 62.1059 213.678C61.7657 213.822 61.4153 213.939 61.0576 214.031C60.73 214.108 60.3954 214.153 60.0589 214.164C59.7193 214.175 59.3794 214.151 59.0447 214.093C58.6705 214.024 58.3068 213.908 57.9625 213.746Z" fill="white"/>
	<path d="M57.9625 215.138C58.2421 214.853 58.587 214.64 58.9674 214.519C59.3154 214.401 59.679 214.334 60.0465 214.321C60.4174 214.307 60.7881 214.353 61.1442 214.457C61.5407 214.556 61.8984 214.771 62.1708 215.076C61.8245 215.219 61.4679 215.336 61.104 215.425C60.77 215.502 60.4293 215.545 60.0867 215.555C59.7409 215.566 59.3948 215.541 59.054 215.481C58.6763 215.416 58.3091 215.301 57.9625 215.138V215.138Z" fill="white"/>
	<path d="M57.9625 216.529C58.2479 216.242 58.5994 216.03 58.986 215.911C59.3404 215.793 59.7102 215.727 60.0836 215.716C60.4597 215.704 60.8352 215.751 61.1968 215.855C61.5983 215.952 61.9613 216.168 62.2388 216.474C61.8867 216.617 61.5238 216.733 61.1535 216.82C60.8131 216.896 60.4662 216.938 60.1177 216.947C59.7665 216.956 59.4154 216.93 59.0694 216.869C58.6873 216.804 58.3152 216.69 57.9625 216.529V216.529Z" fill="white"/>
	<path d="M65.303 223.666C62.7583 227.163 53.4171 225.029 53.4171 225.029L53.7944 221.677C56.5432 220.75 65.4082 221.557 65.4082 221.557L65.303 223.666Z" fill="white"/>
	<path d="M58.482 223.981C58.3923 223.14 58.2841 222.284 58.08 221.242C56.9162 221.23 55.7542 221.334 54.6107 221.551L54.6293 223.536C54.6293 223.536 55.1456 223.891 57.0658 223.947C57.5365 223.99 58.0097 224.002 58.482 223.981V223.981Z" fill="#B5DBAF"/>
	<path opacity="0.15" d="M63.9397 218.623C61.797 215.701 63.176 213.323 62.8575 210.617C62.706 209.331 61.4877 208.867 60.2355 208.904C60.3839 212.881 60.6405 217.738 58.977 218.44C56.8589 219.331 58.1267 222.089 58.4853 223.969C61.3115 223.969 64.6695 223.598 64.654 222.948C64.6324 221.832 64.7561 219.748 63.9397 218.623Z" fill="white"/>
	<path d="M58.9272 211.727C58.5598 211.851 58.2285 212.064 57.9625 212.346C58.2985 212.505 58.654 212.62 59.02 212.686C59.3499 212.741 59.6845 212.763 60.0187 212.751C60.1269 212.751 60.2352 212.751 60.3434 212.723C60.3434 212.327 60.3434 211.925 60.3248 211.523C60.2074 211.517 60.0897 211.517 59.9723 211.523C59.6154 211.536 59.2627 211.605 58.9272 211.727V211.727Z" fill="#B5DBAF"/>
	<path d="M58.9489 213.122C58.5738 213.243 58.2348 213.455 57.9625 213.74C58.3069 213.901 58.6707 214.016 59.0447 214.083C59.3794 214.142 59.7193 214.166 60.0589 214.155C60.1486 214.155 60.2352 214.155 60.3248 214.133C60.3403 213.74 60.3434 213.335 60.3434 212.921C60.2321 212.921 60.1207 212.921 60.0125 212.921C59.6497 212.933 59.2909 213 58.9489 213.122Z" fill="#B5DBAF"/>
	<path d="M58.9674 214.513C58.587 214.634 58.2421 214.847 57.9625 215.132C58.3093 215.294 58.6765 215.408 59.054 215.472C59.3948 215.531 59.7409 215.556 60.0867 215.546H60.229C60.2692 215.159 60.3001 214.748 60.3186 214.309C60.2259 214.309 60.1362 214.309 60.0465 214.309C59.6787 214.324 59.3151 214.392 58.9674 214.513Z" fill="#B5DBAF"/>
	<path d="M58.9913 215.908C58.6047 216.027 58.2533 216.239 57.9678 216.526C58.3204 216.688 58.6925 216.804 59.0748 216.869C59.3749 216.922 59.6792 216.947 59.9839 216.944C60.0902 216.537 60.1677 216.124 60.2158 215.707H60.089C59.7152 215.72 59.3454 215.788 58.9913 215.908V215.908Z" fill="#B5DBAF"/>
	<path d="M66.3207 86.189C69.453 86.4642 72.5605 87.0796 77.9159 86.4797C83.2714 85.8798 79.799 107.997 88.1197 129.076C96.0973 149.36 49.6576 139.113 57.6784 128.077C71.2185 109.448 47.9013 84.5688 66.3207 86.189Z" fill="#E6E7E8"/>
	<path d="M88.1079 129.076C79.7995 107.997 83.2688 85.8799 77.9041 86.4797C72.5393 87.0796 69.4411 86.4643 66.3088 86.1891C60.5947 85.6882 58.8879 87.7351 58.8693 91.3559C60.6751 91.0467 62.4314 90.954 64.0362 90.8303C76.2282 89.9026 69.9853 112.512 79.6325 140.613C86.3361 140.084 91.1504 136.769 88.1079 129.076Z" fill="#F1F2F2"/>
	<path d="M80.2007 76.6963C80.986 76.9344 82.2074 77.3704 82.2105 77.2591L82.3744 76.149L80.2007 76.6963Z" fill="white"/>
	<path d="M81.7309 70.2958C82.0401 68.6631 81.5732 66.5853 81.5732 66.5853C80.4044 61.4988 71.8641 58.8149 67.7362 63.351C67.3804 63.7419 67.0693 64.1712 66.8086 64.6311C64.4153 68.7961 66.5767 73.0106 67.8104 75.6018C71.2333 82.7908 68.8277 85.4438 67.3033 86.2169C65.6305 87.0641 76.2023 88.9595 75.3427 86.7673C74.6099 84.912 74.2234 82.3425 75.6179 81.05C76.2919 80.4316 79.6005 81.7797 80.2869 81.2757C81.1032 80.6759 80.5373 79.1917 81.7834 78.7773C81.7834 78.7773 79.9035 77.0149 79.9622 76.9035C80.021 76.7922 82.8069 76.2604 82.7822 76.2047C82.2782 74.9679 83.7655 75.4781 83.6665 74.4732C83.4532 72.4324 81.2238 72.9859 81.7309 70.2958Z" fill="#91693C"/>
	<path d="M68.5011 85.2398C69.2857 85.5531 70.1334 85.676 70.9747 85.5985C72.8547 85.3882 73.065 84.5936 74.5399 83.3413C74.5893 83.3011 74.6419 83.2578 74.6976 83.2207C74.7151 82.4009 75.0472 81.6193 75.6252 81.0377C75.9715 80.7285 77.0197 80.9202 78.0494 81.1243C78.4173 81.1985 78.7822 81.2696 79.113 81.3191C75.0068 79.7328 69.4596 74.5907 70.9593 69.9186C71.4447 68.4127 75.3067 71.9717 81.6702 71.041C81.669 70.7907 81.6938 70.541 81.7444 70.2958C81.8863 69.3327 81.8801 68.3536 81.7258 67.3924C80.4364 66.0164 79.0234 64.4611 78.7729 63.249C78.7343 63.0769 78.7417 62.8977 78.7945 62.7295C75.619 60.5249 70.6191 60.1847 67.7497 63.3479C67.3939 63.7388 67.0828 64.1682 66.8221 64.628C64.4288 68.7931 66.5902 73.0076 67.8239 75.5987C70.3841 80.9913 69.6637 83.8329 68.5011 85.2398Z" fill="#5F3A1A"/>
	<path d="M80.2068 71.7119C80.4254 71.7119 80.6026 71.3686 80.6026 70.9451C80.6026 70.5215 80.4254 70.1782 80.2068 70.1782C79.9882 70.1782 79.811 70.5215 79.811 70.9451C79.811 71.3686 79.9882 71.7119 80.2068 71.7119Z" fill="black"/>
	<path d="M79.8079 76.5912C80.2099 76.8015 82.6495 75.9326 82.6835 75.9728C82.968 76.282 82.8258 76.8169 82.6835 76.854C82.0651 77.021 81.1901 76.8355 80.1357 76.8231C80.5995 77.2529 81.5982 77.627 81.9693 78.0197C82.4516 78.5299 81.6198 78.867 81.6198 78.867C80.7547 78.3591 80.109 77.5481 79.8079 76.5912V76.5912Z" fill="#EC008C"/>
	<path d="M86.512 65.6916C86.58 68.7156 83.7538 71.4428 77.6316 69.2846C73.1574 67.7076 69.2119 63.0726 66.1322 65.9791C66.562 60.0207 73.6274 57.6893 79.3817 59.2755C83.9517 60.5402 86.4532 63.2674 86.512 65.6916Z" fill="#3C2415"/>
	<path d="M82.9 69.9154C73.5744 69.0434 80.1171 60.7938 74.6535 58.8396C70.3246 59.189 66.441 61.607 66.1256 65.9792C69.2176 63.0726 73.1507 67.7077 77.6249 69.2846C79.842 70.0669 81.6261 70.2122 82.9989 69.9216L82.9 69.9154Z" fill="black"/>
	<path d="M71.2986 75.5269C72.0058 75.1286 72.0676 73.8976 71.4367 72.7774C70.8058 71.6571 69.721 71.0719 69.0138 71.4702C68.3066 71.8685 68.2448 73.0995 68.8757 74.2197C69.5067 75.34 70.5914 75.9252 71.2986 75.5269Z" fill="#91693C"/>
	<path d="M123.632 54.9342L44.3547 135.838C42.6046 137.61 39.9207 138.538 38.3839 137.898C36.8471 137.258 37.0172 135.26 38.7611 133.479L118.051 52.5781C119.798 50.797 122.485 49.8694 124.022 50.5187C125.558 51.1681 125.376 53.1532 123.632 54.9342Z" fill="#053241"/>
	<path d="M115.524 82.1725L109.773 87.7691C109.598 87.9414 109.389 88.076 109.16 88.1646C108.931 88.2531 108.686 88.2937 108.441 88.2838C108.195 88.274 107.954 88.2139 107.733 88.1073C107.512 88.0007 107.315 87.8498 107.154 87.664L100.599 80.243C100.265 79.8571 100.089 79.3591 100.108 78.8491C100.126 78.3392 100.337 77.855 100.698 77.4942L106.449 71.8975C106.624 71.7252 106.832 71.5906 107.062 71.5021C107.291 71.4135 107.536 71.3729 107.781 71.3828C108.027 71.3926 108.267 71.4527 108.489 71.5593C108.71 71.666 108.907 71.8168 109.068 72.0026L115.623 79.4236C115.957 79.8095 116.132 80.3075 116.114 80.8175C116.096 81.3275 115.885 81.8116 115.524 82.1725V82.1725Z" fill="#056A88"/>
	<path d="M134.079 71.6222L129.515 76.0779C129.34 76.2502 129.131 76.3848 128.902 76.4733C128.673 76.5618 128.428 76.6024 128.183 76.5926C127.937 76.5827 127.696 76.5226 127.475 76.416C127.254 76.3094 127.057 76.1586 126.896 75.9727L116.606 64.3218C116.272 63.9359 116.096 63.4379 116.115 62.9279C116.133 62.4179 116.344 61.9338 116.705 61.573L121.268 57.1327C121.444 56.9604 121.652 56.8258 121.881 56.7373C122.11 56.6488 122.355 56.6082 122.601 56.618C122.846 56.6279 123.087 56.688 123.308 56.7946C123.53 56.9012 123.727 57.0521 123.887 57.2379L134.178 68.8888C134.507 69.2737 134.68 69.7685 134.662 70.2748C134.643 70.7811 134.435 71.2621 134.079 71.6222V71.6222Z" fill="#056A88"/>
	<path d="M52.0749 121.531L50.6711 120.026C49.1869 118.43 49.2952 117.193 50.9092 117.277C52.5233 117.36 55.0619 118.733 56.5461 120.329L57.9498 121.834C59.434 123.43 59.3258 124.667 57.7118 124.583C56.0977 124.5 53.5591 123.118 52.0749 121.531Z" fill="#13AF4B"/>
	<path d="M46.2375 127.261L44.8337 125.755C43.3495 124.16 43.4578 122.923 45.0718 123.006C46.6859 123.09 49.2244 124.463 50.7086 126.058L52.1124 127.564C53.5966 129.16 53.4884 130.396 51.8743 130.313C50.2603 130.229 47.7248 128.857 46.2375 127.261Z" fill="#13AF4B"/>
	<path d="M41.1939 133.56L39.7901 132.044C38.3059 130.449 38.4141 129.212 40.0282 129.296C41.6423 129.379 44.1808 130.752 45.665 132.347L47.0688 133.853C48.553 135.449 48.4448 136.686 46.8307 136.602C45.2167 136.519 42.6781 135.155 41.1939 133.56Z" fill="#13AF4B"/>
	<path d="M26.2 131.507L17.8195 139.888C16.6651 141.042 16.6651 142.914 17.8195 144.068L32.6543 158.903C33.8087 160.057 35.6804 160.057 36.8348 158.903L45.2153 150.522C46.3697 149.368 46.3697 147.496 45.2153 146.342L30.3805 131.507C29.2261 130.353 27.3544 130.353 26.2 131.507Z" fill="#F2F2F2"/>
	<path d="M123.109 54.9497L70.8533 107.206C70.804 107.256 70.7764 107.323 70.7764 107.393C70.7764 107.463 70.804 107.53 70.8533 107.58L71.2305 107.957C71.2803 108.006 71.3475 108.034 71.4176 108.034C71.4877 108.034 71.5549 108.006 71.6047 107.957L123.86 55.7011C123.91 55.6513 123.937 55.5841 123.937 55.514C123.937 55.444 123.91 55.3768 123.86 55.327L123.483 54.9497C123.433 54.9004 123.366 54.8728 123.296 54.8728C123.226 54.8728 123.159 54.9004 123.109 54.9497V54.9497Z" fill="#13AF4B"/>
	<path d="M67.6491 106.897C68.1531 106.921 73.3138 105.722 74.2816 105.737C74.8505 105.737 74.8691 106.665 74.161 106.773C74.5599 106.989 74.2816 107.472 73.9198 107.664C73.7127 107.775 71.0071 110.323 67.1513 111.321C59.9685 113.177 58.5461 116.389 55.1912 118.019C50.7263 120.183 47.6466 119.528 46.7344 118.152C45.8223 116.776 51.0262 95.0448 60.5374 87.1816C61.3506 86.5106 63.9387 92.7968 62.9152 97.5153C61.4557 104.25 56.0323 110.264 56.7311 110.078C62.9801 108.393 63.9108 103.585 65.4754 103.662C66.2032 103.736 66.926 103.852 67.6399 104.012L67.4574 105.045C67.4574 105.045 70.3918 104.819 71.069 104.695C72.0151 104.522 72.3212 105.215 71.5173 105.555C70.7134 105.895 67.6491 106.897 67.6491 106.897Z" fill="#91693C"/>
	<path d="M67.6499 104.005C67.6499 104.005 69.4773 104.213 68.4415 104.964C68.4415 104.964 69.4835 104.751 69.6783 105.446C69.8731 106.142 68.7909 106.513 68.7909 106.513C68.7909 106.513 69.4093 106.077 69.9597 106.485C70.5101 106.893 69.7711 107.679 69.7711 107.679C69.7711 107.679 69.7 107.905 69.8113 108.013C69.8601 108.052 69.9216 108.073 69.9844 108.072C70.2596 108.072 72.7828 107.886 73.9083 106.773C74.0635 106.627 74.2101 106.472 74.3473 106.309C74.6009 105.963 74.6813 105.666 74.8946 105.647C74.957 105.646 75.0185 105.663 75.0709 105.697C75.3399 105.858 75.1235 106.733 74.2484 107.571C73.3733 108.409 70.674 109.914 70.105 110.19C69.0771 110.657 68.0182 111.053 66.9357 111.374C65.6556 111.748 63.2252 112.462 62.5542 112.997C61.8832 113.532 60.3558 114.175 57.6997 116.346C55.0436 118.517 49.886 120.502 47.2733 118.702C47.2733 118.702 46.6177 118.544 46.6208 117.261C46.6208 117.261 46.2189 119.614 49.7376 117.997C53.2564 116.38 53.4017 116.869 57.9718 113.396C62.5419 109.924 65.4206 109.899 65.4206 109.899C65.4206 109.899 65.0371 109.392 65.7298 108.563C65.7298 108.563 66.0699 108.393 65.5875 107.902C65.1052 107.41 65.3371 107.212 65.5628 106.393C65.5628 106.393 65.8102 106.207 65.3742 105.774C64.9382 105.341 65.1794 105.338 65.1299 104.559C65.1253 104.263 65.0964 103.969 65.0433 103.678C65.9218 103.688 66.7962 103.798 67.6499 104.005V104.005Z" fill="#5F3A1A"/>
	<defs>
	<filter id="filter0_d_109_29011" x="0" y="0" width="254" height="254" filterUnits="userSpaceOnUse" color-interpolation-filters="sRGB">
	<feFlood flood-opacity="0" result="BackgroundImageFix"/>
	<feColorMatrix in="SourceAlpha" type="matrix" values="0 0 0 0 0 0 0 0 0 0 0 0 0 0 0 0 0 0 127 0" result="hardAlpha"/>
	<feOffset dy="4"/>
	<feGaussianBlur stdDeviation="6"/>
	<feComposite in2="hardAlpha" operator="out"/>
	<feColorMatrix type="matrix" values="0 0 0 0 0 0 0 0 0 0 0 0 0 0 0 0 0 0 0.1 0"/>
	<feBlend mode="normal" in2="BackgroundImageFix" result="effect1_dropShadow_109_29011"/>
	<feBlend mode="normal" in="SourceGraphic" in2="effect1_dropShadow_109_29011" result="shape"/>
	</filter>
	</defs>
	</svg>
	