<svg width="254" height="255" viewBox="0 0 254 255" fill="none" xmlns="http://www.w3.org/2000/svg">
    <g filter="url(#filter0_d_10_43564)">
        <circle cx="127" cy="124" r="115" fill="white" />
    </g>
    <circle cx="127" cy="124" r="108" fill="#F2F2F2" />
    <path
        d="M162.353 77.1243C165.691 74.8107 180.323 38.2447 181.466 34.4774C182.608 30.7101 179.449 27.1139 179.483 24.1304C179.525 20.5104 180.45 14.002 182.249 14.192C184.473 14.4248 180.885 23.9024 184.497 22.7765C188.109 21.6506 192.925 8.43893 194.691 9.01852C196.457 9.5981 190.956 19.0235 191.957 19.584C192.958 20.1446 197.307 8.57196 199.441 9.56485C201.575 10.5577 194.393 19.3893 195.56 20.4677C196.726 21.5461 201.82 11.6646 203.218 12.7288C204.616 13.7929 197.637 22.3299 198.567 23.7646C199.497 25.1946 206.093 17.7028 205.999 19.299C205.753 23.5604 190.503 33.4323 189.228 37.4181C187.953 41.4039 189.204 37.4086 189.204 37.4086C186.541 47.7461 181.683 67.2809 179.506 76.0411C175.804 90.944 172.216 90.4452 172.216 90.4452C172.216 90.4452 133.806 97.5332 127.554 96.9679L125 75.1623C132.389 75.4948 159.014 79.4379 162.353 77.1243Z"
        fill="#885732" />
    <mask id="mask0_10_43564" style="mask-type:luminance" maskUnits="userSpaceOnUse" x="-1" y="-4"
        width="243" height="243">
        <path
            d="M120.04 238.08C186.889 238.08 241.08 183.889 241.08 117.04C241.08 50.1915 186.889 -4 120.04 -4C53.1915 -4 -1 50.1915 -1 117.04C-1 183.889 53.1915 238.08 120.04 238.08Z"
            fill="white" />
    </mask>
    <g mask="url(#mask0_10_43564)">
        <path
            d="M160.821 85.8377C176.714 78.727 184.453 61.4628 178.106 47.2771C171.759 33.0914 153.73 27.356 137.837 34.4667C121.944 41.5775 114.206 58.8417 120.553 73.0274C126.9 87.2131 144.928 92.9485 160.821 85.8377Z"
            fill="black" />
        <path
            d="M143.878 79.6488C145.086 79.232 142.078 70.4932 140.87 70.9053C139.662 71.3174 139.359 73.6146 140.188 76.0301C141.022 78.441 142.67 80.0609 143.878 79.6488Z"
            fill="#91693C" />
        <path
            d="M128.172 232C128.172 232 155 232.5 176 221.5C176 221.5 190 212.5 200 204C200 204 205.5 200 211.5 191C205.5 183.5 203.432 181 202.5 168.5C201.568 156 201.568 108.697 201.568 108.697C201.568 108.697 190.03 110.824 181.306 83.2864C165.439 95.8711 146.787 95.4543 128.362 96.1316C128.362 96.1316 136.599 148.162 137.906 157.147C139.218 166.132 137.929 174.998 138.678 182.482C139.426 189.97 128.452 204.918 128.172 225.693C128.172 232.5 128.172 232 128.172 232Z"
            fill="#0A542C" />
        <mask id="mask1_10_43564" style="mask-type:luminance" maskUnits="userSpaceOnUse" x="128"
            y="83" width="116" height="195">
            <path
                d="M128.172 251C128.172 251 156.534 298.264 227.136 266.819C227.136 266.819 236.775 262.092 243.747 259.426C243.747 259.426 235.699 240.053 234.672 229.387C233.644 218.72 208.823 188.786 204.661 180.393C200.5 172 201.568 108.697 201.568 108.697C201.568 108.697 190.03 110.824 181.306 83.2864C165.439 95.8711 146.787 95.4543 128.362 96.1316C128.362 96.1316 136.599 148.162 137.906 157.147C139.218 166.132 137.929 174.998 138.678 182.482C139.426 189.97 128.452 196.226 128.172 217C127.898 237.774 128.172 251 128.172 251Z"
                fill="white" />
        </mask>
        <g mask="url(#mask1_10_43564)">
            <path
                d="M160.027 100.826C162.121 112.786 164.716 125.157 167.914 137.875C181.422 191.614 170.617 174.747 191.5 211C199.5 206 206.045 198.56 211.545 191.06C192.58 127.728 220.891 137.969 201.926 74.6382C190.445 82.0508 178.675 91.8221 174 91.5L160.027 100.826Z"
                fill="#13AF4B" />
        </g>
        <path
            d="M147.724 77.7873C147.028 79.7719 150.566 83.8974 152.816 88.6764C155.478 94.3318 150.367 95.4733 141.302 95.6627C141.302 95.6627 148.591 124.782 165.372 121.827C182.154 118.871 177.067 90.8978 176.228 87.0518C176.228 87.0518 174.85 87.7007 171.492 88.307C166.239 89.259 165.988 79.2509 165.988 79.2509C165.988 79.2509 151.888 76.9585 151.622 73.7471C151.627 73.7377 147.748 77.7258 147.724 77.7873Z"
            fill="#91693C" />
        <mask id="mask2_10_43564" style="mask-type:luminance" maskUnits="userSpaceOnUse" x="141"
            y="73" width="37" height="50">
            <path
                d="M147.724 77.7873C147.028 79.7719 150.566 83.8974 152.816 88.6764C155.478 94.3318 150.367 95.4733 141.302 95.6627C141.302 95.6627 148.591 124.782 165.372 121.827C182.154 118.871 177.067 90.8978 176.228 87.0518C176.228 87.0518 174.85 87.7007 171.492 88.307C166.239 89.259 165.988 79.2509 165.988 79.2509C165.988 79.2509 151.888 76.9585 151.622 73.7471C151.627 73.7377 147.748 77.7258 147.724 77.7873Z"
                fill="white" />
        </mask>
        <g mask="url(#mask2_10_43564)">
            <path
                d="M159.982 86.223C156.984 99.2103 161.275 116.697 166.542 130.542L195.728 103.748C195.728 103.748 187.928 84.9299 178.488 89.6521C164.78 96.5058 166.879 74.4055 166.879 74.4055L159.982 86.223Z"
                fill="#C29A6D" />
        </g>
        <path
            d="M162.431 86.8814C166.305 84.8542 168.702 69.2523 163.596 59.3153C159.324 50.998 154.602 47.5546 147.914 49.6482C142.609 51.3106 135.85 64.1228 144.305 79.5446C150.064 90.0643 158.163 89.1123 162.431 86.8814Z"
            fill="#91693C" />
        <mask id="mask3_10_43564" style="mask-type:luminance" maskUnits="userSpaceOnUse" x="140"
            y="49" width="27" height="40">
            <path
                d="M162.431 86.8814C166.305 84.8542 168.702 69.2523 163.596 59.3153C159.324 50.998 154.602 47.5546 147.914 49.6482C142.609 51.3106 135.85 64.1228 144.305 79.5446C150.064 90.0643 158.163 89.1123 162.431 86.8814Z"
                fill="white" />
        </mask>
        <g mask="url(#mask3_10_43564)">
            <path
                d="M164.321 57.6859C163.88 60.3999 160.764 61.3851 156.785 61.1341C154.369 60.9825 154.938 63.8196 157.24 65.2548C159.125 66.4294 160.858 67.7888 160.825 69.1529C160.787 70.7727 157.571 70.7585 157.96 72.8899C158.438 75.5329 164.894 84.4232 162.431 86.8814C159.276 90.0359 181.727 85.7873 181.415 78.4126C181.102 71.038 184.735 37.0303 169.308 36.5756C153.882 36.1209 165.102 52.8642 164.321 57.6859Z"
                fill="#C29A6D" />
        </g>
        <mask id="mask4_10_43564" style="mask-type:luminance" maskUnits="userSpaceOnUse" x="140"
            y="49" width="27" height="40">
            <path
                d="M162.431 86.8814C166.305 84.8542 168.702 69.2523 163.596 59.3153C159.324 50.998 154.602 47.5546 147.914 49.6482C142.609 51.3106 135.85 64.1228 144.305 79.5446C150.064 90.0643 158.163 89.1123 162.431 86.8814Z"
                fill="white" />
        </mask>
        <g mask="url(#mask4_10_43564)">
            <path
                d="M159.677 62.0048C160.167 61.863 160.334 60.9537 160.051 59.9737C159.767 58.9937 159.14 58.3142 158.65 58.4559C158.16 58.5977 157.993 59.507 158.277 60.487C158.56 61.467 159.187 62.1465 159.677 62.0048Z"
                fill="black" />
        </g>
        <mask id="mask5_10_43564" style="mask-type:luminance" maskUnits="userSpaceOnUse" x="140"
            y="49" width="27" height="40">
            <path
                d="M162.431 86.8814C166.305 84.8542 168.702 69.2523 163.596 59.3153C159.324 50.998 154.602 47.5546 147.914 49.6482C142.609 51.3106 135.85 64.1228 144.305 79.5446C150.064 90.0643 158.163 89.1123 162.431 86.8814Z"
                fill="white" />
        </mask>
        <g mask="url(#mask5_10_43564)">
            <path
                d="M148.139 66.8778C148.629 66.7361 148.796 65.8267 148.513 64.8467C148.229 63.8667 147.602 63.1872 147.112 63.329C146.622 63.4707 146.455 64.3801 146.738 65.3601C147.022 66.3401 147.649 67.0196 148.139 66.8778Z"
                fill="black" />
        </g>
        <mask id="mask6_10_43564" style="mask-type:luminance" maskUnits="userSpaceOnUse" x="140"
            y="49" width="27" height="40">
            <path
                d="M162.431 86.8814C166.305 84.8542 168.702 69.2523 163.596 59.3153C159.324 50.998 154.602 47.5546 147.914 49.6482C142.609 51.3106 135.85 64.1228 144.305 79.5446C150.064 90.0643 158.163 89.1123 162.431 86.8814Z"
                fill="white" />
        </mask>
        <g mask="url(#mask6_10_43564)">
            <path d="M154.147 55.1661C158.353 52.7221 160.702 54.6309 163.241 57.1838"
                stroke="black" stroke-width="2.1822" stroke-miterlimit="10" stroke-linecap="round" />
        </g>
        <mask id="mask7_10_43564" style="mask-type:luminance" maskUnits="userSpaceOnUse" x="140"
            y="49" width="27" height="40">
            <path
                d="M162.431 86.8814C166.305 84.8542 168.702 69.2523 163.596 59.3153C159.324 50.998 154.602 47.5546 147.914 49.6482C142.609 51.3106 135.85 64.1228 144.305 79.5446C150.064 90.0643 158.163 89.1123 162.431 86.8814Z"
                fill="white" />
        </mask>
        <g mask="url(#mask7_10_43564)">
            <path d="M143.063 64.7764C143.708 59.9547 146.161 57.2265 149.732 56.7812"
                stroke="black" stroke-width="2.1822" stroke-miterlimit="10" stroke-linecap="round" />
        </g>
        <path
            d="M152.735 77.4037C155.075 80.5061 158.116 83.4521 161.143 82.3959C164.169 81.3397 163.738 76.4185 163.246 73.4061C161.673 73.4014 161.465 71.9994 158.286 74.1592C155.459 74.164 155.293 75.8265 152.735 77.4037Z"
            fill="#E12C6E" />
        <mask id="mask8_10_43564" style="mask-type:luminance" maskUnits="userSpaceOnUse" x="152"
            y="72" width="12" height="11">
            <path
                d="M152.735 77.4037C155.075 80.5061 158.116 83.4521 161.143 82.3959C164.169 81.3397 163.738 76.4185 163.246 73.4061C161.673 73.4014 161.465 71.9994 158.286 74.1592C155.459 74.164 155.293 75.8265 152.735 77.4037Z"
                fill="white" />
        </mask>
        <g mask="url(#mask8_10_43564)">
            <path
                d="M157.889 72.2977C157.5 73.5339 162.374 81.889 162.762 83.741C163.151 85.5977 150.159 85.2898 148.918 80.6481C147.682 76.0111 157.889 72.2977 157.889 72.2977Z"
                fill="#BE1F51" />
        </g>
        <path
            d="M152.735 77.4036C156.004 76.9868 163.113 73.4866 163.246 73.4061C163.246 73.4061 162.971 77.972 160.153 78.9761C157.334 79.9803 153.82 78.6588 152.735 77.4036Z"
            fill="black" />
        <mask id="mask9_10_43564" style="mask-type:luminance" maskUnits="userSpaceOnUse" x="152"
            y="73" width="12" height="7">
            <path
                d="M152.735 77.4036C156.004 76.9868 163.113 73.4866 163.246 73.4061C163.246 73.4061 162.971 77.972 160.153 78.9761C157.334 79.9803 153.82 78.6588 152.735 77.4036Z"
                fill="white" />
        </mask>
        <g mask="url(#mask9_10_43564)">
            <path
                d="M158.808 74.1781C156.25 75.528 154.019 76.7879 152.532 76.8068C153.223 77.3847 161.398 77.9531 162.611 73.0272C161.976 73.5387 159.854 73.6287 158.808 74.1781Z"
                fill="white" />
        </g>
        <path
            d="M57.6936 86.0903C59.233 81.6239 57.9352 73.9176 76.8431 73.7566C108.355 73.4866 125.212 76.9963 127.319 82.5569C136.049 105.576 138.526 168.325 140.383 172.303C144.664 181.478 148.302 200.722 149.51 213.903C151.196 232.29 151.5 230 151.5 230C151.5 230 127 236 97.4997 227.5C70.9997 218.5 65.9997 213 65.9997 213C65.9997 213 65.0803 217 72.5803 190C73.7931 185.634 72.8124 176.774 72.5803 171.602C72.5803 171.602 56.1543 90.5568 57.6936 86.0903Z"
            fill="#FEC417" />
        <mask id="mask10_10_43564" style="mask-type:luminance" maskUnits="userSpaceOnUse" x="57"
            y="75" width="112" height="216">
            <path
                d="M69.5392 88.0904C71.0786 83.6239 69.7808 75.9177 88.6887 75.7567C120.2 75.4867 137.057 78.9964 139.165 84.557C147.894 107.576 150.372 170.325 152.228 174.303C156.51 183.478 160.148 202.722 161.355 215.904C163.042 234.29 168.934 277.62 168.934 277.62C168.934 277.62 151.229 283.782 109.486 283.701C72.7127 283.63 57.6934 291 57.6934 291C57.6934 291 72.3953 219.221 84.4259 185C86.1405 180.117 84.658 178.775 84.4259 173.602C84.4259 173.602 67.9999 92.5569 69.5392 88.0904Z"
                fill="white" />
        </mask>
        <g mask="url(#mask10_10_43564)">
            <path
                d="M108.587 64.0326C110.344 63.1801 81.8306 63.199 96.452 76.9632C102.851 82.9879 104.651 92.5129 108.824 100.248C113.418 108.768 118.487 100.253 120.5 231.5C139.5 233 143.5 232 160 228C147.41 154.647 154.365 134.563 141.775 61.2097L108.587 64.0326Z"
                fill="#F9EA14" />
        </g>
        <path
            d="M109.084 50.657C109.084 50.657 104.196 62.5597 109.539 75.3907C113.314 84.461 82.8442 73.7519 82.8442 73.7519C82.8442 73.7519 88.4475 70.7064 87.9028 52.0021C88.4996 47.1662 99.1708 51.5616 109.084 50.657Z"
            fill="#885732" />
        <mask id="mask11_10_43564" style="mask-type:luminance" maskUnits="userSpaceOnUse" x="82"
            y="49" width="28" height="31">
            <path
                d="M109.084 50.657C109.084 50.657 104.196 62.5597 109.539 75.3907C113.314 84.461 82.8442 73.7519 82.8442 73.7519C82.8442 73.7519 88.4475 70.7064 87.9028 52.0021C88.4996 47.1662 99.1708 51.5616 109.084 50.657Z"
                fill="white" />
        </mask>
        <g mask="url(#mask11_10_43564)">
            <path
                d="M109.056 62.8629C103.448 64.9658 89.1202 67.8125 95.2728 75.4808C101.425 83.1491 111.22 96.4964 115.834 90.1969C120.438 83.8974 109.056 62.8629 109.056 62.8629Z"
                fill="#AA7D50" />
        </g>
        <path d="M93.3784 32.0759C95.7088 27.9789 99.1664 24.8812 103.514 24.5639" stroke="black"
            stroke-width="2.1822" stroke-miterlimit="10" stroke-linecap="round" />
        <path
            d="M72.5899 163.422C66.4988 163.726 57.6369 134.393 54.7571 113.136C49.6465 75.386 71.0553 64.9421 72.6609 86.7251C75.1713 120.832 75.6781 132.527 76.3554 131.328C84.1989 117.422 98.0341 98.4715 105.167 89.6143C107.318 86.943 108.857 85.1905 109.439 84.7689C111.959 82.9407 116.862 83.1064 118.372 83.6038C119.632 84.0253 120.892 84.4469 122.152 84.8637C121.636 85.2615 121.636 85.2615 120.608 86.0572C121.641 85.2615 121.641 85.2615 122.152 84.8637C122.152 84.8637 125.581 89.458 124.459 91.22C123.336 92.9819 123.057 95.8522 123.057 95.8522C123.057 95.8522 122.777 98.5899 121.584 100.063C120.39 101.536 120.741 102.73 118.917 105.188C117.643 106.902 113.546 105.841 110.088 106.268C108.592 106.452 107.218 106.912 106.242 107.992C101.771 112.937 88.2391 162.646 72.5899 163.422Z"
            fill="#885732" />
        <path
            d="M179.118 171.233C185.493 171.536 194.767 142.203 197.774 120.946C203.122 83.1964 180.718 72.7525 179.042 94.5355C176.418 128.643 175.883 140.337 175.177 139.139C164.501 121.041 143.201 94.4028 140.563 92.5746C137.925 90.7463 132.795 90.9121 131.218 91.4094C131.218 91.4094 131.98 92.3519 132.715 93.3134C133.482 92.1909 133.719 91.452 133.434 91.0968C132.942 90.481 130.886 91.0068 127.258 92.674C127.258 92.674 123.673 97.2684 124.843 99.0303C126.017 100.792 126.311 103.663 126.311 103.663C126.311 103.663 126.605 106.4 127.855 107.873C129.105 109.346 128.736 110.54 130.645 112.998C132.553 115.456 140.52 112.217 143.907 115.802C148.586 120.747 162.744 170.451 179.118 171.233Z"
            fill="#C29A6D" />
        <path
            d="M116.596 14.6363C134.775 37.6555 117.373 63.4691 110.088 63.6728C102.804 63.8765 89.2101 54.162 81.9302 42.4819C69.5207 22.5746 85.6957 -8.81862 116.596 14.6363Z"
            fill="#885732" />
        <mask id="mask12_10_43564" style="mask-type:luminance" maskUnits="userSpaceOnUse" x="77"
            y="6" width="48" height="58">
            <path
                d="M116.596 14.6363C134.775 37.6555 117.373 63.4691 110.088 63.6728C102.804 63.8765 89.2101 54.162 81.9302 42.4819C69.5207 22.5746 85.6957 -8.81862 116.596 14.6363Z"
                fill="white" />
        </mask>
        <g mask="url(#mask12_10_43564)">
            <path
                d="M98.7634 17.0945C99.0239 19.439 99.706 24.1565 93.2597 28.6372C86.8134 33.1179 101.624 39.3037 108.677 32.5022C109.558 31.6543 112.376 33.781 114.853 38.5932C116.61 42.013 116.956 43.6186 115.597 44.5801C113.754 45.8826 111.94 44.2344 111.647 46.6878C111.604 47.062 111.836 48.6203 111.656 49.2976C111.021 51.6422 109.449 54.7019 111.296 57.3733C113.617 60.7267 111.31 64.549 107.488 63.6254C119.239 73.373 136.977 68.2908 139.279 60.1394C141.581 51.9879 158.613 15.9956 139.279 10.6292C119.945 5.26283 97.6409 6.90164 98.7634 17.0945Z"
                fill="#AA7D50" />
        </g>
        <path
            d="M117.809 35.3488C118.478 35.3488 119.021 34.4094 119.021 33.2505C119.021 32.0917 118.478 31.1523 117.809 31.1523C117.139 31.1523 116.596 32.0917 116.596 33.2505C116.596 34.4094 117.139 35.3488 117.809 35.3488Z"
            fill="black" />
        <path
            d="M101.44 37.0207C102.109 37.0207 102.652 36.0812 102.652 34.9224C102.652 33.7636 102.109 32.8242 101.44 32.8242C100.77 32.8242 100.227 33.7636 100.227 34.9224C100.227 36.0812 100.77 37.0207 101.44 37.0207Z"
            fill="black" />
        <path
            d="M104.921 28.443C103.135 24.4786 97.7784 25.0422 94.7992 27.2778C93.7287 28.0309 92.8051 28.983 92.0378 30.0439C92.0094 30.0818 91.9573 30.0913 91.9194 30.0629C91.8815 30.0345 91.8815 29.9871 91.891 29.9445C92.1278 28.4904 92.9093 27.1784 93.9798 26.1316C96.6322 23.4129 102.079 22.6693 104.457 26.1885C104.883 26.8847 105.134 27.6473 105.082 28.4146C105.077 28.4998 104.954 28.5235 104.921 28.443Z"
            fill="black" />
        <path
            d="M86.3639 50.9905C88.5845 49.9467 88.8592 45.8553 86.9774 41.8521C85.0957 37.8489 81.7701 35.4498 79.5495 36.4936C77.329 37.5374 77.0542 41.6288 78.936 45.632C80.8177 49.6352 84.1433 52.0343 86.3639 50.9905Z"
            fill="#885732" />
        <path
            d="M109.382 47.8671C110.766 48.1182 111.737 48.7813 111.737 48.7813C111.737 48.7813 113.328 48.1703 114.185 48.1182C115.568 48.0329 116.34 50.7659 116.34 50.7659C116.34 50.7659 115.436 57.7805 110.87 57.4585C106.304 57.1364 103.367 49.5912 103.367 49.5912C104.703 50.0128 107.777 47.5735 109.382 47.8671Z"
            fill="#E12C6E" />
        <mask id="mask13_10_43564" style="mask-type:luminance" maskUnits="userSpaceOnUse" x="103"
            y="47" width="14" height="11">
            <path
                d="M109.382 47.8671C110.766 48.1182 111.737 48.7813 111.737 48.7813C111.737 48.7813 113.328 48.1703 114.185 48.1182C115.568 48.0329 116.34 50.7659 116.34 50.7659C116.34 50.7659 115.436 57.7805 110.87 57.4585C106.304 57.1364 103.367 49.5912 103.367 49.5912C104.703 50.0128 107.777 47.5735 109.382 47.8671Z"
                fill="white" />
        </mask>
        <g mask="url(#mask13_10_43564)">
            <path
                d="M88.7219 25.8899C89.3092 31.3369 99.7294 38.4273 109.207 29.0397C110.074 28.1776 111.689 28.6655 111.736 29.807C111.845 32.4641 112.461 35.3913 114.048 36.9401C116.35 39.1946 118.093 41.0892 116.572 42.5338C115.137 43.8979 111.547 47.9192 111.651 48.5444C111.755 49.1696 112.338 49.8469 111.315 50.941C110.173 52.1583 111.315 53.944 111.897 54.1524C113.209 54.626 112.906 56.8142 111.566 57.4868C106.488 60.035 136.915 67.3102 139.217 59.1541C141.519 51.0026 158.551 15.0103 139.217 9.64391C119.883 4.27751 87.8172 17.5396 88.7219 25.8899Z"
                fill="#BE1F51" />
        </g>
        <path
            d="M108.648 49.9464C110.325 49.9606 111.263 50.7516 112.788 50.4248C113.953 50.1785 115.691 50.1691 115.758 50.9411C115.824 51.7131 114.341 54.5219 110.799 54.2756C107.26 54.0245 104.613 50.4817 104.613 50.4817C104.613 50.4817 107.062 49.9322 108.648 49.9464Z"
            fill="black" />
        <mask id="mask14_10_43564" style="mask-type:luminance" maskUnits="userSpaceOnUse" x="104"
            y="49" width="12" height="6">
            <path
                d="M108.648 49.9464C110.325 49.9606 111.263 50.7516 112.788 50.4248C113.953 50.1785 115.691 50.1691 115.758 50.9411C115.824 51.7131 114.341 54.5219 110.799 54.2756C107.26 54.0245 104.613 50.4817 104.613 50.4817C104.613 50.4817 107.062 49.9322 108.648 49.9464Z"
                fill="white" />
        </mask>
        <g mask="url(#mask14_10_43564)">
            <path
                d="M106.593 49.1507C108.269 49.165 110.102 49.6433 111.632 49.3213C112.617 49.1128 114.592 48.9708 114.626 49.3118C114.659 49.6528 114.218 51.249 114.218 51.249C111.708 52.7552 105.835 50.7943 104.783 49.7996C105.333 49.7996 105.83 49.146 106.593 49.1507Z"
                fill="white" />
        </g>
        <path
            d="M138.929 25.0612C135.964 31.1807 122.673 32.2085 109.245 27.3583C95.8176 22.5082 93.3878 7.57892 82.8682 12.3912C82.9724 0.0337486 103.396 -2.21607 119.997 3.48662C133.525 8.13308 141.894 18.9417 138.929 25.0612Z"
            fill="#5F3A1A" />
        <mask id="mask15_10_43564" style="mask-type:luminance" maskUnits="userSpaceOnUse" x="82"
            y="0" width="58" height="31">
            <path
                d="M138.929 25.0612C135.964 31.1807 122.673 32.2085 109.245 27.3583C95.8176 22.5082 93.3878 7.57892 82.8682 12.3912C82.9724 0.0337486 103.396 -2.21607 119.997 3.48662C133.525 8.13308 141.894 18.9417 138.929 25.0612Z"
                fill="white" />
        </mask>
        <g mask="url(#mask15_10_43564)">
            <path
                d="M56.8601 -8.51084C56.6375 -6.16156 56.3486 -1.41564 49.0923 2.01829C41.8361 5.45222 55.155 13.7931 63.4817 8.1662C64.5237 7.46521 64.0027 9.69135 67.1429 14.712C68.796 17.3597 71.2684 19.1453 69.0754 20.2157C67.0008 21.2246 64.3011 20.2157 63.5148 22.584C63.3964 22.9439 63.3064 24.5164 62.9891 25.1511C61.8855 27.363 59.7162 30.1386 60.9903 33.0421C62.5912 36.6939 59.5457 40.1088 55.9696 38.6169C65.5515 49.9986 84.0473 47.6919 87.9739 40.0141C91.9004 32.3363 115.999 -0.5015 98.0578 -8.72398C80.1161 -16.9465 57.8263 -18.7132 56.8601 -8.51084Z"
                fill="#3B2416" />
        </g>
        <path
            d="M102.78 48.8287C103.232 48.8287 103.599 48.5127 103.599 48.123C103.599 47.7332 103.232 47.4172 102.78 47.4172C102.327 47.4172 101.96 47.7332 101.96 48.123C101.96 48.5127 102.327 48.8287 102.78 48.8287Z"
            fill="#5F3A1A" />
        <path d="M98.4511 21.7836L99.0716 20.5426L98.0059 19.4627L98.4511 21.7836Z" fill="#885732" />
        <path
            d="M105.465 90.268C105.465 90.268 109.292 101.773 110.083 106.268C110.083 106.268 112.224 106.343 114.209 106.268C116.193 106.192 118.405 106.642 119.476 104.364C119.476 104.364 120.191 103.322 120.83 101.337C120.83 101.337 120.996 100.745 121.579 100.068C122.161 99.3904 122.706 98.1731 122.929 96.6622C123.151 95.1513 123.369 93.8629 123.611 93.1619C123.852 92.4609 124.099 91.9305 124.459 91.2247C124.819 90.519 124.672 89.9175 124.459 89.2117C124.245 88.506 122.815 85.3942 122.152 84.8684C122.152 84.8684 118.59 83.4996 117.373 83.3954C116.16 83.2912 113.759 83.1586 111.779 83.7222C109.799 84.2858 109.155 84.9537 108.577 85.5931C107.999 86.2325 105.167 89.6191 105.167 89.6191L105.465 90.268Z"
            fill="#AA7D50" />
        <path
            d="M109.861 104.046C109.861 104.046 116.933 105.548 120.831 101.337C120.831 101.337 120.845 102.033 119.879 103.61C118.912 105.188 118.893 105.988 115.687 106.258C115.687 106.258 112.731 106.306 112.513 106.301C112.296 106.301 110.084 106.268 110.084 106.268L109.582 103.97L109.861 104.046Z"
            fill="#744D25" />
        <path
            d="M181.306 83.3433C181.306 83.3433 183.466 82.0691 186.833 83.348C186.047 83.3006 184.583 83.3338 183.309 84.2763C183.196 84.3569 182.888 84.5937 182.371 85.1857C181.765 85.882 180.936 86.9998 180.235 88.6386C180.591 86.8719 180.951 85.1052 181.306 83.3433Z"
            fill="#13AF4B" />
        <path
            d="M194.838 90.2963C194.838 90.2963 201.175 99.5798 201.568 108.702C201.962 117.825 198.599 108.347 198.599 108.347C198.599 108.347 198.002 97.1973 194.838 90.2963Z"
            fill="#13AF4B" />
    </g>
    <defs>
        <filter id="filter0_d_10_43564" x="0" y="1" width="254" height="254"
            filterUnits="userSpaceOnUse" color-interpolation-filters="sRGB">
            <feFlood flood-opacity="0" result="BackgroundImageFix" />
            <feColorMatrix in="SourceAlpha" type="matrix"
                values="0 0 0 0 0 0 0 0 0 0 0 0 0 0 0 0 0 0 127 0" result="hardAlpha" />
            <feOffset dy="4" />
            <feGaussianBlur stdDeviation="6" />
            <feComposite in2="hardAlpha" operator="out" />
            <feColorMatrix type="matrix" values="0 0 0 0 0 0 0 0 0 0 0 0 0 0 0 0 0 0 0.1 0" />
            <feBlend mode="normal" in2="BackgroundImageFix" result="effect1_dropShadow_10_43564" />
            <feBlend mode="normal" in="SourceGraphic" in2="effect1_dropShadow_10_43564"
                result="shape" />
        </filter>
    </defs>
</svg>
    