<svg width="230" height="230" viewBox="0 0 230 230" fill="none" xmlns="http://www.w3.org/2000/svg">
    <path
        d="M126.025 148.166C124.368 148.166 123.025 146.822 123.025 145.166L123.025 106.394C123.025 105.73 123.245 105.085 123.651 104.56L138.562 85.2492C139.13 84.5135 140.007 84.0827 140.936 84.0827L214.463 84.0827C216.12 84.0827 217.463 85.4258 217.463 87.0827L217.463 145.166C217.463 146.822 216.12 148.166 214.463 148.166L126.025 148.166Z"
        fill="currentColor" />
    <path
        d="M126.025 148.166C124.368 148.166 123.025 146.822 123.025 145.166L123.025 112.189L217.463 112.189L217.463 145.166C217.463 146.822 216.12 148.166 214.463 148.166L126.025 148.166Z"
        fill="#003654" />
    <rect x="167.996" y="142.544" width="52.8402" height="43.8462" rx="3"
        transform="rotate(-90 167.996 142.544)" fill="#E9C84C" />
    <path
        d="M170.996 142.544C169.339 142.544 167.996 141.201 167.996 139.544L167.996 112.189L211.842 112.189L211.842 139.544C211.842 141.201 210.499 142.544 208.842 142.544L170.996 142.544Z"
        fill="#D8B019" />
    <line x1="197.851" y1="142.544" x2="197.851" y2="105.444" stroke="#AFAFAF" />
    <line x1="197.226" y1="126.305" x2="211.842" y2="126.305" stroke="#AFAFAF" />
    <line x1="197.226" y1="106.068" x2="211.842" y2="106.068" stroke="#AFAFAF" />
    <line y1="-0.5" x2="52.8402" y2="-0.5"
        transform="matrix(-3.88801e-08 -1 -1 4.9143e-08 181.751 142.544)" stroke="#AFAFAF" />
    <line y1="-0.5" x2="14.6154" y2="-0.5" transform="matrix(-1 0 0 1 182.611 126.805)"
        stroke="#AFAFAF" />
    <line y1="-0.5" x2="14.6154" y2="-0.5" transform="matrix(-1 0 0 1 182.611 106.568)"
        stroke="#AFAFAF" />
    <path d="M135.392 132.426L129.771 126.242L135.392 120.059" stroke="white" stroke-linecap="round" />
    <path d="M129.771 126.243H142.7" stroke="white" stroke-linecap="round" />
    <path
        d="M112.873 210H33.9132C31.1966 210 29 207.797 29 205.087V24.9132C29 22.1966 31.2027 20 33.9132 20H112.873C115.59 20 117.787 22.2027 117.787 24.9132V205.087C117.787 207.797 115.59 210 112.873 210V210Z"
        fill="currentColor" />
    <path
        d="M110.126 205.809H37.719C35.0024 205.809 32.8058 203.606 32.8058 200.896V28.0582C32.8058 25.3416 35.0085 23.145 37.719 23.145H110.12C112.837 23.145 115.033 25.3477 115.033 28.0582V200.896C115.033 203.612 112.837 205.809 110.126 205.809V205.809Z"
        fill="white" />
    <path
        d="M80.4266 30.9894H62.1749C61.9179 30.9894 61.7037 30.7814 61.7037 30.5183V28.5297C61.7037 28.2727 61.9118 28.0586 62.1749 28.0586H80.4266C80.6835 28.0586 80.8977 28.2666 80.8977 28.5297V30.5183C80.8916 30.7814 80.6835 30.9894 80.4266 30.9894Z"
        fill="currentColor" />
    <path opacity="0.11" d="M111.515 58.5771H37.0762V61.5079H111.515V58.5771Z" fill="#4D849C" />
    <path opacity="0.11" d="M111.515 66.8315H37.0762V69.7623H111.515V66.8315Z" fill="#4D849C" />
    <path opacity="0.11" d="M111.515 75.0913H37.0762V78.0221H111.515V75.0913Z" fill="#4D849C" />
    <path opacity="0.11" d="M111.515 83.3516H37.0762V86.2824H111.515V83.3516Z" fill="#4D849C" />
    <path opacity="0.11" d="M111.515 92.6704H37.0762V95.6012H111.515V92.6704Z" fill="#4D849C" />
    <path opacity="0.11" d="M67.1551 100.931H37.0762V103.861H67.1551V100.931Z" fill="#4D849C" />
    <g opacity="0.11">
        <path d="M111.142 130.599H36.7032V133.53H111.142V130.599Z" fill="#4D849C" />
        <path d="M111.142 138.859H36.7032V141.79H111.142V138.859Z" fill="#4D849C" />
        <path d="M111.142 147.119H36.7032V150.05H111.142V147.119Z" fill="#4D849C" />
        <path d="M111.142 156.438H36.7032V159.368H111.142V156.438Z" fill="#4D849C" />
        <path d="M66.7821 164.692H36.7032V167.623H66.7821V164.692Z" fill="#4D849C" />
    </g>
    <g opacity="0.11">
        <path
            d="M75.2233 198.292C76.8525 198.292 78.1733 196.971 78.1733 195.342C78.1733 193.712 76.8525 192.392 75.2233 192.392C73.594 192.392 72.2732 193.712 72.2732 195.342C72.2732 196.971 73.594 198.292 75.2233 198.292Z"
            fill="#4D849C" />
        <path d="M88.5402 192.835L88.399 198.491L94.055 198.632L94.1961 192.976L88.5402 192.835Z"
            fill="#4D849C" />
        <path
            d="M51.4852 194.121C54.0554 193.418 56.6337 192.715 59.2039 192.012C59.2282 193.968 59.2524 195.916 59.2686 197.871C56.6822 196.611 54.0878 195.366 51.4852 194.121Z"
            fill="#4D849C" />
    </g>
</svg>
    