<svg width="254" height="254" viewBox="0 0 254 254" fill="none" xmlns="http://www.w3.org/2000/svg">
    <g filter="url(#filter0_d_3030_7079)">
    <circle cx="127" cy="123" r="115" fill="white"/>
    </g>
    <circle cx="127" cy="123" r="108" fill="#F2F2F2"/>
    <path d="M125.67 217.278C178.052 217.278 218 177.215 218 125.648C218 74.0811 178.052 32.2778 125.67 32.2778C73.2869 32.2778 33 74.1929 33 125.76C33 177.327 73.2869 217.278 125.67 217.278Z" stroke="#0FAF4B" stroke-width="7" stroke-miterlimit="10"/>
    <mask id="mask0_3030_7079" style="mask-type:luminance" maskUnits="userSpaceOnUse" x="34" y="37" width="182" height="177">
    <path d="M124.944 213.655C174.888 213.655 215.376 174.285 215.376 125.721C215.376 77.1567 174.888 37.7875 124.944 37.7875C75.0005 37.7875 34.5131 77.1567 34.5131 125.721C34.5131 174.285 75.0005 213.655 124.944 213.655Z" fill="white"/>
    </mask>
    <g mask="url(#mask0_3030_7079)">
    <path d="M174.294 203.139C165.692 165.683 195.781 137.418 180.203 118.587C164.626 99.7563 98.3463 104.087 84.7248 110.121C57.0651 122.379 89.3804 169.295 83.7683 203.139C83.3348 205.744 104.497 212.841 127.746 212.832C149.442 211.691 174.759 204.387 173.426 198.577L174.294 203.139Z" fill="#F7E600"/>
    <mask id="mask1_3030_7079" style="mask-type:luminance" maskUnits="userSpaceOnUse" x="73" y="101" width="112" height="113">
    <path d="M174.201 203.114C165.63 164.403 195.607 135.19 180.087 115.728C164.568 96.2652 98.5362 100.741 84.9657 106.977C57.4092 119.646 87.7133 175.262 82.1222 210.241C81.2595 215.619 176.852 215.138 174.193 203.114H174.201Z" fill="white"/>
    </mask>
    <g mask="url(#mask1_3030_7079)">
    <path d="M172.725 130.047C193.093 156.632 200.076 249.183 183.854 233.467C167.624 217.751 152.326 256.682 152.509 276.727C152.884 316.737 43.2823 252.554 36.8651 248.561C36.5224 255.183 49.6118 124.354 65.1644 109.035C87.4371 87.1014 138.168 108.863 147.503 112.308C154.191 114.78 166.141 121.455 172.725 130.04V130.047Z" fill="#FFC41B"/>
    </g>
    <path d="M138.473 102.692C141.319 113.511 105.65 116.868 106.283 104.792C106.765 95.5254 107.999 86.6651 97.4805 65.057L134.601 54.1202C134.601 54.1202 136.573 95.4551 138.473 102.692Z" fill="#C29A6D"/>
    <mask id="mask2_3030_7079" style="mask-type:luminance" maskUnits="userSpaceOnUse" x="97" y="54" width="42" height="59">
    <path d="M138.473 102.692C141.319 113.511 105.65 116.868 106.283 104.792C106.765 95.5254 107.999 86.6651 97.4805 65.057L134.601 54.1202C134.601 54.1202 136.573 95.4551 138.473 102.692Z" fill="white"/>
    </mask>
    <g mask="url(#mask2_3030_7079)">
    <path d="M112.881 89.0539C114.605 94.9165 125.909 79.0695 126.743 86.3919C127.625 94.0734 129.581 99.4208 138.625 105.494C144.013 109.109 103.164 135.775 103.164 135.775L86.0072 64.8072C86.0072 64.8072 111.15 83.1913 112.873 89.0539H112.881Z" fill="#AA7D50"/>
    </g>
    <path d="M180.79 190.091C187.204 193.486 198.765 196.266 204.145 191.004C218.624 176.835 182.819 109.895 170.272 112.94C159.272 115.61 152.882 175.329 180.782 190.098L180.79 190.091Z" fill="#F7E600"/>
    <mask id="mask3_3030_7079" style="mask-type:luminance" maskUnits="userSpaceOnUse" x="159" y="113" width="47" height="82">
    <path d="M179.082 190.375C185.495 193.771 197.056 196.55 202.436 191.288C216.915 177.12 181.11 110.18 168.563 113.224C157.563 115.894 151.173 175.613 179.074 190.383L179.082 190.375Z" fill="white"/>
    </mask>
    <g mask="url(#mask3_3030_7079)">
    <path d="M198.063 211.004C198.913 190.567 180.538 130.941 161.079 119.637C145.349 110.496 162.587 200.02 168.848 202.37C175.11 204.727 198.063 210.996 198.063 210.996V211.004Z" fill="#FFC41B"/>
    </g>
    <path d="M147.938 60.024C149.068 54.6295 147.361 49.7352 144.124 49.0923C140.888 48.4495 137.348 52.3014 136.217 57.6959C135.087 63.0904 136.795 67.9847 140.031 68.6276C143.268 69.2704 146.808 65.4185 147.938 60.024Z" fill="#C29A6D"/>
    <path d="M102.209 68.8627C105.445 68.2199 107.153 63.3256 106.023 57.9311C104.892 52.5366 101.352 48.6846 98.1159 49.3275C94.8794 49.9704 93.1719 54.8646 94.3021 60.2591C95.4323 65.6536 98.9722 69.5056 102.209 68.8627Z" fill="#AA7D50"/>
    <path d="M144.773 50.8727C144.749 73.0663 135.225 89.6862 121.002 89.6862C106.779 89.6862 96.9339 72.2076 96.9259 50.014C96.9259 20.1701 95.9237 19.7564 121.066 22.676C145.96 27.3442 144.805 17.2974 144.773 50.8727Z" fill="#C29A6D"/>
    <mask id="mask4_3030_7079" style="mask-type:luminance" maskUnits="userSpaceOnUse" x="96" y="21" width="49" height="69">
    <path d="M144.773 50.8727C144.749 73.0663 135.225 89.6862 121.002 89.6862C106.779 89.6862 96.9339 72.2076 96.9259 50.014C96.9259 20.1701 95.9237 19.7564 121.066 22.676C145.96 27.3442 144.805 17.2974 144.773 50.8727Z" fill="white"/>
    </mask>
    <g mask="url(#mask4_3030_7079)">
    <path d="M121.299 89.6862C115.085 85.7986 122.862 82.7385 120.449 79.6706C119.39 78.3279 119.703 76.6964 120.705 76.1811C117.33 66.4934 124 66.1811 123.511 64.5964C123.022 63.0117 118.308 65.7049 116.993 62.7229C115.895 60.2248 120.737 59.4598 119.679 42.7697C119.262 36.2592 113.233 31.2553 120.192 20.5136C127.151 9.76422 102.554 3.01168 86.9844 20.256C67.0774 42.3013 87.4895 94.7214 121.299 89.6784V89.6862Z" fill="#AA7D50"/>
    </g>
    <path d="M90.176 22.7306C89.0616 30.6853 93.8319 39.1787 107.614 33.6596C125.268 26.587 140.22 26.1264 144.525 30.7244C143.716 15.736 130.439 5.65017 112.536 7.66422C100.294 9.04596 91.3545 14.3621 90.176 22.7306Z" fill="#3B2416"/>
    <mask id="mask5_3030_7079" style="mask-type:luminance" maskUnits="userSpaceOnUse" x="90" y="7" width="55" height="29">
    <path d="M90.176 22.7306C89.0616 30.6853 93.8319 39.1787 107.614 33.6596C125.268 26.587 140.22 26.1264 144.525 30.7244C143.716 15.736 130.439 5.65017 112.536 7.66422C100.294 9.04596 91.3545 14.3621 90.176 22.7306Z" fill="white"/>
    </mask>
    <g mask="url(#mask5_3030_7079)">
    </g>
    <path d="M132.997 48.8821C137.269 48.8821 140.733 46.6243 140.733 43.8391C140.733 41.054 137.269 38.7962 132.997 38.7962C128.724 38.7962 125.26 41.054 125.26 43.8391C125.26 46.6243 128.724 48.8821 132.997 48.8821Z" fill="#AA7D50"/>
    <path d="M133.543 47.7275C133.567 46.2144 132.952 44.978 132.168 44.966C131.385 44.9541 130.729 46.171 130.705 47.6841C130.681 49.1972 131.296 50.4335 132.08 50.4455C132.863 50.4575 133.518 49.2406 133.543 47.7275Z" fill="black"/>
    <path d="M110.57 50.442C111.354 50.43 111.969 49.1937 111.945 47.6806C111.92 46.1675 111.265 44.9506 110.481 44.9626C109.698 44.9746 109.082 46.2109 109.107 47.724C109.131 49.2371 109.786 50.454 110.57 50.442Z" fill="black"/>
    <path d="M126.118 41.0522C126.831 39.6705 127.946 38.6322 129.22 37.8204C130.511 37.0319 132.042 36.462 133.766 36.4308C134.624 36.423 135.522 36.5401 136.38 36.868C137.23 37.188 138.015 37.7267 138.585 38.3824C139.755 39.6939 140.124 41.3254 139.875 42.8243C138.697 41.8016 137.719 40.9429 136.741 40.5214C135.787 40.0686 134.897 39.9749 133.83 39.9827C132.772 39.9983 131.577 40.1701 130.303 40.3965C129.02 40.6151 127.673 40.8805 126.118 41.0444V41.0522Z" fill="#5F3A1A"/>
    <path d="M116.071 41.7627C114.508 41.5988 113.169 41.3334 111.886 41.1148C110.612 40.8884 109.417 40.7088 108.359 40.701C107.293 40.701 106.403 40.7947 105.449 41.2397C104.47 41.6612 103.492 42.5199 102.314 43.5426C102.065 42.0437 102.434 40.4122 103.605 39.1007C104.182 38.445 104.959 37.9063 105.809 37.5863C106.659 37.2584 107.565 37.1335 108.423 37.1491C110.147 37.1881 111.678 37.7502 112.969 38.5387C114.252 39.3505 115.358 40.381 116.071 41.7705V41.7627Z" fill="#3B2416"/>
    <path d="M97.1667 55.8845C97.1667 55.8845 98.0165 99.8424 121.034 100.248C144.052 100.646 144.525 56.829 144.525 56.829C144.525 56.829 136.788 65.7205 121.427 66.1109C106.026 66.5012 97.1667 55.8923 97.1667 55.8923V55.8845Z" fill="#5F3A1A"/>
    <mask id="mask6_3030_7079" style="mask-type:luminance" maskUnits="userSpaceOnUse" x="97" y="55" width="48" height="46">
    <path d="M97.1667 55.8845C97.1667 55.8845 98.0165 99.8424 121.034 100.248C144.052 100.646 144.525 56.829 144.525 56.829C144.525 56.829 136.788 65.7205 121.427 66.1109C106.026 66.5012 97.1667 55.8923 97.1667 55.8923V55.8845Z" fill="white"/>
    </mask>
    <g mask="url(#mask6_3030_7079)">
    <path d="M130.262 97.5317C124.049 93.6441 121.796 86.6417 121.034 81.1616C119.976 79.8189 121.179 76.6105 122.181 76.0953C117.298 65.986 123.993 66.1811 123.512 64.6043C123.023 63.0196 119.92 65.8064 118.605 62.8166C117.507 60.3185 120.738 59.4598 119.679 42.7775C119.262 36.267 113.233 31.2631 120.192 20.5215C127.151 9.77203 102.554 3.01949 86.9847 20.2638C67.0776 42.3091 111.846 125.767 130.262 97.5317Z" fill="#3B2416"/>
    </g>
    <path d="M111.59 69.7799C117.443 69.2959 118.124 68.5387 121.035 69.7565C124.065 68.406 125.749 68.8509 129.846 69.7018C129.196 73.082 127.192 81.1616 121.035 81.1616C114.044 81.1616 111.638 72.1687 111.59 69.7799Z" fill="#C29A6D"/>
    <mask id="mask7_3030_7079" style="mask-type:luminance" maskUnits="userSpaceOnUse" x="111" y="68" width="19" height="14">
    <path d="M111.59 69.7799C117.443 69.2959 118.124 68.5387 121.035 69.7565C124.065 68.406 125.749 68.8509 129.846 69.7018C129.196 73.082 127.192 81.1616 121.035 81.1616C114.044 81.1616 111.638 72.1687 111.59 69.7799Z" fill="white"/>
    </mask>
    <g mask="url(#mask7_3030_7079)">
    <path d="M121.3 89.6862C115.086 85.7986 123.448 83.808 121.035 80.7478C119.977 79.4051 121.099 76.7119 122.101 76.2045C117.211 66.1967 124.002 66.1889 123.513 64.612C123.023 63.0273 118.879 66.0718 117.564 63.0898C116.465 60.5917 120.739 59.4754 119.68 42.7853C119.263 36.2747 113.234 31.2708 120.193 20.5292C127.152 9.77979 102.555 3.02724 86.9856 20.2716C67.0786 42.3169 87.4907 94.7369 121.3 89.694V89.6862Z" fill="#AA7D50"/>
    </g>
    <path d="M129.557 69.9281C127.368 70.334 123.039 73.6205 111.847 69.9984C111.847 69.9984 115.19 76.1498 121.035 76.2045C125.965 76.2513 129.557 69.9359 129.557 69.9359V69.9281Z" fill="black"/>
    <mask id="mask8_3030_7079" style="mask-type:luminance" maskUnits="userSpaceOnUse" x="111" y="69" width="19" height="8">
    <path d="M129.557 69.9281C127.368 70.334 123.039 73.6205 111.847 69.9984C111.847 69.9984 115.19 76.1498 121.035 76.2045C125.965 76.2513 129.557 69.9359 129.557 69.9359V69.9281Z" fill="white"/>
    </mask>
    <g mask="url(#mask8_3030_7079)">
    <path d="M121.331 73.3006C115.783 73.3006 115.23 71.6925 112.576 68.648C109.923 65.6035 129.028 68.5777 129.028 68.5777C129.028 68.5777 126.815 73.3084 121.323 73.3084L121.331 73.3006Z" fill="white"/>
    </g>
    <path d="M191.427 159.889L184.733 156.774L160.697 145.58C160.697 145.58 159.462 136.002 153.698 132.582C152.719 130.303 151.589 127.805 150.571 125.822C148.037 120.92 151.838 111.677 148.671 111.677C145.504 111.677 140.83 121.396 141.078 124.003C141.271 126.002 142.962 129.491 143.315 132.543C139.459 133.964 136.34 136.392 134.296 138.32C132.524 139.991 131.866 142.489 132.556 144.799C134.56 151.482 139.579 165.291 146.771 165.291C156.263 165.291 158.797 163.441 158.797 163.441C158.797 163.441 178.415 187.477 192.974 189.327C207.534 191.177 191.419 159.881 191.419 159.881L191.427 159.889Z" fill="#AA7D50"/>
    <path d="M87.687 135.379C90.2686 121.218 81.6019 113.103 65.2465 132.525C55.8983 150.876 56.0426 177.363 59.5702 201.459C60.7648 209.642 49.1477 211.243 51.1681 222.238C51.6972 225.097 54.6957 226.116 55.9544 225.394C56.2992 226.854 59.5943 228.086 60.7969 227.307C61.0134 228.622 62.9055 230.176 65.4069 230.343C65.1824 232.334 70.6422 234.127 72.0612 231.97L77.3928 221.24C76.3505 225.815 77.962 229.038 80.8402 230.405C83.8307 231.824 85.4502 231.008 83.6142 228.58C81.7782 226.153 82.9247 222.529 83.1492 217.528C83.3817 212.277 76.6632 206.938 76.126 204.339C72.5182 186.768 77.3366 169.732 87.687 135.389V135.379Z" fill="#AA7D50"/>
    <mask id="mask9_3030_7079" style="mask-type:luminance" maskUnits="userSpaceOnUse" x="61" y="75" width="38" height="113">
    <path d="M98.2417 89.7649C100.823 75.6038 92.1565 67.4887 75.8012 86.9108C66.453 105.262 66.5973 131.749 70.1249 155.845C71.3195 164.028 59.7024 165.629 61.7228 176.624C62.2519 179.483 65.2504 180.502 66.5091 179.779C66.8539 181.24 70.149 182.472 71.3516 181.693C71.568 183.008 73.4601 184.562 75.9615 184.729C75.7371 186.72 81.1969 188.513 82.6159 186.356L87.9475 175.626C86.9052 180.201 88.5167 183.424 91.3949 184.791C94.3854 186.21 96.0049 185.394 94.1689 182.966C92.3329 180.538 93.4794 176.915 93.7039 171.914C93.9364 166.663 87.2179 161.324 86.6807 158.725C83.0729 141.153 87.8913 124.118 98.2417 89.7753V89.7649Z" fill="white"/>
    </mask>
    <g mask="url(#mask9_3030_7079)">
    <path d="M76.0597 125.252C59.8407 170.906 65.6612 234.21 70.9607 237.657C76.2601 241.104 20.4756 244.259 27.4587 229.204C34.4418 214.149 26.3683 138.784 23.5141 133.393C20.66 128.002 76.0677 125.247 76.0677 125.247L76.0597 125.252Z" fill="#AA7E51"/>
    </g>
    <path d="M76.256 179.761C74.877 188.044 50.9532 172.187 53.8635 162.086C56.7737 151.992 70.9872 105.742 85.6108 108.583C100.098 111.394 79.8784 157.108 75.1 185.742L76.256 179.761Z" fill="#FFC41B"/>
    <mask id="mask10_3030_7079" style="mask-type:luminance" maskUnits="userSpaceOnUse" x="49" y="108" width="42" height="80">
    <path d="M75.092 185.742C73.713 194.025 49.7591 170.069 49.7587 167.218C52.669 157.124 70.9872 105.742 85.6108 108.584C100.098 111.394 79.8784 157.108 75.1 185.742H75.092Z" fill="white"/>
    </mask>
    <g mask="url(#mask10_3030_7079)">
    <path d="M58.3031 171.451C57.4533 151.014 75.0034 122.33 94.4615 111.027C110.191 101.885 82.974 178.323 76.7125 180.673C70.4509 183.031 66.8568 179.407 66.8568 179.407L58.3031 171.451Z" fill="#FFC41B"/>
    </g>
    <path d="M185.062 157.688C185.062 157.688 194.322 185.432 194.242 189.413C194.242 189.413 200.696 190.49 198.659 179.39C198.659 179.39 194.602 164.518 191.435 159.889L184.741 156.775L185.062 157.688Z" fill="#CE9663"/>
    </g>
    <path d="M148.246 59.6075C149.376 54.213 147.669 49.3188 144.432 48.6759C141.196 48.033 137.656 51.885 136.526 57.2795C135.395 62.674 137.103 67.5683 140.339 68.2111C143.576 68.854 147.116 65.0021 148.246 59.6075Z" fill="#C29A6D"/>
    <path d="M102.515 68.4456C105.751 67.8027 107.459 62.9084 106.329 57.5139C105.198 52.1194 101.658 48.2674 98.4219 48.9103C95.1854 49.5532 93.4779 54.4475 94.6081 59.842C95.7383 65.2365 99.2782 69.0884 102.515 68.4456Z" fill="#AA7D50"/>
    <path d="M145.085 50.4642C145.061 72.6578 135.536 89.2777 121.314 89.2777C107.091 89.2777 97.2455 71.7991 97.2375 49.6055C97.2375 19.7616 96.2353 19.3478 121.378 22.2674C146.271 26.9357 145.117 16.8888 145.085 50.4642Z" fill="#C29A6D"/>
    <mask id="mask11_3030_7079" style="mask-type:luminance" maskUnits="userSpaceOnUse" x="97" y="21" width="49" height="69">
    <path d="M145.085 50.4642C145.061 72.6578 135.536 89.2777 121.314 89.2777C107.091 89.2777 97.2455 71.7991 97.2375 49.6055C97.2375 19.7616 96.2353 19.3478 121.378 22.2674C146.271 26.9357 145.117 16.8888 145.085 50.4642Z" fill="white"/>
    </mask>
    <g mask="url(#mask11_3030_7079)">
    <path d="M121.61 89.2698C115.397 85.3822 123.174 82.3221 120.76 79.2542C119.702 77.9115 120.015 76.28 121.017 75.7647C117.642 66.077 124.312 65.7647 123.823 64.18C123.334 62.5953 118.62 65.2885 117.305 62.3065C116.206 59.8084 121.049 59.0434 119.991 42.3533C119.574 35.8428 113.545 30.8389 120.504 20.0972C127.463 9.34781 102.866 2.59527 87.296 19.8396C67.389 41.8849 87.8011 94.305 121.61 89.262V89.2698Z" fill="#AA7D50"/>
    </g>
    <path d="M90.4876 22.3143C89.3732 30.269 94.1435 38.7624 107.925 33.2433C125.579 26.1707 140.532 25.7101 144.837 30.3081C144.019 15.3276 130.751 5.24169 112.848 7.25575C100.605 8.63748 91.6661 13.9536 90.4876 22.3221V22.3143Z" fill="#3B2416"/>
    <mask id="mask12_3030_7079" style="mask-type:luminance" maskUnits="userSpaceOnUse" x="90" y="7" width="55" height="29">
    <path d="M90.4876 22.3143C89.3732 30.269 94.1435 38.7624 107.925 33.2433C125.579 26.1707 140.532 25.7101 144.837 30.3081C144.019 15.3276 130.751 5.24169 112.848 7.25575C100.605 8.63748 91.6661 13.9536 90.4876 22.3221V22.3143Z" fill="white"/>
    </mask>
    <g mask="url(#mask12_3030_7079)">
    <path d="M156.574 44.5079C158.491 -18.6693 60.3424 1.52585 79.0789 5.1168C94.7848 8.13008 115.542 9.05904 116.816 28.7078C117.65 41.5727 154.674 107.677 156.582 44.5001L156.574 44.5079Z" fill="#5F3A1A"/>
    </g>
    <path d="M133.308 48.4735C137.581 48.4735 141.045 46.2157 141.045 43.4306C141.045 40.6454 137.581 38.3876 133.308 38.3876C129.035 38.3876 125.571 40.6454 125.571 43.4306C125.571 46.2157 129.035 48.4735 133.308 48.4735Z" fill="#AA7D50"/>
    <path d="M133.859 47.3071C133.884 45.794 133.268 44.5577 132.484 44.5457C131.701 44.5337 131.046 45.7506 131.021 47.2637C130.997 48.7768 131.612 50.0131 132.396 50.0251C133.18 50.0371 133.835 48.8202 133.859 47.3071Z" fill="black"/>
    <path d="M110.877 50.0365C111.66 50.0245 112.276 48.7882 112.251 47.2751C112.227 45.762 111.572 44.5451 110.788 44.5571C110.005 44.5691 109.389 45.8054 109.414 47.3185C109.438 48.8316 110.093 50.0485 110.877 50.0365Z" fill="black"/>
    <path d="M126.429 40.6359C127.143 39.2542 128.257 38.2159 129.532 37.404C130.823 36.6156 132.354 36.0457 134.078 36.0145C134.936 36.0067 135.834 36.1238 136.691 36.4517C137.541 36.7717 138.327 37.3104 138.896 37.9661C140.067 39.2776 140.435 40.9091 140.187 42.4079C139.008 41.3853 138.03 40.5266 137.052 40.1051C136.098 39.6523 135.208 39.5586 134.142 39.5664C133.084 39.582 131.889 39.7538 130.614 39.9802C129.331 40.1987 127.985 40.4641 126.429 40.6281V40.6359Z" fill="#5F3A1A"/>
    <path d="M116.383 41.3541C114.82 41.1901 113.481 40.9247 112.198 40.7061C110.923 40.4798 109.729 40.3002 108.67 40.2924C107.604 40.2924 106.714 40.3861 105.76 40.831C104.782 41.2526 103.804 42.1113 102.625 43.1339C102.377 41.6351 102.746 40.0036 103.916 38.6921C104.493 38.0364 105.271 37.4977 106.121 37.1776C106.971 36.8498 107.877 36.7249 108.735 36.7405C110.458 36.7795 111.99 37.3416 113.28 38.13C114.563 38.9419 115.67 39.9723 116.383 41.3619V41.3541Z" fill="#3B2416"/>
    <path d="M97.4783 55.4681C97.4783 55.4681 98.3281 99.426 121.346 99.832C144.364 100.23 144.837 56.4127 144.837 56.4127C144.837 56.4127 137.1 65.3042 121.739 65.6945C106.337 66.0849 97.4783 55.4759 97.4783 55.4759V55.4681Z" fill="#5F3A1A"/>
    <mask id="mask13_3030_7079" style="mask-type:luminance" maskUnits="userSpaceOnUse" x="97" y="55" width="48" height="45">
    <path d="M97.4783 55.4681C97.4783 55.4681 98.3281 99.426 121.346 99.832C144.364 100.23 144.837 56.4127 144.837 56.4127C144.837 56.4127 137.1 65.3042 121.739 65.6945C106.337 66.0849 97.4783 55.4759 97.4783 55.4759V55.4681Z" fill="white"/>
    </mask>
    <g mask="url(#mask13_3030_7079)">
    <path d="M130.574 97.1153C124.36 93.2277 122.107 86.2254 121.346 80.7453C120.288 79.4026 121.49 76.1942 122.492 75.6789C117.61 65.5696 124.304 65.7648 123.823 64.1879C123.334 62.6032 120.231 65.3901 118.917 62.4002C117.818 59.9022 121.049 59.0435 119.991 42.3612C119.574 35.8506 113.545 30.8467 120.504 20.1051C127.463 9.35569 102.866 2.60314 87.2963 19.8475C67.3892 41.8928 112.158 125.351 130.574 97.1153Z" fill="#3B2416"/>
    </g>
    <path d="M111.902 69.3635C117.755 68.8795 118.436 68.1223 121.346 69.3401C124.377 67.9896 126.06 68.4345 130.157 69.2854C129.508 72.6656 127.504 80.7453 121.346 80.7453C114.355 80.7453 111.95 71.7523 111.902 69.3635Z" fill="#C29A6D"/>
    <mask id="mask14_3030_7079" style="mask-type:luminance" maskUnits="userSpaceOnUse" x="111" y="68" width="20" height="13">
    <path d="M111.902 69.3635C117.755 68.8795 118.436 68.1223 121.346 69.3401C124.377 67.9896 126.06 68.4345 130.157 69.2854C129.508 72.6656 127.504 80.7453 121.346 80.7453C114.355 80.7453 111.95 71.7523 111.902 69.3635Z" fill="white"/>
    </mask>
    <g mask="url(#mask14_3030_7079)">
    <path d="M121.611 89.2699C115.398 85.3823 123.76 83.3916 121.347 80.3315C120.289 78.9888 121.411 76.2956 122.413 75.7882C117.523 65.7804 124.313 65.7726 123.824 64.1957C123.335 62.611 119.19 65.6555 117.875 62.6734C116.777 60.1754 121.05 59.0591 119.992 42.369C119.575 35.8584 113.546 30.8545 120.505 20.1129C127.464 9.36347 102.867 2.61092 87.2972 19.8553C67.3902 41.9006 87.8023 94.3206 121.611 89.2777V89.2699Z" fill="#AA7D50"/>
    </g>
    <path d="M129.869 69.5118C127.68 69.9177 123.351 73.2042 112.158 69.582C112.158 69.582 115.502 75.7335 121.346 75.7881C126.277 75.835 129.869 69.5196 129.869 69.5196V69.5118Z" fill="black"/>
    <mask id="mask15_3030_7079" style="mask-type:luminance" maskUnits="userSpaceOnUse" x="112" y="69" width="18" height="7">
    <path d="M129.869 69.5118C127.68 69.9177 123.351 73.2042 112.158 69.582C112.158 69.582 115.502 75.7335 121.346 75.7881C126.277 75.835 129.869 69.5196 129.869 69.5196V69.5118Z" fill="white"/>
    </mask>
    <g mask="url(#mask15_3030_7079)">
    <path d="M121.643 72.892C116.095 72.892 115.542 71.2839 112.888 68.2394C110.234 65.1949 129.34 68.1691 129.34 68.1691C129.34 68.1691 127.127 72.8998 121.635 72.8998L121.643 72.892Z" fill="white"/>
    </g>
    <path d="M168 94C176.284 94 183 87.2843 183 79C183 70.7157 176.284 64 168 64C159.716 64 153 70.7157 153 79C153 87.2843 159.716 94 168 94Z" fill="#0FAF4B"/>
    <path d="M174.202 73.4861C171.286 76.4028 168.369 79.8056 164.732 82.701C163.339 80.258 162.727 79.5057 161.454 77.2811C160.972 76.4384 159.615 77.0184 160.105 77.8611C161.724 80.6907 162.475 81.7965 164.094 84.6261C164.374 85.1132 165.129 85.1209 165.401 84.6261C168.855 81.75 172.744 77.375 175.466 74.4583C175.933 73.6079 175.661 73 174.688 73L174.202 73.4861Z" fill="white"/>
    <defs>
    <filter id="filter0_d_3030_7079" x="0" y="0" width="254" height="254" filterUnits="userSpaceOnUse" color-interpolation-filters="sRGB">
    <feFlood flood-opacity="0" result="BackgroundImageFix"/>
    <feColorMatrix in="SourceAlpha" type="matrix" values="0 0 0 0 0 0 0 0 0 0 0 0 0 0 0 0 0 0 127 0" result="hardAlpha"/>
    <feOffset dy="4"/>
    <feGaussianBlur stdDeviation="6"/>
    <feComposite in2="hardAlpha" operator="out"/>
    <feColorMatrix type="matrix" values="0 0 0 0 0 0 0 0 0 0 0 0 0 0 0 0 0 0 0.1 0"/>
    <feBlend mode="normal" in2="BackgroundImageFix" result="effect1_dropShadow_3030_7079"/>
    <feBlend mode="normal" in="SourceGraphic" in2="effect1_dropShadow_3030_7079" result="shape"/>
    </filter>
    </defs>
    </svg>
    