<svg width="193" height="215" viewBox="0 10 193 215" fill="none" xmlns="http://www.w3.org/2000/svg">
    <path
        d="M96.8344 210.508C149.265 210.508 189.249 170.409 189.249 118.795C189.249 67.1805 149.265 25.3389 96.8344 25.3389C44.4038 25.3389 4.07996 67.2924 4.07996 118.907C4.07996 170.521 44.4038 210.508 96.8344 210.508Z"
        stroke="#0FAF4B" stroke-width="7" stroke-miterlimit="10" />
    <mask id="mask0_134_15711" style="mask-type:luminance" maskUnits="userSpaceOnUse" x="5" y="30"
        width="182" height="178">
        <path
            d="M96.2469 207.155C146.312 207.155 186.897 167.691 186.897 119.009C186.897 70.3268 146.312 30.8623 96.2469 30.8623C46.1821 30.8623 5.59668 70.3268 5.59668 119.009C5.59668 167.691 46.1821 207.155 96.2469 207.155Z"
            fill="white" />
    </mask>
    <g mask="url(#mask0_134_15711)">
        <path
            d="M145.717 196.614C137.093 159.067 167.255 130.734 151.64 111.858C136.024 92.9811 69.5845 97.3226 55.9301 103.371C28.2033 115.658 60.5969 162.688 54.9712 196.614C54.5367 199.225 75.7499 206.339 99.0559 206.33C120.804 205.187 146.182 197.865 144.846 192.041L145.717 196.614Z"
            fill="#F7E600" />
        <mask id="mask1_134_15711" style="mask-type:luminance" maskUnits="userSpaceOnUse" x="44"
            y="94" width="113" height="114">
            <path
                d="M145.623 196.589C137.031 157.784 167.081 128.5 151.524 108.991C135.966 89.4814 69.7749 93.9684 56.1715 100.22C28.5483 112.919 58.9258 168.67 53.3211 203.733C52.4564 209.124 148.281 208.642 145.615 196.589H145.623Z"
                fill="white" />
        </mask>
        <g mask="url(#mask1_134_15711)">
            <path
                d="M144.144 123.345C164.56 149.995 171.56 242.77 155.299 227.016C139.029 211.261 123.695 250.286 123.879 270.381C124.254 310.487 14.3872 246.149 7.95448 242.146C7.61087 248.784 20.7319 117.638 36.3222 102.282C58.6488 80.2954 109.503 102.109 118.86 105.564C125.565 108.042 137.543 114.732 144.144 123.338V123.345Z"
                fill="#FFC41B" />
        </g>
        <path
            d="M109.808 95.9235C112.661 106.769 76.906 110.134 77.5409 98.0285C78.0231 88.7398 79.2608 79.8581 68.7166 58.1976L105.927 47.2344C105.927 47.2344 107.904 88.6694 109.808 95.9235Z"
            fill="#C29A6D" />
        <mask id="mask2_134_15711" style="mask-type:luminance" maskUnits="userSpaceOnUse" x="68"
            y="47" width="42" height="59">
            <path
                d="M109.808 95.9235C112.661 106.769 76.906 110.134 77.5409 98.0285C78.0231 88.7398 79.2608 79.8581 68.7166 58.1976L105.927 47.2344C105.927 47.2344 107.904 88.6694 109.808 95.9235Z"
                fill="white" />
        </mask>
        <g mask="url(#mask2_134_15711)">
            <path
                d="M84.1546 82.2527C85.8825 88.1295 97.2143 72.2441 98.0501 79.5842C98.9342 87.2844 100.895 92.6447 109.961 98.7328C115.361 102.356 74.4141 129.087 74.4141 129.087L57.2155 57.9473C57.2155 57.9473 82.4187 76.3759 84.1466 82.2527H84.1546Z"
                fill="#AA7D50" />
        </g>
        <path
            d="M152.228 183.534C158.658 186.938 170.247 189.724 175.639 184.45C190.154 170.247 154.261 103.145 141.684 106.197C130.658 108.873 124.252 168.736 152.22 183.542L152.228 183.534Z"
            fill="#F7E600" />
        <mask id="mask3_134_15711" style="mask-type:luminance" maskUnits="userSpaceOnUse" x="130"
            y="106" width="48" height="82">
            <path
                d="M150.515 183.819C156.945 187.223 168.534 190.009 173.926 184.734C188.441 170.531 152.549 103.429 139.971 106.481C128.945 109.158 122.539 169.021 150.507 183.827L150.515 183.819Z"
                fill="white" />
        </mask>
        <g mask="url(#mask3_134_15711)">
            <path
                d="M169.543 204.497C170.395 184.011 151.975 124.241 132.47 112.91C116.702 103.747 133.981 193.487 140.257 195.843C146.534 198.206 169.543 204.49 169.543 204.49V204.497Z"
                fill="#FFC41B" />
        </g>
        <path
            d="M119.296 53.1528C120.429 47.7452 118.717 42.8391 115.473 42.1947C112.229 41.5502 108.68 45.4115 107.547 50.8191C106.414 56.2266 108.126 61.1328 111.37 61.7772C114.615 62.4216 118.163 58.5603 119.296 53.1528Z"
            fill="#C29A6D" />
        <path
            d="M73.4563 62.0129C76.7006 61.3684 78.4123 56.4623 77.2793 51.0548C76.1464 45.6472 72.5979 41.7859 69.3535 42.4303C66.1092 43.0748 64.3976 47.9809 65.5305 53.3884C66.6634 58.796 70.2119 62.6573 73.4563 62.0129Z"
            fill="#AA7D50" />
        <path
            d="M116.124 43.9793C116.1 66.2267 106.552 82.8868 92.295 82.8868C78.0378 82.8868 68.1687 65.3659 68.1606 43.1185C68.1606 13.2024 67.156 12.7876 92.3593 15.7143C117.313 20.3938 116.156 10.3227 116.124 43.9793Z"
            fill="#C29A6D" />
        <mask id="mask4_134_15711" style="mask-type:luminance" maskUnits="userSpaceOnUse" x="68"
            y="14" width="49" height="69">
            <path
                d="M116.124 43.9793C116.1 66.2267 106.552 82.8868 92.295 82.8868C78.0378 82.8868 68.1687 65.3659 68.1606 43.1185C68.1606 13.2024 67.156 12.7876 92.3593 15.7143C117.313 20.3938 116.156 10.3227 116.124 43.9793Z"
                fill="white" />
        </mask>
        <g mask="url(#mask4_134_15711)">
            <path
                d="M92.5924 82.887C86.3639 78.99 94.1595 75.9225 91.7405 72.8471C90.6796 71.5012 90.993 69.8657 91.9976 69.3492C88.6142 59.638 95.3007 59.325 94.8105 57.7365C94.3203 56.1479 89.5947 58.8477 88.2766 55.8584C87.1756 53.3543 92.0298 52.5874 90.9689 35.8569C90.551 29.3306 84.5074 24.3146 91.4833 13.5469C98.4592 2.77148 73.8025 -3.99741 58.1951 13.2887C38.2399 35.3874 58.7014 87.9343 92.5924 82.8792V82.887Z"
                fill="#AA7D50" />
        </g>
        <path
            d="M61.3944 15.7689C60.2773 23.7429 65.0591 32.2568 78.8743 26.7243C96.5712 19.6346 111.56 19.1729 115.875 23.782C115.064 8.7574 101.755 -1.3529 83.8088 0.66603C71.5367 2.05111 62.5758 7.38015 61.3944 15.7689Z"
            fill="#3B2416" />
        <mask id="mask5_134_15711" style="mask-type:luminance" maskUnits="userSpaceOnUse" x="61"
            y="0" width="55" height="29">
            <path
                d="M61.3944 15.7689C60.2773 23.7429 65.0591 32.2568 78.8743 26.7243C96.5712 19.6346 111.56 19.1729 115.875 23.782C115.064 8.7574 101.755 -1.3529 83.8088 0.66603C71.5367 2.05111 62.5758 7.38015 61.3944 15.7689Z"
                fill="white" />
        </mask>
        <g mask="url(#mask5_134_15711)">
        </g>
        <path
            d="M104.319 41.9838C108.602 41.9838 112.074 39.7206 112.074 36.9287C112.074 34.1368 108.602 31.8735 104.319 31.8735C100.035 31.8735 96.5631 34.1368 96.5631 36.9287C96.5631 39.7206 100.035 41.9838 104.319 41.9838Z"
            fill="#AA7D50" />
        <path
            d="M104.866 40.8265C104.891 39.3097 104.274 38.0704 103.488 38.0584C102.703 38.0463 102.046 39.2662 102.022 40.783C101.997 42.2997 102.614 43.539 103.4 43.5511C104.185 43.5631 104.842 42.3432 104.866 40.8265Z"
            fill="black" />
        <path
            d="M81.8376 43.5476C82.6231 43.5356 83.2401 42.2963 83.2156 40.7795C83.1912 39.2627 82.5345 38.0429 81.749 38.0549C80.9635 38.0669 80.3465 39.3062 80.371 40.823C80.3954 42.3398 81.0521 43.5596 81.8376 43.5476Z"
            fill="black" />
        <path
            d="M97.4231 34.1349C98.1384 32.7498 99.2555 31.7091 100.533 30.8952C101.827 30.1049 103.362 29.5336 105.09 29.5023C105.95 29.4945 106.85 29.6119 107.71 29.9405C108.562 30.2614 109.35 30.8013 109.92 31.4586C111.094 32.7733 111.463 34.4088 111.214 35.9112C110.033 34.8861 109.052 34.0253 108.072 33.6028C107.115 33.1489 106.223 33.055 105.154 33.0628C104.094 33.0785 102.896 33.2506 101.618 33.4776C100.332 33.6967 98.9822 33.9627 97.4231 34.1271V34.1349Z"
            fill="#5F3A1A" />
        <path
            d="M87.3526 34.8472C85.7855 34.6829 84.4433 34.4169 83.1574 34.1977C81.8796 33.9708 80.6821 33.7908 79.6213 33.783C78.5524 33.783 77.6603 33.8769 76.7039 34.3229C75.7235 34.7455 74.743 35.6063 73.5616 36.6314C73.3124 35.129 73.6821 33.4935 74.8555 32.1788C75.4341 31.5215 76.2137 30.9815 77.0656 30.6607C77.9175 30.332 78.8256 30.2068 79.6856 30.2225C81.4135 30.2616 82.9485 30.825 84.2424 31.6154C85.5283 32.4292 86.6374 33.4622 87.3526 34.8551V34.8472Z"
            fill="#3B2416" />
        <path
            d="M68.402 49.0029C68.402 49.0029 69.2539 93.0673 92.3274 93.4742C115.401 93.8733 115.875 49.9498 115.875 49.9498C115.875 49.9498 108.12 58.8628 92.7212 59.2541C77.2826 59.6454 68.402 49.0108 68.402 49.0108V49.0029Z"
            fill="#5F3A1A" />
        <mask id="mask6_134_15711" style="mask-type:luminance" maskUnits="userSpaceOnUse" x="68"
            y="49" width="48" height="45">
            <path
                d="M68.402 49.0029C68.402 49.0029 69.2539 93.0673 92.3274 93.4742C115.401 93.8733 115.875 49.9498 115.875 49.9498C115.875 49.9498 108.12 58.8628 92.7212 59.2541C77.2826 59.6454 68.402 49.0108 68.402 49.0108V49.0029Z"
                fill="white" />
        </mask>
        <g mask="url(#mask6_134_15711)">
            <path
                d="M101.578 90.751C95.3491 86.854 93.0908 79.8346 92.3273 74.3413C91.2665 72.9953 92.472 69.7791 93.4766 69.2626C88.5822 59.1289 95.2929 59.3245 94.8107 57.7438C94.3204 56.1553 91.2102 58.9489 89.8922 55.9518C88.7911 53.4477 92.0299 52.5869 90.9691 35.8642C90.5512 29.3379 84.5076 24.3219 91.4834 13.5543C98.4593 2.77881 73.8026 -3.99009 58.1953 13.296C38.24 35.3947 83.1172 119.055 101.578 90.751Z"
                fill="#3B2416" />
        </g>
        <path
            d="M82.8605 62.9321C88.7273 62.447 89.4104 61.6879 92.3278 62.9087C95.3656 61.5549 97.0534 62.0009 101.16 62.8539C100.509 66.2422 98.5 74.3414 92.3278 74.3414C85.3197 74.3414 82.9087 65.3267 82.8605 62.9321Z"
            fill="#C29A6D" />
        <mask id="mask7_134_15711" style="mask-type:luminance" maskUnits="userSpaceOnUse" x="82"
            y="62" width="20" height="13">
            <path
                d="M82.8605 62.9321C88.7273 62.447 89.4104 61.6879 92.3278 62.9087C95.3656 61.5549 97.0534 62.0009 101.16 62.8539C100.509 66.2422 98.5 74.3414 92.3278 74.3414C85.3197 74.3414 82.9087 65.3267 82.8605 62.9321Z"
                fill="white" />
        </mask>
        <g mask="url(#mask7_134_15711)">
            <path
                d="M92.5935 82.8865C86.365 78.9895 94.7473 76.994 92.3282 73.9265C91.2674 72.5806 92.3925 69.8808 93.3971 69.3722C88.4947 59.3401 95.3018 59.3323 94.8116 57.7516C94.3214 56.1631 90.1664 59.2149 88.8483 56.2257C87.7473 53.7216 92.0309 52.6025 90.97 35.872C90.5521 29.3457 84.5085 24.3297 91.4844 13.5621C98.4603 2.78662 73.8036 -3.98227 58.1962 13.3038C38.241 35.4025 58.7025 87.9495 92.5935 82.8943V82.8865Z"
                fill="#AA7D50" />
        </g>
        <path
            d="M100.871 63.0806C98.6768 63.4875 94.337 66.7819 83.1177 63.151C83.1177 63.151 86.469 69.3173 92.3278 69.3721C97.2704 69.4191 100.871 63.0884 100.871 63.0884V63.0806Z"
            fill="black" />
        <mask id="mask8_134_15711" style="mask-type:luminance" maskUnits="userSpaceOnUse" x="83"
            y="63" width="18" height="7">
            <path
                d="M100.871 63.0806C98.6768 63.4875 94.337 66.7819 83.1177 63.151C83.1177 63.151 86.469 69.3173 92.3278 69.3721C97.2704 69.4191 100.871 63.0884 100.871 63.0884V63.0806Z"
                fill="white" />
        </mask>
        <g mask="url(#mask8_134_15711)">
            <path
                d="M92.6251 66.4611C87.0637 66.4611 86.5091 64.8491 83.849 61.7973C81.1888 58.7454 100.34 61.7268 100.34 61.7268C100.34 61.7268 98.1222 66.469 92.6171 66.469L92.6251 66.4611Z"
                fill="white" />
        </g>
        <path
            d="M162.891 153.26L156.18 150.137L132.086 138.916C132.086 138.916 130.848 129.314 125.07 125.887C124.089 123.602 122.956 121.098 121.935 119.11C119.396 114.196 123.205 104.931 120.031 104.931C116.856 104.931 112.171 114.673 112.42 117.287C112.613 119.29 114.309 122.788 114.662 125.848C110.796 127.272 107.67 129.706 105.621 131.638C103.845 133.313 103.186 135.817 103.877 138.133C105.886 144.832 110.917 158.675 118.126 158.675C127.641 158.675 130.181 156.82 130.181 156.82C130.181 156.82 149.847 180.914 164.442 182.769C179.036 184.624 162.883 153.252 162.883 153.252L162.891 153.26Z"
            fill="#AA7D50" />
        <path
            d="M58.8993 128.69C61.4872 114.495 52.7994 106.36 36.4045 125.829C27.0337 144.225 27.1783 170.776 30.7145 194.93C31.912 203.133 20.2667 204.738 22.292 215.759C22.8224 218.626 25.8281 219.647 27.0899 218.923C27.4355 220.387 30.7386 221.622 31.9441 220.84C32.1611 222.159 34.0578 223.717 36.5652 223.884C36.3402 225.88 41.8132 227.677 43.2357 225.515L48.5802 214.759C47.5354 219.345 49.1508 222.576 52.036 223.946C55.0337 225.369 56.6571 224.551 54.8167 222.117C52.9763 219.683 54.1255 216.051 54.3505 211.038C54.5836 205.775 47.8488 200.423 47.3104 197.817C43.6938 180.203 48.5239 163.126 58.8993 128.7V128.69Z"
            fill="#AA7D50" />
        <mask id="mask9_134_15711" style="mask-type:luminance" maskUnits="userSpaceOnUse" x="32"
            y="68" width="38" height="113">
            <path
                d="M69.4795 82.9655C72.0674 68.7701 63.3796 60.6353 46.9847 80.1045C37.6139 98.5001 37.7585 125.051 41.2947 149.205C42.4922 157.408 30.8469 159.013 32.8722 170.035C33.4026 172.901 36.4083 173.922 37.6701 173.198C38.0157 174.662 41.3188 175.897 42.5243 175.116C42.7413 176.434 44.638 177.992 47.1454 178.159C46.9204 180.155 52.3934 181.953 53.8159 179.79L59.1604 169.034C58.1156 173.62 59.731 176.851 62.6162 178.222C65.6139 179.644 67.2373 178.826 65.3969 176.392C63.5565 173.959 64.7057 170.327 64.9307 165.313C65.1638 160.05 58.429 154.698 57.8906 152.092C54.274 134.478 59.1041 117.401 69.4795 82.9759V82.9655Z"
                fill="white" />
        </mask>
        <g mask="url(#mask9_134_15711)">
            <path
                d="M47.2439 118.538C30.9856 164.303 36.8202 227.761 42.1325 231.216C47.4448 234.671 -8.47483 237.834 -1.47483 222.742C5.52517 207.65 -2.56783 132.103 -5.42891 126.699C-8.28999 121.295 47.2519 118.533 47.2519 118.533L47.2439 118.538Z"
                fill="#AA7E51" />
        </g>
        <path
            d="M47.4406 173.18C46.0583 181.483 22.0766 165.588 24.9939 155.462C27.9112 145.344 42.1591 98.981 56.8181 101.829C71.3405 104.647 51.0718 150.472 46.2819 179.175L47.4406 173.18Z"
            fill="#FFC41B" />
        <mask id="mask10_134_15711" style="mask-type:luminance" maskUnits="userSpaceOnUse" x="20"
            y="101" width="42" height="80">
            <path
                d="M46.2739 179.175C44.8916 187.478 20.8796 163.464 20.8793 160.606C23.7966 150.488 42.1591 98.9816 56.8181 101.83C71.3405 104.647 51.0718 150.472 46.2819 179.175H46.2739Z"
                fill="white" />
        </mask>
        <g mask="url(#mask10_134_15711)">
            <path
                d="M29.4444 164.85C28.5925 144.363 46.1851 115.61 65.6903 104.279C81.4583 95.1156 54.175 171.739 47.8983 174.094C41.6216 176.457 38.0188 172.825 38.0188 172.825L29.4444 164.85Z"
                fill="#FFC41B" />
        </g>
        <path
            d="M156.51 151.053C156.51 151.053 165.792 178.864 165.712 182.855C165.712 182.855 172.181 183.935 170.14 172.807C170.14 172.807 166.074 157.9 162.899 153.26L156.188 150.137L156.51 151.053Z"
            fill="#CE9663" />
    </g>
    <path
        d="M119.605 52.7348C120.738 47.3272 119.026 42.4211 115.782 41.7767C112.538 41.1323 108.989 44.9935 107.856 50.4011C106.723 55.8087 108.435 60.7148 111.679 61.3592C114.924 62.0037 118.472 58.1424 119.605 52.7348Z"
        fill="#C29A6D" />
    <path
        d="M73.763 61.5944C77.0074 60.95 78.719 56.0439 77.5861 50.6363C76.4532 45.2287 72.9047 41.3674 69.6603 42.0119C66.416 42.6563 64.7043 47.5624 65.8373 52.97C66.9702 58.3775 70.5187 62.2388 73.763 61.5944Z"
        fill="#AA7D50" />
    <path
        d="M116.436 43.5696C116.412 65.817 106.865 82.4771 92.6073 82.4771C78.3502 82.4771 68.481 64.9562 68.473 42.7089C68.473 12.7927 67.4684 12.378 92.6716 15.3046C117.626 19.9842 116.468 9.91298 116.436 43.5696Z"
        fill="#C29A6D" />
    <mask id="mask11_134_15711" style="mask-type:luminance" maskUnits="userSpaceOnUse" x="68" y="14"
        width="49" height="69">
        <path
            d="M116.436 43.5696C116.412 65.817 106.865 82.4771 92.6073 82.4771C78.3502 82.4771 68.481 64.9562 68.473 42.7089C68.473 12.7927 67.4684 12.378 92.6716 15.3046C117.626 19.9842 116.468 9.91298 116.436 43.5696Z"
            fill="white" />
    </mask>
    <g mask="url(#mask11_134_15711)">
        <path
            d="M92.9047 82.469C86.6763 78.572 94.4719 75.5045 92.0528 72.4292C90.992 71.0832 91.3054 69.4477 92.31 68.9313C88.9265 59.22 95.6131 58.907 95.1229 57.3185C94.6326 55.73 89.907 58.4297 88.589 55.4404C87.488 52.9363 92.3422 52.1694 91.2813 35.4389C90.8634 28.9126 84.8198 23.8966 91.7957 13.129C98.7716 2.35352 74.1148 -4.41538 58.5075 12.8707C38.5523 34.9694 59.0138 87.5164 92.9047 82.4612V82.469Z"
            fill="#AA7D50" />
    </g>
    <path
        d="M61.7068 15.3514C60.5896 23.3254 65.3715 31.8393 79.1867 26.3068C96.8836 19.2171 111.872 18.7554 116.188 23.3645C115.368 8.34774 102.067 -1.76256 84.1212 0.256367C71.8491 1.64145 62.8882 6.97048 61.7068 15.3592V15.3514Z"
        fill="#3B2416" />
    <mask id="mask12_134_15711" style="mask-type:luminance" maskUnits="userSpaceOnUse" x="61" y="0"
        width="56" height="29">
        <path
            d="M61.7068 15.3514C60.5896 23.3254 65.3715 31.8393 79.1867 26.3068C96.8836 19.2171 111.872 18.7554 116.188 23.3645C115.368 8.34774 102.067 -1.76256 84.1212 0.256367C71.8491 1.64145 62.8882 6.97048 61.7068 15.3592V15.3514Z"
            fill="white" />
    </mask>
    <g mask="url(#mask12_134_15711)">
        <path
            d="M127.954 37.5989C129.874 -25.7313 31.4885 -5.48722 50.2704 -1.88758C66.0144 1.13299 86.8215 2.0642 88.0993 21.7605C88.9351 34.6566 126.049 100.921 127.962 37.5911L127.954 37.5989Z"
            fill="#5F3A1A" />
    </g>
    <path
        d="M104.631 41.5742C108.914 41.5742 112.386 39.3109 112.386 36.519C112.386 33.7271 108.914 31.4639 104.631 31.4639C100.348 31.4639 96.8755 33.7271 96.8755 36.519C96.8755 39.3109 100.348 41.5742 104.631 41.5742Z"
        fill="#AA7D50" />
    <path
        d="M105.183 40.4046C105.208 38.8878 104.591 37.6485 103.805 37.6365C103.02 37.6245 102.363 38.8443 102.339 40.3611C102.314 41.8778 102.931 43.1172 103.717 43.1292C104.502 43.1412 105.159 41.9214 105.183 40.4046Z"
        fill="black" />
    <path
        d="M82.1453 43.1409C82.9309 43.1288 83.5478 41.8895 83.5234 40.3728C83.4989 38.856 82.8423 37.6362 82.0567 37.6482C81.2712 37.6602 80.6542 38.8995 80.6787 40.4163C80.7032 41.933 81.3598 43.1529 82.1453 43.1409Z"
        fill="black" />
    <path
        d="M97.7355 33.7174C98.4507 32.3323 99.5679 31.2916 100.846 30.4777C102.14 29.6874 103.675 29.1161 105.403 29.0848C106.262 29.077 107.163 29.1944 108.023 29.5231C108.874 29.8439 109.662 30.3838 110.233 31.0412C111.406 32.3558 111.776 33.9913 111.527 35.4938C110.345 34.4687 109.365 33.6079 108.384 33.1853C107.428 32.7314 106.536 32.6375 105.467 32.6454C104.406 32.661 103.208 32.8332 101.931 33.0601C100.645 33.2792 99.2946 33.5453 97.7355 33.7096V33.7174Z"
        fill="#5F3A1A" />
    <path
        d="M87.665 34.4371C86.0978 34.2728 84.7557 34.0067 83.4698 33.7876C82.192 33.5607 80.9945 33.3807 79.9337 33.3728C78.8648 33.3728 77.9727 33.4668 77.0163 33.9128C76.0358 34.3354 75.0554 35.1961 73.874 36.2213C73.6248 34.7188 73.9945 33.0833 75.1679 31.7687C75.7465 31.1113 76.5261 30.5714 77.378 30.2505C78.2299 29.9219 79.138 29.7967 79.9979 29.8123C81.7258 29.8515 83.2609 30.4149 84.5548 31.2052C85.8407 32.0191 86.9497 33.052 87.665 34.4449V34.4371Z"
        fill="#3B2416" />
    <path
        d="M68.7144 48.5854C68.7144 48.5854 69.5663 92.6498 92.6397 93.0567C115.713 93.4558 116.187 49.5323 116.187 49.5323C116.187 49.5323 108.432 58.4453 93.0335 58.8366C77.595 59.2279 68.7144 48.5933 68.7144 48.5933V48.5854Z"
        fill="#5F3A1A" />
    <mask id="mask13_134_15711" style="mask-type:luminance" maskUnits="userSpaceOnUse" x="68" y="48"
        width="49" height="46">
        <path
            d="M68.7144 48.5854C68.7144 48.5854 69.5663 92.6498 92.6397 93.0567C115.713 93.4558 116.187 49.5323 116.187 49.5323C116.187 49.5323 108.432 58.4453 93.0335 58.8366C77.595 59.2279 68.7144 48.5933 68.7144 48.5933V48.5854Z"
            fill="white" />
    </mask>
    <g mask="url(#mask13_134_15711)">
        <path
            d="M101.89 90.3335C95.6615 86.4365 93.4032 79.4172 92.6397 73.9238C91.5788 72.5778 92.7843 69.3616 93.7889 68.8452C88.8946 58.7114 95.6052 58.907 95.123 57.3263C94.6328 55.7378 91.5226 58.5314 90.2046 55.5343C89.1035 53.0302 92.3423 52.1694 91.2815 35.4467C90.8636 28.9204 84.8199 23.9044 91.7958 13.1368C98.7717 2.36133 74.115 -4.40757 58.5076 12.8785C38.5524 34.9772 83.4296 118.638 101.89 90.3335Z"
            fill="#3B2416" />
    </g>
    <path
        d="M83.1729 62.5147C89.0397 62.0295 89.7228 61.2704 92.6401 62.4912C95.678 61.1374 97.3657 61.5834 101.473 62.4364C100.822 65.8248 98.8124 73.924 92.6401 73.924C85.6321 73.924 83.2211 64.9092 83.1729 62.5147Z"
        fill="#C29A6D" />
    <mask id="mask14_134_15711" style="mask-type:luminance" maskUnits="userSpaceOnUse" x="83" y="61"
        width="19" height="13">
        <path
            d="M83.1729 62.5147C89.0397 62.0295 89.7228 61.2704 92.6401 62.4912C95.678 61.1374 97.3657 61.5834 101.473 62.4364C100.822 65.8248 98.8124 73.924 92.6401 73.924C85.6321 73.924 83.2211 64.9092 83.1729 62.5147Z"
            fill="white" />
    </mask>
    <g mask="url(#mask14_134_15711)">
        <path
            d="M92.9058 82.469C86.6774 78.572 95.0597 76.5766 92.6406 73.509C91.5798 72.1631 92.7049 69.4634 93.7095 68.9547C88.8071 58.9227 95.6142 58.9148 95.124 57.3341C94.6337 55.7456 90.4787 58.7975 89.1607 55.8082C88.0597 53.3041 92.3433 52.1851 91.2824 35.4546C90.8645 28.9282 84.8209 23.9122 91.7968 13.1446C98.7727 2.36914 74.1159 -4.39975 58.5086 12.8864C38.5534 34.985 59.0149 87.532 92.9058 82.4768V82.469Z"
            fill="#AA7D50" />
    </g>
    <path
        d="M101.183 62.6631C98.9892 63.07 94.6493 66.3645 83.4301 62.7335C83.4301 62.7335 86.7814 68.8999 92.6402 68.9546C97.5828 69.0016 101.183 62.6709 101.183 62.6709V62.6631Z"
        fill="black" />
    <mask id="mask15_134_15711" style="mask-type:luminance" maskUnits="userSpaceOnUse" x="83" y="62"
        width="19" height="7">
        <path
            d="M101.183 62.6631C98.9892 63.07 94.6493 66.3645 83.4301 62.7335C83.4301 62.7335 86.7814 68.8999 92.6402 68.9546C97.5828 69.0016 101.183 62.6709 101.183 62.6709V62.6631Z"
            fill="white" />
    </mask>
    <g mask="url(#mask15_134_15711)">
        <path
            d="M92.9375 66.0515C87.3761 66.0515 86.8215 64.4395 84.1614 61.3876C81.5012 58.3357 100.653 61.3172 100.653 61.3172C100.653 61.3172 98.4346 66.0593 92.9294 66.0593L92.9375 66.0515Z"
            fill="white" />
    </g>
    <path
        d="M140.789 89.161C149.878 89.161 157.247 81.9959 157.247 73.1574C157.247 64.3189 149.878 57.1538 140.789 57.1538C131.699 57.1538 124.331 64.3189 124.331 73.1574C124.331 81.9959 131.699 89.161 140.789 89.161Z"
        fill="#0FAF4B" />
    <path
        d="M149.292 67.7334C146.368 70.6571 143.444 74.0681 139.798 76.9706C138.402 74.5216 137.789 73.7675 136.513 71.5376C136.029 70.6928 134.669 71.2742 135.16 72.119C136.783 74.9554 137.536 76.0639 139.159 78.9003C139.44 79.3886 140.196 79.3963 140.469 78.9003C143.932 76.0173 147.83 71.6317 150.558 68.7079C151.026 67.8555 150.754 67.2461 149.779 67.2461L149.292 67.7334Z"
        fill="white" />
</svg>
    