<svg width="195" height="189" viewBox="5 0 195 189" fill="none" xmlns="http://www.w3.org/2000/svg">
    <path d="M129.686 18.9521L118.971 156.016L183.39 161.052L194.105 23.988L129.686 18.9521Z"
        fill="#0FAF4B" />
    <path d="M132.487 22.8398L122.21 154.292L180.746 158.868L191.022 27.4158L132.487 22.8398Z"
        fill="#005930" />
    <path d="M135.136 26.1248L125.312 151.787L178.311 155.93L188.134 30.2679L135.136 26.1248Z"
        fill="#0FAF4B" />
    <path
        d="M159.302 64.0769C162.562 64.0769 165.204 61.4347 165.204 58.1754C165.204 54.9161 162.562 52.2739 159.302 52.2739C156.043 52.2739 153.401 54.9161 153.401 58.1754C153.401 61.4347 156.043 64.0769 159.302 64.0769Z"
        fill="#005930" />
    <path
        d="M154.576 124.445C157.835 124.445 160.477 121.803 160.477 118.544C160.477 115.284 157.835 112.642 154.576 112.642C151.317 112.642 148.674 115.284 148.674 118.544C148.674 121.803 151.317 124.445 154.576 124.445Z"
        fill="#005930" />
    <path
        d="M157.216 102.624C165.718 102.624 172.609 95.7328 172.609 87.2316C172.609 78.7304 165.718 71.8389 157.216 71.8389C148.715 71.8389 141.824 78.7304 141.824 87.2316C141.824 95.7328 148.715 102.624 157.216 102.624Z"
        fill="#005930" />
    <path
        d="M175.993 158.538C178.925 158.538 181.302 156.161 181.302 153.229C181.302 150.297 178.925 147.919 175.993 147.919C173.06 147.919 170.683 150.297 170.683 153.229C170.683 156.161 173.06 158.538 175.993 158.538Z"
        fill="#005930" />
    <path
        d="M129.316 154.094C132.248 154.094 134.625 151.716 134.625 148.784C134.625 145.852 132.248 143.475 129.316 143.475C126.383 143.475 124.006 145.852 124.006 148.784C124.006 151.716 126.383 154.094 129.316 154.094Z"
        fill="#005930" />
    <path
        d="M184.543 38.0652C187.476 38.0652 189.853 35.6881 189.853 32.7558C189.853 29.8234 187.476 27.4463 184.543 27.4463C181.611 27.4463 179.234 29.8234 179.234 32.7558C179.234 35.6881 181.611 38.0652 184.543 38.0652Z"
        fill="#005930" />
    <path
        d="M137.859 33.6204C140.791 33.6204 143.168 31.2433 143.168 28.3109C143.168 25.3786 140.791 23.0015 137.859 23.0015C134.926 23.0015 132.549 25.3786 132.549 28.3109C132.549 31.2433 134.926 33.6204 137.859 33.6204Z"
        fill="#005930" />
    <path d="M169.637 13.0898L105.103 16.3477L112.034 153.646L176.568 150.388L169.637 13.0898Z"
        fill="#0FAF4B" />
    <path d="M167.014 16.8713L108.375 19.8315L115.022 151.508L173.661 148.547L167.014 16.8713Z"
        fill="#005930" />
    <path d="M164.522 20.0829L111.429 22.7632L117.784 148.639L170.877 145.959L164.522 20.0829Z"
        fill="#0FAF4B" />
    <path
        d="M139.483 57.3206C142.742 57.3206 145.385 54.6784 145.385 51.4191C145.385 48.1598 142.742 45.5176 139.483 45.5176C136.224 45.5176 133.582 48.1598 133.582 51.4191C133.582 54.6784 136.224 57.3206 139.483 57.3206Z"
        fill="#005930" />
    <path
        d="M142.537 117.792C145.796 117.792 148.438 115.15 148.438 111.89C148.438 108.631 145.796 105.989 142.537 105.989C139.277 105.989 136.635 108.631 136.635 111.89C136.635 115.15 139.277 117.792 142.537 117.792Z"
        fill="#005930" />
    <path
        d="M141.146 95.8963C149.647 95.8963 156.539 89.0048 156.539 80.5036C156.539 72.0024 149.647 65.1108 141.146 65.1108C132.645 65.1108 125.753 72.0024 125.753 80.5036C125.753 89.0048 132.645 95.8963 141.146 95.8963Z"
        fill="#005930" />
    <path
        d="M168.23 148.859C171.162 148.859 173.539 146.482 173.539 143.55C173.539 140.617 171.162 138.24 168.23 138.24C165.298 138.24 162.92 140.617 162.92 143.55C162.92 146.482 165.298 148.859 168.23 148.859Z"
        fill="#005930" />
    <path
        d="M121.366 150.438C124.298 150.438 126.675 148.061 126.675 145.128C126.675 142.196 124.298 139.819 121.366 139.819C118.433 139.819 116.056 142.196 116.056 145.128C116.056 148.061 118.433 150.438 121.366 150.438Z"
        fill="#005930" />
    <path
        d="M161.256 28.2825C164.189 28.2825 166.566 25.9054 166.566 22.973C166.566 20.0407 164.189 17.6636 161.256 17.6636C158.324 17.6636 155.947 20.0407 155.947 22.973C155.947 25.9054 158.324 28.2825 161.256 28.2825Z"
        fill="#005930" />
    <path
        d="M114.392 29.8616C117.324 29.8616 119.701 27.4845 119.701 24.5521C119.701 21.6198 117.324 19.2427 114.392 19.2427C111.46 19.2427 109.083 21.6198 109.083 24.5521C109.083 27.4845 111.46 29.8616 114.392 29.8616Z"
        fill="#005930" />
    <path d="M139.496 3.82221L77.1294 20.7202L113.081 153.409L175.448 136.511L139.496 3.82221Z"
        fill="#0FAF4B" />
    <path d="M137.744 8.08771L81.0728 23.4424L115.552 150.698L172.223 135.343L137.744 8.08771Z"
        fill="#005930" />
    <path d="M135.989 11.7471L84.6782 25.6494L117.639 147.3L168.949 133.397L135.989 11.7471Z"
        fill="#0FAF4B" />
    <path
        d="M118.189 53.5989C121.448 53.5989 124.091 50.9567 124.091 47.6974C124.091 44.4381 121.448 41.7959 118.189 41.7959C114.93 41.7959 112.288 44.4381 112.288 47.6974C112.288 50.9567 114.93 53.5989 118.189 53.5989Z"
        fill="#005930" />
    <path
        d="M134.014 112.04C137.274 112.04 139.916 109.398 139.916 106.139C139.916 102.879 137.274 100.237 134.014 100.237C130.755 100.237 128.113 102.879 128.113 106.139C128.113 109.398 130.755 112.04 134.014 112.04Z"
        fill="#005930" />
    <path
        d="M125.98 91.1502C134.481 91.1502 141.373 84.2587 141.373 75.7575C141.373 67.2563 134.481 60.3647 125.98 60.3647C117.479 60.3647 110.587 67.2563 110.587 75.7575C110.587 84.2587 117.479 91.1502 125.98 91.1502Z"
        fill="#005930" />
    <path
        d="M165.853 136.925C168.785 136.925 171.162 134.547 171.162 131.615C171.162 128.683 168.785 126.306 165.853 126.306C162.921 126.306 160.543 128.683 160.543 131.615C160.543 134.547 162.921 136.925 165.853 136.925Z"
        fill="#005930" />
    <path
        d="M120.388 148.427C123.32 148.427 125.698 146.05 125.698 143.118C125.698 140.185 123.32 137.808 120.388 137.808C117.456 137.808 115.079 140.185 115.079 143.118C115.079 146.05 117.456 148.427 120.388 148.427Z"
        fill="#005930" />
    <path
        d="M133.413 20.5769C136.345 20.5769 138.722 18.1998 138.722 15.2675C138.722 12.3351 136.345 9.95801 133.413 9.95801C130.48 9.95801 128.103 12.3351 128.103 15.2675C128.103 18.1998 130.48 20.5769 133.413 20.5769Z"
        fill="#005930" />
    <path
        d="M87.9496 32.0789C90.8819 32.0789 93.2591 29.7018 93.2591 26.7694C93.2591 23.8371 90.8819 21.46 87.9496 21.46C85.0173 21.46 82.6401 23.8371 82.6401 26.7694C82.6401 29.7018 85.0173 32.0789 87.9496 32.0789Z"
        fill="#005930" />
    <path d="M149.615 15.8589H84.9995V153.332H149.615V15.8589Z" fill="#0FAF4B" />
    <path d="M146.806 19.5049H88.0913V151.349H146.806V19.5049Z" fill="#005930" />
    <path d="M144.155 22.5781H90.9946V148.614H144.155V22.5781Z" fill="#0FAF4B" />
    <path
        d="M117.571 58.5227C120.83 58.5227 123.472 55.8805 123.472 52.6212C123.472 49.3619 120.83 46.7197 117.571 46.7197C114.312 46.7197 111.669 49.3619 111.669 52.6212C111.669 55.8805 114.312 58.5227 117.571 58.5227Z"
        fill="#005930" />
    <path
        d="M117.571 119.069C120.83 119.069 123.472 116.427 123.472 113.168C123.472 109.908 120.83 107.266 117.571 107.266C114.312 107.266 111.669 109.908 111.669 113.168C111.669 116.427 114.312 119.069 117.571 119.069Z"
        fill="#005930" />
    <path
        d="M117.758 97.1361C126.26 97.1361 133.151 90.2445 133.151 81.7433C133.151 73.2422 126.26 66.3506 117.758 66.3506C109.257 66.3506 102.366 73.2422 102.366 81.7433C102.366 90.2445 109.257 97.1361 117.758 97.1361Z"
        fill="#005930" />
    <path
        d="M141.637 151.387C144.569 151.387 146.947 149.009 146.947 146.077C146.947 143.145 144.569 140.768 141.637 140.768C138.705 140.768 136.328 143.145 136.328 146.077C136.328 149.009 138.705 151.387 141.637 151.387Z"
        fill="#005930" />
    <path
        d="M94.7533 150.597C97.6856 150.597 100.063 148.22 100.063 145.287C100.063 142.355 97.6856 139.978 94.7533 139.978C91.821 139.978 89.4438 142.355 89.4438 145.287C89.4438 148.22 91.821 150.597 94.7533 150.597Z"
        fill="#005930" />
    <path
        d="M140.753 30.6126C143.686 30.6126 146.063 28.2355 146.063 25.3031C146.063 22.3708 143.686 19.9937 140.753 19.9937C137.821 19.9937 135.444 22.3708 135.444 25.3031C135.444 28.2355 137.821 30.6126 140.753 30.6126Z"
        fill="#005930" />
    <path
        d="M93.8705 29.823C96.8028 29.823 99.18 27.4459 99.18 24.5136C99.18 21.5812 96.8028 19.2041 93.8705 19.2041C90.9382 19.2041 88.561 21.5812 88.561 24.5136C88.561 27.4459 90.9382 29.823 93.8705 29.823Z"
        fill="#005930" />
    <path d="M124.332 6.85928L60.2505 15.1479L77.8838 151.476L141.966 143.187L124.332 6.85928Z"
        fill="#0FAF4B" />
    <path d="M122.019 10.8321L63.7896 18.3638L80.7008 149.109L138.93 141.577L122.019 10.8321Z"
        fill="#005930" />
    <path d="M119.79 14.2164L67.0688 21.0356L83.2351 146.021L135.956 139.202L119.79 14.2164Z"
        fill="#0FAF4B" />
    <path
        d="M97.2907 53.3254C100.55 53.3254 103.192 50.6833 103.192 47.424C103.192 44.1647 100.55 41.5225 97.2907 41.5225C94.0314 41.5225 91.3892 44.1647 91.3892 47.424C91.3892 50.6833 94.0314 53.3254 97.2907 53.3254Z"
        fill="#005930" />
    <path
        d="M105.053 113.384C108.313 113.384 110.955 110.741 110.955 107.482C110.955 104.223 108.313 101.581 105.053 101.581C101.794 101.581 99.1519 104.223 99.1519 107.482C99.1519 110.741 101.794 113.384 105.053 113.384Z"
        fill="#005930" />
    <path
        d="M101.209 91.6854C109.71 91.6854 116.601 84.7938 116.601 76.2927C116.601 67.7915 109.71 60.8999 101.209 60.8999C92.7075 60.8999 85.8159 67.7915 85.8159 76.2927C85.8159 84.7938 92.7075 91.6854 101.209 91.6854Z"
        fill="#005930" />
    <path
        d="M133.132 142.346C136.065 142.346 138.442 139.969 138.442 137.037C138.442 134.104 136.065 131.727 133.132 131.727C130.2 131.727 127.823 134.104 127.823 137.037C127.823 139.969 130.2 142.346 133.132 142.346Z"
        fill="#005930" />
    <path
        d="M86.5404 147.571C89.4728 147.571 91.8499 145.194 91.8499 142.262C91.8499 139.329 89.4728 136.952 86.5404 136.952C83.6081 136.952 81.231 139.329 81.231 142.262C81.231 145.194 83.6081 147.571 86.5404 147.571Z"
        fill="#005930" />
    <path
        d="M116.772 22.6717C119.704 22.6717 122.081 20.2945 122.081 17.3622C122.081 14.4299 119.704 12.0527 116.772 12.0527C113.84 12.0527 111.462 14.4299 111.462 17.3622C111.462 20.2945 113.84 22.6717 116.772 22.6717Z"
        fill="#005930" />
    <path
        d="M70.1703 27.906C73.1026 27.906 75.4798 25.5289 75.4798 22.5966C75.4798 19.6642 73.1026 17.2871 70.1703 17.2871C67.238 17.2871 64.8608 19.6642 64.8608 22.5966C64.8608 25.5289 67.238 27.906 70.1703 27.906Z"
        fill="#005930" />
    <path d="M93.5933 0.000207894L32.7329 21.7075L78.9194 151.2L139.78 129.492L93.5933 0.000207894Z"
        fill="#0FAF4B" />
    <path d="M92.1705 4.38611L36.8687 24.1108L81.1641 148.301L136.466 128.576L92.1705 4.38611Z"
        fill="#005930" />
    <path d="M90.708 8.17619L40.6372 26.0352L82.9785 144.746L133.049 126.888L90.708 8.17619Z"
        fill="#0FAF4B" />
    <path
        d="M75.7614 51.2771C79.0207 51.2771 81.6628 48.6349 81.6628 45.3756C81.6628 42.1163 79.0207 39.4741 75.7614 39.4741C72.5021 39.4741 69.8599 42.1163 69.8599 45.3756C69.8599 48.6349 72.5021 51.2771 75.7614 51.2771Z"
        fill="#005930" />
    <path
        d="M96.1071 108.309C99.3664 108.309 102.009 105.667 102.009 102.408C102.009 99.1485 99.3664 96.5063 96.1071 96.5063C92.8478 96.5063 90.2056 99.1485 90.2056 102.408C90.2056 105.667 92.8478 108.309 96.1071 108.309Z"
        fill="#005930" />
    <path
        d="M85.7223 88.1429C94.2235 88.1429 101.115 81.2513 101.115 72.7502C101.115 64.249 94.2235 57.3574 85.7223 57.3574C77.2212 57.3574 70.3296 64.249 70.3296 72.7502C70.3296 81.2513 77.2212 88.1429 85.7223 88.1429Z"
        fill="#005930" />
    <path
        d="M129.833 130.628C132.766 130.628 135.143 128.251 135.143 125.318C135.143 122.386 132.766 120.009 129.833 120.009C126.901 120.009 124.524 122.386 124.524 125.318C124.524 128.251 126.901 130.628 129.833 130.628Z"
        fill="#005930" />
    <path
        d="M85.4027 145.645C88.3351 145.645 90.7122 143.268 90.7122 140.335C90.7122 137.403 88.3351 135.026 85.4027 135.026C82.4704 135.026 80.0933 137.403 80.0933 140.335C80.0933 143.268 82.4704 145.645 85.4027 145.645Z"
        fill="#005930" />
    <path
        d="M88.4096 17.1746C91.3419 17.1746 93.719 14.7975 93.719 11.8651C93.719 8.93279 91.3419 6.55566 88.4096 6.55566C85.4772 6.55566 83.1001 8.93279 83.1001 11.8651C83.1001 14.7975 85.4772 17.1746 88.4096 17.1746Z"
        fill="#005930" />
    <path
        d="M43.9887 32.1819C46.921 32.1819 49.2981 29.8048 49.2981 26.8725C49.2981 23.9401 46.921 21.563 43.9887 21.563C41.0563 21.563 38.6792 23.9401 38.6792 26.8725C38.6792 29.8048 41.0563 32.1819 43.9887 32.1819Z"
        fill="#005930" />
    <path d="M191.561 94.2324H106.461V159.882H191.561V94.2324Z" fill="#FFCB05" />
    <path
        d="M191.422 112.604H189.167C172.693 112.604 156.22 112.632 139.747 112.595C133.516 112.576 128.63 114.991 125.566 120.46C120.238 129.961 126.741 141.811 137.613 142.6C138.525 142.666 139.436 142.704 140.357 142.704C156.615 142.713 172.872 142.704 189.129 142.704H191.432C191.469 143.352 191.526 143.916 191.526 144.48C191.535 156.161 191.544 167.841 191.526 179.522C191.516 185.33 188.81 188.017 183.021 188.017H49.1379C44.7306 188.017 41.9772 186.279 41.0563 182.792C40.7837 181.768 40.7368 180.659 40.7368 179.597C40.718 144.987 40.718 110.368 40.7274 75.7574C40.7274 69.978 43.4526 67.2998 49.2695 67.2998H183.143C187.494 67.2998 190.154 68.9725 191.14 72.4025C191.403 73.3141 191.507 74.3102 191.507 75.2687C191.535 87.269 191.526 99.2788 191.516 111.279C191.516 111.636 191.469 112.003 191.422 112.604Z"
        fill="currentColor" />
    <path
        d="M146.278 127.668C146.278 131.887 142.895 135.223 138.685 135.186C134.475 135.148 131.148 131.756 131.204 127.546C131.261 123.392 134.569 120.122 138.722 120.103C142.923 120.103 146.287 123.458 146.278 127.668Z"
        fill="currentColor" />
    <path
        d="M32.9917 173.179C22.959 173.179 12.9394 173.179 2.90667 173.179C2.47389 173.179 2.00176 173.179 1.59521 173.034C0.191939 172.587 -0.398221 171.061 0.283742 169.679C1.58209 167.034 2.90667 164.39 4.21814 161.758C13.0574 144.022 21.9098 126.273 30.7491 108.537C31.3786 107.273 32.336 106.8 33.6212 107.076C34.4606 107.26 34.9458 107.8 35.313 108.55C38.1851 114.339 41.0835 120.128 43.9687 125.917C51.1686 140.364 58.3686 154.811 65.5685 169.258C65.8833 169.89 66.1325 170.521 66.0144 171.258C65.857 172.192 65.0702 173.008 64.1259 173.139C63.7718 173.192 63.4177 173.192 63.0505 173.192C53.0178 173.192 42.9982 173.192 32.9655 173.192L32.9917 173.179ZM30.6835 141.233C30.6835 143.812 30.6835 146.39 30.6835 148.969C30.6835 149.246 30.6835 149.522 30.7229 149.785C30.8409 150.824 31.6802 151.693 32.677 151.824C33.8179 151.969 34.8802 151.364 35.2212 150.298C35.3523 149.89 35.3786 149.43 35.3786 148.982C35.3786 143.798 35.3786 138.628 35.3786 133.444C35.3786 133.128 35.3786 132.812 35.3261 132.496C35.1818 131.536 34.4081 130.759 33.4507 130.615C31.877 130.365 30.6966 131.417 30.6966 133.115C30.6835 135.825 30.6966 138.522 30.6966 141.233H30.6835ZM30.7098 160.14C30.7098 160.627 30.6704 161.114 30.7098 161.6C30.8278 162.811 31.8114 163.679 33.0179 163.679C34.2245 163.679 35.2343 162.824 35.3261 161.614C35.3917 160.653 35.3917 159.666 35.3261 158.706C35.2343 157.482 34.2376 156.64 33.031 156.627C31.8114 156.627 30.8409 157.469 30.7229 158.693C30.6704 159.179 30.7229 159.666 30.7229 160.153L30.7098 160.14Z"
        fill="#ED3434" />
    <path
        d="M30.684 141.234C30.684 138.523 30.6709 135.826 30.684 133.115C30.684 131.418 31.8774 130.379 33.4381 130.616C34.3954 130.76 35.1692 131.537 35.3135 132.497C35.3528 132.813 35.3659 133.129 35.3659 133.444C35.3659 138.628 35.3659 143.799 35.3659 148.983C35.3659 149.417 35.3397 149.878 35.2086 150.299C34.8676 151.365 33.8053 151.97 32.6643 151.825C31.6676 151.694 30.8414 150.838 30.7102 149.786C30.684 149.51 30.6709 149.233 30.6709 148.97C30.6709 146.391 30.6709 143.812 30.6709 141.234H30.684Z"
        fill="white" />
    <path
        d="M30.7234 160.139C30.7234 159.653 30.6841 159.166 30.7234 158.679C30.8415 157.469 31.8251 156.613 33.0316 156.613C34.2382 156.613 35.2349 157.469 35.3267 158.692C35.3922 159.653 35.3922 160.639 35.3267 161.6C35.2349 162.81 34.225 163.666 33.0185 163.666C31.812 163.666 30.8415 162.797 30.7103 161.587C30.6579 161.1 30.7103 160.613 30.7103 160.126L30.7234 160.139Z"
        fill="white" />
</svg>
    