<svg width="24" height="24" viewBox="0 0 24 24" fill="none" xmlns="http://www.w3.org/2000/svg">
    <path
        d="M16.649 20.3534C16.4363 20.5539 16.1475 20.6666 15.8464 20.6666C15.5454 20.6666 15.2566 20.5539 15.0438 20.3534L7.33271 13.0982C7.11969 12.8979 7 12.626 7 12.3425C7 12.0591 7.11969 11.7872 7.33271 11.5869L15.0438 4.33172C15.328 4.05058 15.7518 3.93672 16.1508 4.0343C16.5497 4.13188 16.8611 4.42555 16.964 4.80137C17.067 5.1772 16.9453 5.57601 16.6462 5.84309L9.73765 12.3425L16.6462 18.842C16.8596 19.042 16.9798 19.3136 16.9803 19.5971C16.9809 19.8806 16.8617 20.1527 16.649 20.3534Z"
        fill="white" />
</svg>
    