<svg width="20" height="20" viewBox="0 0 20 20" fill="none" xmlns="http://www.w3.org/2000/svg">
    <g clip-path="url(#clip0_4183_11146)">
        <path
            d="M18.0583 0.833336C18.1417 0.850003 18.2167 0.875003 18.3 0.891669C19.1333 1.125 19.4417 2.11667 18.8917 2.79167C18.8333 2.85834 18.7667 2.925 18.7083 2.98334C16.4167 5.275 14.125 7.56667 11.8333 9.85834C11.7833 9.90834 11.725 9.94167 11.6417 10.0083C11.7333 10.0833 11.7917 10.125 11.8417 10.175C14.15 12.475 16.45 14.7833 18.7583 17.0833C19.0833 17.4083 19.2333 17.775 19.1417 18.2333C18.9583 19.0917 17.9583 19.4583 17.2583 18.925C17.1833 18.8667 17.1167 18.8 17.05 18.7333C14.7583 16.4417 12.4667 14.15 10.175 11.8583C10.125 11.8083 10.0833 11.75 10.025 11.675C9.95001 11.7417 9.90001 11.7917 9.85001 11.8417C7.54168 14.15 5.23334 16.4583 2.92501 18.7667C2.56668 19.125 2.15001 19.25 1.66668 19.1167C1.28334 19.0083 1.02501 18.7417 0.891677 18.3583C0.87501 18.3 0.85001 18.25 0.833344 18.1917C0.833344 18.0583 0.833344 17.925 0.833344 17.8C0.916677 17.4417 1.14168 17.1833 1.39168 16.9333C3.65001 14.6833 5.90834 12.425 8.16668 10.1667C8.21668 10.1167 8.28334 10.0833 8.37501 10.025C8.26668 9.94167 8.20834 9.9 8.15834 9.85C5.90834 7.6 3.65834 5.35 1.40001 3.1C1.15001 2.85 0.916677 2.59167 0.833344 2.23334V1.84167C0.933343 1.5 1.08334 1.2 1.40001 1.03334C1.56668 0.941669 1.75834 0.900003 1.94168 0.833336C1.99168 0.833336 2.03334 0.833336 2.08334 0.833336C2.51668 0.883336 2.81668 1.15 3.11668 1.45C5.35834 3.7 7.60001 5.94167 9.85001 8.18334C9.89168 8.225 9.94168 8.275 10.0333 8.35834C10.075 8.29167 10.1083 8.225 10.1583 8.175C12.4 5.93334 14.6417 3.69167 16.875 1.45C17.175 1.15 17.475 0.883336 17.9167 0.833336C17.9583 0.833336 18.0083 0.833336 18.0583 0.833336Z"
            fill="currentColor" />
    </g>
    <defs>
        <clipPath id="clip0_4183_11146">
            <rect width="20" height="20" fill="white" />
        </clipPath>
    </defs>
</svg>
    