<svg width="24" height="24" viewBox="0 0 24 24" fill="none" xmlns="http://www.w3.org/2000/svg">
    <path fill-rule="evenodd" clip-rule="evenodd"
        d="M18.666 20.025C18.666 20.424 18.323 20.75 17.9 20.75H5.9C5.478 20.75 5.134 20.424 5.134 20.025V11.275C5.134 10.876 5.478 10.55 5.9 10.55H17.9C18.323 10.55 18.666 10.876 18.666 11.275V20.025ZM7.801 6.9C7.801 4.777 9.64 3.05 11.9 3.05C14.161 3.05 16 4.777 16 6.9V9.5H7.801V6.9ZM17.091 6.274C16.762 3.867 14.56 2 11.9 2C9.015 2 6.666 4.198 6.666 6.9V9.5H5.9C4.853 9.5 4 10.296 4 11.275V20.025C4 21.004 4.853 21.8 5.9 21.8H17.9C18.948 21.8 19.801 21.004 19.801 20.025V11.275C19.801 10.296 18.948 9.5 17.9 9.5H17.134V6.9C17.134 6.688 17.119 6.479 17.091 6.274Z"
        fill="#004F72" />
    <path fill-rule="evenodd" clip-rule="evenodd"
        d="M11.901 14.2617C12.26 14.2617 12.55 14.6367 12.55 15.0987V16.7717C12.55 17.2337 12.26 17.6087 11.901 17.6087C11.542 17.6087 11.252 17.2337 11.252 16.7717V15.0987C11.252 14.6367 11.542 14.2617 11.901 14.2617Z"
        fill="#004F72" />
</svg>
    