<svg width="24" height="24" viewBox="0 0 24 24" fill="none" xmlns="http://www.w3.org/2000/svg">
    <path fill-rule="evenodd" clip-rule="evenodd"
        d="M21.1342 6.98406C21.1271 7.00325 21.111 7.02952 21.0504 7.07598C19.7524 8.09011 18.4524 9.10827 17.1555 10.1244L15.4676 11.4456C14.6697 12.0719 13.8697 12.6991 13.0677 13.3244C12.7182 13.5971 12.3586 13.7345 11.999 13.7345C11.6414 13.7345 11.2818 13.5981 10.9334 13.3264L6.97685 10.2335C5.63849 9.18706 4.30012 8.14061 2.95974 7.09618C2.8658 7.02345 2.85772 6.96992 2.8759 6.87901C3.01024 6.22953 3.64761 5.79418 4.46477 5.79418L8.90813 5.79216L10.3899 5.79317L19.515 5.79216C20.0979 5.79216 20.4958 5.94468 20.7716 6.27296C20.8807 6.40225 20.9544 6.55983 21.0312 6.72548L21.0484 6.76083C21.0696 6.80528 21.0918 6.85477 21.112 6.87497L21.1585 6.92245L21.1342 6.98406ZM21.1554 16.6203C21.1554 16.8021 21.1473 16.997 21.0847 17.1789L21.0342 17.3284L16.6585 13.2173C16.604 13.1648 16.5464 13.1082 16.4767 13.0668C16.2979 12.9597 16.109 12.9769 15.9616 13.1092C15.8101 13.2486 15.7888 13.4314 15.904 13.6032C15.9383 13.6567 15.9858 13.7011 16.0505 13.7617L20.4756 17.9223L20.3463 17.9859C20.1292 18.096 19.8736 18.1465 19.5423 18.1465C19.3039 18.1475 19.0666 18.1485 18.8282 18.1485H18.4686L17.3969 18.1465L4.51123 18.1475C4.22639 18.1475 3.91629 18.1243 3.58599 17.9465L3.45569 17.8778L3.5668 17.7819C3.64761 17.7122 3.72841 17.6435 3.80821 17.5768C4.09406 17.3344 4.41729 17.0597 4.72032 16.7779C5.54556 16.0112 6.35868 15.2405 7.11422 14.5223L7.93138 13.7516C7.98896 13.6961 8.03845 13.6486 8.07279 13.592C8.18491 13.4133 8.15663 13.2284 8.00007 13.0981C7.84957 12.9668 7.6627 12.9577 7.4829 13.0658C7.42735 13.1022 7.37684 13.1506 7.3021 13.2224L7.17685 13.3415C5.80818 14.6334 4.44254 15.9223 3.07489 17.2152L2.96378 17.3223L2.91125 17.1768C2.86075 17.0385 2.83853 16.891 2.83853 16.7132V8.02546L5.77283 10.3204C7.27988 11.4991 8.78793 12.6789 10.294 13.8597C10.8637 14.3082 11.4334 14.5183 12.0869 14.5193C12.6323 14.4991 13.1313 14.3072 13.6071 13.9335L21.1554 8.02041V16.6203ZM19.5767 5.00328C17.806 4.99823 16.0393 5.00025 14.2727 5.00126L11.997 5.00227L10.2617 5.00126C9.70307 5.00126 9.14348 5.00126 8.5839 5.00126C7.21624 5.00126 5.84757 5.00227 4.47992 5.00429C4.21224 5.00429 3.99811 5.02449 3.8072 5.06591C2.71227 5.30833 2.00319 6.16185 2.00117 7.23961C1.99915 10.3931 2.00016 13.5476 2.00117 16.7001C2.00117 16.8324 2.00319 16.9637 2.02844 17.095C2.23046 18.2162 3.1759 18.9394 4.43749 18.9394H19.5555C20.9928 18.9394 21.9978 18.0041 21.9978 16.6637C22.0009 13.5355 22.0009 10.4072 21.9968 7.27901C21.9968 7.06487 21.9776 6.87901 21.9362 6.71033C21.6898 5.67398 20.7635 5.00429 19.5767 5.00328Z"
        fill="currentColor" />
</svg>
    