<svg width="24" height="24" viewBox="0 0 24 24" fill="none" xmlns="http://www.w3.org/2000/svg">
<g id="icons/outlined/mobile">
<path id="shape:icon" fill-rule="evenodd" clip-rule="evenodd" d="M16.5643 0H7.43724C6.09203 0.0011667 5.00233 1.0897 5 2.43257V20.9003C5.00233 22.2431 6.09203 23.3317 7.43724 23.334H16.5643C17.9095 23.3317 18.9992 22.2431 19.0004 20.9003V2.43257C18.9992 1.0897 17.9095 0.0011667 16.5643 0ZM14.7431 0.872761V1.43744C14.7431 1.67545 14.5506 1.86796 14.3126 1.86796H9.68896C9.45212 1.86796 9.25962 1.67545 9.25962 1.43744V0.872761H14.7431ZM18.1254 20.9003C18.1254 21.7613 17.4254 22.459 16.5632 22.4602H7.43724C6.57505 22.459 5.8762 21.7613 5.87503 20.9003V2.4326C5.8762 1.57157 6.57505 0.873887 7.43724 0.87272H8.38344V1.4374C8.3846 2.15726 8.96795 2.74061 9.68897 2.74061H14.3126C15.0325 2.74061 15.617 2.15726 15.617 1.4374V0.87272H16.5643C17.4265 0.873887 18.1254 1.57157 18.1254 2.4326V20.9003Z" fill="#004F71"/>
<path id="shape:icon_2" fill-rule="evenodd" clip-rule="evenodd" d="M14.689 20.3808H9.31056C9.06905 20.3808 8.87305 20.5768 8.87305 20.8171C8.87305 21.0586 9.06905 21.2547 9.31056 21.2547H14.689C14.9306 21.2547 15.1266 21.0586 15.1266 20.8171C15.1266 20.5768 14.9306 20.3808 14.689 20.3808Z" fill="#004F71"/>
</g>
</svg>
