<svg width="24" height="24" viewBox="0 0 24 24" fill="none" xmlns="http://www.w3.org/2000/svg">
    <path fill-rule="evenodd" clip-rule="evenodd"
        d="M20.048 19.331C19.763 19.601 19.4609 19.896 19.1769 20.229C18.6929 20.745 18.1259 20.984 17.3919 20.984C17.3219 20.984 17.2459 20.984 17.1759 20.979C15.8049 20.892 14.5408 20.363 13.5928 19.91C11.0048 18.663 8.73573 16.895 6.84969 14.654C5.29366 12.787 4.24964 11.053 3.55862 9.198C3.13261 8.061 2.97361 7.174 3.04361 6.322C3.09161 5.767 3.30662 5.307 3.70062 4.914L5.25166 3.37C5.74167 2.912 6.28968 2.912 6.74769 3.366C7.02369 3.623 7.2687 3.87 7.5807 4.192L7.75171 4.366C7.83871 4.452 7.92571 4.541 8.01371 4.631L9.25274 5.864C9.51574 6.126 9.64375 6.379 9.64375 6.637C9.64375 6.896 9.51574 7.148 9.25274 7.41L9.10174 7.561C9.02173 7.642 8.94173 7.722 8.86073 7.801C8.45472 8.214 8.10471 8.562 7.71671 8.907L7.69771 8.926C7.3597 9.263 7.4007 9.584 7.4867 9.852C7.4907 9.862 7.4967 9.878 7.5007 9.895C7.81171 10.643 8.25972 11.371 8.95173 12.245C10.2068 13.783 11.5188 14.971 12.9688 15.883C13.1488 15.998 13.3368 16.092 13.5178 16.181C13.6748 16.259 13.8368 16.339 13.9768 16.426C13.9798 16.427 13.9908 16.434 14.0018 16.441C14.1638 16.523 14.2918 16.556 14.4268 16.556C14.7609 16.556 14.9679 16.351 15.0459 16.274L16.6019 14.725C16.7699 14.557 17.0379 14.357 17.3599 14.357C17.7039 14.357 17.9639 14.584 18.0879 14.72L20.598 17.218C21.05 17.663 21.101 18.139 20.752 18.606H20.765L20.655 18.723C20.639 18.741 20.622 18.759 20.605 18.777C20.461 18.932 20.314 19.074 20.159 19.223L20.048 19.331ZM20.697 20.118L20.753 20.064C20.983 19.846 21.171 19.66 21.341 19.483C21.772 19.036 22 18.519 22 17.987C22 17.45 21.768 16.939 21.329 16.507L18.8319 14.011C18.4089 13.572 17.9029 13.341 17.3689 13.341C16.8369 13.341 16.3239 13.571 15.8849 14.008L14.3948 15.487L14.3288 15.452C14.2538 15.41 14.1778 15.372 14.1038 15.334L13.9818 15.271C13.8068 15.184 13.6558 15.108 13.5248 15.027C12.1688 14.17 10.9378 13.053 9.75875 11.612C9.18474 10.889 8.80173 10.289 8.51672 9.661L8.48572 9.595L8.54072 9.545C8.89473 9.222 9.22574 8.887 9.54574 8.563L9.59175 8.516C9.65575 8.453 9.71875 8.389 9.78375 8.325C9.84675 8.26 9.91075 8.196 9.97475 8.132C10.4238 7.685 10.6598 7.168 10.6598 6.637C10.6598 6.106 10.4228 5.59 9.97475 5.144L8.73373 3.908C8.59172 3.767 8.44472 3.621 8.30772 3.475C8.05771 3.217 7.75971 2.916 7.4597 2.638C7.03369 2.22 6.53168 2 6.00467 2C5.47566 2 4.96465 2.221 4.52864 2.637L2.97561 4.197C2.4106 4.759 2.08959 5.446 2.01859 6.239C1.91059 7.535 2.2956 8.75 2.5946 9.552C3.32662 11.523 4.42664 13.349 6.05467 15.298C8.03971 17.656 10.4248 19.515 13.1428 20.824C14.1868 21.316 15.5809 21.894 17.1079 21.991L17.1489 21.993C17.2289 21.996 17.3109 22 17.3869 22C18.4089 22 19.2669 21.633 19.936 20.909C20.174 20.62 20.428 20.377 20.697 20.118Z"
        fill="currentColor" />
</svg>
    