<svg width="124" height="124" viewBox="0 0 124 124" fill="none" xmlns="http://www.w3.org/2000/svg">
    <circle cx="62" cy="62" r="61.38" fill="white" stroke="#F5F5F5" stroke-width="1.24" />
    <circle cx="61.9994" cy="61.9994" r="58.3529" fill="#F5F5F5" />
    <mask id="mask0_0_28484" style="mask-type:alpha" maskUnits="userSpaceOnUse" x="3" y="3"
        width="118" height="118">
        <circle cx="61.9994" cy="61.9994" r="58.3529" fill="#F5F5F5" />
    </mask>
    <g mask="url(#mask0_0_28484)">
    </g>
    <g clip-path="url(#clip0_0_28484)">
        <path
            d="M79.9226 92.2146L79.4838 91.427C78.7037 90.0223 78.915 88.2766 80.012 87.0992H74.5594V87.0505C78.2893 82.9501 80.9872 77.0714 82.011 70.3158C83.5225 69.8286 85.1558 67.8799 86.0659 65.241C87.2605 61.8145 86.781 58.5341 85.0095 57.917C84.2294 57.6491 83.3193 57.9414 82.4498 58.6397V39.3879C82.4498 36.408 80.0283 33.9883 77.046 33.9883H46.939C43.9567 33.9883 41.5352 36.408 41.5352 39.3879V58.6478C40.6657 57.9414 39.7637 57.6491 38.9755 57.9251C37.204 58.5422 36.7245 61.8226 37.9191 65.2491C38.8373 67.8799 40.4625 69.8367 41.974 70.3239C42.9979 77.0795 45.6957 82.9582 49.4256 87.0586V87.1073H43.973C45.07 88.2847 45.2813 90.0304 44.5012 91.4351L44.0624 92.2228C34.5793 94.4394 26.5345 98.3612 20.9844 103.363C30.63 115.331 45.4113 122.996 61.9884 122.996C78.5656 122.996 93.3469 115.331 102.993 103.363C97.4424 98.3612 89.3976 94.4394 79.9145 92.2228L79.9226 92.2146Z"
            fill="white" />
    </g>
    <defs>
        <clipPath id="clip0_0_28484">
            <rect width="82" height="89" fill="white" transform="translate(21 35)" />
        </clipPath>
    </defs>
</svg>
    