<svg width="24" height="24" viewBox="0 0 24 24" fill="none" xmlns="http://www.w3.org/2000/svg">
    <path fill-rule="evenodd" clip-rule="evenodd"
        d="M18.919 18.4429V20.5199C18.919 20.7639 18.706 20.9639 18.443 20.9639H5.662C5.399 20.9639 5.187 20.7639 5.187 20.5199V18.4429C5.187 14.8549 8.267 11.9359 12.053 11.9359C13.885 11.9359 15.609 12.6139 16.907 13.8449C18.205 15.0759 18.92 16.7089 18.919 18.4429ZM12.053 10.7949C7.612 10.7949 4 14.2259 4 18.4429V20.5199C4 21.3939 4.746 22.1049 5.662 22.1049H18.443C19.359 22.1049 20.106 21.3939 20.106 20.5199V18.4429C20.106 14.2259 16.493 10.7949 12.053 10.7949Z"
        fill="currentColor" />
    <path fill-rule="evenodd" clip-rule="evenodd"
        d="M8.60106 6.252C8.60106 4.536 10.0761 3.14 11.8891 3.14C13.7031 3.14 15.1771 4.536 15.1771 6.252C15.1771 7.968 13.7031 9.364 11.8891 9.364C10.0761 9.364 8.60106 7.968 8.60106 6.252ZM11.8891 10.505C14.3561 10.505 16.3631 8.597 16.3631 6.252C16.3631 3.907 14.3561 2 11.8891 2C9.42206 2 7.41406 3.907 7.41406 6.252C7.41406 8.597 9.42206 10.505 11.8891 10.505Z"
        fill="currentColor" />
</svg>
    