<svg width="26" height="27" viewBox="0 0 26 27" fill="none" xmlns="http://www.w3.org/2000/svg">
    <path fill-rule="evenodd" clip-rule="evenodd"
        d="M15.6167 1.77271C15.7562 1.77271 15.8894 1.82801 15.9875 1.92731L21.2269 7.16393C21.325 7.26198 21.3803 7.39522 21.3803 7.53475V22.723C21.3803 23.8781 20.4412 24.8184 19.286 24.8184H6.71545C5.56021 24.8184 4.61993 23.8781 4.61993 22.723V3.86811C4.61993 2.71293 5.56021 1.77271 6.71545 1.77271H15.6167Z"
        fill="currentColor" />
    <path fill-rule="evenodd" clip-rule="evenodd"
        d="M11.1673 13.7329H9.33376V12.3579C9.33376 12.1049 9.53945 11.8993 9.79244 11.8993H11.1673V13.7329ZM12.0831 13.7328H13.9166V11.8992H12.0831V13.7328ZM14.8327 11.8992H16.2077C16.4606 11.8992 16.6663 12.1049 16.6663 12.3579V13.7328H14.8327V11.8992ZM16.667 19.6912C16.667 19.9442 16.4613 20.1487 16.2083 20.1487H14.8334V17.8576C14.8334 17.6046 14.6288 17.3989 14.3758 17.3989H9.33376V14.649H16.667V19.6912ZM12.0831 20.1487H13.9166V18.3151H12.0831V20.1487ZM11.1673 20.1486H9.79244C9.53945 20.1486 9.33376 19.944 9.33376 19.691V18.3161H11.1673V20.1486ZM8.41699 12.3578V19.6911C8.41699 20.449 9.03405 21.0661 9.79191 21.0661H16.2078C16.9668 21.0661 17.5827 20.449 17.5827 19.6911V12.3578C17.5827 11.6 16.9668 10.9829 16.2078 10.9829H9.79191C9.03405 10.9829 8.41699 11.6 8.41699 12.3578V12.3578Z"
        fill="#FFCB05" />
</svg>
    