<svg width="201" height="190" viewBox="0 0 201 190" fill="none" xmlns="http://www.w3.org/2000/svg">
	<g id="Illustration">
		<g id="Clip path group">
			<mask id="mask0_163_19000" style="mask-type:luminance" maskUnits="userSpaceOnUse" x="-6" y="0" width="224" height="190">
				<g id="clippath">
					<path id="Vector" d="M218 0H-6V190H218V0Z" fill="white" />
				</g>
			</mask>
			<g mask="url(#mask0_163_19000)">
				<g id="Group">
					<g id="Group_2">
						<g id="Group_3">
							<g id="Group_4">
								<path id="Vector_2" d="M94.4015 94.2996C101.414 77.2253 87.8564 75.6498 83.8277 82.0045C60.2863 119.112 64.1631 178.72 67.5846 200.737C68.7465 208.218 62.6451 212.04 63.5559 218.138C63.9471 220.758 75.2916 228.694 77.1425 226.179C78.6488 224.131 78.0942 221.371 79.0809 219.188C79.2736 223.046 79.945 224.242 81.7317 225.397C83.5942 226.594 84.5167 225.788 83.2847 223.623C82.0586 221.458 82.6717 219.276 82.5316 214.666C82.3856 209.829 78.8766 208.276 77.6212 202.797C73.9779 186.89 76.3309 138.328 94.4074 94.3113L94.4015 94.2996Z" fill="#91693C" />
								<g id="Clip path group_2">
									<mask id="mask1_163_19000" style="mask-type:luminance" maskUnits="userSpaceOnUse" x="63" y="78" width="34" height="149">
										<g id="clippath-1">
											<path id="Vector_3" d="M94.4015 94.2996C101.414 77.2253 87.8564 75.6498 83.8277 82.0045C60.2863 119.112 64.1631 178.72 67.5846 200.737C68.7465 208.218 62.6451 212.04 63.5559 218.138C63.9471 220.758 75.2916 228.694 77.1425 226.179C78.6488 224.131 78.0942 221.371 79.0809 219.188C79.2736 223.046 79.945 224.242 81.7317 225.397C83.5942 226.594 84.5167 225.788 83.2847 223.623C82.0586 221.458 82.6717 219.276 82.5316 214.666C82.3856 209.829 78.8766 208.276 77.6212 202.797C73.9779 186.89 76.3309 138.328 94.4074 94.3113L94.4015 94.2996Z" fill="white" />
										</g>
									</mask>
									<g mask="url(#mask1_163_19000)">
										<g id="Group_5">
											<path id="Vector_4" d="M94.6639 80.0555C79.8395 91.1953 72.9966 144.682 72.0624 173.054C71.2859 196.606 77.7026 217.975 74.7248 220.863C71.9982 223.507 63.0651 212.735 63.5555 218.728C64.2853 227.702 76.494 233.048 77.0662 233.555C80.4117 236.537 87.6691 231.052 91.0089 216.971C94.3427 202.884 115.677 105.93 113.68 101.075C111.684 96.2254 143.317 43.5085 94.6697 80.0614L94.6639 80.0555Z" fill="#5F3A1A" />
										</g>
									</g>
								</g>
							</g>
							<g id="Group_6">
								<path id="Vector_5" d="M119.04 78.1356C111.584 78.8125 104.193 80.3355 91.4469 78.8533C78.7069 77.3711 86.9628 131.879 67.1931 183.826C48.1708 233.794 158.696 208.562 139.61 181.363C107.386 135.451 162.877 74.1442 119.04 78.1356Z" fill="#F7E500" />
								<g id="Clip path group_3">
									<mask id="mask2_163_19000" style="mask-type:luminance" maskUnits="userSpaceOnUse" x="64" y="77" width="78" height="136">
										<g id="clippath-2">
											<path id="Vector_6" d="M119.04 78.1356C111.584 78.8125 104.193 80.3355 91.4469 78.8533C78.7069 77.3711 86.9628 131.879 67.1931 183.826C48.1708 233.794 158.696 208.562 139.61 181.363C107.386 135.451 162.877 74.1442 119.04 78.1356Z" fill="white" />
										</g>
									</mask>
									<g mask="url(#mask2_163_19000)">
										<g id="Group_7">
											<path id="Vector_7" d="M115.391 81.0591C154.779 81.8994 152.776 184.234 135.786 167.563C118.795 150.891 113.926 188.039 117.266 219.124C118.714 232.586 48.1535 231.583 49.3329 213.691C57.3085 92.9749 87.5119 61.709 102.745 68.1512C106.739 69.8377 112.25 80.9891 115.391 81.0533V81.0591Z" fill="#FFC41B" />
										</g>
									</g>
								</g>
							</g>
							<g id="Group_8">
								<g id="Group_9">
									<path id="Vector_8" d="M115.952 113.615H105.489C104.35 113.615 104.035 114.765 104.263 115.611L105.506 120.437C105.629 121.119 106.289 121.679 106.972 121.679L117.89 124.212C118.573 124.212 119.04 123.652 118.918 122.969L117.505 115.021C117.347 114.07 116.635 113.615 115.952 113.615Z" fill="#B6DCB0" />
									<g id="Clip path group_4">
										<mask id="mask3_163_19000" style="mask-type:luminance" maskUnits="userSpaceOnUse" x="104" y="113" width="15" height="12">
											<g id="clippath-3">
												<path id="Vector_9" d="M115.952 113.615H105.489C104.35 113.615 104.035 114.765 104.263 115.611L105.506 120.437C105.629 121.119 106.289 121.679 106.972 121.679L117.89 124.212C118.573 124.212 119.04 123.652 118.918 122.969L117.505 115.021C117.347 114.07 116.635 113.615 115.952 113.615Z" fill="white" />
											</g>
										</mask>
										<g mask="url(#mask3_163_19000)">
											<g id="Group_10">
												<path id="Vector_10" d="M113.388 113.487C116.337 113.399 116.769 114.619 113.505 114.589C110.288 114.56 106.154 114.566 105.074 114.566C103.994 114.566 104.263 115.616 104.263 115.616L102.832 112.004C102.832 112.004 110.825 113.568 113.388 113.492V113.487Z" fill="white" />
											</g>
										</g>
									</g>
								</g>
								<g id="Group_11">
									<path id="Vector_11" d="M117.697 122.205C116.629 122.257 105.716 119.719 103.667 119.748C102.464 119.765 102.423 121.732 103.924 121.936C103.077 122.391 103.667 123.413 104.432 123.821C104.87 124.054 110.592 129.446 118.748 131.553C133.941 135.48 136.953 142.267 144.047 145.71C153.494 150.302 160.004 148.902 161.937 145.99C163.869 143.078 152.834 97.1358 132.714 80.505C130.998 79.087 125.521 92.38 127.682 102.353C130.764 116.591 142.237 129.306 140.783 128.915C127.565 125.356 125.597 115.208 122.287 115.354C120.774 115.418 117.692 116.089 117.692 116.089L118.077 118.272C118.077 118.272 111.865 117.793 110.44 117.536C108.437 117.175 107.789 118.633 109.488 119.351C111.146 120.051 117.697 122.199 117.697 122.199V122.205Z" fill="#91693C" />
									<g id="Clip path group_5">
										<mask id="mask4_163_19000" style="mask-type:luminance" maskUnits="userSpaceOnUse" x="102" y="80" width="61" height="69">
											<g id="clippath-4">
												<path id="Vector_12" d="M117.697 122.205C116.629 122.257 105.716 119.719 103.667 119.748C102.464 119.765 102.423 121.732 103.924 121.936C103.077 122.391 103.667 123.413 104.432 123.821C104.87 124.054 110.592 129.446 118.748 131.553C133.941 135.48 136.953 142.267 144.047 145.71C153.494 150.302 160.004 148.902 161.937 145.99C163.869 143.078 152.834 97.1358 132.714 80.505C130.998 79.087 125.521 92.38 127.682 102.353C130.764 116.591 142.237 129.306 140.783 128.915C127.565 125.356 125.597 115.208 122.287 115.354C120.774 115.418 117.692 116.089 117.692 116.089L118.077 118.272C118.077 118.272 111.865 117.793 110.44 117.536C108.437 117.175 107.789 118.633 109.488 119.351C111.146 120.051 117.697 122.199 117.697 122.199V122.205Z" fill="white" />
											</g>
										</mask>
										<g mask="url(#mask4_163_19000)">
											<g id="Group_12">
												<path id="Vector_13" d="M128.032 85.4533C142.979 99.5516 147.043 125.729 148.035 130.1C148.531 132.282 147.148 130.928 140.182 128.664C132.253 126.085 123.846 113.854 123.11 115.599C122.438 117.204 124.067 118.978 122.491 119.824C120.915 120.67 123.846 122.975 122.041 124.329C120.237 125.682 123.898 126.639 122.38 128.553C120.658 130.724 128.522 128.238 134.723 133.245C144.76 141.35 155.456 148.721 160.979 145.984C165.574 143.708 155.17 118.283 161.038 126.003C166.906 133.724 176.224 164.564 176.224 164.564L83.3778 129.038L85.7016 104.092C85.7016 104.092 120.255 78.1007 128.038 85.4475L128.032 85.4533Z" fill="#5F3A1A" />
											</g>
										</g>
									</g>
								</g>
							</g>
							<g id="Group_13">
								<path id="Vector_14" d="M92.7313 54.1989C94.6436 53.8128 95.567 50.3987 94.7938 46.5731C94.0206 42.7476 91.8436 39.9594 89.9314 40.3454C88.0191 40.7315 87.0957 44.1456 87.8689 47.9712C88.6421 51.7967 90.8191 54.585 92.7313 54.1989Z" fill="#5F3A1A" />
								<g id="Group_14">
									<path id="Vector_15" d="M118.253 60.2444C118.253 60.2444 113.547 70.7072 117.529 78.6959C119.053 81.7595 97.8585 86.2702 100.836 80.8025C102.576 77.6047 102.816 72.1894 98.6701 61.359C99.0555 56.8832 109.145 61.4057 118.247 60.2444H118.253Z" fill="#5F3A1A" />
									<g id="Clip path group_6">
										<mask id="mask5_163_19000" style="mask-type:luminance" maskUnits="userSpaceOnUse" x="98" y="59" width="21" height="25">
											<g id="clippath-5">
												<path id="Vector_16" d="M118.253 60.2444C118.253 60.2444 113.547 70.7072 117.529 78.6959C119.053 81.7595 97.8585 86.2702 100.836 80.8025C102.576 77.6047 102.816 72.1894 98.6701 61.359C99.0555 56.8832 109.145 61.4057 118.247 60.2444H118.253Z" fill="white" />
											</g>
										</mask>
										<g mask="url(#mask5_163_19000)">
											<g id="Group_15">
												<path id="Vector_17" d="M112.444 60.7871C107.347 62.9054 107.166 81.0943 117.856 81.9346C127.963 82.7282 129.446 87.2214 130.871 80.1723C140.785 31.1026 112.444 60.793 112.444 60.793V60.7871Z" fill="#91693C" />
											</g>
										</g>
									</g>
								</g>
								<g id="Group_16">
									<path id="Vector_18" d="M119.362 22.1802C110.312 10.7662 90.3207 22.0869 91.3016 42.6041C91.9439 56.0488 99.0904 68.0113 108.129 68.0113C117.167 68.0113 134.624 41.437 119.362 22.1802Z" fill="#91693C" />
									<g id="Clip path group_7">
										<mask id="mask6_163_19000" style="mask-type:luminance" maskUnits="userSpaceOnUse" x="91" y="17" width="35" height="52">
											<g id="clippath-6">
												<path id="Vector_19" d="M119.362 22.1802C110.312 10.7662 90.3207 22.0869 91.3016 42.6041C91.9439 56.0488 99.0904 68.0113 108.129 68.0113C117.167 68.0113 134.624 41.437 119.362 22.1802Z" fill="white" />
											</g>
										</mask>
										<g mask="url(#mask6_163_19000)">
											<g id="Group_17">
												<path id="Vector_20" d="M109.151 68.1339C108.999 62.6836 107.563 61.3532 109.022 60.7171C108.211 57.7994 109.238 57.5835 108.906 55.2552C108.573 52.9269 111.819 52.1099 111.597 51.3747C111.253 50.2251 108.328 51.0887 108.036 49.1397C107.534 45.796 109.268 47.6575 108.882 35.5024C108.532 24.4502 106.109 18.3114 106.109 18.3114C106.109 18.3114 108.853 -3.49543 94.7469 12.5402C80.6407 28.5758 89.0192 70.0829 109.157 68.1397L109.151 68.1339Z" fill="#5F3A1A" />
												<path id="Vector_21" d="M117.479 41.9138C120.507 41.3025 122.599 39.0118 122.151 36.7973C121.703 34.5829 118.886 33.2833 115.858 33.8946C112.83 34.5059 110.738 36.7966 111.186 39.0111C111.633 41.2255 114.451 42.5251 117.479 41.9138Z" fill="#5F3A1A" />
											</g>
										</g>
									</g>
								</g>
								<path id="Vector_22" d="M101.239 43.8761C101.761 43.8761 102.185 43.0296 102.185 41.9854C102.185 40.9412 101.761 40.0947 101.239 40.0947C100.717 40.0947 100.293 40.9412 100.293 41.9854C100.293 43.0296 100.717 43.8761 101.239 43.8761Z" fill="black" />
								<path id="Vector_23" d="M121.832 36.1035C120.331 33.0166 116.407 34.4404 114.037 35.6075C113.149 36.0685 112.285 36.5703 111.433 37.0955C111.322 37.1539 111.24 37.0313 111.31 36.9146C112.577 33.4542 116.495 31.2426 120.109 32.6373C121.423 33.2208 122.404 34.6388 122.018 36.0802C122.001 36.1735 121.867 36.1852 121.832 36.1035Z" fill="black" />
								<path id="Vector_24" d="M116.221 43.8763C116.743 43.8763 117.166 43.0298 117.166 41.9856C117.166 40.9414 116.743 40.095 116.221 40.095C115.698 40.095 115.275 40.9414 115.275 41.9856C115.275 43.0298 115.698 43.8763 116.221 43.8763Z" fill="black" />
								<path id="Vector_25" d="M115.385 55.016C115.737 55.016 116.021 54.7312 116.021 54.38C116.021 54.0287 115.737 53.7439 115.385 53.7439C115.034 53.7439 114.749 54.0287 114.749 54.38C114.749 54.7312 115.034 55.016 115.385 55.016Z" fill="#5F3A1A" />
								<g id="Group_18">
									<path id="Vector_26" d="M83.892 37.8424C87.3076 43.1818 92.3347 45.7435 101.566 38.9628C113.622 30.1047 113.482 19.3618 118.159 20.8731C116.343 10.7838 101.338 8.39126 90.2094 17.2669C82.8002 23.1781 80.4764 32.5089 83.892 37.8483V37.8424Z" fill="#3B2416" />
									<g id="Clip path group_8">
										<mask id="mask7_163_19000" style="mask-type:luminance" maskUnits="userSpaceOnUse" x="82" y="11" width="37" height="33">
											<g id="clippath-7">
												<path id="Vector_27" d="M83.892 37.8424C87.3076 43.1818 92.3347 45.7435 101.566 38.9628C113.622 30.1047 113.482 19.3618 118.159 20.8731C116.343 10.7838 101.338 8.39126 90.2094 17.2669C82.8002 23.1781 80.4764 32.5089 83.892 37.8483V37.8424Z" fill="white" />
											</g>
										</mask>
										<g mask="url(#mask7_163_19000)">
											<g id="Group_19">
												<path id="Vector_28" d="M136.562 28.7042C113.097 -15.3413 81.685 18.6732 95.6043 13.9932C107.276 10.0718 108.747 26.1483 108.94 36.5353C109.132 46.7063 160.028 72.7438 136.562 28.7042Z" fill="#5F3A1A" />
											</g>
										</g>
									</g>
								</g>
								<g id="Group_20">
									<g id="Group_21">
										<path id="Vector_29" d="M114.785 56.5566L114.814 56.545C112.747 55.6521 110.779 55.1561 110.131 55.5763C109.483 55.9964 108.818 56.294 108.818 56.294C108.818 56.294 108.152 55.9964 107.504 55.5763C106.856 55.1561 105.174 55.8505 102.821 56.545C102.821 56.545 102.839 56.5508 102.851 56.5566C102.816 56.5508 102.786 56.545 102.786 56.545C102.786 56.545 104.736 61.7968 108.794 61.7968C112.852 61.7968 114.843 56.545 114.843 56.545C114.843 56.545 114.82 56.545 114.779 56.5566H114.785Z" fill="#BE1E2D" />
										<g id="Clip path group_9">
											<mask id="mask8_163_19000" style="mask-type:luminance" maskUnits="userSpaceOnUse" x="102" y="55" width="13" height="7">
												<g id="clippath-8">
													<path id="Vector_30" d="M114.785 56.5566L114.814 56.545C112.747 55.6521 110.779 55.1561 110.131 55.5763C109.483 55.9964 108.818 56.294 108.818 56.294C108.818 56.294 108.152 55.9964 107.504 55.5763C106.856 55.1561 105.174 55.8505 102.821 56.545C102.821 56.545 102.839 56.5508 102.851 56.5566C102.816 56.5508 102.786 56.545 102.786 56.545C102.786 56.545 104.736 61.7968 108.794 61.7968C112.852 61.7968 114.843 56.545 114.843 56.545C114.843 56.545 114.82 56.545 114.779 56.5566H114.785Z" fill="white" />
												</g>
											</mask>
											<g mask="url(#mask8_163_19000)">
												<g id="Group_22">
													<path id="Vector_31" d="M109.011 62.3396C108.462 61.4001 108.339 60.4664 109.18 59.5327L108.841 58.0039C108.52 57.2044 108.532 56.5859 109.04 55.944L104.982 53.8374L100.983 56.4458L103.365 62.7364L109.011 62.3396Z" fill="#ED1C24" />
												</g>
											</g>
										</g>
									</g>
									<g id="Group_23">
										<path id="Vector_32" d="M108.818 57.788C107.271 57.8755 103.505 56.6326 103.365 57.0119C103.225 57.3912 105.963 59.7954 108.818 59.7954C111.673 59.7954 114.569 57.0994 114.394 56.8135C114.219 56.5276 111.019 57.6655 108.818 57.788Z" fill="black" />
										<g id="Clip path group_10">
											<mask id="mask9_163_19000" style="mask-type:luminance" maskUnits="userSpaceOnUse" x="103" y="56" width="12" height="4">
												<g id="clippath-9">
													<path id="Vector_33" d="M108.818 57.788C107.271 57.8755 103.505 56.6326 103.365 57.0119C103.225 57.3912 105.963 59.7954 108.818 59.7954C111.673 59.7954 114.569 57.0994 114.394 56.8135C114.219 56.5276 111.019 57.6655 108.818 57.788Z" fill="white" />
												</g>
											</mask>
											<g mask="url(#mask9_163_19000)">
												<g id="Group_24">
													<path id="Vector_34" d="M108.87 57.0353C107.621 57.1695 104.293 56.37 104.334 56.9477C104.374 57.5254 106.033 58.6633 108.818 58.6633C111.603 58.6633 113.646 57.4029 113.576 56.7785C113.506 56.1541 110.102 57.1695 108.87 57.0353Z" fill="white" />
												</g>
											</g>
										</g>
									</g>
								</g>
								<path id="Vector_35" d="M128.804 47.1188C129.119 43.8531 127.801 41.054 125.859 40.8668C123.917 40.6796 122.087 43.1751 121.772 46.4408C121.457 49.7064 122.776 52.5055 124.717 52.6927C126.659 52.88 128.489 50.3844 128.804 47.1188Z" fill="#91693C" />
							</g>
						</g>
						<path id="Vector_36" d="M153.185 181.801H59.4283C54.3078 181.801 50.0339 177.886 49.596 172.785L45.0185 119.806C44.5222 114.047 49.0646 109.092 54.8507 109.092H157.897C163.695 109.092 168.243 114.058 167.729 119.829C166.159 137.487 164.588 155.151 163.018 172.809C162.562 177.897 158.3 181.801 153.185 181.801Z" fill="#003654" />
						<path id="Vector_37" d="M107.515 155.04C110.914 155.04 113.669 152.287 113.669 148.89C113.669 145.493 110.914 142.739 107.515 142.739C104.116 142.739 101.361 145.493 101.361 148.89C101.361 152.287 104.116 155.04 107.515 155.04Z" fill="#FFCB05" />
						<path id="Vector_38" d="M177 181H35V190H177V181Z" fill="#FFCB05" />
						<path id="Vector_39" d="M91.2665 40.8709C91.9204 45.2591 92.5743 49.659 93.2283 54.053C90.6534 55.0217 87.6173 54.3039 85.7431 52.2965C83.8748 50.2892 83.4018 47.3773 84.5345 44.8915C85.206 43.4151 86.362 42.2714 87.7925 41.5828C88.1778 41.3961 88.5807 41.2502 89.0011 41.1335C89.7192 40.9351 90.4783 40.8475 91.2665 40.8709Z" fill="#003654" />
						<path id="Vector_40" d="M123.238 52.349C123.699 48.2818 124.155 44.2554 124.604 40.2348C126.771 39.8555 129.404 41.1393 130.642 43.1583C131.979 45.3349 131.862 48.0425 130.355 50.0907C128.767 52.244 126.128 53.1018 123.232 52.349H123.238Z" fill="#003654" />
						<g id="Group_25">
							<g id="Group_26">
								<path id="Vector_41" d="M58.3015 69.6394H13.1219V99.3707H58.3015V69.6394Z" fill="#0FAF4B" />
								<path id="Vector_42" d="M56.2167 83.9711V69.6394H67.4911L56.2167 83.9711Z" fill="#0FAF4B" />
							</g>
							<path id="Vector_43" d="M49.0242 89.754C51.9231 89.754 54.2732 87.4053 54.2732 84.508C54.2732 81.6107 51.9231 79.262 49.0242 79.262C46.1253 79.262 43.7753 81.6107 43.7753 84.508C43.7753 87.4053 46.1253 89.754 49.0242 89.754Z" fill="white" />
							<path id="Vector_44" d="M35.618 89.754C38.5169 89.754 40.8669 87.4053 40.8669 84.508C40.8669 81.6107 38.5169 79.262 35.618 79.262C32.7191 79.262 30.369 81.6107 30.369 84.508C30.369 87.4053 32.7191 89.754 35.618 89.754Z" fill="white" />
							<path id="Vector_45" d="M22.7616 89.754C25.6605 89.754 28.0105 87.4053 28.0105 84.508C28.0105 81.6107 25.6605 79.262 22.7616 79.262C19.8627 79.262 17.5126 81.6107 17.5126 84.508C17.5126 87.4053 19.8627 89.754 22.7616 89.754Z" fill="white" />
						</g>
						<path id="Vector_46" d="M125.855 40.865C125.855 40.865 129.48 11.9565 106.254 11.9565C85.3869 11.9565 90.1862 41.717 90.1862 41.717" stroke="#003654" stroke-width="4" stroke-miterlimit="10" />
						<path id="Vector_47" d="M124.558 50.5227C124.558 50.5227 120.372 63.238 109.074 63.238" stroke="#003654" stroke-width="3" stroke-miterlimit="10" />
						<path id="Vector_48" d="M109.086 64.8253C110.266 64.8253 111.223 64.1251 111.223 63.2614C111.223 62.3977 110.266 61.6975 109.086 61.6975C107.906 61.6975 106.949 62.3977 106.949 63.2614C106.949 64.1251 107.906 64.8253 109.086 64.8253Z" fill="#FFC41B" />
					</g>
				</g>
			</g>
		</g>
	</g>
</svg>
