<svg width="184" height="216" viewBox="0 0 184 216" fill="none" xmlns="http://www.w3.org/2000/svg">
	<g id="Illustration" clip-path="url(#clip0_68_103975)">
		<path id="Vector" d="M102.928 185.84C58.1535 185.84 21.8588 192.593 21.8588 200.92C21.8588 209.247 58.1535 216 102.928 216C147.703 216 184.001 209.25 184.001 200.92C184.001 194.266 160.837 188.62 128.689 186.619C127.566 188.565 126.315 190.434 124.944 192.213L124.783 191.987L124.83 191.925C124.863 191.888 124.91 191.826 124.971 191.749C125.095 191.588 125.28 191.35 125.505 191.031C125.965 190.413 126.625 189.454 127.415 188.208C127.723 187.72 128.056 187.182 128.402 186.6C120.381 186.109 111.827 185.84 102.928 185.84Z" fill="#FCFCFC" />
		<path id="Vector_2" d="M161.65 192.624H82.0893C80.1276 192.618 78.2479 191.835 76.8607 190.444C75.4735 189.054 74.6917 187.169 74.686 185.203V7.40859C74.6917 5.44218 75.4735 3.55794 76.8607 2.16747C78.2479 0.777004 80.1276 -0.00667972 82.0893 -0.0123901H161.65C163.612 -0.00667972 165.492 0.777004 166.879 2.16747C168.266 3.55794 169.048 5.44218 169.054 7.40859V185.203C169.047 187.169 168.265 189.053 166.878 190.443C165.491 191.833 163.612 192.617 161.65 192.624Z" fill="#073241" />
		<path id="Vector_3" d="M158.068 186.35H85.8862C84.2711 186.345 82.7235 185.7 81.5815 184.555C80.4394 183.41 79.7957 181.859 79.7908 180.24V11.1376C79.7957 9.5187 80.4394 7.96745 81.5815 6.82268C82.7235 5.6779 84.2711 5.0326 85.8862 5.02771H158.068C159.684 5.0326 161.231 5.6779 162.373 6.82268C163.515 7.96745 164.159 9.5187 164.164 11.1376V180.24C164.159 181.859 163.515 183.41 162.373 184.555C161.231 185.7 159.684 186.345 158.068 186.35Z" fill="white" />
		<path id="Vector_4" d="M136.557 12.5662H106.148C105.744 12.5622 105.358 12.3996 105.073 12.1135C104.787 11.8273 104.625 11.4403 104.621 11.0356V4.01662C104.621 3.60925 104.781 3.21833 105.067 2.92883C105.353 2.63934 105.742 2.47465 106.148 2.47058H136.557C136.964 2.47465 137.352 2.63934 137.638 2.92883C137.924 3.21833 138.084 3.60925 138.084 4.01662V11.0325C138.081 11.4378 137.919 11.8255 137.633 12.1124C137.348 12.3992 136.961 12.5622 136.557 12.5662Z" fill="#073241" />
		<path id="Vector_5" d="M133.678 65.3541H115.373C111.702 65.3541 108.726 68.3374 108.726 72.0175V102.512C108.726 106.192 111.702 109.175 115.373 109.175H133.678C137.349 109.175 140.326 106.192 140.326 102.512V72.0175C140.326 68.3374 137.349 65.3541 133.678 65.3541Z" fill="#056A88" />
		<path id="Vector_6" d="M129.98 70.4684H116.608C113.926 70.4684 111.753 72.6474 111.753 75.3353V97.9755C111.753 100.663 113.926 102.842 116.608 102.842H129.98C132.662 102.842 134.836 100.663 134.836 97.9755V75.3353C134.836 72.6474 132.662 70.4684 129.98 70.4684Z" fill="white" />
		<path id="Vector_7" d="M111.184 98.5877C114.043 98.5877 116.36 97.04 116.36 95.1308C116.36 93.2216 114.043 91.6738 111.184 91.6738C108.325 91.6738 106.008 93.2216 106.008 95.1308C106.008 97.04 108.325 98.5877 111.184 98.5877Z" fill="#053241" />
		<path id="Vector_8" d="M138.049 98.5877C140.907 98.5877 143.225 97.04 143.225 95.1308C143.225 93.2216 140.907 91.6738 138.049 91.6738C135.19 91.6738 132.873 93.2216 132.873 95.1308C132.873 97.04 135.19 98.5877 138.049 98.5877Z" fill="#053241" />
		<path id="Vector_9" d="M141.735 93.5415H106.844C104.8 93.5415 103.143 95.2027 103.143 97.252V123.665C103.143 125.714 104.8 127.375 106.844 127.375H141.735C143.78 127.375 145.437 125.714 145.437 123.665V97.252C145.437 95.2027 143.78 93.5415 141.735 93.5415Z" fill="#FAEE43" />
		<path id="Vector_10" d="M127.086 107.719C127.087 106.946 126.882 106.188 126.492 105.521C126.101 104.855 125.54 104.306 124.867 103.93C124.194 103.555 123.432 103.367 122.662 103.386C121.892 103.405 121.14 103.63 120.486 104.038C119.832 104.446 119.298 105.022 118.941 105.706C118.584 106.391 118.416 107.159 118.454 107.93C118.493 108.702 118.737 109.449 119.16 110.094C119.584 110.739 120.172 111.259 120.864 111.599C120.805 111.8 120.774 112.008 120.772 112.218V116.262C120.772 116.86 121.009 117.433 121.43 117.856C121.852 118.279 122.424 118.516 123.02 118.516C123.617 118.516 124.189 118.279 124.61 117.856C125.032 117.433 125.269 116.86 125.269 116.262V112.233C125.27 111.933 125.21 111.637 125.093 111.361C125.704 110.97 126.206 110.432 126.554 109.795C126.902 109.159 127.085 108.445 127.086 107.719Z" fill="white" />
		<path id="Vector_11" d="M143.658 127.375H141.582C141.381 127.374 141.188 127.294 141.046 127.151C140.904 127.009 140.824 126.816 140.823 126.614V94.3022C140.824 94.1007 140.904 93.9077 141.046 93.7652C141.188 93.6227 141.381 93.5423 141.582 93.5415H143.673C143.874 93.5423 144.067 93.6227 144.209 93.7652C144.351 93.9077 144.431 94.1007 144.432 94.3022V126.614C144.432 126.716 144.412 126.816 144.373 126.909C144.334 127.002 144.276 127.087 144.204 127.158C144.132 127.229 144.047 127.284 143.953 127.322C143.859 127.359 143.759 127.377 143.658 127.375Z" fill="#FFC415" />
		<path id="Vector_12" d="M20.2146 143.222L1.185 124.147C0.426614 123.382 0.000976562 122.347 0.000976562 121.268C0.000976562 120.189 0.426614 119.155 1.185 118.389L12.6971 106.85C13.4605 106.089 14.4929 105.663 15.569 105.663C16.6451 105.663 17.6775 106.089 18.4409 106.85L37.4735 125.922C38.2319 126.687 38.6576 127.722 38.6576 128.8C38.6576 129.879 38.2319 130.914 37.4735 131.679L25.9614 143.219C25.1983 143.98 24.1655 144.408 23.0886 144.409C22.0118 144.409 20.9785 143.982 20.2146 143.222Z" fill="#053241" />
		<path id="Vector_13" d="M114.403 101.432C115.412 100.795 112.944 101.046 109.508 97.5704C108.724 96.7788 113.552 100.443 114.937 99.6359C116.192 98.9031 113.496 99.5462 109.406 96.2068C108.9 95.7955 112.583 98.0775 113.308 97.1622C113.783 96.5624 111.457 96.853 109.039 94.3794C105.519 90.74 104.915 88.962 102.651 88.5415C98.8039 87.8242 90.3117 89.432 83.2632 90.9688C81.5419 91.3429 78.0685 78.9097 71.1279 70.3385C67.818 66.2477 64.542 64.7727 64.0084 69.9674C63.3914 76.1083 76.2639 96.08 79.5029 98.1888C83.004 100.468 98.4122 91.9552 101.448 93.2013C103.061 93.863 103.264 98.4578 103.86 98.3991C104.455 98.3403 104.637 95.8079 104.841 95.978C105.902 96.8716 106.574 97.8765 107.5 98.9216C110.714 102.539 112.744 102.858 113.268 102.632C114.194 102.243 111.417 101.633 110.588 99.8492C110.476 99.5833 113.487 102.011 114.403 101.432Z" fill="#91693C" />
		<path id="Vector_14" d="M102.518 91.748C100.923 88.4519 83.7968 97.1437 80.7183 94.3515C78.2999 92.1593 67.3615 76.3742 64.1904 68.8326C64.1066 69.2026 64.0458 69.5775 64.0084 69.9551C63.3914 76.0959 76.264 96.0676 79.5029 98.1764C81.3537 99.3731 86.462 97.5951 91.3513 95.8141C95.7748 94.2062 99.9885 92.5983 101.448 93.1889C103.005 93.829 103.249 98.1517 103.801 98.3774C103.493 97.255 103.443 93.6682 102.518 91.748Z" fill="#5F3A1A" />
		<path id="Vector_15" d="M82.9418 191.644C81.5506 191.461 80.8534 191.362 80.3907 191.851C79.4653 192.85 81.9917 196.288 82.6888 194.884C83.386 193.48 82.9418 191.644 82.9418 191.644Z" fill="#DD6326" />
		<path id="Vector_16" d="M45.7278 108.826C38.4633 121.407 43.5685 128.572 46.2676 147.477C47.4274 155.59 45.5458 158.691 45.0337 165.494C44.5216 172.297 46.8352 181.09 46.0763 190.231C45.6414 195.469 49.8181 195.722 49.8767 190.357C49.9785 180.772 54.9079 171.759 54.294 162.495C53.5321 151.026 59.3468 146.555 62.4808 126.954C66.0375 134.409 77.4725 145.417 76.069 152.275C73.339 165.608 80.4585 177.358 81.276 193.521C81.4487 196.95 90.0582 198.035 86.3781 191.876C82.698 185.716 92.5753 148.985 76.032 110.177C72.6357 102.196 50.7805 100.078 45.7278 108.826Z" fill="#07404F" />
		<path id="Vector_17" d="M66.0905 115.77C71.7879 133.559 79.7033 138.281 81.0513 150.89C82.3993 163.5 81.2673 190.073 85.8234 193.153C86.1905 193.4 86.829 194.244 87.0573 195.422C87.4768 194.723 87.3997 193.567 86.3848 191.879C82.6955 185.719 92.5758 148.985 76.0325 110.177C73.719 104.75 62.8916 102.038 54.5938 103.6C59.5848 118.417 61.4511 101.293 66.0905 115.77Z" fill="#056A88" />
		<path id="Vector_18" d="M57.7212 145.498C50.9749 143.896 48.467 162.612 48.103 189.331C48.0841 190.986 47.9574 192.639 47.7236 194.278C48.7385 194.386 49.8428 193.116 49.8829 190.373C49.9847 180.787 54.9141 171.774 54.3002 162.51C53.8529 155.921 55.5804 151.645 57.7212 145.498Z" fill="#056A88" />
		<path id="Vector_19" d="M99.7869 200.499C99.9905 199.733 100.077 197.454 98.9571 196.947C96.5819 195.874 88.9225 192.816 86.6183 190.586C86.6183 190.586 83.0801 192.206 85.0111 193.919C85.0111 193.919 79.4586 193.635 80.4057 191.851C79.6993 192.346 79.1718 197.395 79.3198 197.945C79.4957 198.598 83.9315 198.854 88.1329 199.934C93.7008 201.362 99.6728 200.942 99.7869 200.499Z" fill="#DD6326" />
		<g id="Group">
			<path id="Vector_20" d="M100.457 198.434C99.7843 199.646 92.9116 199.795 87.9143 198.381C83.2348 197.058 79.6411 197.005 78.799 196.121L77.5127 200.082C77.5127 200.082 98.0661 201.52 99.7473 201.511C99.7504 201.511 102.641 198.01 100.457 198.434Z" fill="white" />
		</g>
		<path id="Vector_21" d="M90.2702 192.964C89.935 193.068 89.6138 193.214 89.314 193.397L88.586 193.889C88.3207 194.068 88.0462 194.263 87.676 194.482C87.5873 194.074 87.6418 193.648 87.8302 193.276C88.0114 192.899 88.2919 192.578 88.6415 192.349C88.9932 192.117 88.9037 192.191 89.2862 192.401C89.6687 192.612 90.042 192.853 90.2702 192.964Z" fill="white" />
		<path id="Vector_22" d="M92.7082 193.354C92.3577 193.451 92.0169 193.58 91.6903 193.74C91.4096 193.876 91.1535 194.022 90.8913 194.173C90.6291 194.325 90.3731 194.482 90.0986 194.662C89.824 194.841 89.5371 195.036 89.1731 195.295C89.0714 194.864 89.1411 194.409 89.3675 194.028C89.579 193.642 89.8915 193.321 90.2713 193.1C90.657 192.878 91.0978 192.771 91.5422 192.791C91.7656 192.794 91.9856 192.847 92.1869 192.944C92.3883 193.041 92.5661 193.181 92.7082 193.354Z" fill="white" />
		<path id="Vector_23" d="M94.4327 194.158C94.0595 194.245 93.6966 194.371 93.35 194.535C93.0415 194.674 92.7515 194.819 92.4678 194.971C92.184 195.122 91.9002 195.28 91.6102 195.462C91.2798 195.664 90.9644 195.889 90.6663 196.136C90.6113 195.91 90.6035 195.675 90.6433 195.446C90.6831 195.217 90.7697 194.998 90.8976 194.804C91.1411 194.412 91.4835 194.091 91.8902 193.873C92.297 193.656 92.7537 193.551 93.2143 193.567C93.4482 193.57 93.6786 193.624 93.8892 193.726C94.0998 193.828 94.2854 193.975 94.4327 194.158Z" fill="white" />
		<path id="Vector_24" d="M96.1532 194.949C95.7584 195.026 95.3735 195.148 95.0057 195.311C94.6695 195.45 94.3517 195.595 94.0402 195.75C93.7286 195.905 93.4232 196.059 93.1148 196.245C92.7673 196.447 92.4435 196.688 92.1493 196.962C92.09 196.724 92.0831 196.476 92.1289 196.236C92.1747 195.995 92.2721 195.767 92.4145 195.568C92.6849 195.168 93.0565 194.848 93.4911 194.64C93.9192 194.429 94.3935 194.33 94.87 194.352C95.1143 194.352 95.3558 194.405 95.5775 194.508C95.7992 194.611 95.9957 194.762 96.1532 194.949Z" fill="white" />
		<path id="Vector_25" d="M87.9085 198.381C83.2289 197.058 80.2275 197.219 79.3854 196.334C79.3854 196.334 79.154 197.88 79.4039 198.078C80.1627 198.697 82.0136 198.48 86.2612 199.547C91.7921 200.935 95.4567 201.047 97.2181 200.889C97.4711 200.53 97.3724 200.632 97.4772 200.218C97.5541 199.925 97.5657 199.619 97.5112 199.321C94.2806 199.532 91.0374 199.214 87.9085 198.381Z" fill="#B5DBAF" />
		<path id="Vector_26" d="M87.6766 194.482C87.9851 194.303 88.2164 194.142 88.4385 193.991C88.1887 193.876 87.9419 193.762 87.6982 193.644C87.6199 193.917 87.6125 194.206 87.6766 194.482Z" fill="#B5DBAF" />
		<path id="Vector_27" d="M89.1701 195.308C89.5279 195.054 89.8086 194.863 90.0955 194.689L89.2441 194.337C89.1185 194.645 89.0926 194.984 89.1701 195.308Z" fill="#B5DBAF" />
		<path id="Vector_28" d="M90.6659 196.136C90.964 195.889 91.2795 195.664 91.6099 195.462C91.6654 195.425 91.724 195.394 91.7795 195.36L90.8047 194.974C90.6152 195.33 90.5657 195.745 90.6659 196.136Z" fill="#B5DBAF" />
		<path id="Vector_29" d="M92.1527 196.962C92.4469 196.688 92.7707 196.447 93.1182 196.245C93.2323 196.177 93.3465 196.115 93.4637 196.05C93.1182 195.902 92.7604 195.741 92.3933 195.608C92.2593 195.803 92.1686 196.025 92.1271 196.259C92.0856 196.492 92.0943 196.732 92.1527 196.962Z" fill="#B5DBAF" />
		<path id="Vector_30" opacity="0.15" d="M98.9572 196.947C96.582 195.874 88.9227 192.816 86.6184 190.586C85.9588 190.896 85.3625 191.326 84.8601 191.854L84.9187 191.903C88.8332 195.329 98.4853 196.288 97.4704 200.218C97.4079 200.456 97.3199 200.686 97.2082 200.904C98.7351 200.852 99.7284 200.679 99.7747 200.499C99.9906 199.733 100.077 197.454 98.9572 196.947Z" fill="white" />
		<path id="Vector_31" d="M50.7374 190.611C50.4289 187.902 45.3792 188.836 45.2558 190.422C45.1324 192.009 44.7746 195.874 43.2878 198.728C42.202 200.815 42.5906 202.828 42.5505 203.425C42.4888 204.315 52.5512 204.065 52.5296 202.942C52.508 201.82 52.6314 199.736 51.817 198.613C49.6793 195.694 51.0551 193.317 50.7374 190.611Z" fill="#DD6326" />
		<path id="Vector_32" d="M45.8542 192.343C46.1196 192.06 46.4502 191.848 46.8167 191.724C47.1514 191.602 47.5032 191.533 47.8593 191.52C48.2187 191.505 48.5781 191.549 48.9235 191.65C49.3096 191.748 49.6556 191.964 49.9137 192.268C49.5801 192.413 49.2356 192.531 48.8834 192.621C48.5627 192.698 48.2352 192.744 47.9056 192.757C47.5721 192.769 47.2383 192.747 46.9092 192.692C46.5437 192.623 46.189 192.505 45.8542 192.343Z" fill="white" />
		<path id="Vector_33" d="M45.8542 193.734C46.1259 193.449 46.4641 193.237 46.8383 193.116C47.1795 192.994 47.5375 192.926 47.8994 192.915C48.2641 192.901 48.6285 192.946 48.9791 193.048C49.3709 193.144 49.7232 193.36 49.9878 193.666C49.6484 193.809 49.2988 193.927 48.942 194.018C48.6152 194.096 48.2814 194.141 47.9457 194.151C47.6069 194.163 47.2678 194.139 46.9339 194.08C46.5606 194.012 46.1977 193.896 45.8542 193.734Z" fill="white" />
		<path id="Vector_34" d="M45.8542 195.125C46.1331 194.84 46.4773 194.628 46.8568 194.507C47.2039 194.388 47.5667 194.322 47.9333 194.309C48.3033 194.295 48.6731 194.341 49.0284 194.445C49.424 194.544 49.7808 194.759 50.0525 195.064C49.707 195.207 49.3513 195.323 48.9883 195.413C48.6551 195.49 48.3152 195.533 47.9734 195.543C47.6284 195.553 47.2832 195.528 46.9432 195.469C46.5664 195.404 46.2 195.289 45.8542 195.125Z" fill="white" />
		<path id="Vector_35" d="M45.8542 196.517C46.139 196.23 46.4896 196.018 46.8753 195.898C47.2289 195.78 47.5978 195.715 47.9704 195.704C48.3455 195.692 48.7201 195.739 49.0809 195.843C49.4814 195.94 49.8436 196.155 50.1204 196.461C49.7691 196.605 49.4071 196.721 49.0377 196.808C48.6981 196.883 48.352 196.926 48.0043 196.934C47.654 196.944 47.3037 196.918 46.9586 196.857C46.5773 196.792 46.2061 196.678 45.8542 196.517Z" fill="white" />
		<path id="Vector_36" d="M53.1773 203.653C50.6386 207.15 41.3197 205.017 41.3197 205.017L41.696 201.665C44.4383 200.738 53.2822 201.545 53.2822 201.545L53.1773 203.653Z" fill="white" />
		<path id="Vector_37" d="M46.3724 203.969C46.283 203.128 46.175 202.271 45.9714 201.229C44.8104 201.218 43.6511 201.322 42.5104 201.538L42.5289 203.523C42.5289 203.523 43.044 203.879 44.9596 203.935C45.4293 203.978 45.9013 203.989 46.3724 203.969Z" fill="#B5DBAF" />
		<path id="Vector_38" opacity="0.15" d="M51.8172 198.61C49.6795 195.688 51.0553 193.31 50.7376 190.605C50.5864 189.319 49.3711 188.855 48.1218 188.892C48.2698 192.868 48.5259 197.726 46.8663 198.428C44.7533 199.318 46.018 202.076 46.3758 203.956C49.1952 203.956 52.5452 203.585 52.5298 202.936C52.5082 201.82 52.6316 199.736 51.8172 198.61Z" fill="white" />
		<path id="Vector_39" d="M46.8167 191.715C46.4502 191.839 46.1196 192.051 45.8542 192.333C46.1894 192.493 46.5441 192.607 46.9092 192.673C47.2383 192.728 47.5721 192.75 47.9056 192.738C48.0135 192.738 48.1215 192.738 48.2295 192.71C48.2295 192.315 48.2295 191.913 48.211 191.511C48.0938 191.505 47.9764 191.505 47.8593 191.511C47.5032 191.523 47.1514 191.592 46.8167 191.715Z" fill="#B5DBAF" />
		<path id="Vector_40" d="M46.8383 193.109C46.4641 193.23 46.1259 193.443 45.8542 193.728C46.1978 193.889 46.5607 194.004 46.9339 194.071C47.2678 194.13 47.6069 194.154 47.9457 194.142C48.0351 194.142 48.1215 194.142 48.211 194.121C48.2264 193.728 48.2295 193.323 48.2295 192.908C48.1184 192.908 48.0074 192.908 47.8994 192.908C47.5375 192.92 47.1795 192.988 46.8383 193.109Z" fill="#B5DBAF" />
		<path id="Vector_41" d="M46.8568 194.501C46.4773 194.622 46.1331 194.834 45.8542 195.119C46.2002 195.281 46.5665 195.396 46.9432 195.459C47.2832 195.519 47.6284 195.544 47.9734 195.534H48.1153C48.1554 195.147 48.1863 194.736 48.2048 194.297C48.1123 194.297 48.0228 194.297 47.9333 194.297C47.5664 194.311 47.2036 194.38 46.8568 194.501Z" fill="#B5DBAF" />
		<path id="Vector_42" d="M46.8807 195.895C46.495 196.015 46.1444 196.227 45.8596 196.514C46.2113 196.676 46.5825 196.791 46.9639 196.857C47.2634 196.909 47.5669 196.934 47.8708 196.931C47.9769 196.525 48.0542 196.112 48.1022 195.694H47.9757C47.6029 195.707 47.2339 195.775 46.8807 195.895Z" fill="#B5DBAF" />
		<path id="Vector_43" d="M54.1926 66.1766C57.3174 66.4518 60.4175 67.0671 65.7603 66.4672C71.103 65.8674 67.6389 87.985 75.9398 109.064C83.8984 129.348 37.5691 119.101 45.5708 108.065C59.0788 89.4352 35.817 64.5563 54.1926 66.1766Z" fill="#E6E7E8" />
		<path id="Vector_44" d="M75.928 109.064C67.6393 87.985 71.1004 65.8674 65.7484 66.4673C60.3964 67.0671 57.3055 66.4518 54.1807 66.1766C48.4802 65.6757 46.7774 67.7227 46.7589 71.3435C48.5604 71.0343 50.3125 70.9415 51.9135 70.8178C64.0765 69.8902 57.8485 92.4995 67.4728 120.6C74.1604 120.071 78.9633 116.757 75.928 109.064Z" fill="#F1F2F2" />
		<path id="Vector_45" d="M68.0396 56.6839C68.8231 56.922 70.0415 57.358 70.0446 57.2466L70.2081 56.1366L68.0396 56.6839Z" fill="white" />
		<path id="Vector_46" d="M69.5662 50.2833C69.8747 48.6507 69.4089 46.5728 69.4089 46.5728C68.2428 41.4864 59.7229 38.8024 55.6048 43.3385C55.2498 43.7294 54.9394 44.1588 54.6794 44.6186C52.2918 48.7837 54.448 52.9982 55.6788 55.5893C59.0936 62.7784 56.6937 65.4314 55.1729 66.2044C53.5041 67.0516 64.0507 68.9471 63.1932 66.7548C62.4621 64.8996 62.0765 62.33 63.4677 61.0375C64.1402 60.4191 67.4408 61.7673 68.1256 61.2633C68.94 60.6634 68.3755 59.1792 69.6186 58.7649C69.6186 58.7649 67.7431 57.0024 67.8017 56.8911C67.8603 56.7798 70.6397 56.2479 70.615 56.1923C70.1122 54.9554 71.5959 55.4656 71.4972 54.4607C71.2844 52.4199 69.0603 52.9734 69.5662 50.2833Z" fill="#91693C" />
		<path id="Vector_47" d="M56.3678 65.2274C57.1506 65.5406 57.9963 65.6635 58.8356 65.5861C60.7111 65.3758 60.9208 64.5811 62.3922 63.3288C62.4416 63.2886 62.494 63.2454 62.5496 63.2083C62.5671 62.3885 62.8984 61.6069 63.475 61.0252C63.8205 60.716 64.8662 60.9077 65.8934 61.1118C66.2605 61.186 66.6245 61.2572 66.9545 61.3066C62.858 59.7204 57.3241 54.5783 58.8201 49.9061C59.3044 48.4003 63.1572 51.9593 69.5056 51.0286C69.5044 50.7783 69.5292 50.5285 69.5796 50.2834C69.7212 49.3203 69.715 48.3411 69.5611 47.3799C68.2748 46.0039 66.8651 44.4486 66.6152 43.2365C66.5767 43.0645 66.5841 42.8853 66.6368 42.7171C63.4688 40.5124 58.4808 40.1723 55.6182 43.3355C55.2632 43.7264 54.9528 44.1557 54.6928 44.6156C52.3052 48.7806 54.4614 52.9951 55.6922 55.5863C58.2464 60.9789 57.5276 63.8205 56.3678 65.2274Z" fill="#5F3A1A" />
		<path id="Vector_48" d="M68.0457 51.6994C68.2638 51.6994 68.4406 51.3561 68.4406 50.9326C68.4406 50.5091 68.2638 50.1658 68.0457 50.1658C67.8277 50.1658 67.6509 50.5091 67.6509 50.9326C67.6509 51.3561 67.8277 51.6994 68.0457 51.6994Z" fill="black" />
		<path id="Vector_49" d="M67.6477 56.5788C68.0487 56.789 70.4825 55.9201 70.5165 55.9603C70.8003 56.2695 70.6584 56.8045 70.5165 56.8416C69.8995 57.0086 69.0266 56.823 67.9747 56.8107C68.4374 57.2405 69.4337 57.6146 69.8039 58.0073C70.2851 58.5175 69.4553 58.8545 69.4553 58.8545C68.5923 58.3467 67.9481 57.5357 67.6477 56.5788Z" fill="#EC008C" />
		<path id="Vector_50" d="M74.3358 45.6792C74.4037 48.7033 71.5843 51.4305 65.4766 49.2722C61.013 47.6953 57.0769 43.0603 54.0045 45.9668C54.4333 40.0084 61.4819 37.6769 67.2225 39.2632C71.7817 40.5278 74.2772 43.2551 74.3358 45.6792Z" fill="#3C2415" />
		<path id="Vector_51" d="M70.7325 49.903C61.429 49.031 67.9562 40.7813 62.5055 38.8271C58.187 39.1766 54.3126 41.5946 53.9979 45.9667C57.0826 43.0602 61.0064 47.6952 65.47 49.2722C67.6817 50.0545 69.4616 50.1998 70.8312 49.9091L70.7325 49.903Z" fill="black" />
		<path id="Vector_52" d="M59.1586 55.5144C59.8641 55.1161 59.9258 53.8851 59.2964 52.7649C58.667 51.6447 57.5848 51.0595 56.8793 51.4578C56.1737 51.8561 56.1121 53.0871 56.7415 54.2073C57.3709 55.3275 58.4531 55.9127 59.1586 55.5144Z" fill="#91693C" />
		<path id="Vector_53" d="M111.368 34.9219L32.2788 115.826C30.5329 117.598 27.8553 118.525 26.3222 117.885C24.7891 117.245 24.9588 115.248 26.6986 113.467L105.8 32.5657C107.543 30.7847 110.223 29.8571 111.756 30.5064C113.29 31.1557 113.108 33.1409 111.368 34.9219Z" fill="#053241" />
		<path id="Vector_54" d="M103.279 62.16L97.5414 67.7567C97.3668 67.929 97.1587 68.0636 96.9301 68.1521C96.7015 68.2406 96.4572 68.2812 96.2123 68.2714C95.9675 68.2615 95.7272 68.2014 95.5064 68.0948C95.2856 67.9882 95.089 67.8373 94.9287 67.6515L88.3891 60.2306C88.056 59.8447 87.8809 59.3467 87.8993 58.8367C87.9176 58.3267 88.1279 57.8426 88.4878 57.4817L94.2254 51.8851C94.4 51.7127 94.6081 51.5781 94.8367 51.4896C95.0653 51.4011 95.3096 51.3605 95.5545 51.3703C95.7993 51.3802 96.0396 51.4403 96.2604 51.5469C96.4812 51.6535 96.6778 51.8044 96.8381 51.9902L103.378 59.4112C103.711 59.797 103.886 60.2951 103.868 60.805C103.849 61.315 103.639 61.7991 103.279 62.16Z" fill="#056A88" />
		<path id="Vector_55" d="M121.79 51.6099L117.237 56.0655C117.062 56.2379 116.854 56.3725 116.625 56.461C116.397 56.5495 116.152 56.5901 115.908 56.5803C115.663 56.5704 115.422 56.5103 115.202 56.4037C114.981 56.2971 114.784 56.1462 114.624 55.9604L104.358 44.3095C104.025 43.9236 103.85 43.4256 103.868 42.9156C103.886 42.4056 104.097 41.9215 104.457 41.5606L109.01 37.1204C109.184 36.9481 109.392 36.8135 109.621 36.725C109.85 36.6364 110.094 36.5958 110.339 36.6057C110.584 36.6155 110.824 36.6756 111.045 36.7823C111.266 36.8889 111.462 37.0397 111.622 37.2255L121.888 48.8765C122.217 49.2614 122.389 49.7561 122.371 50.2625C122.353 50.7688 122.145 51.2498 121.79 51.6099Z" fill="#056A88" />
		<path id="Vector_56" d="M39.9807 101.519L38.5802 100.013C37.0995 98.4176 37.2075 97.1808 38.8177 97.2642C40.4279 97.3477 42.9605 98.7206 44.4411 100.316L45.8416 101.822C47.3223 103.417 47.2143 104.654 45.6041 104.571C43.9939 104.487 41.4613 103.105 39.9807 101.519Z" fill="#13AF4B" />
		<path id="Vector_57" d="M34.1572 107.249L32.7567 105.743C31.276 104.147 31.384 102.91 32.9942 102.994C34.6045 103.077 37.137 104.45 38.6177 106.046L40.0181 107.552C41.4988 109.147 41.3908 110.384 39.7806 110.3C38.1704 110.217 35.6409 108.844 34.1572 107.249Z" fill="#13AF4B" />
		<path id="Vector_58" d="M29.1256 113.547L27.7251 112.032C26.2444 110.437 26.3524 109.2 27.9626 109.283C29.5728 109.367 32.1054 110.74 33.586 112.335L34.9865 113.841C36.4672 115.436 36.3592 116.673 34.749 116.59C33.1388 116.506 30.6062 115.143 29.1256 113.547Z" fill="#13AF4B" />
		<path id="Vector_59" d="M14.1673 111.495L5.80668 119.875C4.65503 121.03 4.65504 122.901 5.80669 124.056L20.6063 138.891C21.7579 140.045 23.6251 140.045 24.7768 138.891L33.1374 130.51C34.289 129.356 34.289 127.484 33.1374 126.33L18.3378 111.495C17.1862 110.34 15.319 110.34 14.1673 111.495Z" fill="white" />
		<path id="Vector_60" d="M110.846 34.9374L58.7144 87.1935C58.6653 87.2433 58.6377 87.3105 58.6377 87.3805C58.6377 87.4506 58.6653 87.5178 58.7144 87.5676L59.0908 87.9448C59.1404 87.9941 59.2075 88.0218 59.2774 88.0218C59.3473 88.0218 59.4144 87.9941 59.464 87.9448L111.596 35.6888C111.645 35.639 111.672 35.5718 111.672 35.5017C111.672 35.4316 111.645 35.3644 111.596 35.3146L111.219 34.9374C111.17 34.8881 111.103 34.8605 111.033 34.8605C110.963 34.8605 110.896 34.8881 110.846 34.9374Z" fill="#13AF4B" />
		<path id="Vector_61" d="M55.5178 86.8842C56.0207 86.909 61.169 85.7093 62.1346 85.7247C62.7022 85.7247 62.7207 86.6523 62.0143 86.7606C62.4122 86.977 62.1346 87.4594 61.7736 87.6511C61.567 87.7624 58.8679 90.3103 55.0212 91.309C47.8554 93.1643 46.4364 96.3769 43.0895 98.0064C38.6352 100.171 35.5628 99.5154 34.6528 98.1394C33.7429 96.7634 38.9344 75.0323 48.423 67.1692C49.2343 66.4982 51.8162 72.7844 50.7952 77.5029C49.3392 84.2374 43.9286 90.2515 44.6257 90.066C50.8599 88.3808 51.7884 83.5726 53.3493 83.6499C54.0754 83.7232 54.7964 83.8399 55.5086 83.9993L55.3266 85.0321C55.3266 85.0321 58.254 84.8064 58.9295 84.6827C59.8735 84.5095 60.1789 85.2021 59.3768 85.5423C58.5748 85.8824 55.5178 86.8842 55.5178 86.8842Z" fill="#91693C" />
		<path id="Vector_62" d="M55.5186 83.9932C55.5186 83.9932 57.3417 84.2003 56.3083 84.9517C56.3083 84.9517 57.3479 84.7384 57.5422 85.4341C57.7365 86.1298 56.6569 86.5008 56.6569 86.5008C56.6569 86.5008 57.2738 86.0648 57.8229 86.473C58.372 86.8812 57.6348 87.6665 57.6348 87.6665C57.6348 87.6665 57.5638 87.8923 57.6749 88.0005C57.7236 88.0402 57.7849 88.061 57.8476 88.0592C58.1221 88.0592 60.6393 87.8737 61.7621 86.7606C61.9169 86.6146 62.0632 86.4597 62.2001 86.2968C62.4531 85.9504 62.5333 85.6536 62.7461 85.6351C62.8084 85.6334 62.8697 85.6506 62.922 85.6845C63.1903 85.8453 62.9744 86.7204 62.1014 87.5583C61.2284 88.3963 58.5355 89.9021 57.9679 90.1773C56.9425 90.6447 55.886 91.0404 54.8061 91.3616C53.529 91.7357 51.1044 92.45 50.435 92.9849C49.7656 93.5198 48.2418 94.163 45.592 96.3336C42.9423 98.5043 37.797 100.489 35.1904 98.6898C35.1904 98.6898 34.5364 98.5321 34.5395 97.2489C34.5395 97.2489 34.1385 99.6019 37.6489 97.9848C41.1593 96.3676 41.3043 96.8562 45.8635 93.3838C50.4227 89.9114 53.2946 89.8867 53.2946 89.8867C53.2946 89.8867 52.9121 89.3796 53.603 88.5509C53.603 88.5509 53.9424 88.3808 53.4611 87.8892C52.9799 87.3975 53.2113 87.1996 53.4365 86.3802C53.4365 86.3802 53.6832 86.1947 53.2483 85.7618C52.8134 85.3289 53.054 85.3258 53.0046 84.5466C53 84.251 52.9711 83.9563 52.9182 83.6654C53.7946 83.676 54.6669 83.786 55.5186 83.9932Z" fill="#5F3A1A" />
	</g>
	<defs>
		<clipPath id="clip0_68_103975">
			<rect width="184" height="216" fill="white" />
		</clipPath>
	</defs>
</svg>
