<svg width="193" height="214" viewBox="0 0 193 214" fill="none" xmlns="http://www.w3.org/2000/svg">
	<g id="Layer_1-2">
		<path id="Vector" d="M96.6695 210.278C149.052 210.278 189 170.215 189 118.648C189 67.0811 149.052 25.2778 96.6695 25.2778C44.2869 25.2778 4 67.1929 4 118.76C4 170.327 44.2869 210.278 96.6695 210.278Z" stroke="#0FAF4B" stroke-width="7" stroke-miterlimit="10" />
		<g id="Mask group">
			<mask id="mask0_3030_7081" style="mask-type:luminance" maskUnits="userSpaceOnUse" x="5" y="30" width="182" height="177">
				<path id="clippath" d="M95.9443 206.655C145.888 206.655 186.376 167.285 186.376 118.721C186.376 70.1567 145.888 30.7875 95.9443 30.7875C46.0005 30.7875 5.5131 70.1567 5.5131 118.721C5.5131 167.285 46.0005 206.655 95.9443 206.655Z" fill="white" />
			</mask>
			<g mask="url(#mask0_3030_7081)">
				<g id="Group">
					<g id="Group_2">
						<g id="Group_3">
							<path id="Vector_2" d="M145.294 196.139C136.692 158.683 166.781 130.418 151.203 111.587C135.626 92.7563 69.3463 97.0873 55.7248 103.121C28.0651 115.379 60.3804 162.295 54.7683 196.139C54.3348 198.744 75.4968 205.841 98.7465 205.832C120.442 204.691 145.759 197.387 144.426 191.577L145.294 196.139Z" fill="#F7E600" />
							<g id="Mask group_2">
								<mask id="mask1_3030_7081" style="mask-type:luminance" maskUnits="userSpaceOnUse" x="44" y="94" width="112" height="113">
									<path id="clippath-1" d="M145.201 196.114C136.63 157.403 166.607 128.19 151.087 108.728C135.568 89.2652 69.5362 93.7414 55.9657 99.9774C28.4092 112.646 58.7133 168.262 53.1222 203.241C52.2595 208.619 147.852 208.138 145.193 196.114H145.201Z" fill="white" />
								</mask>
								<g mask="url(#mask1_3030_7081)">
									<g id="Group_4">
										<path id="Vector_3" d="M143.725 123.047C164.093 149.632 171.076 242.183 154.854 226.467C138.624 210.751 123.326 249.682 123.509 269.727C123.884 309.737 14.2823 245.554 7.86515 241.561C7.52237 248.183 20.6118 117.354 36.1644 102.035C58.4371 80.1014 109.168 101.863 118.503 105.308C125.191 107.78 137.141 114.455 143.725 123.04V123.047Z" fill="#FFC41B" />
									</g>
								</g>
							</g>
						</g>
						<g id="Group_5">
							<path id="Vector_4" d="M109.473 95.6917C112.319 106.511 76.6501 109.868 77.2835 97.7916C77.7645 88.5254 78.9992 79.6651 68.4805 58.057L105.601 47.1202C105.601 47.1202 107.573 88.4551 109.473 95.6917Z" fill="#C29A6D" />
							<g id="Mask group_3">
								<mask id="mask2_3030_7081" style="mask-type:luminance" maskUnits="userSpaceOnUse" x="68" y="47" width="42" height="59">
									<path id="clippath-3" d="M109.473 95.6917C112.319 106.511 76.6501 109.868 77.2835 97.7916C77.7645 88.5254 78.9992 79.6651 68.4805 58.057L105.601 47.1202C105.601 47.1202 107.573 88.4551 109.473 95.6917Z" fill="white" />
								</mask>
								<g mask="url(#mask2_3030_7081)">
									<g id="Group_6">
										<path id="Vector_5" d="M83.8813 82.0539C85.605 87.9165 96.9094 72.0695 97.7432 79.3919C98.6251 87.0734 100.581 92.4208 109.625 98.4942C115.013 102.109 74.1643 128.775 74.1643 128.775L57.0072 57.8072C57.0072 57.8072 82.1495 76.1913 83.8732 82.0539H83.8813Z" fill="#AA7D50" />
									</g>
								</g>
							</g>
						</g>
						<g id="Group_7">
							<path id="Vector_6" d="M151.79 183.091C158.204 186.486 169.765 189.266 175.145 184.004C189.624 169.835 153.819 102.895 141.272 105.94C130.272 108.61 123.882 168.329 151.782 183.098L151.79 183.091Z" fill="#F7E600" />
							<g id="Mask group_4">
								<mask id="mask3_3030_7081" style="mask-type:luminance" maskUnits="userSpaceOnUse" x="130" y="106" width="47" height="82">
									<path id="clippath-4" d="M150.082 183.375C156.495 186.771 168.056 189.55 173.436 184.288C187.915 170.12 152.11 103.18 139.563 106.224C128.563 108.894 122.173 168.613 150.074 183.383L150.082 183.375Z" fill="white" />
								</mask>
								<g mask="url(#mask3_3030_7081)">
									<g id="Group_8">
										<path id="Vector_7" d="M169.063 204.004C169.913 183.567 151.538 123.941 132.079 112.637C116.349 103.496 133.587 193.02 139.848 195.37C146.11 197.727 169.063 203.996 169.063 203.996V204.004Z" fill="#FFC41B" />
									</g>
								</g>
							</g>
						</g>
						<g id="Group_9">
							<path id="Vector_8" d="M118.938 53.024C120.068 47.6295 118.361 42.7352 115.124 42.0923C111.888 41.4495 108.348 45.3014 107.217 50.6959C106.087 56.0904 107.795 60.9847 111.031 61.6276C114.268 62.2704 117.808 58.4185 118.938 53.024Z" fill="#C29A6D" />
							<path id="Vector_9" d="M73.2087 61.8627C76.4453 61.2199 78.1528 56.3256 77.0226 50.9311C75.8924 45.5366 72.3524 41.6846 69.1159 42.3275C65.8794 42.9704 64.1719 47.8646 65.3021 53.2591C66.4323 58.6536 69.9722 62.5056 73.2087 61.8627Z" fill="#AA7D50" />
							<g id="Group_10">
								<path id="Vector_10" d="M115.773 43.8727C115.749 66.0663 106.225 82.6862 92.0019 82.6862C77.7792 82.6862 67.9339 65.2076 67.9259 43.014C67.9259 13.1701 66.9237 12.7564 92.0661 15.676C116.96 20.3442 115.805 10.2974 115.773 43.8727Z" fill="#C29A6D" />
								<g id="Mask group_5">
									<mask id="mask4_3030_7081" style="mask-type:luminance" maskUnits="userSpaceOnUse" x="67" y="14" width="49" height="69">
										<path id="clippath-5" d="M115.773 43.8727C115.749 66.0663 106.225 82.6862 92.0019 82.6862C77.7792 82.6862 67.9339 65.2076 67.9259 43.014C67.9259 13.1701 66.9237 12.7564 92.0661 15.676C116.96 20.3442 115.805 10.2974 115.773 43.8727Z" fill="white" />
									</mask>
									<g mask="url(#mask4_3030_7081)">
										<g id="Group_11">
											<path id="Vector_11" d="M92.2986 82.6862C86.0851 78.7986 93.8619 75.7385 91.4487 72.6706C90.3904 71.3279 90.7031 69.6964 91.7053 69.1811C88.33 59.4934 95.0004 59.1811 94.5113 57.5964C94.0223 56.0117 89.3081 58.7049 87.9932 55.7229C86.8949 53.2248 91.7373 52.4598 90.6791 35.7697C90.2622 29.2592 84.2331 24.2553 91.1922 13.5136C98.1512 2.76422 73.554 -3.98832 57.9844 13.256C38.0774 35.3013 58.4895 87.7214 92.2986 82.6784V82.6862Z" fill="#AA7D50" />
										</g>
									</g>
								</g>
							</g>
							<g id="Group_12">
								<path id="Vector_12" d="M61.176 15.7306C60.0616 23.6853 64.8319 32.1787 78.6137 26.6596C96.2678 19.587 111.22 19.1264 115.525 23.7244C114.716 8.73605 101.439 -1.34983 83.5363 0.664221C71.2938 2.04596 62.3545 7.36212 61.176 15.7306Z" fill="#3B2416" />
								<g id="Mask group_6">
									<mask id="mask5_3030_7081" style="mask-type:luminance" maskUnits="userSpaceOnUse" x="61" y="0" width="55" height="29">
										<path id="clippath-6" d="M61.176 15.7306C60.0616 23.6853 64.8319 32.1787 78.6137 26.6596C96.2678 19.587 111.22 19.1264 115.525 23.7244C114.716 8.73605 101.439 -1.34983 83.5363 0.664221C71.2938 2.04596 62.3545 7.36212 61.176 15.7306Z" fill="white" />
									</mask>
									<g mask="url(#mask5_3030_7081)">
									</g>
								</g>
							</g>
							<path id="Vector_13" d="M103.997 41.8821C108.269 41.8821 111.733 39.6243 111.733 36.8391C111.733 34.054 108.269 31.7962 103.997 31.7962C99.7236 31.7962 96.2598 34.054 96.2598 36.8391C96.2598 39.6243 99.7236 41.8821 103.997 41.8821Z" fill="#AA7D50" />
							<path id="Vector_14" d="M104.543 40.7275C104.567 39.2144 103.952 37.978 103.168 37.966C102.385 37.9541 101.729 39.171 101.705 40.6841C101.681 42.1972 102.296 43.4335 103.08 43.4455C103.863 43.4575 104.518 42.2406 104.543 40.7275Z" fill="black" />
							<path id="Vector_15" d="M81.5699 43.442C82.3535 43.43 82.969 42.1937 82.9446 40.6806C82.9201 39.1675 82.2651 37.9506 81.4815 37.9626C80.6978 37.9746 80.0824 39.2109 80.1068 40.724C80.1312 42.2371 80.7862 43.454 81.5699 43.442Z" fill="black" />
							<path id="Vector_16" d="M97.1176 34.0522C97.8312 32.6705 98.9456 31.6322 100.22 30.8204C101.511 30.0319 103.042 29.462 104.766 29.4308C105.624 29.423 106.522 29.5401 107.38 29.868C108.23 30.188 109.015 30.7267 109.585 31.3824C110.755 32.6939 111.124 34.3254 110.875 35.8243C109.697 34.8016 108.719 33.9429 107.741 33.5214C106.787 33.0686 105.897 32.9749 104.83 32.9827C103.772 32.9983 102.577 33.1701 101.303 33.3965C100.02 33.6151 98.673 33.8805 97.1176 34.0444V34.0522Z" fill="#5F3A1A" />
							<path id="Vector_17" d="M87.0715 34.7627C85.5081 34.5988 84.1692 34.3334 82.8864 34.1148C81.6117 33.8884 80.4171 33.7088 79.3588 33.701C78.2925 33.701 77.4026 33.7947 76.4485 34.2397C75.4704 34.6612 74.4923 35.5199 73.3138 36.5426C73.0652 35.0437 73.434 33.4122 74.6045 32.1007C75.1818 31.445 75.9595 30.9063 76.8093 30.5863C77.6591 30.2584 78.5651 30.1335 79.423 30.1491C81.1467 30.1881 82.678 30.7502 83.9688 31.5387C85.2516 32.3505 86.358 33.381 87.0715 34.7705V34.7627Z" fill="#3B2416" />
							<g id="Group_13">
								<path id="Vector_18" d="M68.1667 48.8845C68.1667 48.8845 69.0165 92.8424 92.0343 93.2483C115.052 93.6464 115.525 49.829 115.525 49.829C115.525 49.829 107.788 58.7205 92.4271 59.1109C77.0258 59.5012 68.1667 48.8923 68.1667 48.8923V48.8845Z" fill="#5F3A1A" />
								<g id="Mask group_7">
									<mask id="mask6_3030_7081" style="mask-type:luminance" maskUnits="userSpaceOnUse" x="68" y="48" width="48" height="46">
										<path id="clippath-7" d="M68.1667 48.8845C68.1667 48.8845 69.0165 92.8424 92.0343 93.2483C115.052 93.6464 115.525 49.829 115.525 49.829C115.525 49.829 107.788 58.7205 92.4271 59.1109C77.0258 59.5012 68.1667 48.8923 68.1667 48.8923V48.8845Z" fill="white" />
									</mask>
									<g mask="url(#mask6_3030_7081)">
										<g id="Group_14">
											<path id="Vector_19" d="M101.262 90.5317C95.0488 86.6441 92.7959 79.6417 92.0343 74.1616C90.976 72.8189 92.1786 69.6105 93.1807 69.0953C88.2982 58.986 94.9926 59.1811 94.5116 57.6043C94.0226 56.0196 90.9198 58.8064 89.605 55.8166C88.5066 53.3185 91.7376 52.4598 90.6793 35.7775C90.2624 29.267 84.2334 24.2631 91.1924 13.5215C98.1515 2.77203 73.5543 -3.98051 57.9847 13.2638C38.0776 35.3091 82.8464 118.767 101.262 90.5317Z" fill="#3B2416" />
										</g>
									</g>
								</g>
							</g>
							<g id="Group_15">
								<path id="Vector_20" d="M82.5903 62.7799C88.4429 62.2959 89.1244 61.5387 92.0347 62.7565C95.0652 61.406 96.7489 61.8509 100.846 62.7018C100.196 66.082 98.192 74.1616 92.0347 74.1616C85.0436 74.1616 82.6384 65.1687 82.5903 62.7799Z" fill="#C29A6D" />
								<g id="Mask group_8">
									<mask id="mask7_3030_7081" style="mask-type:luminance" maskUnits="userSpaceOnUse" x="82" y="61" width="19" height="14">
										<path id="clippath-8" d="M82.5903 62.7799C88.4429 62.2959 89.1244 61.5387 92.0347 62.7565C95.0652 61.406 96.7489 61.8509 100.846 62.7018C100.196 66.082 98.192 74.1616 92.0347 74.1616C85.0436 74.1616 82.6384 65.1687 82.5903 62.7799Z" fill="white" />
									</mask>
									<g mask="url(#mask7_3030_7081)">
										<g id="Group_16">
											<path id="Vector_21" d="M92.2997 82.6862C86.0863 78.7986 94.4484 76.808 92.0352 73.7478C90.9769 72.4051 92.0993 69.7119 93.1015 69.2045C88.2109 59.1967 95.0016 59.1889 94.5125 57.612C94.0235 56.0273 89.8785 59.0718 88.5637 56.0898C87.4653 53.5917 91.7385 52.4754 90.6802 35.7853C90.2633 29.2747 84.2343 24.2708 91.1934 13.5292C98.1524 2.77979 73.5552 -3.97276 57.9856 13.2716C38.0786 35.3169 58.4907 87.7369 92.2997 82.694V82.6862Z" fill="#AA7D50" />
										</g>
									</g>
								</g>
							</g>
							<g id="Group_17">
								<path id="Vector_22" d="M100.557 62.9281C98.3684 63.334 94.039 66.6205 82.8468 62.9984C82.8468 62.9984 86.19 69.1498 92.0347 69.2045C96.9653 69.2513 100.557 62.9359 100.557 62.9359V62.9281Z" fill="black" />
								<g id="Mask group_9">
									<mask id="mask8_3030_7081" style="mask-type:luminance" maskUnits="userSpaceOnUse" x="82" y="62" width="19" height="8">
										<path id="clippath-9" d="M100.557 62.9281C98.3684 63.334 94.039 66.6205 82.8468 62.9984C82.8468 62.9984 86.19 69.1498 92.0347 69.2045C96.9653 69.2513 100.557 62.9359 100.557 62.9359V62.9281Z" fill="white" />
									</mask>
									<g mask="url(#mask8_3030_7081)">
										<g id="Group_18">
											<path id="Vector_23" d="M92.3313 66.3006C86.7833 66.3006 86.2301 64.6925 83.5764 61.648C80.9227 58.6035 100.028 61.5777 100.028 61.5777C100.028 61.5777 97.8152 66.3084 92.3233 66.3084L92.3313 66.3006Z" fill="white" />
										</g>
									</g>
								</g>
							</g>
						</g>
						<path id="Vector_24" d="M162.427 152.889L155.733 149.774L131.697 138.58C131.697 138.58 130.462 129.002 124.698 125.582C123.719 123.303 122.589 120.805 121.571 118.822C119.037 113.92 122.838 104.677 119.671 104.677C116.504 104.677 111.83 114.396 112.078 117.003C112.271 119.002 113.962 122.491 114.315 125.543C110.459 126.964 107.34 129.392 105.296 131.32C103.524 132.991 102.866 135.489 103.556 137.799C105.56 144.482 110.579 158.291 117.771 158.291C127.263 158.291 129.797 156.441 129.797 156.441C129.797 156.441 149.415 180.477 163.974 182.327C178.534 184.177 162.419 152.881 162.419 152.881L162.427 152.889Z" fill="#AA7D50" />
						<g id="Group_19">
							<g id="Group_20">
								<path id="Vector_25" d="M58.687 128.379C61.2686 114.218 52.6019 106.103 36.2465 125.525C26.8983 143.876 27.0426 170.363 30.5702 194.459C31.7648 202.642 20.1477 204.243 22.1681 215.238C22.6972 218.097 25.6957 219.116 26.9544 218.394C27.2992 219.854 30.5943 221.086 31.7969 220.307C32.0134 221.622 33.9055 223.176 36.4069 223.343C36.1824 225.334 41.6422 227.127 43.0612 224.97L48.3928 214.24C47.3505 218.815 48.962 222.038 51.8402 223.405C54.8307 224.824 56.4502 224.008 54.6142 221.58C52.7782 219.153 53.9247 215.529 54.1492 210.528C54.3817 205.277 47.6632 199.938 47.126 197.339C43.5182 179.768 48.3366 162.732 58.687 128.389V128.379Z" fill="#AA7D50" />
								<g id="Mask group_10">
									<mask id="mask9_3030_7081" style="mask-type:luminance" maskUnits="userSpaceOnUse" x="32" y="68" width="38" height="113">
										<path id="clippath-10" d="M69.2417 82.7649C71.8233 68.6038 63.1565 60.4887 46.8012 79.9108C37.453 98.2621 37.5973 124.749 41.1249 148.845C42.3195 157.028 30.7024 158.629 32.7228 169.624C33.2519 172.483 36.2504 173.502 37.5091 172.779C37.8539 174.24 41.149 175.472 42.3516 174.693C42.568 176.008 44.4601 177.562 46.9615 177.729C46.7371 179.72 52.1969 181.513 53.6159 179.356L58.9475 168.626C57.9052 173.201 59.5167 176.424 62.3949 177.791C65.3854 179.21 67.0049 178.394 65.1689 175.966C63.3329 173.538 64.4794 169.915 64.7039 164.914C64.9364 159.663 58.2179 154.324 57.6807 151.725C54.0729 134.153 58.8913 117.118 69.2417 82.7753V82.7649Z" fill="white" />
									</mask>
									<g mask="url(#mask9_3030_7081)">
										<g id="Group_21">
											<path id="Vector_26" d="M47.0597 118.252C30.8407 163.906 36.6612 227.21 41.9607 230.657C47.2601 234.104 -8.52442 237.259 -1.54133 222.204C5.44176 207.149 -2.63168 131.784 -5.48585 126.393C-8.34002 121.002 47.0677 118.247 47.0677 118.247L47.0597 118.252Z" fill="#AA7E51" />
										</g>
									</g>
								</g>
							</g>
							<g id="Group_22">
								<path id="Vector_27" d="M47.256 172.761C45.877 181.044 21.9532 165.187 24.8635 155.086C27.7737 144.992 41.9872 98.7417 56.6108 101.583C71.0981 104.394 50.8784 150.108 46.1 178.742L47.256 172.761Z" fill="#FFC41B" />
								<g id="Mask group_11">
									<mask id="mask10_3030_7081" style="mask-type:luminance" maskUnits="userSpaceOnUse" x="20" y="101" width="42" height="80">
										<path id="clippath-11" d="M46.092 178.742C44.713 187.025 20.7591 163.069 20.7587 160.218C23.669 150.124 41.9872 98.7421 56.6108 101.584C71.0981 104.394 50.8784 150.108 46.1 178.742H46.092Z" fill="white" />
									</mask>
									<g mask="url(#mask10_3030_7081)">
										<g id="Group_23">
											<path id="Vector_28" d="M29.3031 164.451C28.4533 144.014 46.0034 115.33 65.4615 104.027C81.1915 94.8853 53.974 171.323 47.7125 173.673C41.4509 176.031 37.8568 172.407 37.8568 172.407L29.3031 164.451Z" fill="#FFC41B" />
										</g>
									</g>
								</g>
							</g>
						</g>
						<path id="Vector_29" d="M156.062 150.688C156.062 150.688 165.322 178.432 165.242 182.413C165.242 182.413 171.696 183.49 169.659 172.39C169.659 172.39 165.602 157.518 162.435 152.889L155.741 149.775L156.062 150.688Z" fill="#CE9663" />
					</g>
				</g>
			</g>
		</g>
		<g id="Group_24">
			<path id="Vector_30" d="M119.246 52.6075C120.376 47.213 118.669 42.3188 115.432 41.6759C112.196 41.033 108.656 44.885 107.526 50.2795C106.395 55.674 108.103 60.5683 111.339 61.2111C114.576 61.854 118.116 58.0021 119.246 52.6075Z" fill="#C29A6D" />
			<path id="Vector_31" d="M73.5147 61.4456C76.7512 60.8027 78.4587 55.9084 77.3285 50.5139C76.1983 45.1194 72.6584 41.2674 69.4219 41.9103C66.1854 42.5532 64.4779 47.4475 65.6081 52.842C66.7383 58.2365 70.2782 62.0884 73.5147 61.4456Z" fill="#AA7D50" />
			<g id="Group_25">
				<path id="Vector_32" d="M116.085 43.4642C116.061 65.6578 106.536 82.2777 92.3135 82.2777C78.0908 82.2777 68.2455 64.7991 68.2375 42.6055C68.2375 12.7616 67.2353 12.3478 92.3777 15.2674C117.271 19.9357 116.117 9.88881 116.085 43.4642Z" fill="#C29A6D" />
				<g id="Mask group_12">
					<mask id="mask11_3030_7081" style="mask-type:luminance" maskUnits="userSpaceOnUse" x="68" y="14" width="49" height="69">
						<path id="clippath-12" d="M116.085 43.4642C116.061 65.6578 106.536 82.2777 92.3135 82.2777C78.0908 82.2777 68.2455 64.7991 68.2375 42.6055C68.2375 12.7616 67.2353 12.3478 92.3777 15.2674C117.271 19.9357 116.117 9.88881 116.085 43.4642Z" fill="white" />
					</mask>
					<g mask="url(#mask11_3030_7081)">
						<g id="Group_26">
							<path id="Vector_33" d="M92.6102 82.2698C86.3967 78.3822 94.1735 75.3221 91.7603 72.2542C90.702 70.9115 91.0147 69.28 92.0169 68.7647C88.6416 59.077 95.312 58.7647 94.8229 57.18C94.3339 55.5953 89.6197 58.2885 88.3049 55.3065C87.2065 52.8084 92.049 52.0434 90.9907 35.3533C90.5738 28.8428 84.5447 23.8389 91.5038 13.0972C98.4628 2.34781 73.8657 -4.40473 58.296 12.8396C38.389 34.8849 58.8011 87.305 92.6102 82.262V82.2698Z" fill="#AA7D50" />
						</g>
					</g>
				</g>
			</g>
			<g id="Group_27">
				<path id="Vector_34" d="M61.4876 15.3143C60.3732 23.269 65.1435 31.7624 78.9253 26.2433C96.5794 19.1707 111.532 18.7101 115.837 23.3081C115.019 8.32757 101.751 -1.75831 83.8479 0.255748C71.6054 1.63748 62.6661 6.95365 61.4876 15.3221V15.3143Z" fill="#3B2416" />
				<g id="Mask group_13">
					<mask id="mask12_3030_7081" style="mask-type:luminance" maskUnits="userSpaceOnUse" x="61" y="0" width="55" height="29">
						<path id="clippath-13" d="M61.4876 15.3143C60.3732 23.269 65.1435 31.7624 78.9253 26.2433C96.5794 19.1707 111.532 18.7101 115.837 23.3081C115.019 8.32757 101.751 -1.75831 83.8479 0.255748C71.6054 1.63748 62.6661 6.95365 61.4876 15.3221V15.3143Z" fill="white" />
					</mask>
					<g mask="url(#mask12_3030_7081)">
						<g id="Group_28">
							<path id="Vector_35" d="M127.574 37.5079C129.491 -25.6693 31.3424 -5.47415 50.0789 -1.8832C65.7848 1.13008 86.5417 2.05904 87.8164 21.7078C88.6502 34.5727 125.674 100.677 127.582 37.5001L127.574 37.5079Z" fill="#5F3A1A" />
						</g>
					</g>
				</g>
			</g>
			<path id="Vector_36" d="M104.308 41.4735C108.581 41.4735 112.045 39.2157 112.045 36.4306C112.045 33.6454 108.581 31.3876 104.308 31.3876C100.035 31.3876 96.5714 33.6454 96.5714 36.4306C96.5714 39.2157 100.035 41.4735 104.308 41.4735Z" fill="#AA7D50" />
			<path id="Vector_37" d="M104.859 40.3071C104.884 38.794 104.268 37.5577 103.484 37.5457C102.701 37.5337 102.046 38.7506 102.021 40.2637C101.997 41.7768 102.612 43.0131 103.396 43.0251C104.18 43.0371 104.835 41.8202 104.859 40.3071Z" fill="black" />
			<path id="Vector_38" d="M81.8768 43.0365C82.6604 43.0245 83.2759 41.7882 83.2514 40.2751C83.227 38.762 82.572 37.5451 81.7884 37.5571C81.0047 37.5691 80.3893 38.8054 80.4137 40.3185C80.4381 41.8316 81.0931 43.0485 81.8768 43.0365Z" fill="black" />
			<path id="Vector_39" d="M97.4292 33.6359C98.1428 32.2542 99.2572 31.2159 100.532 30.404C101.823 29.6156 103.354 29.0457 105.078 29.0145C105.936 29.0067 106.834 29.1238 107.691 29.4517C108.541 29.7717 109.327 30.3104 109.896 30.9661C111.067 32.2776 111.435 33.9091 111.187 35.4079C110.008 34.3853 109.03 33.5266 108.052 33.1051C107.098 32.6523 106.208 32.5586 105.142 32.5664C104.084 32.582 102.889 32.7538 101.614 32.9802C100.331 33.1987 98.9846 33.4641 97.4292 33.6281V33.6359Z" fill="#5F3A1A" />
			<path id="Vector_40" d="M87.3831 34.3541C85.8197 34.1901 84.4808 33.9247 83.198 33.7061C81.9233 33.4798 80.7287 33.3002 79.6704 33.2924C78.6041 33.2924 77.7142 33.3861 76.7601 33.831C75.782 34.2526 74.8039 35.1113 73.6253 36.1339C73.3768 34.6351 73.7456 33.0036 74.9161 31.6921C75.4934 31.0364 76.2711 30.4977 77.1209 30.1776C77.9707 29.8498 78.8767 29.7249 79.7345 29.7405C81.4583 29.7795 82.9896 30.3416 84.2804 31.13C85.5632 31.9419 86.6695 32.9723 87.3831 34.3619V34.3541Z" fill="#3B2416" />
			<g id="Group_29">
				<path id="Vector_41" d="M68.4783 48.4681C68.4783 48.4681 69.3281 92.426 92.3458 92.832C115.364 93.2301 115.837 49.4127 115.837 49.4127C115.837 49.4127 108.1 58.3042 92.7387 58.6945C77.3374 59.0849 68.4783 48.4759 68.4783 48.4759V48.4681Z" fill="#5F3A1A" />
				<g id="Mask group_14">
					<mask id="mask13_3030_7081" style="mask-type:luminance" maskUnits="userSpaceOnUse" x="68" y="48" width="48" height="45">
						<path id="clippath-14" d="M68.4783 48.4681C68.4783 48.4681 69.3281 92.426 92.3458 92.832C115.364 93.2301 115.837 49.4127 115.837 49.4127C115.837 49.4127 108.1 58.3042 92.7387 58.6945C77.3374 59.0849 68.4783 48.4759 68.4783 48.4759V48.4681Z" fill="white" />
					</mask>
					<g mask="url(#mask13_3030_7081)">
						<g id="Group_30">
							<path id="Vector_42" d="M101.574 90.1153C95.3604 86.2277 93.1075 79.2254 92.3459 73.7453C91.2876 72.4026 92.4902 69.1942 93.4923 68.6789C88.6098 58.5696 95.3042 58.7648 94.8232 57.1879C94.3341 55.6032 91.2314 58.3901 89.9166 55.4002C88.8182 52.9022 92.0492 52.0435 90.9909 35.3612C90.574 28.8506 84.545 23.8467 91.504 13.1051C98.4631 2.35569 73.8659 -4.39686 58.2963 12.8475C38.3892 34.8928 83.158 118.351 101.574 90.1153Z" fill="#3B2416" />
						</g>
					</g>
				</g>
			</g>
			<g id="Group_31">
				<path id="Vector_43" d="M82.9019 62.3635C88.7545 61.8795 89.436 61.1223 92.3463 62.3401C95.3768 60.9896 97.0605 61.4345 101.157 62.2854C100.508 65.6656 98.5036 73.7453 92.3463 73.7453C85.3552 73.7453 82.95 64.7523 82.9019 62.3635Z" fill="#C29A6D" />
				<g id="Mask group_15">
					<mask id="mask14_3030_7081" style="mask-type:luminance" maskUnits="userSpaceOnUse" x="82" y="61" width="20" height="13">
						<path id="clippath-15" d="M82.9019 62.3635C88.7545 61.8795 89.436 61.1223 92.3463 62.3401C95.3768 60.9896 97.0605 61.4345 101.157 62.2854C100.508 65.6656 98.5036 73.7453 92.3463 73.7453C85.3552 73.7453 82.95 64.7523 82.9019 62.3635Z" fill="white" />
					</mask>
					<g mask="url(#mask14_3030_7081)">
						<g id="Group_32">
							<path id="Vector_44" d="M92.6114 82.2699C86.3979 78.3823 94.76 76.3916 92.3468 73.3315C91.2885 71.9888 92.4109 69.2956 93.4131 68.7882C88.5225 58.7804 95.3132 58.7726 94.8241 57.1957C94.3351 55.611 90.1901 58.6555 88.8753 55.6734C87.7769 53.1754 92.0501 52.0591 90.9919 35.369C90.575 28.8584 84.5459 23.8545 91.505 13.1129C98.464 2.36347 73.8668 -4.38908 58.2972 12.8553C38.3902 34.9006 58.8023 87.3206 92.6114 82.2777V82.2699Z" fill="#AA7D50" />
						</g>
					</g>
				</g>
			</g>
			<g id="Group_33">
				<path id="Vector_45" d="M100.869 62.5118C98.68 62.9177 94.3506 66.2042 83.1584 62.582C83.1584 62.582 86.5016 68.7335 92.3463 68.7881C97.2769 68.835 100.869 62.5196 100.869 62.5196V62.5118Z" fill="black" />
				<g id="Mask group_16">
					<mask id="mask15_3030_7081" style="mask-type:luminance" maskUnits="userSpaceOnUse" x="83" y="62" width="18" height="7">
						<path id="clippath-16" d="M100.869 62.5118C98.68 62.9177 94.3506 66.2042 83.1584 62.582C83.1584 62.582 86.5016 68.7335 92.3463 68.7881C97.2769 68.835 100.869 62.5196 100.869 62.5196V62.5118Z" fill="white" />
					</mask>
					<g mask="url(#mask15_3030_7081)">
						<g id="Group_34">
							<path id="Vector_46" d="M92.6429 65.892C87.0949 65.892 86.5417 64.2839 83.888 61.2394C81.2343 58.1949 100.34 61.1691 100.34 61.1691C100.34 61.1691 98.1268 65.8998 92.6349 65.8998L92.6429 65.892Z" fill="white" />
						</g>
					</g>
				</g>
			</g>
		</g>
		<g id="Group_35">
			<path id="Vector_47" d="M140.379 88.9455C149.446 88.9455 156.797 81.7977 156.797 72.9806C156.797 64.1634 149.446 57.0156 140.379 57.0156C131.311 57.0156 123.96 64.1634 123.96 72.9806C123.96 81.7977 131.311 88.9455 140.379 88.9455Z" fill="#0FAF4B" />
			<path id="Vector_48" d="M148.861 67.5694C145.944 70.4861 143.028 73.8889 139.391 76.7844C137.998 74.3413 137.386 73.589 136.113 71.3645C135.63 70.5218 134.274 71.1018 134.764 71.9445C136.382 74.7741 137.134 75.8798 138.753 78.7094C139.033 79.1965 139.787 79.2042 140.06 78.7094C143.514 75.8333 147.403 71.4583 150.125 68.5417C150.591 67.6912 150.319 67.0833 149.347 67.0833L148.861 67.5694Z" fill="white" />
		</g>
	</g>
</svg>
